<?xml version="1.0" encoding="utf-8"?>
<!-- FILE PREPARED BY MAURITS KORSE FOR AEGEE LOGO GENERATION TOOL -->
<!DOCTYPE svg PUBLIC "-//W3C//DTD SVG 1.1//EN" "http://www.w3.org/Graphics/SVG/1.1/DTD/svg11.dtd">
<svg version="1.1" xmlns="http://www.w3.org/2000/svg" xmlns:xlink="http://www.w3.org/1999/xlink" x="0px" y="0px" width="600px"
	 height="415px" viewBox="0 0 600 415" enable-background="new 0 0 600 415" xml:space="preserve">

	<rect id="background" fill="{{BGCOLOR}}" width="600" height="500"/>

	<g id="AEGEE"  style="fill:{{COLOR}}">
		<g id="AEGE-E">
			<polygon points="537.465,215.651 500.92,215.651 500.92,221.255 537.465,221.255 537.465,242.456 
				478.433,242.44 478.431,200.272 537.465,200.272 					"/>
			<rect x="478.432" y="174.606"  width="59.041" height="19.913"/>
		</g>
		<g id="AEG-E-E">
			<polygon points="472.561,215.651 436.019,215.651 436.019,221.255 472.561,221.255 472.561,242.456 
				413.527,242.44 413.525,200.272 472.561,200.272 					"/>
			<rect x="413.526" y="174.606" width="59.043" height="19.913"/>
		</g>
		<g id="AE-G-EE">
			<path d="M387.824,242.44h-39.182v-42.168h22.253v20.986h14.668v-5.631h-8.713v-15.355h30.885v22.258l0,0
				C407.735,233.524,398.821,242.44,387.824,242.44z"/>
			<path d="M368.554,174.607c-10.997,0-19.911,8.915-19.911,19.911l0,0h59.093v-19.911H368.554z"/>
		</g>
		<g id="A-E-GEE">
			<polygon points="283.722,231.763 277.289,212.442 261.146,223.903 267.313,242.446 251.17,230.985 
				235.027,242.446 241.194,223.903 225.052,212.442 245.004,212.442 251.17,193.899 257.336,212.442 277.289,212.442 
				264.71,174.607 237.663,174.607 215.034,242.44 342.755,242.456 342.755,221.255 306.212,221.255 306.212,215.651 
				342.755,215.651 342.755,200.272 283.72,200.272 					"/>
			<rect x="283.721" y="174.606"  width="59.042" height="19.913"/>
		</g>

		<g transform="matrix(1 0 0 1 {{LANCHOR_X1}} {{LANCHOR_Y1}})">
			{{LTEXT1}}
		</g>		
		<g transform="matrix(1 0 0 1 {{LANCHOR_X2}} {{LANCHOR_Y2}})">
			{{LTEXT2}}
		</g>
		
	</g>

	<g id="STARS" style="fill:{{COLOR}}">
		<polygon points="200.287,68.367 205.121,83.246 220.764,83.246 208.108,92.441 212.943,107.319 200.287,98.124 
			187.631,107.319 192.466,92.441 179.811,83.246 195.453,83.246 			"/>
		<polygon points="140.673,84.613 145.507,99.492 161.15,99.492 148.494,108.687 153.328,123.564 140.673,114.369 
			128.017,123.564 132.851,108.687 120.194,99.492 135.839,99.492 			"/>
		<polygon points="99.061,126.225 103.896,141.103 119.538,141.103 106.882,150.298 111.717,165.176 
			99.061,155.981 86.404,165.176 91.239,150.298 78.583,141.103 94.227,141.103 			"/>
		<polygon points="80.537,187.972 85.371,202.849 101.015,202.849 88.358,212.046 93.192,226.923 80.537,217.728 
			67.881,226.923 72.716,212.046 60.06,202.849 75.703,202.849 			"/>
		<polygon points="99.061,245.454 103.896,260.331 119.538,260.331 106.882,269.528 111.717,284.405 99.061,275.21 
			86.404,284.405 91.239,269.528 78.583,260.331 94.227,260.331 			"/>
		<polygon points="140.673,287.065 145.507,301.944 161.15,301.946 148.494,311.14 153.328,326.017 
			140.673,316.823 128.017,326.017 132.851,311.14 120.194,301.944 135.839,301.946 			"/>
		<polygon points="200.287,307.868 205.121,322.745 220.764,322.745 208.108,331.942 212.943,346.819 
			200.287,337.624 187.631,346.819 192.466,331.942 179.811,322.745 195.453,322.745 			"/>
		<polygon points="259.901,287.065 264.735,301.944 280.38,301.944 267.724,311.14 272.557,326.017 
			259.901,316.821 247.245,326.017 252.079,311.14 239.424,301.944 255.067,301.944 			"/>
		<polygon points="301.514,245.454 306.348,260.331 321.991,260.331 309.335,269.528 314.169,284.405 
			301.514,275.21 288.857,284.405 293.691,269.528 281.036,260.331 296.679,260.331 			"/>
		<polygon points="301.514,126.225 306.347,141.103 321.991,141.103 309.335,150.298 314.169,165.176 
			301.514,155.981 288.857,165.176 293.691,150.298 281.036,141.103 296.679,141.103 			"/>
		<polygon points="259.901,84.613 264.735,99.492 280.38,99.492 267.724,108.687 272.557,123.564 259.901,114.369 
			247.245,123.564 252.079,108.687 239.424,99.492 255.067,99.492 			"/>
	</g>
	
	<path fill-rule="evenodd" style="fill:{{COLOR}}" clip-rule="evenodd" d="M204.8,258.3c0.3,0-0.1,1.1,0.6,1.2c0.7,0.1,1.1-0.8,1.1-0.8
		c-0.1-0.9,1.8-3.6,2.9-3.6c0-0.1-0.1-0.2-0.1-0.2c-3.1-2.8-0.2-3.7-0.1-5.5c0-0.4,2.3,2,2.4,2c0,0.5,0.8,0.6,1,0.1
		c0.6-1.6-1.2-1.8-1.3-3c-1.3-0.3-2.7-1.5-4-2c-3.2-1.2-1.3-0.7-1.4-2.4c0,0.1-5.2-1.4-6-3c-0.8-1.5-1.2-5.3-3.7-5.3
		c-0.1-0.4-0.5-0.5-0.6-0.9c-0.7,0.2-0.3-2-0.4-2.2c0.2,0,0.5,0.6,0.3-0.1c0.1,0,0.2,0.3,0.2-0.1c0.1-0.1,0.2-0.6-0.1-0.4
		c-0.2-0.1-0.4-0.8-0.4-1c-0.2,0.3-0.2-0.9,0.2-0.9c0.1,0.2-0.1,0.3-0.1,0.5c0.3-0.2,2.3-0.8,2.2-1.2c0-0.1-0.2,0.1-0.2,0.1
		c-0.2-0.2,0.4-0.2,0.5-0.2c0,0,0.5,0.5,0.7-0.1c1,0-0.6,2,0.6,3.1c0,1.3,2.3-0.7,1.6,0.2c-0.3-0.6,0,0.7,0,0.8
		c-0.5-0.2,0.4,1.3,0.6,1c0-0.3-0.6-0.4-0.5-0.7c0.1,0,0.1,0.1,0.2,0.2c0.1,0.1,0.3-0.2,0-0.3c0-0.1-0.2-1.4,0.2-1
		c-0.1-0.1-0.5-0.2-0.4-0.5c-0.1-0.1,0.9,1.2,0.7,0.7c-0.2,0.4-0.1,0.6,0.3,0.5c0.1,0.3,0.7,1.4,0.4,1c0.4,0,0,0.2,0.1,0.4
		c0.6-0.1,0,0.2,0,0.2c0.1,0.1,0.3,0.1,0.4,0.1c0,0.3,0.3,0.4,0.2,0.7c-0.5-0.1-0.8-0.9-1.3-0.7c-0.1,0.3,0.5,0.2,0.5,0.4
		c-0.3,0.4,1.1,1.7,1.5,1.7c0.1-0.6-0.9-0.5-0.9-1.1c0.1,0.1,0.2,0.2,0.4,0.2c-0.2,0,0-0.3,0.1,0.1c0.2,0.2,0.5,0.3,0.8,0.2
		c0,0.1,0.5,0.9,0.7,0.6c0,0.1-0.1,0.1-0.2,0.1c0-0.3-0.1,0.1-0.3,0.2c0.2,0.4,0.4-0.2,0.6-0.2c-0.1,0.3,0.8,1.7,1,0.9
		c0.7,0,4.1,0.9,3.8,2c-0.4,0-0.9-0.4-1.4-0.5c-0.1,0.4-0.3,0.5-0.7,0.3c0.3-0.1-0.4,0-0.5,0c0.2,0.1,1.6,0.7,1.6,0
		c0.3,0,2.1,0.8,2.2,1.1c0.8-0.1,1,0.9,1.8,0.9c0,0.5,2.8,2,3,2.1c0,0.1-0.1,0.1-0.2,0c0.2,0.2-0.1,0.4,0.2,0.6
		c0,0.2-0.4,0.1-0.5,0.1c0.1,0.5,0.8,2.1,0.5,2.6c-0.1-0.1-0.2-0.2-0.3-0.3c-0.4,0,0.3,2.2,0.3,2.3c0.1-0.1,0.1,0,0.1,0
		c-0.1,0.2-0.2-0.2-0.2-0.3c-0.5,1.2,1.9,0.8,1.6,2.2c0,0,0.3-0.4,0.2,0c0.2,0-1.4,0-0.3,1.1c0.1,0.5,0.4,0.7,1,0.7
		c0-0.1,0-0.3-0.1-0.5c-0.1,0.1-0.2,0.1-0.3,0.2c0-0.1,0-0.2-0.1-0.3c-0.1,0.1,0,0.1,0,0.2c-0.2,0-0.5-1.1-0.1-1.1
		c0,0,0.5,0.6,0.5,0.7c0,0.2,0.9,1,0.7,1.1c0.6,0.2,1.1,0.4,1.4,1.3c-0.7,0-0.5,0.8-0.5,1.3c0.1-0.2,0.7-0.4,0.8-0.3
		c0,0-0.1-0.1-0.2-0.1c0.1-0.2,0-0.5,0.2-0.7c0.5,0-0.2,0.9,0.3,0.7c0.1,0.5-0.3-0.2,0.2-0.2c0.4,0.3,0.2,1.5,0.9,1.3
		c0,0,0-0.1-0.1-0.1c0-0.1,0.2,0,0.2,0c0,0-0.1-0.2-0.1-0.3c0.4,0,0.5,0.4,0.9,0c0.6-0.1-1.3,1.6-1.4,1.6c-0.4,0.2,0.9,1,0.9,1.2
		c1.8,0.9,0.7,1,0.9,2.2c0,0-0.2,0,0,0.2c0.2-0.2,0.3,0.2,0.3,0.4c0.1,0,0.1,0,0.1-0.1c0.1,0,0,0.7,0.3,0.7
		c0.1-0.3,0.3-0.2,0.4,0.1c0.3,0.1,0.2-0.3,0.3-0.4c-0.3-0.5-0.1-0.7,0.4-0.9c0.1,0.1-0.1,0.2-0.1,0.3c0,0.2,0.2,0.2,0.3,0.3
		c0.1-0.3,0.9,1.1,0.6,1.1c0,0.3,0.4,0.6,0.6,0.7c0.2,0-0.2-1.5,0.2-1.3c-0.2-0.3,1,0.1,1.1,0.9c0.3-0.1,0.1-0.1,0.2-0.3
		c0,0,0.5,0.7,0.7,0.2c0,0-0.3-0.6-0.3-0.6c-0.3,0.1-0.4-0.1-0.4-0.4c0.9-0.6-1.8-2.6-1.3-3.2c0.2,0,1,0.4,1.1,0.4
		c0.1,0.2-0.2,0.2,0.1,0.5c0.1,0.1,0.1,0.1,0,0.1c-0.1,0.3,0.2,0.1,0.3,0.3c0,0,1.3-1.1,1-0.8c-0.3,0.1-0.6,0.1-0.9,0.2
		c-0.1-0.2,0.7-0.2,0.8-0.3c0-0.2,0.1-0.3-0.1-0.3c0-0.1,0.2,0,0.1-0.1c-0.1-0.1-0.1-0.1-0.2-0.2c-0.1,0-0.2,0.1-0.3,0.1
		c0.3-0.2-0.1-0.3,0-0.7c1,0.3-0.1-0.4,0-0.3c0,0,0.1,0.1,0.1,0.1c0,0.1-0.1,0.1-0.2,0.1c0,0.1,0.3,0.4,0,0.4
		c-0.1,0.1-0.4,0.4,0,0.4c0,0-1.1-1.1-1.2-1.1c0.1-0.3,0.8-0.5,1.1-0.5c-0.1,0.3,1-0.3,0.8,0.3c0.3,0,0.1,0.1,0.4,0.3
		c0.1,0,0.9,0.1,1,0.3c0-0.1,0.3-0.5,0.1-0.5c-0.1,0.1-0.1,0.1-0.1,0.2c-0.1,0,0-0.8-0.2-0.6c0.1-0.3-0.4-0.7-0.2-0.9
		c0.4,0.4,0.1-0.7,0.5-0.2c0,0-0.1,0-0.1,0c0,0.2,0.4,0.2,0.5,0.3c-0.1,0.3-0.3,0.5,0,0.1c0.1,0,0.2,0.1,0.1,0.2
		c0.3,0,0.1-0.1,0.2-0.2c1.4,0.5-1.4-2.6-1.8-2.4c-1.4-1-1.7-0.6-2.8-0.7c0.2-0.3-0.3-1.1-0.3-1.4c0.2,0,0.8,0.4,0.7,0.5
		c-0.1,0-0.2,0.1-0.1,0.2c-0.2,0-0.1-0.2-0.1-0.3c-0.2,0-0.2,0.5,0.1,0.6c1.3-0.5,0-2-0.5-1.8c-0.1-0.1-0.2-0.2-0.3-0.3
		c0-0.1-1.7-3.4-1.2-3.3c-0.1,0.2,0.5-0.2,0.2-0.2c0.1-0.1,0.1-0.1,0.2,0c0.1-0.1,0.1-0.2,0.1-0.3c-0.5,0.1,1.6,2.2,1.6,2.4
		c0,0,1.3,0.2,1.2,0c0-0.1-0.5-0.2-0.2-0.3c0,0.1-0.6-0.1-0.6-0.1c-0.3,0-0.5-0.4-0.5-0.7c1-0.5,1.2,1.3,1.9,1
		c-0.1-0.3-0.1-0.7,0-0.8c-0.4-0.1-0.7-0.3-1-0.5c-0.2-0.7,1.4,0.3,1.5,0.2c0.9-0.1-0.1-1-0.8-1c-0.4,0.7-0.2-0.2-0.5,0
		c0-0.2,0.2-0.1,0.2-0.3c-0.2-0.1-0.5-0.1-0.5-0.4c0.4,0.4,0.3-0.2,0-0.2c0,0,2-0.7,2.3-0.6c0,0,0.8-0.3,0.8-0.3
		c0.2,0,0.2-0.5,0.5-0.5c0.9-0.8,3.7,2,4.5,0.8c-0.8,0.3,0.6-0.7,0.4,0c-1.6,0.3-2.2,4.3-1.4,4.5c0.8-0.3,1.6-0.6,2.4-0.9
		c-0.1,0.3-0.1,0.1-0.3,0.3c0.4,0-0.1,0.6-0.3,0.6c0-0.2-0.1-0.3-0.3-0.1c0.2,0.2-0.1,0.6,0.4,0.5c-0.3,0,0.2,0.2,0.2,0.4
		c-0.3,0.1,1.1,1,1,0.8c0,0.1-0.2,0-0.2,0.3c-0.3-0.1-0.1,0.1-0.1,0.3c-0.1,0.2-0.5,1.5-0.5,1.6c-0.2-0.4-0.4-0.8-0.8-1.1
		c-0.3-0.1-0.2,1-0.2,1.1c0.2,0.1,0.3-0.3,0.4-0.1c-0.1,0.1,0,0.4-0.2,0.5c0,0,0,0-0.1,0c0-0.2-0.1-0.2-0.3-0.1
		c0,0.2,0.2,0.4-0.1,0.5c0.2,0.7,1.7,0.1,1.8,0.1c-0.1,0.1-0.3,0.2-0.2,0.4c0.2-0.1,0-0.3,0.3-0.3c0.1,0.2,0.3,0.3,0.2,0.5
		c0,0,0.9-0.5,0.5-0.1c0.2,0.1,1.1,0.1,0.6,0.4c0.5,0.4-0.3,1.1-0.3,0.3c-0.7,0.3-1.3-0.1-1.4,0.8c0.7-0.2,1.6-0.5,1.9,0.5
		c0,0,0.1-0.1,0.1-0.1c0,0.1,0.1,0.4,0,0.4c0.1,0.1,0.5,0.2,0.5-0.1c0.9,0.5,0.2,0.2,0.8,0.2c-0.2,0.4-0.1,0.4-0.2,0.6
		c-1,0.3-0.4,0.4-0.4,0.5c0-0.1,0.6,0,0.7,0.1c0.1,0,0.8-0.4,0.8-0.5c0.3-0.2,0.7-0.2,1-0.1c-0.6,0-0.7,0.3-0.4,0.7
		c-0.8-0.3-1.7,1-1.7,1c0.6,0,1-0.9,1.7-0.8c0.1,0.1,0,0.2-0.1,0.2c0.1,0.1,0.2,0.2,0.3,0.1c0,0.2-0.2,0.1-0.3,0.3
		c0.1,0.6,1.2-0.6,0.8-0.9c0.1-0.2,0.3-0.2,0.4,0c0-0.2,0-0.3,0.1-0.2c0.1,0,0.4,0.1,0.3-0.1c0.3,0.1,0.1,0.4,0.5,0.3
		c0.3,0,0.8,0.6,0.6-0.2c0.1,0.3,1.7,1.5,1.7,1.4c0.4-0.2,0.6,0.8,0.7,0.1c0.1,0.2,0.2,0.2,0.3,0c0.2,0.1,1.7-0.7,1.8-0.8
		c0.1,0,0.4-0.3,0.4-0.2c-0.3-3.2,4.4-4.1,5.1-1.5c-0.2,0.2,5-1.4,4.8-1.5c0.1-0.1-0.1-0.3-0.2-0.4c0-0.1,0.1-0.2,0.2-0.2
		c0.2-0.1,0.1-0.4,0.2-0.5c0.1,0,0.6-1,0.6-1.2c0.2,0,0.3-0.4,0.3-0.5c0.5-0.3,3.1,0.6,3.1-0.6c0-0.3,0.5-1.4,0.9-1.5
		c0.1,0,0.1,4,0.2,4.1c-0.1,0.4,1,2.3,1,2.3c0,1.6,0.4,3.3,0.5,5c0,0.3,0.1,0.3,0.1,0.6c0,0.9,0,2,0,2.3c-1,1-2,2.2-3.1,3.3
		c-15.5,15.5-37.8,26-63,26c-26.4,0-48.1-11-63.1-25.9c-16.9-16.9-25.8-39-25.8-61.7c0-22.7,9-44.9,25.8-61.8
		c12.6-12.6,34.3-25.9,63-25.9c22,0,36.7,7.9,40,9.4c5.1,2.4,12,7.3,12,7.3l-0.9,0.1c-2.3,0.7-10.7,2.5-12.1,1.7
		c1.2,0.7,1.9,0.9,2.9,1.8c0,0.1-0.1,0.2-0.2,0.1c0.1,1,3.4,6.2,4.2,6.5c0.4-0.2-1.8-0.3-1.4-0.3c-0.3-0.5-3.4-1.2-2.7,0.7
		c-1.6-0.2-1.7,4.7,0.1,5.7c0.1-0.1,0-0.2,0-0.3c0,0,0.4,0.5,0.5,0.5c-0.5-0.1-0.8,0.1-0.9,0.6c0.1,0,0.4,0,0.4,0.1
		c-0.8,0.2-1.7,0.5-2.8,0.2c-0.1,0.1,0.1,0.1,0,0.2c-0.1,0-0.1-0.1-0.1-0.2c-2.1,0.5-1.5-0.9-2.8,0.7c-0.3-0.3-0.4,0.1-0.2,0.3
		c0.1-0.1,1.7,1.4,1.7,1.3c0.1,0,0.7-0.2,0.7-0.2c0-0.1-0.1-0.2,0.1,0c0.2-0.1-0.2-0.4,0.2-0.4c0.2,0.2,0.3,0.2,0.4,0.4
		c0.3,0,0.2,0.3,0.2,0.5c0.4,0,0.3,0.5,0.4,0.8c-1.3,0.5-1.5,0.8-3.1,0.4c-0.1-0.4-0.2-0.4-0.5-0.3c-0.1-0.1-0.2-0.3-0.3-0.4
		c-0.2-0.2,0,0.1-0.6-0.1c-0.1,0.1,0.1,0.2,0.1,0.3c-0.3-0.2-0.5,0.4-0.6-0.2c-0.1,0.1-0.2,0.1,0,0.3c-0.3,0.2-0.5-0.4-0.9-0.4
		c0-0.3,0.3-0.6-0.2-0.6c0.1-0.1,0.2-0.2,0.3-0.2c0-0.1,0-0.1,0-0.2c0,0-0.2,0.1-0.3,0.1c0-0.1,0-0.1,0.1-0.1
		c0-0.2-0.3-0.7-0.6-0.5c0-0.1,0.1-0.1,0.2-0.1c0-0.2-0.3-0.3-0.4-0.4c0-0.1,0-0.2,0-0.4c0,0.1-1.1-0.6-0.7-0.6
		c0.6,0-0.1-1.3-0.2-1.4c0.4,0.4,0.5,0.3,0.3-0.3c0.1,0.4-0.1-0.3-0.2,0.1c-0.2,0-0.7-0.7-0.8-0.8c-0.1,0-0.6-0.1-0.6-0.2
		c-0.1,0-0.3,0-0.4,0c-0.3,0-0.3-0.1-0.1-0.2c-0.1-0.1-0.4,0.1-0.5,0.1c0.1-0.1,0.2-0.1,0.3-0.2c0-0.1-0.1-0.1-0.1-0.2
		c-0.2,0.1,0,0.3-0.3,0.3c0.2-0.2,0.2-0.2-0.1-0.2c0-0.1,0.3-0.2,0.4-0.2c0-0.1-0.6-0.2-0.7-0.1c0.1,0.1,0.1,0.1,0.1,0
		c-0.1,0-0.5,0.1-0.6,0c0.1-0.2,0.4,0,0.2-0.2c0.1,0.1,0.4,0.1,0.5,0c-0.1-0.1-0.9-0.7-0.9-0.4c-0.2-0.2,0,0.1-0.3,0
		c-0.2,0-0.8-0.8-0.8-1.2c-0.2,0.1-0.3,0-0.4,0c0.4,0,0-0.2-0.1-0.1c0.1-0.3,0.6,0,0.8,0c-0.3,0.4,1.3,1.3,1.7,1
		c0-0.2-0.3,0.1-0.2-0.3c0.4,0.3,0.8,0.4,1.3,0.3c0,0,0,0.3,0,0.1c1.1,2.5,10.9,0.1,8.8-5.5c-0.2,0-2-1.4-2.4-1.7
		c0,0.1,0,0.2,0.2,0.1c-0.1,0.1-0.1,0.2,0.1,0.2c-0.1,0.1-0.7-0.1-0.4-0.2c0,0-1.4-0.9-1.5-0.8c0,0.2,0.3,0.2,0.4,0.4
		c-0.1,0.1-0.2,0-0.4,0c0,0,0,0.1,0,0.1c-0.2,0.2-2.1-1.1-2.2-0.6c0-0.1-1.3-0.7-1.5-0.8c0,0,0.1-0.1,0.1-0.1
		c0,0.1-0.9-0.3-0.8-0.2c-0.5-0.2-1.2-0.4-1.7-0.6c0,0.1,0,0.1,0.1,0.1c-0.2,0.2-0.5-0.2-0.5-0.3c-0.1,0.3-0.4,0-0.6,0
		c-0.3,0.1-0.5,0.1-0.8,0.1c0.2,0.1,0.3,0.1,0.1,0.3c-0.1-0.3-1.1-0.2-1.3-0.2c0.5-0.4-0.3-0.3-0.3-0.2c0,0.1,0.1,0.2,0.2,0.2
		c0,0.1-0.6,0.3-0.7,0.2c0.1,0,0.5,1,0.1,0.9c0-0.3,0.1-0.5-0.1-0.5c-0.1-0.1-0.1-0.6-0.1-0.7c0-0.1-0.6-0.1-0.6,0.1
		c-0.1-0.2-1.7-0.5-1.6-0.5c0.3-0.1,0-0.3,0-0.5c0.2,0.3,0.6,0.5,1,0.4c1-0.2-1.5-1.3-1.5-1.2c-0.2,0.1,0.3,0.7,0.4,0.8
		c-0.7-0.8-0.2,0.5-0.2,0.4c0,0.4-1.3-0.6-1.4-0.1c0.1,0.1-1.4-0.5-1.4-0.2c0.1,0-1.4-0.7-1.4-0.6c0.1,0,0.1-0.1,0.2-0.1
		c0.5-0.2,2.7-0.1,2.1-1.6c0-0.1-1.3-0.3-1.2-0.2c0.1-0.7-0.1-0.8-0.5-0.3c-0.4-0.3,0-0.5-0.5-0.2c0-0.1,0-0.1,0-0.2
		c-0.2-0.4-0.5-0.5-0.9-0.3c0.1,0.5,0.2,1,0.1,1.5c-0.1-0.4-0.2-0.1-0.2,0c-0.1-0.1-0.4,0-0.4,0.1c-0.1-0.2,0.6-0.8,0.1-1
		c-0.1,0-0.3,0.4-0.4,0.4c0.3-0.3,0.2-0.5-0.2-0.6c0.1,0.6,1-1.6,0.2-0.9c-0.2,0,0-0.4-0.2-0.5c-0.1,0.2-0.1,0.1-0.3,0.3
		c0.2,0-0.2,0-0.2,0c0-0.2,0-0.2-0.2-0.3c-0.2,0.2,0.1,0.5,0.1,0.7c0,0-0.5-0.5-0.4-0.2c0,0.1,0.1,0.2,0.2,0.2c0,0-0.1,0-0.1,0
		c-0.2,0.2,0.5,0.5,0.6,0.6c-0.4-0.1-0.5,0.1-0.1,0.4c-0.4,0.1-0.4,0.3,0,0.6c-0.4,0-0.4,0.2-0.1,0.6c-0.1-0.1-0.2-0.1-0.3-0.1
		c0,0.1,0,0.3,0,0.4c-0.4-0.1,0-1.5-0.6-1c0.2-0.4,0.3-0.7,0.1-1.1c-0.3-0.5-0.7,2.7-0.7,2.9c-0.1-0.1-0.2-0.1-0.2-0.2
		c-0.1,0.1-0.1,0.2-0.1,0.3c0.3-0.1,0.2,0.2,0,0.7c-0.1,0,0.1-0.4-0.1-0.4c0.4,0.3-0.2-0.1-0.1,0.3c-0.1,0-0.1-0.3-0.1-0.3
		c0.1-0.2,0.1-0.3,0.1-0.5c-0.1,0,0-0.3,0-0.3c0,0.1,0.3-0.8-0.1-0.5c-0.1,0.9,0.4-1.9,0.3-1.6c0-0.1,0.2-1,0.2-0.6
		c-0.2-0.1,0-0.1-0.2-0.2c0.3-0.3-0.2-0.2-0.3-0.5c0,0.1,0,0.2-0.2,0.1c-0.1,0,0.2,0.3,0.2,0.3c-0.3-0.3-0.4,0.1-0.2,0.4
		c0-0.1,0.1-0.1,0.2-0.1c0,0.1,0,0.2,0,0.3c-0.4,0,0.2,0.4,0,0.6c-0.1-0.1-0.2-0.3-0.2-0.4c-0.1,0,0,0.2-0.1,0.3
		c0.1,0-0.1-0.4-0.1-0.5c0,0.7-0.3-0.3-0.5,0c0,0.2,0.2,1.7-0.1,0.6c-0.2,0.3,0.8,1,0.6,1.1c-0.5-1-0.2,0.6-0.2,0.6
		c0,0-0.4-0.1-0.4-0.1c0.3-0.3-0.7-1.9-0.5-0.3c-0.1-0.1-0.2-0.1-0.3-0.1c0,0.1,0.1,0.2,0.1,0.4c-0.1-0.1-0.2-0.1-0.3,0
		c0.1,0.1-1.2,1.9,0.2,1.3c0-0.2-0.2-0.3-0.3-0.6c0.4,0.8,0.6,0,0.8-0.3c-0.1-0.2-0.3-0.4-0.2-0.6c0.5-0.1,0.2,1.3-0.1,1.5
		c0.1,0.1,0.1,0.1,0.2,0c0,0.1-0.1,0.1-0.2,0.1c0,0.1,0,0.4,0,0.4c0.1,0,0.2,0,0.2,0c0,0.1-0.2,0-0.2,0.1c0,0.4,0.5,0,0.4,0.4
		c-0.2,0-0.2-0.2-0.3,0.1c-0.2,0-0.1-0.2-0.1-0.3c-0.1,0.1-0.2-0.4-0.2-0.5c-0.1,0-0.2,0.1-0.2,0.2c-0.3-0.7,0.1-0.1-0.6-0.6
		c0,0.2,0,0.4,0,0.5c0.2,0-0.7-1.3-0.7-0.5c-0.1-0.2,0.1-0.4-0.2-0.5c0,0.1,0.1,0.7,0.1,0.7c0.1-0.1-0.2-0.2-0.2-0.4
		c-0.2,0,0,0.3-0.1,0.4c-0.3-0.6-0.2,0.1-0.2,0.3c0.1,0,0.9,0.5,0.9,0.5c0,0-0.1,0.6,0,0.7c-0.1-0.2-0.8-0.4-0.9-0.8
		c-0.1,0-0.3,2.4-0.2,0.4c-0.3,0,0,0.1,0-0.1c-0.1-0.1-0.1-0.1-0.1,0c-0.1-0.1,0.1-0.2,0-0.3c0.1-0.2-0.2-0.9-0.5,0.2
		c0.3,0,0.4,0.3,0.3,0.6c-0.2-0.1,0-0.4-0.2-0.5c-0.2,0.1,0.2,2.2,0.2,1.7c-0.3-0.2-0.5,1.1-0.6,1c0.2-0.3,0.5-1.2,0.4-1.4
		c0,0.2-0.1,0.2-0.1,0.1c0-0.4,0-0.9-0.2-1.3c-0.2,0.2-0.7,1.3-0.4,1.5c-0.2,0.1-0.1-0.7-0.2-0.8c-0.3,0-0.5,0.5-0.8,0.5
		c-0.1-0.1,0.1-0.2,0-0.3c0.5-0.1,0.8-0.4,0.8-1c0,0.2-0.1,0.2-0.2,0c-0.1-0.2-0.3-0.2-0.3,0.1c-0.1-0.1-0.2-0.3-0.3-0.4
		c0,0-0.2,0.3-0.2,0.3c0-0.1,0.2-0.4,0-0.4c0.1,0.1,0,0.1,0,0.1c0-0.1,0-0.2,0-0.3c0.1,0.1,0.2,0.2,0.2,0.2c0.2-0.1,0.2-0.5,0-0.6
		c-0.2,0.1-0.1,0.2-0.1,0.4c-0.1-0.1-0.2-0.1-0.2,0c-0.1-0.4-0.2,0.1-0.1,0.2c-0.2-0.3,0.3,1.6,0.3,1.2c-0.2-0.3-0.5-0.3-0.7,0
		c0.2,0.3,0.3,0,0.4,0.5c-0.4-0.2,0-0.9-0.4,0.1c-0.2,0-0.2-0.2-0.3-0.3c0,0,0,0.5,0,0.6c0.3-0.1,0.2,0-0.1,0
		c-0.1,0.1,0.2,0.4,0.3,0.5c0.1-0.1,0.4-0.1,0.5-0.1c0,0.1-0.1,0.1-0.2,0.1c0,0.1,0.1,0.1,0.1,0.2c0,0.2,0.1,0.4,0.4,0.4
		c-0.1,0-0.1,0.1-0.2,0.1c0-0.3-0.3-0.7-0.6-0.7c0,0.1,0,0.3,0,0.4c-0.2-0.2,0-1.2-0.4-0.7c0,0-0.2-0.2-0.2-0.2
		c0,0.1,0,0.2,0.1,0.3c-0.1,0-0.1-0.3-0.2-0.3c0,0,0,0.5,0.1,0.4c-0.1,0-0.5-0.4-0.3,0.1c-0.1,0-0.1-0.1-0.2-0.1
		c-0.1,0,0.1,0.5,0.3,0.3c-0.2,0.2-0.4,0-0.5,0.1c-0.1,0.1-0.1,0.1-0.1,0.2c-0.1,0.1,0,0.1,0.1,0c0,0.1-0.1,0.1-0.2,0.1
		c0,0.2,0.2,0.2,0.3,0.3c0,0-0.2,0.1-0.3,0.1c0,0.1,0.1,0.2,0.2,0.2c0.1-0.3-0.9,1,0,0.4c0.2,0.1-0.3,0.2,0.2,0.2
		c-0.1-0.6,1-0.6,0.8-0.9c0.1,0,0.1,0,0.2,0c-0.1,0.1-0.1,0.2,0,0.3c0-0.1-0.9,0.5-0.7,0.5c0.1-0.1,0.1-0.2,0-0.2
		c-0.2,0-0.3,0.3-0.2,0.5c0,0,0.2-0.2,0.2-0.2c0.1,0.2,0,0.3-0.1,0.5c0-0.2-0.3-0.1-0.4-0.1c0,0.2,0.1,0.4,0.1,0.5
		c-0.3-0.3-0.4-0.2-0.4,0.3c0.1,0,1-0.8,0.9-0.3c-0.1,0-0.6,0-0.4,0.2c-0.2,0-0.3,0.1-0.3,0.2c-0.3-0.3-0.3,0.2-0.6,0.2
		c0-0.5,0.1-0.8-0.4-1.1c-0.2,0.1,0.1,0.2,0.1,0.3c-0.5-0.4-0.1,0.4-0.1,0.4c0,0-0.1-0.2-0.2-0.2c0,0-0.2,0.1-0.2,0.1
		c0.2-0.4,0.1-0.7-0.3-0.7c0.2,0.2,0.6-1.4,0.6-1.4c-0.8-0.1-0.8,2.1-0.7,1.6c0.1,0.1-0.2,0.3,0.1,0.4c-0.3,0.1-0.1,0-0.2,0.4
		c0,0-0.3-0.4-0.1-0.2c-0.1-0.2-0.3-0.8-0.2-1c-0.3,0-0.2,0.3-0.2,0.5c0.1-0.4-0.6,0.2-0.1,0.1c0,0-0.1,0.3,0,0.3
		c0-0.1-0.4,1-0.3,0.4c0.2,0,0.5,0,0.5-0.3c0.1,0-0.3,0.6-0.4,0.5c0.1,0,0.1,0.1,0.2,0.1c-0.4,0.1-0.4-0.1-0.2,0.4
		c0.3,0,0.7-0.5,0.9-0.8c0.2,0.2,0.1,0.2-0.1,0.2c-0.2,0.1-0.2,0.4-0.1,0.5c-0.4-0.2-1.1,0.4-1.2,0.7c-0.1-0.2-0.2-0.1-0.4-0.2
		c-0.3,0.1-0.8,0.4-0.7,0.8c-0.2,0-0.3-0.2-0.2,0.2c-0.4-0.1-0.8,0.7-0.7,1.1c0.4,0,0.9-0.8,0.9-1.1c0,0,0.1,0.2,0.1,0.3
		c0.3-0.2,0.6-0.6,0.9-0.8c0,0,0,0.4,0,0.5c0.2,0,0.7-0.5,0.8-0.5c0.1,0.2-0.2,0.3-0.2,0.4c0.1,0.2,0.8-0.9,1-0.9
		c-0.1,0.1-0.2,0.3-0.1,0.5c0.3-0.1,0.5-0.3,0.7-0.5c0,0.1,0,0.1,0,0.2c0.2,0,0.4-0.5,0.4-0.6c-0.4-0.1,0.9,0.7,1,0.3
		c0.3,0.1,0.4-0.3,0.7-0.3c0,0.6-0.6,0.4-0.8,0.7c-0.1,0-1.1-0.6-1.1,0.1c0.4,0-0.1,0.1,0.2,0.3c0.1-0.2,0.1-0.2,0,0.1
		c0.1,0.2,0.3,0,0.4,0c0,0.1-0.2,0-0.2,0.1c0,0.1,0.1-0.1,0.1,0c-0.3,0.2-0.1,0.5,0,0.4c0,0,0,0.2,0,0.2c-0.1-0.1-0.1-0.2-0.2-0.3
		c0,0.1-0.1,0.2-0.1,0.3c0,0,0.1,0,0.1,0c0,0.1-0.4-1.4-0.4-0.6c-0.1-0.2-0.1,0.1,0,0.2c-0.1,0-0.2-0.1-0.3-0.2
		c0,0.1-0.1,0.1-0.1,0.2c-0.3,0-0.6,0.3-0.5,0.7c0-0.2-0.1-0.3-0.2-0.2c0.2,0.1-0.3,0.4-0.3,0.4c0.6,0.2-0.1,0-0.2,0.4
		c0,0.2,0.6,0.1,0.5,0.2c-0.1,0-0.4,0.1-0.5,0.1c0.1,0,0.1,0.1,0.2,0.1c-0.1,0-0.1,0-0.2,0c0,0.2,0.9-0.1,0.9-0.5
		c0.1,0.1,0.2,0.1,0.3,0.2c0,0-0.3,0.3-0.2,0.2c-0.3,0-0.2,0.4-0.5,0.4c0.2,0,0.5,0.3,0.6,0.5c-0.9-0.4-1,0.1-1.1,0.1
		c-0.2,0.2-0.1,0.2-0.4,0.3c0.1,0.2,0,0.3-0.2,0.5c0.2,0,0.4,0,0.5-0.1c0,0-1,0.6-1.2,0.6c0.1,0.3,0.2-0.1,0.3-0.1c0,0,0,0.5,0,0.5
		c-0.1,0,0.1-0.2-0.1-0.2c-0.1,0.6-0.7,0.2-0.8,0.6c0.1,0,0.2,0,0.2-0.1c0,0.1,0,0.1,0.1,0.1c0,0,0,0.2,0,0.3c-0.4-0.1,0-0.1-0.4,0
		c0,0.1,0.6,0.1,0.7,0c-0.1,0.2-1.1,0-0.6,0.3c-0.4-0.1,0,0.2,0.2,0.3c0-0.1-0.5,0-0.5,0.1c0,0,0.1,0.1,0.2,0
		c0,0.1-0.1,0.2-0.2,0.3c-0.1-0.1,0.2-0.1-0.1,0c-0.1,0.1-0.1,0.1-0.3,0.1c0.1,0,0.2,0.1,0.3,0.1c0-0.1,0.3,1.4,0.5,0.7
		c-0.2-0.1-0.7,0-0.8,0.3c0,0.1,0.2-0.1,0.3,0c-0.1,0.1-0.1,0.1-0.1,0.2c0,0-0.1-0.1-0.1-0.1c0,0-0.4,0.2-0.4,0.2
		c0.1,0.1,0.1,0.1,0.2,0.1c-0.1,0.1-0.1,0.1-0.2,0c0,0,0.1,0,0.1,0.1c-0.2,0.1-0.3,0.1-0.1,0.2c-0.4,0.4-0.5,0.3-0.5,0.3
		c0.3-0.2,0.5-0.6,0.4-1c-0.2,0-0.2,0.1-0.2,0.3c-0.1,0,0-0.1-0.1-0.1c-0.1,0-0.2,0.1-0.2,0.2c0.1,0.1,0.3-0.1,0.4-0.1
		c0.1,0.2-0.4,0.5-0.6,0.5c0.2,0.2,0.2,0.4-0.1,0.5c0.1,0,0.2-0.2,0.3-0.1c0,0-0.1,0.3-0.1,0.3c0.2,0,0.1-0.2,0.1,0
		c0.3,0-0.2-0.4,0.1-0.4c0,0,0.1,0.4,0,0.4c0,0,0.5-0.6,0.6-0.6c-0.1,0.1-0.3,0.3-0.4,0.4c0.3,0-0.4,0.3-0.4,0.5
		c0,0,0.4-0.2,0.4-0.3c0.2,0.3-0.5,0.3-0.4,0.6c0,0.1,0,0.2,0,0.4c0.1,0.1,0.3,0.1,0.3,0.3c-0.2,0.1-0.4-0.5-0.4-0.5
		c-0.2,0.1,0,0.3-0.1,0.4c-0.3-0.3-0.3,0.2-0.4,0.4c0.5-0.1,0.1,0.3,0.1,0.6c-0.1-0.1-0.2-0.1-0.2,0.1c0.1,0,0.3-0.2,0.4-0.2
		c-0.1,0.1-0.2,0.5-0.4,0.5c0.1-0.1,0.1-0.2,0-0.4c-0.3,0-0.3,0.6-0.5,0.6c-0.1-0.1-0.4-0.2-0.1,0c-0.3,0.4-0.5,0.3-0.7-0.1
		c0,0-0.3,0.2-0.2,0.2c0.1,0-0.4-0.1-0.4-0.1c0,0.1,0.3,0.2,0.3,0.1c0,0.2-0.9,0.3-0.4,0.4c-0.2,0.1-0.2,0.1,0,0.2
		c0.1-0.2,0.2-0.1,0.5-0.2c0,0.1,0.2,0.2,0.1,0.3c0.1,0,0.1-0.1,0.2-0.1c0,0.2-0.2,0.2-0.3,0.3c0.2,0.3,1-0.4,0.9-0.1
		c-0.1-0.1-1.3,0.6-1.3,0.6c-0.1,0.1-0.2-0.2-0.2,0c0,0,0.2,0.2,0.1,0.2c-0.1,0-0.2,0-0.2-0.1c0.1,0-0.2,0.2-0.2,0.2
		c-0.1-0.1-0.1,0.2,0,0.3c0-0.1-0.2,0-0.3,0c0-0.2,0,0-0.1-0.1c0,0.4-0.5,0.7-0.5,1.1c-0.1,0-0.2,0-0.3-0.1c-0.2,0-0.2,0.2,0,0.2
		c-0.1,0.1-0.9,0.9-0.7,1c-0.2,0-0.2,0-0.2,0.1c0,0,0,0,0,0c0,0.1-0.1,0.2-0.1,0.3c0-0.1,0.8-0.4,0.9-0.4c0,0.1-0.3,0.3-0.4,0.2
		c-0.1,0.1,0.1,0.3,0,0.4c-0.2-0.2-0.5-0.2-0.7,0c0-0.1,0.1,0,0.2,0c-0.1-0.1-0.2-0.1-0.3,0c-0.1,0.1,0.1,0,0.1,0.1
		c-0.1,0.1-0.2,0.1-0.4,0.1c0.1-0.1,0.1-0.1,0.2-0.1c0-0.1-0.1-0.3-0.1-0.5c-0.1-0.2-0.1-0.1-0.2,0c-0.3-0.1-0.6,0-0.8,0.1
		c-0.1,0-0.1,0-0.1-0.1c-0.1-0.2-0.5,0.2-0.2,0.2c0,0.7,1.2,0.5,1.2,0.6c-1-0.5-0.8,0.4-1.4,0.3c0.1,0,0.2,0,0.2-0.1
		c0,0-0.7,0.4-0.6,0.1c0.3-0.1,0.3-0.6,0.2-0.6c0-0.1-0.3,0.1-0.3-0.2c-0.1,0.3-0.4,0.2-0.4,0.6c0.3-0.1,0.5,0.1,0.2,0.2
		c0.9,0.3-0.8-0.1,0.5,0.5c-0.3,0.2,0,0.3,0,0.5c0.2,0-0.8-1-0.6,0c-0.2,0,0.1-0.4,0.2-0.5c-0.4-0.3-1.1,0.3-1.1,0.3
		c-0.2-0.3-0.7,0.2-0.7,0.4c-0.4,0.3-0.4,0.4,0,0.1c-0.1,0.4-0.2,0.3-0.6,0.3c-0.1,0-0.3,0.4-0.4,0.2c0,0,0.1,0.3,0.2,0.3
		c-0.2,0.2-0.6-0.4-0.8,0.2c-0.6-0.3,0.1-0.3-0.1-0.1c-0.2,0.6,0.2,0.7,0.8,0.5c-0.1,0.2-0.3,0.2-0.4,0.3c-0.2-0.3-0.4-0.3-0.8,0.1
		c0.6,0.5-0.6-1.3-0.2-0.3c-0.1,0-0.1-0.2-0.3-0.2c0.2-0.1-0.2-0.3,0,0.1c-0.3-0.1-0.1,0-0.3,0.1c0,0.1,0.3,0.1,0.4,0.1
		c0,0.1-1,0.7-0.4,0.7c0,0.1-0.1,0.1-0.1,0.2c0-0.2-0.2-0.6-0.3-0.7c-0.7,0.2,0,0.5,0,0.7c-0.1,0.1-0.1,0.1-0.2,0
		c0.2,0.2,0.1,0.2-0.4,0c0,0.1,0,0.6-0.2,0.6c-0.1,0.1-0.1,0.1-0.2,0c-0.3,0.6,0.5,0.1,0.7,0.1c0,0-0.8,0.8-0.6,0.8
		c0.1,0.1,0.5-0.1,0.4,0.1c-0.2,0,0.2-0.3-0.3-0.1c0,0.1,0.3,0.3,0.4,0.3c-0.5,0.3-0.1-0.4-0.4-0.1c0.1,0.2-0.3,0.4,0,0.3
		c0,0-0.4,0.1-0.4,0.1c0.1,0.2,0.3,0.1,0.4,0.2c0,0.2-0.3,0-0.4,0c0.1,0.1,0.2,0.3,0.2,0.4c0,0-1-0.2-0.4,0c0,0.1-0.2,0.2-0.3,0.2
		c-0.3,0.1-0.1,0.3-0.1,0.5c0.1-0.1,0.8-0.5,0.8-0.5c0.1-0.1,0.3,0.3,0.2,0.2c0.1,0,0.2,0,0.3,0c-0.2,0.3,1-0.2,0.9,0.1
		c-0.5,0-1,0.1-1.5,0.2c-0.1-0.3-0.2,0-0.2,0.1c-0.3-0.3-0.1,0-0.4,0c0,0,0.3,0.4,0,0.4c0,0,0.2,0,0.2,0.1c-0.4,0-0.2,0.4-0.2,0.6
		c0,0.1,0.1,0.3,0.2,0.2c-0.2,0.3,0.2,0.6,0.2,0.8c-0.4-0.1-0.4-0.8-0.4-1.1c-0.2,0-0.2,2.2,0,2.3c0,0,0.1-0.1,0.1-0.1
		c0.1,0.1,0.1,0.1,0.1,0.3c-0.1,0-0.2,0-0.4-0.1c0,0.7,0.7-0.2,0.6-0.4c-0.1,0-0.3,0.1-0.4,0c0,0.2,0.9-0.2,1-0.2
		c0.1,0.1-0.1,0.3,0,0.5c0-0.1,0.1-0.1,0.2-0.1c0,0.1,0,0.2,0,0.3c-0.1,0-0.5-0.1-0.5,0.1c-0.1,0-0.1-0.3-0.2-0.3
		c-0.3,0.1-0.7,1.5-0.6,1.3c0,0-0.2,0.5,0,0.6c0.3,0,0.1-0.5,0.3-0.5c-0.1,0.2,0,0.3,0.2,0.1c-0.4,0.3-0.6,0.7-0.8,1.1
		c-0.8,1.1,0.8,0.5,0.7,0.4c0.1,0.1,0.2,0,0.2-0.1c0,0.1,0,0.2,0,0.2c0.1,0,0.2-0.1,0.2-0.2c0.1,0.1,0.4,0.1,0.4-0.1
		c0,0.1,0.3,0.1,0.3,0.3c-0.4,0-0.9,0.8-1.1,0.8c0,0-0.2,2.3-0.2,1.9c0.1,0,1.4,1.2,1.5,1.3c0.2,0,0.3,0.2,0,0.4
		c0,0.1,0.5,0.3,0.5,0.3c0,0,0.3-0.2,0.3,0.2c0,0,0.9-0.2,0.6,0.1c2.3-0.3,3-2.2,4.9-2.6c-0.1-0.1,0.3-0.7,0.4-0.7
		c0,0.1,0,0.2,0,0.3c0.1,0,0.6-0.1,0.4-0.2c-0.1,0.3,0.6-0.4,0.6-0.4c0.4,0.2,0.5-0.3,0.5-0.3c-0.1,0-0.1,0-0.2,0c0,0,0-0.6,0-0.7
		c0,0,0.1,0.1,0,0.2c0.3,0-0.3-0.6-0.3-0.6c0.2,0.1,0.4-0.1,0.6-0.1c0,0.2-0.3,1.1,0.1,0.9c-0.3-0.3,0.3,0.8,0.2,0.5
		c-0.2-0.1,0.2,0.8,0.2,0.7c-0.2-0.1-0.6,0.1-0.8,0.2c0,0.1,0.8-0.1,1-0.1c0,0,0,0.2,0,0.2c-0.3-0.2-0.3-0.2,0,0
		c0,0.1,0,0.2,0.1,0.2c-0.1,0.2-0.1,2.8,0.4,2.8c-0.1,0.3,0.1,0.5,0.1,0.9c0.4,0.2,0.5,0.3,0.1,0c0,0-0.1,0.3-0.1,0.3
		c0-0.1,0-0.2,0-0.2c-0.2,0,0.1,0.4-0.2,0.4c0.2,0.1,1.1,1,0.9,1.2c-0.1,0.2,0,0.1,0.1,0.1c-0.3,0.1,0.2,0.5,0,0.7
		c0,0,0.3,0.3,0,0.3c1,0.1,2,3.2,0.4,2.8c-0.1,0.5,1.6,2.6,0.6,2.5c0,0.1,0.4,0.6,0.2,0.7c-0.1,0.2,4.2,0.3,3.7-1.9
		c0.1-0.1,0.3-0.1,0.4-0.1c-0.1-0.2-0.3-0.3-0.3-0.5c0.2,0.1,0.5-0.1,0.5,0.2c0.5-0.4,0.1,0.1,0.4,0c-0.4-0.2,0.5-0.1,0.6-0.1
		c-0.2,0.6,2.4-0.1,1.5-1.1c0-0.1,0.2-0.8,0.4-0.6c-0.2-0.3,0.2-0.4,0.3-0.8c-0.1,0-0.1,0-0.1,0.1c-0.3-0.3,0.4-0.7,0.4-1
		c-0.5-0.5,0.2-1.3,0.3-1.7c-0.1,0,0,0.2-0.1,0.1c0.2-0.1,0.1-0.4,0-0.5c0.3-0.1,0.1-0.3,0.1-0.5c0.2-0.1,0.1-1.7,0.6-1.6
		c-0.1,0-0.2-0.1-0.1-0.2c0,0.2-0.1,0.2-0.2,0c0.6,0.1-0.4-0.4-0.3-0.3c0-0.2,0.4-0.2,0.5-0.3c0,0-0.2-0.1,0-0.1
		c-0.2-0.9,0.5,0.1,0.7-0.8c0.1,0.1,0.2,0.1,0.2,0.2c0.2,0,0-0.2,0.2-0.2c-0.1-0.2,0-0.2-0.1-0.3c0.1-0.1,0.4,0.1,0.4,0.1
		c0,0.1,0-0.4,0-0.4c0.9,0.6,0.1-0.5,1-0.3c0-0.1-0.1-0.3-0.2-0.3c0.1,0.2,0.4-0.2,0.4-0.2c0,0,0,0.4,0,0.5c-0.3,0-0.6,0.2-0.5,0.5
		c0.4,0.1,0.4-0.7,0.7-0.7c0,0.1,0,0.1,0.1,0.1c0.1,0-0.3-0.6-0.3-0.6c0.1-0.1,0.3-0.4,0.5-0.3c-0.4,0.4,0.1,0.5,0.2-0.1
		c0.4,0.3-0.1-1.1,0.4-1.2c-0.3-0.6-0.3,0.3,0.3-0.5c-0.2-0.1-1.3-1.4-1.2-1.7c0.4,0.2-0.2-0.4-0.1-0.6c-0.4,0.2,0.2-0.4-0.4-0.4
		c0,0.1,0.2,0.6,0.2,0.7c-0.4,0-0.5-0.5-0.7-0.8c0.1-0.1-1.3,0.1-0.8,0.1c-0.1,0.4-0.7-1-0.6-0.9c0,0,0.1,0,0.1,0
		c0,0-0.1-0.3,0-0.3c-0.1-0.1-0.3-0.2-0.4-0.3c0.1-0.2,0.2-0.4,0.3-0.6c-0.1,0.1-0.2,0.2-0.2,0.3c-0.1-0.1,0-0.7,0.1-0.7
		c0,0-0.2-0.7-0.1-0.7c0-0.2-0.2-0.3-0.1-0.6c0.1-0.1,0.3-0.1,0.1-0.2c0,0,0.1-0.4,0-0.3c0.1,0,0.2,0.4,0.3,0.4c0,0,0.2-0.2,0.3,0
		c-0.1,0,0.1-0.5,0.1-0.5c-0.1,0.4-0.7-0.9-0.1-0.8c-0.2-0.3-0.2-1.8,0.3-1.4c0.2,0,0.6-1.2,0.8-1.5c0.1-0.1,0.1,0.1,0.1,0.2
		c0.1,0,0.4-0.4,0.5-0.4c0-0.1,0-0.8,0.2-0.8c0.1,0.1-0.1,0.3,0,0.3c0.7-0.2-0.2-0.5-0.2-0.6c0.3,0.4,0.1-0.1,0.1-0.2
		c0.2,0.1,0.2-0.1,0.4,0c0,0.7,0.4-0.5,0.4-0.5c0.3,0.2,0.2-0.4,0.2-0.5c0.2,0.1,0.5,0.5,0.4-0.1c0.1,0,1.3,0.8,0.8-0.7
		c0.5,0.1,0.5-0.4,0.8-0.4c0,0.1,1.1-2.4,1-1.9c0.2,0.1,0.4-0.3,0.4-0.5c0.3,0,0-0.4,0-0.2c-0.1-0.1,0-0.2,0.1-0.3
		c0-0.1-0.1-0.2-0.2-0.2c-0.1,0.1-0.2,0.1-0.3-0.1c-0.2-0.2-0.2-0.2,0-0.2c-0.1-0.1-0.1-0.1-0.1-0.2c0.3,0-0.2-0.6,0.1-0.5
		c0-0.3,0.2-0.8,0.3-1c0.3,0.2-0.1-0.3,0-0.4c0.2,0,0.3,0.2,0.5,0.2c0-0.3-0.6-0.1-0.4-0.6c-0.1,0-0.2-0.1-0.2-0.2
		c0.1,0,0.3,0.1,0.3,0.2c-0.2,0,0,0.1,0,0.1c0,0,0.1-0.6,0.2-0.5c0.1,0.1,0,0.2-0.1,0.2c0.2,0,0.6-0.4,0.8-0.2
		c0-0.1-0.4-0.2-0.5-0.2c0,0.1,0,0.4-0.2,0.3c0-0.1,0.2-0.3,0-0.3c0.3,0.6,0.6-1.1,0.6-1c-0.2,0-0.3-0.1-0.1-0.3
		c-0.1,0.1,0.2-0.2,0-0.1c-0.1,0.1-0.1-0.1-0.1-0.1c0.1,0,0.3,0.3,0.1,0.3c0.2,0,0.2-0.2,0.2,0.1c-0.1,0.1,0.4-0.2,0.2-0.2
		c0-0.1,0.5,1.3,0.2,0.2c-0.1-0.2-0.3-0.3-0.3-0.5c0.1,0.3,0.7,0.4,0.6,0.7c0.3,0.1,0.3-0.4,0.4-0.6c0.1,0,0.2,0.2,0.3,0.3
		c0.1,0,0-0.2,0-0.4c0.2,0,0.3,0.2,0.3-0.1c0,0,0.3,0.3,0.3,0.3c0,0,0.2-0.3,0.3-0.1c-0.2-0.2,0-0.2,0.2,0c0-0.2,0.1-0.2,0.4-0.1
		c0,0,0.1,0.2,0.1,0.1c0,0.1,0,0.2-0.1,0.2c0.1,0,0.1-0.2,0.2-0.2c0,0.1,0,0.2-0.1,0.3c0,0,0.1,0,0.1,0c0.1-0.2,0.1-0.1,0.2,0.1
		c0.1-0.1,0.4-0.1,0.3,0.1c0.2-0.7,0.9,1.7,0.7,1.4c0,0.1,0.3,0.3,0.2,0.4c-0.1,0-0.1-0.2-0.3-0.1c0.1,0.2,0.7,0.1,0.6,0.5
		c-0.8-0.2-0.1,0-0.2,0.4c-0.1,0-0.1-0.1-0.1-0.2c-1.1,0.4-1.5,3-2.2,3c0,0,0,0.7-0.1,0.3c-0.1,0-0.1,0.1,0,0.1
		c-0.4-0.2-0.1,0.3-0.2,0.5c-0.1,0-0.2,0-0.3-0.1c0,0.1,0,0.1,0.1,0.1c-0.1,0.5-0.6,0.1-0.8,0.1c-0.3,0.3-0.2,0.5-0.2,0.9
		c0,0-0.3,0.5-0.3,0.3c-0.1,0.1,0,0.5-0.2,0.6c0-0.1-0.1-0.1-0.2,0c0,0.3,0.4,0.4,0.4,0.7c-0.1,0-0.2-0.1-0.2-0.2
		c0,0.2-0.1,0.2-0.3,0.2c0-0.1,0.2-0.1,0.2-0.2c-0.4,0-0.5,0.3-0.5,0.5c-0.1-0.1-0.2-0.2-0.3-0.3c-0.3,0.3-0.3,0.7-0.2,1
		c-0.1-0.1-0.2-0.1-0.3-0.1c0.4,0.1-0.3,0.5-0.3,0.4c0,0.1,0,0.5,0.1,0.4c-0.1,0.1-0.1,0.7-0.1,0.7c-0.1,0.2,0.2,1,0.2,1.3
		c0.2,0,0.1-0.1,0.3-0.1c0,0.1-0.2,0-0.2,0.2c0.1,0.2,0.4,1.3,0.4,1.3c0.1,0.1,0.3,0.9,0.2,0.9c0,0,0-0.1-0.1-0.1
		c-0.2,0,0.3,0.6,0.4,0.7c-0.1,0-0.2,0-0.3,0c0.1,0,0.2,0.1,0.3,0.3c-0.2-0.1-0.3,0.1-0.1,0.1c-0.1,0-0.2,0.1-0.2,0.1
		c0.2,0.2,0.2,0.2,0.2,0c0,0,0,0.4,0,0.4c0,0-0.3,0.8-0.4,1c0.3,0-0.1,0.3,0.1,0.6c-0.1,0.6,0.1-0.4,0.2,0.2c0,0-0.1,0-0.1,0
		c-0.1,0.1,0,0.2,0.1,0.2c-0.3,1-0.1,0.5,0.6,0.9c-0.1,0-0.1,0.1-0.2,0.1c0.1,0.2,0.2,0.2,0.2,0c-0.1,0,0.1,0.5,0.1,0.5
		c-0.1,0-0.2,0-0.2-0.1c-0.2,0.1-0.3,0.2-0.5,0.2c0-0.1,0.3-0.2,0.2-0.3c0.3,0.2-0.1-0.2-0.2-0.3c-0.1-0.3-0.2,1.2-0.1,0.8
		c0-0.1,0-0.2,0-0.2c0.1,0-0.1,0.2,0.1,0.1c-0.2,0,0.1,0.8-0.1,0.3c0.4,0,0.3,0.3,0.6,0.4c0.3,0,0.7-0.2,0.9-0.4
		c0.5,0.1,0.6,0.8,0.9,0.9c0,0.1-0.3,0.2-0.3,0c0,0.1,0,0.3,0,0.2c0.1,0.4,0.5-0.4,0.4-0.3c0.1,0,0.3-0.1,0.1-0.3
		c0.1,0,0.2,0.1,0.2,0.2c0.1-0.1-0.1-0.3,0.1-0.3c0,0.3,0.3,0.5,0.5,0.4c0,0.1-0.1,0.2-0.2,0.2c-0.2,0.2,0,0.1,0,0.2
		c0.1,0,0.7-0.5,0.8-0.2c0.1-0.4,0.1-0.1,0.2,0c0.1,0,0.2-0.3,0.1-0.3c0,0,0.2,0.1,0.3,0.1c-0.1-0.2,0.3-0.1,0.3-0.1
		c-0.1-0.2-0.3-0.1,0.2-0.1c0-0.2-0.2-0.3,0.1-0.3c-0.3-0.3,0,0.1,0.3,0c-0.1,0-0.2,0-0.2-0.1c0-0.1,0.2,0,0.2,0
		c-0.1-0.1-0.1-0.1,0-0.2c0.1,0,0.2,0.5,0.3,0.1c0,0.1,0,0.1,0,0.2c0.1,0,0.3-0.3,0.3-0.4c0.1-0.1,0.1-0.2,0.2-0.2
		c0.1,0,0.1,0.1,0.2,0.1c0,0-0.1-0.3-0.1-0.3c0.3-0.1,0.9,0,0.6-0.2c0.3,0,0.3-0.3,0.6-0.3c-0.1,0.1-0.1,0.2-0.1,0.3
		c0.1-0.1,0-0.4,0.3-0.3c-0.1,0.2-0.2,0.2,0,0.4c-0.2-0.2,0.1-0.3,0-0.1c0.2,0-0.2-0.9,0.2,0c0-0.1,0-0.3,0.1-0.1
		c0-0.1,0-0.2-0.1-0.2c0-0.1,0.2,0.1,0.2,0.1c0,0,0-0.1,0.1-0.1c-0.6,0.4,0.6-0.2,0.2-0.1c0.1-0.1,0.3-0.1,0.4-0.1
		c-0.1-0.1-0.2-0.2-0.1-0.3c0.1,0.1,0.1,0.1,0.2,0.2c0.1,0.1,0.5-0.1,0-0.2c0,0.2,0.7-0.1,0.8-0.1c-0.1,0-0.4,0,0-0.2
		c0,0,0.4,0,0.1-0.1c0.1-0.1,0.2,0.1,0.4,0.1c0-0.1,0.1-0.1,0.1-0.2c-0.6-0.1,1.5,0.6,0-0.1c0.2-0.1,0.2-0.1,0.2-0.2
		c0.2,0.1,0.4,0,0.5,0.1c0,0-0.1,0-0.1,0.1c0.1-0.2,0.4,0.2,0.3-0.2c0.4,0.3,0.3-0.4,0.6-0.4c0,0.2,0,0.1,0,0.3
		c0.3-0.2,0.8-0.4,0.9-0.8c0,0,0.8,0.4,0.6,0.4c-0.3-0.2-0.3-0.2-0.2,0c-0.3,0.4,0.6,0.3,0.5,0.5c-0.5-0.6,3.4,0.9,2.8,1.2
		c-0.8,0.4-3.5,0.6-3.5,0.9c-0.2,0.5-3.7,3.2-4.3,1.5c0,0-0.4-0.4-0.3-0.5c-0.1,0,0,0.5,0,0.5c-0.1-0.1-0.3-0.2-0.4-0.3
		c-0.1,0.2,0.2,0.2,0.1,0.4c-0.2,0.1-1.4,0.4-1.5,0c0.7,0-1,1-0.4,0c0.3,0-0.3,0.4-0.4,0.4c0.2,0.3-0.3,0.3-0.1,0.6
		c0,0-0.3-0.1-0.4,0c0.5,0.9-2.3,0.1-0.7,2.1c-0.1,0-0.1,0-0.2-0.1c-0.3,0,0.6,0.2,0.6,0.2c0,0.1-0.4,0.1-0.4,0.1
		c0.5,2.1,1.2,1,2.1,1.1c0,0,0.8,4.3-0.2,4.6c-2.2,0.8-2.3-2.4-3.8-1.9c0-0.2-5.1,8.8-1.6,8.8c0.1-0.3,0.3,0.3,0,0.3
		c-0.2,0.6-1.5,1.4-1.4,0.9c0,0-1.5,2-1,1.1c-0.2,0.4,0.7,0.1,0.7,0.1c-0.1,0.1-0.2,0.2-0.4,0.3c-3,2.1-2.3-0.9-4.7-0.6
		c-0.2,0.4-2.2,0.4-2.6,0.8c0.2,0,0.3,0,0.2,0.1c-0.6,0-0.9,0.3-1.2,0.9c-0.7-0.8-5.1,3.1-5.4,0.5c-0.2,0-0.7,0.1-0.7,0.2
		c-0.1,0-0.3-0.3-0.4-0.4c0.1-0.1,0.2,0.1,0.2,0.1c0-0.5,0.2-0.6,0.7-0.2c0.1-0.2-0.1-0.4,0-0.7c0,0-0.5-0.8-0.4-0.8
		c-0.2-0.5-0.8,0.2-0.5,0.1c-0.1,0.3-0.4-0.2-0.4,0.3c0.4,0.1,0.2,0-0.1,0.1c0.2,0.1,0.1,0.2,0.1,0.3c0,0,0.3-0.1,0.3,0.1
		c-0.1,0-0.2,0-0.3,0.1c-0.1,0-0.2-0.3-0.1-0.4c-0.1,0-1.1,0.1-1.1-0.1c-0.5,0-1.3,1.5-2.2,1.3c-0.5,0.1-0.2,0.5-0.3,0.7
		c-0.2-0.2-0.2-0.1-0.4-0.1c0-0.1,0-0.2,0.1-0.1c-0.1-0.1-1.3-0.1-1.1-0.3c0.2,0.1,0.5-0.5,0.5-0.1c0.2,0,0-0.1,0-0.2
		c0,0,0.7-1.1,0.7-1.1c0.1,0.1-2.6-0.3-3-0.2c0-0.6,1.2-1-0.5-1.3c0.3-0.4,0.7,0.1,1,0.1c-0.1-0.2-0.9-1.6-1.2-0.9
		c0,0,0.4-0.5,0-0.3c0-0.2,0.4-0.2,0.5-0.3c-0.1-0.1,0.1-0.1,0.2-0.2c-0.6,0-0.1-0.6-0.1-0.8c0,0,0.2,0.4,0.2,0.4
		c-0.2,0.1,0.2,0.1-0.2,0.2c0.1,0.1,0.2,0.1,0.2,0c0.4,0.1,0,0.7,0.4,0.7c0,0.4-0.1,0.1,0.2,0.2c-0.1,0-0.1,0-0.1,0.1
		c0,0,0.8,0.1,0.8,0.1c-0.2,0.1-0.2,0,0,0.1c0,0.1,0.1,0.5,0.3,0.4c-0.1-0.7,0.2,0.5-0.1,0.2c0.1,0.2,0.2,0.3,0.2,0.5
		c0.4-0.1,0.7-1.3,0.6-1.6c-0.1,0.1-0.6,1.1-0.6,0.5c0,0.4,0.5-1.2,0.4-1.2c-0.5-0.5-0.5-0.6-0.4-0.5c0.3-0.3-1.5-0.4-1.7-0.3
		c0.7-1.1,0.4-0.1,0.4-1c0.2,0,0.3,0.1,0.6,0.1c-0.2-0.1,0.2-1.7,0.6-1.6c0.3,0.3-0.7,0.3,0.1,0.5c-0.1,0.1-0.1,0.2,0,0.2
		c0.1,0,0.1-0.6,0.3-0.4c0,0.1,0,0.1-0.1,0.1c0.6,0.7-0.8-5.8,0.5-5.6c-1.1-0.2-3.3,3.2-4.4,1.9c0,0.7-1.1,0.5-1,1.7
		c-0.2,0-0.5,2-0.4,2.2c0,0.1,0.1-0.1,0.1-0.2c0.3,0,0.5,0.7,0.2,0.8c0,0.1-0.4-0.5-0.4-0.5c0.1,0.3,0.1,1.6-0.3,1.6
		c0,0.5,0.7,0.2,0.7,0.4c-0.2-0.1-0.1,0.5,0.1,0.5c-0.1-0.4,0.4-0.3,0.3,0.8c-0.2,0.1-0.2,1.2-0.3,1.5c0.1,0,0.3-0.1,0.1,0.1
		c0.1,0.2,0.4,0.2,0.4,0.4c0,0.1-0.2-0.1-0.2,0.1c0.2,0,0.2,0.1,0.1,0.2c-0.2,0.3,0,0.2,0.2,0.2c0,0.3-0.8-0.1-0.6,0.3
		c-0.6,0,0.4,0.4,0.4,0.3c-0.3,0.5,0.2,0.4,0.2,0.8c-0.7-0.1-0.2,0.8,0.1,0.7c-0.6,0.5-1.5-0.7-1.3,1c-0.3-0.1-0.4-0.3-0.7-0.2
		c0,0.2,0.2,0.4,0,0.6c0,0-0.3-0.1-0.4-0.2c0-0.1,0.2-0.4,0.3-0.5c0-0.1,0-0.2-0.1-0.2c-0.3,0-0.2-0.4-0.2-0.5
		c-0.1,0-1.6,0.2-1.7,0.2c0.1-0.3,1.3-0.2,1.5-0.2c-0.2-0.4-1.1,0-1.4,0c0,0-0.4,0.1-0.4,0.1c0,0.1,0.3,0.1,0.3,0.1
		c-0.1,0.1-0.8,1.2-0.8,1.2c-0.2,0-4.3,0.9-4.9,0.9c-0.4,0,0.6-1.6,0.7-1.3c-0.4,0-0.7,0.2-0.8,0.6c0.4,0.2-2.2,4.2-2.2,4.5
		c-0.2,0-0.3-0.3-0.5-0.2c-0.1,0.1,0,0.2-0.2,0.2c0-0.1,0.9,0.7,1,0.7c-0.4,0.2-0.8-0.7-1.5-0.4c0.1,0.1,0.1,0.2,0,0.3
		c-0.1-0.1-0.2-0.1-0.3,0c-0.1,0.1-0.3,0.3-0.4,0.3c0,0.3,0.8,0.3,0.5,0.5c0.1,0,0.3,0,0.4,0.1c0.1,0,0.2-0.1,0.3-0.1
		c0.1-0.2,0.6,0.2,0.7,0.2c0,0.1-6.2,0.3-7,3.1c0,0,0.3,0.3,0.3,0.3c0,0-0.3-0.1-0.3-0.1c0,0-1.2,0.8-1.3,0.9
		c-0.1-0.1-0.3-0.1-0.5-0.1c-0.5-0.4-2.8,1.2-1.8,1.5c-0.1,0.9-2.9-0.3-3.2-0.3c-0.2-0.1-0.1-0.8-0.1-0.7c0.3-0.5-0.1-0.5-0.5-0.6
		c-0.4,0.1-0.8,0-1.1-0.3c0,0.2,0.3,2.1,0.4,2c-0.1,0.2-0.6,2.1,0,2.1c0.2-0.2-3.2-0.2-3.1-0.2c0.1-0.2-0.3-1-0.5-1.1
		c0-0.1,0.2-0.2,0.1-0.3c-0.1,0-0.1,0.1-0.2,0.1c0.1-0.4-1.1-0.2-1.3-0.2c0,0,0,0.4,0,0.4c-0.2-0.1-0.6-0.4-0.7,0
		c-0.1,0-0.4-0.7-0.3-0.3c-3.1-0.7-1.3,0.8-1.9,1c0.2,0-0.1,0.5,0.2,0.7c0.2-0.2,0.3-0.4,0.5,0c-0.1,0.2,0-0.1,0,0.3
		c-0.4,0-0.8-0.2-1.1,0c0,0.6,1,1.1,1.3,1c0.1,0.1,0.2,0.1,0.3,0.2c0.1,0,0.1-0.2,0.1-0.2c0.5,0.5,0.7,0.6,1.4,1.1
		c-0.1,0.3,0.2,0.2,0.3,0.6c0,0.3-0.2,0.6,0,0.1c0.5,0.1,1,0.3,1.5,0.4c0,0,0,0.3,0,0.3c-0.2-0.1-0.2,0.3-0.3,0.3
		c0,0.4,0.7,0.4,0.8,0.4c0,0.3-0.1,0.2-0.3,0.4c0.7,0.7,0.4,0.1,0.2,0.9c0.1,0-0.3-0.5-0.4-0.6c-0.2,0.2,0.1,0.3,0.2,0.4
		c0,0.5,1.8,3.7,2.2,3c-0.2,0.3-0.3,0.2-0.3,0.6c0.1-0.2,1,0.7-0.1,0.9c0.1-0.3-0.2-0.8-0.5-0.9c-0.2,0.4,0.7,1.1,0.2,1.4
		c0.1,0,0.9,1,0.7,0.9c0.3,0.1,0.4,0.9,0.3,0.9c-0.2-0.4-0.4-0.8-0.5-1.2c-0.1-0.2-1,2.3-1,2.4c-0.1,0.2-0.1,0.4-0.2,0.6
		c-0.2,0.2-0.2,0.3,0,0.4c-0.3,0.8-0.7,2.1-1,3c-0.7,1.7-4.5,0.9-4.5,0.5c-0.1-0.1-1.4-1.2-1.8-0.9c0-0.1-8.1-3.1-8.9-3.2
		c-0.5-0.3-0.7-0.1-0.7-0.7c-0.1-0.1-0.5,0.1-0.6,0.1c0-0.1,0-0.2,0.1-0.2c-0.2-0.5-1.8,0.4-1.5,1.2c-0.1,0-0.4-0.4-0.4-0.5
		c-0.2,0-0.1,0.2-0.5,0.1c0.1,0.4-0.6,0.1-0.7-0.2c-0.1,0-0.2,0-0.3,0.1c0,0-0.4,0.2-0.2,0.2c-0.8-0.1-1.2,0.3-1.1,1.1
		c0.2,0,0-0.1,0.1-0.2c0.9,0.5,0,1.1-0.1,1.6c0.1-0.2,0.5-0.1,0.3,0.3c0,0.2,0.3,0.4,0.4,0.5c-0.3,0.4-0.6,0-0.1,0.4
		c0,0.1-0.3,0.2-0.4,0.1c0-0.1,0-0.2,0-0.2c-0.8,2.2-2.2,6.1-2.7,8.4c-0.1,0,0-0.1-0.1-0.1c-0.6,0.6-3.6,6.1-1.4,5.2
		c0.5-0.1,0.4,2-0.4,1.9c0,1.4-0.1,2-1.1,3.4c0.2,0.3,0.5,0.4,1,0.2c0.6-0.6,5.9,2.2,6.1,2.7c0,0.1,0,0.3,0,0.4
		c-0.1,0.3,0.2,1.2-0.1,1.4c0,0.1,0.1,0.1,0.2,0c-1.3,1.1,3.8,2.1,5.2,0.9c0.4-0.4,5.9,0.7,6.7,0.9c0,1,2.6-1.7,2.8-1.8
		c0.1-0.4,0.1-0.1,0.3,0c0-0.1,0-0.2,0-0.3c0.1,0,0.5-0.1,0.5,0.1c0.5-0.1,0.8,0,1.1,0.5c0-0.3,0-0.5,0.3-0.3c0.2-0.1,0-0.6,0-0.5
		c0,0.1,0,0.1,0,0.2c-0.1,0-0.4-0.2-0.1-0.3c-0.8-0.8,3-3.1,3.6-3.2c0-0.2-0.3-0.8-0.6-0.8c-2-2.1,1.3-4.9,2.6-6.1
		c0.1,0,0.1,0.1,0.1,0.1c0,0.1,0.3-0.1,0.3-0.1c0-0.2-0.3,0-0.3-0.1c0.2-0.2,2-2.3,2.6-1.5c0,0.3,4.4-1.4,4.6-1.6
		c0.9-0.3,1.1-0.9,0.7-1.8c0.1-0.1,0.3,0.2,0.5-0.1c0.1-0.1,0.1-0.2-0.1-0.3c-0.9-0.5,0-2.4-0.2-2.8c0.5-0.4,1-0.7,1.7-0.7
		c-0.2-0.3,0.6-0.1,0.5-0.5c0,0,0.9-0.2,0.8,0c-0.1,0-0.2-0.1-0.2,0c0.1,0.1,1.6,0.4,1.3,0.6c0,0.1,0.3,0.4,0.2-0.1
		c0.1,0,0.9,0.8,0.6,0.2c0.1,0,0.1,0,0.1,0.1c0.4-0.1,0.4,0.4,1.1,0.3c0.2,0.2,0.3,0.4-0.1,0.5c-0.1,0.3,1-0.2,0.9,0.4
		c-0.1,0.3,1,0.4,1.1,0.4c0.1,0.1,0.2,0.2,0.3,0.3c0.3,0,0.5,0,0.8,0.2c-0.5,0.3,0.8-1.2,0.8-0.8c0-0.1-0.1-0.2-0.1-0.3
		c0-0.1,0.3-0.3,0.3-0.4c0.3,0.1,0.8-0.6,0.8-0.3c2.1-1.5,4.2-2.1,6.2-2.6c0.1,0.3,1.3,1.5,1.7,1.4c0-0.1-0.2-0.2-0.1-0.3
		c1.4-0.6,1.2,4.5,1.5,4.7c0.9-0.5,0.5,0.3,0.6,0.3c0-0.2,1.2,2,0.9,1.7c0,0,1.2-0.1,0.9,0.2c0.3,0,1.9,1.4,1.9,1.8
		c-0.6,1.1,3.2,2.3,3.6,2.6c0.2,0.1,1.1,0.1,1.1,0.3c0,0,2,2,2,1.9c-0.5-0.1-0.3,0.7,0.6,0.3c1.4,0.1,0.2,2.5,2.2,2.5
		c2-2.5,1.8,8.4,0.8,6.6C205,258.2,204.8,258.3,204.8,258.3C205,258.2,204.7,258.3,204.8,258.3z M238,245.6
		C238.7,246.2,237.5,245.8,238,245.6C238.1,245.7,237.9,245.7,238,245.6z M238.2,245.1c0.6-0.1,0.4,0.5,0.1,0.4
		C238.1,245.2,238.2,245.7,238.2,245.1C238.6,245.1,238.6,245.1,238.2,245.1C238.8,245,238.2,245.2,238.2,245.1z M156.3,188.1
		c0,0.4-0.2,0.5-0.6,0.3C155.9,188.3,156.1,188.2,156.3,188.1C156.5,188.1,156.3,188.2,156.3,188.1z M168.4,177
		C168.6,177.6,167.4,177.1,168.4,177C168.3,177.2,168.3,177.2,168.4,177C168.6,177.6,168.2,177.1,168.4,177z M212.4,176.6
		c0,0.1-0.1,0.3-0.1,0.4C212,176.7,212,176.6,212.4,176.6C212.4,176.7,212.3,176.6,212.4,176.6z M210.1,196.3
		c0.2-0.1,0.5,0.3,0.5,0.4C210.5,196.9,210.1,196.4,210.1,196.3C210.3,196.2,210.1,196.4,210.1,196.3z M192.1,195
		c0.2,0,0.5,0.4,0.6,0.4C192.3,196,192.1,195.4,192.1,195c0,0,0,0.1,0,0.1C192.1,194.7,192,195.4,192.1,195
		C192.2,195,192.1,195.4,192.1,195z M202.6,194.9c-0.2,0.8-0.5,0.8-1,0C201.7,194.3,203,194.8,202.6,194.9
		C203,195.6,202.6,194.9,202.6,194.9z M205.7,188.7c0.6,0,0.5-1.8,0.9-1.7c0.1,0-0.6,4-1.4,4.2C205,190.4,205.3,189.3,205.7,188.7
		C205.9,188.7,205.9,188.7,205.7,188.7C206.1,188.7,205.6,188.8,205.7,188.7z M210.5,185.2c0.2-0.1-0.1,0.6-0.1,0.3
		c0,0-0.5,1.7-0.5,1.7c0.5-0.6-0.8,1-0.5,0.6c0.6,0.1-0.2,0-0.1,0.2c0,0,0.1,0,0.1,0c-0.1,0.1-0.2,0.1,0,0.3c0,0.1-0.5,0.3-0.7,0.3
		c0.1-0.1,0.4-0.5,0.4-0.6c-0.1,0-0.7-0.4-0.6-0.9c-0.3,0.1,1.4-2.6,1.5-2c0.3-0.1,0.8-0.7,1.1-0.4
		C211.1,184.8,210.6,185.2,210.5,185.2C210.8,185.1,210.6,185.2,210.5,185.2z M210.7,183.1c0.1,0.2,0.4,0,0.2,0.3
		C210.9,183.3,210.8,183.2,210.7,183.1C210.8,183.3,210.7,183.2,210.7,183.1z M218.8,181.7c0.1,0.3,0.2,0.6-0.3,0.5
		c0,0.1,0.1,0.2,0.2,0.3c0-0.1-0.8,0.7-1.1,0.7c0,0.2,0.2-0.1,0.1,0.3c-0.1,0-0.2,0-0.2-0.1c-0.2,0.1-0.1,0.2-0.3,0.1
		c-0.3,0.3,0.1-0.4-0.3,0.6c1.4,0.3-2.5,0.2-0.2-0.3c-0.5-0.3-0.9-0.7-0.9-1.2c0.4-0.1,0.2-0.1,0.5,0.2c0.1,0,0.4-0.6,0.8-0.7
		c0-0.1,0.9-0.2,1.1-0.1c0-0.1-0.1-0.1-0.1-0.2c0.1-0.1,0.1-0.1,0.2,0c0.1,0-0.1-0.2,0.1-0.3C218.5,181.6,218.6,181.6,218.8,181.7
		C218.9,182,218.8,181.7,218.8,181.7z M218.6,180.3c0,0.1,0.1,0.2,0.1,0.3c-0.1,0.1-0.3,0.1-0.4,0.1
		C218.1,180.3,218.2,180.2,218.6,180.3C218.6,180.4,218.5,180.3,218.6,180.3z M217.5,181.4c-0.5,0.4-0.2,0.2-0.6-0.1
		c0.2-0.4-0.7-0.1-0.8-0.4c0.4,0,0.7-0.2,1-0.5c-0.1-0.4,1,0.4,0.9,0.2C218.4,180.8,217.9,181.4,217.5,181.4c0,0.1,0.2-0.1,0.1,0.1
		C217.6,181.4,217.4,181.4,217.5,181.4C217.3,181.6,217.6,181.4,217.5,181.4z M219.6,179.1c0,0.1,0,0.1-0.1,0.1
		c-0.1-0.3,0.2-0.3,0.3-0.1C219.7,179.2,219.6,179.1,219.6,179.1C219.6,179.2,219.6,179.2,219.6,179.1z M214,177.5
		c-0.2,0-0.1,0.2-0.3,0.3C213.5,177.4,213.6,177.3,214,177.5C213.8,177.4,213.8,177.4,214,177.5C213.7,177.5,213.9,177.3,214,177.5
		z M213.1,176.7c0.3,0,0.4,0.5,0.6,0.4C213.4,177.1,213.2,177,213.1,176.7C213.4,176.7,213.1,176.8,213.1,176.7z M213.4,176.1
		C213.3,176.1,213.3,176.2,213.4,176.1c0.4,0-0.1,0.2-0.1,0.4c0,0.1,0,0.2,0,0.2c-0.3,0-0.2-0.9,0-1
		C213.4,175.9,213.4,176,213.4,176.1C213.3,176.1,213.4,176,213.4,176.1z M211.1,176.3c0,0.1,0,0.1,0,0.2c0.3,0-0.2-0.4,0.2-0.3
		c0.1-0.3,0.6-0.2,0.7-0.2c-0.2-0.3,0.3-0.1,0,0.1c0.1-0.1,1,0,0.9,0.4c-0.1,0-0.1,0-0.2-0.1c0,0.1,0.2,0.4,0.1,0.5
		c0.4-0.1,0.3-0.1-0.3,0c-0.1,0.1,0.2,0.2,0.1,0.3c1,0.1-0.3,0.3-0.2,0.3c0.1-0.1,0.1-0.3,0.2-0.4c0,0-0.7,0.7-0.5,0.1
		c0,0-0.2,0.2-0.2,0.2c-0.2-0.4,0.1,0-0.2-0.1c-0.1-0.1,0-0.1,0.1-0.1C211.8,177.6,210.4,176.1,211.1,176.3
		C211,176.3,210.9,176.2,211.1,176.3z M224.9,175.5c0.2,0,0.1,0.6-0.1,0.4c0,0.1,0-0.9,0.1-0.2
		C224.9,175.6,224.9,175.6,224.9,175.5C225.1,175.5,224.9,175.6,224.9,175.5z M213.8,176.1c0,0.1,0,0.3,0,0.4
		c-0.2,0-0.3-0.5-0.3-0.6C213.6,175.8,213.8,176.1,213.8,176.1C213.7,176.1,213.8,176.1,213.8,176.1
		C213.8,176.2,213.6,176.1,213.8,176.1z M213.4,175.4c0.1,0,0.2,0.1,0.3,0.2c0.2-0.1-0.2-0.4,0.1-0.4c-0.1,0.4,0.1,0.7,0,1.1
		c0,0-0.4-0.9-0.4-0.5c-0.1-0.1,0.3-0.4-0.1-0.3C213.4,175.5,213.4,175.5,213.4,175.4C213.6,175.5,213.4,175.5,213.4,175.4z
		 M227.4,174.2c0.1,0-0.1-0.2,0-0.2c0,0.3,0,0.4,0.1,0.2c0.1,0,0.3,0.2,0.3,0.3C227.6,174.6,227.5,174.3,227.4,174.2
		C227.4,174.2,227.4,174.2,227.4,174.2C227.5,174.2,227.4,174.2,227.4,174.2z M213.3,165.1c1-0.1-0.6,1.9-0.3,0.1
		C213.2,165.1,213.3,165.1,213.3,165.1C214,165,213.4,165,213.3,165.1z M212.7,163.6c-0.1,0.3-0.1,0.4-0.2,0.7
		C212.5,164.2,212.7,163.6,212.7,163.6C212.6,163.8,212.7,163.6,212.7,163.6z M218.3,158.2c0.1,0.1,0.1,0.1,0.3,0.2
		c-0.1,0.1-0.2,0.1-0.3,0c0.1-0.1-0.1,0.8-0.2,0.3C217.8,158.5,217.8,158.3,218.3,158.2C218.4,158.3,218.3,158.2,218.3,158.2z
		 M235.1,247.9c-0.1,0.1,0.2,0.5-0.4,0.4C234.9,248.2,235,248.1,235.1,247.9C235,248,235.1,248,235.1,247.9z M242.1,243.5
		c0.4,0,0.8,0.1,1.2,0.3c0.1,0-1.9,0.7-1.8,1.3c0.1,0,0.9-0.1,1,0c-0.1,0.5-0.7,0.4-1.1,0.3c0,0-1.9,0.7-2.1,0.6
		c-0.1-1.2-0.7,0.1-0.9,0c0.1,0,0.1-0.1,0.1-0.2c0.2,0,0.3,0.2,0.5,0.2c0,0.1-2.4,0.4-2.4,0.4c-0.1,0.2-0.8-0.1-0.8,0.3
		c0,0,0.2-0.5,0.3-0.5c-0.3,0.1,1.7-0.9,1.4-1.3c0.3-0.6-0.1-0.8,0.6-0.9c-0.3-0.3,1.1-0.2,1.1-0.2c0-0.1,0-0.1-0.1-0.1
		C239.3,243.3,242.1,243.2,242.1,243.5C242.1,243.5,242.1,243.5,242.1,243.5z M214.6,242.3c0.2,0,0.4,0.3,0.3,0.5
		C214.8,242.7,214.7,242.5,214.6,242.3C214.8,242.3,214.7,242.4,214.6,242.3z M214.5,242.3c-0.2,0.2,0.2,0.3,0.1,0.5
		C214,242.8,214.4,242.3,214.5,242.3C214.4,242.5,214.5,242.3,214.5,242.3z M202.3,235.4c0-0.2,0.3,0.1,0.3,0.3
		C202.5,235.6,202.4,235.5,202.3,235.4C202.3,235.2,202.4,235.4,202.3,235.4z M202.1,233.5c-0.2,0.1-0.5-0.2-0.2-0.3
		c0,0,0.3,0.3,0.4,0.4C202.2,233.6,202.2,233.5,202.1,233.5C202,233.6,202.1,233.6,202.1,233.5z M202,233.1c-0.2,0-0.4-0.6,0-0.6
		c0-0.1-0.1-0.2-0.2-0.3c-0.6,0.1,0.9-0.3,0.2,0c0.2,0.2,0.1,0.2-0.1,0.3C202,232.8,202.2,233,202,233.1
		C201.8,233.1,202.1,233,202,233.1z M200.9,230.8c0.1,0.1,0.2,0.1,0.3,0.2c0,0.4-0.1,0.5-0.4,0.8c-0.1-0.1,0-0.3-0.2-0.5
		c-0.1,0.1-0.1,0.1-0.2,0.2C200.4,231.2,200.5,230.9,200.9,230.8C200.9,231,200.8,230.8,200.9,230.8z M154.7,213.7
		c0,0-0.1,0-0.1-0.1C154.8,213.3,155.3,213.8,154.7,213.7C154.7,213.7,154.6,213.7,154.7,213.7z M176.6,205.7
		c0.2,0,0.5,0.4,0.5,0.5c0.4,0.1-0.1,0.2-0.1-0.1c-0.3-0.2-0.5-0.4-0.8-0.5C176.2,205.3,176.8,205.3,176.6,205.7
		C176.8,205.7,176.7,205.6,176.6,205.7z M181.3,203.3c0.2,0-1.5,1.1-1.5,0.2C180.4,203.8,180.9,203.7,181.3,203.3
		C181,203.3,181.3,203.4,181.3,203.3z M181.3,201.9c0,0.1-0.1,0.2-0.2,0.2c-0.2,0.1,0,0.4,0,0.6c-0.5,0-1.1,1-1.5,0.7
		c0.4-0.7,0.4-1.9,0.6-2.2c0.7-0.8,0.4,0.4,0.5,0.6c-0.1,0-0.1,0,0,0.1C180.6,201.7,181.4,201.8,181.3,201.9
		C181.3,202,181.2,201.9,181.3,201.9z M185,179.4c0.2,0,0.3,0.4,0.4,0.5c-0.2,0.1-0.5,0-0.5,0.3c-0.2-0.2,0.1-0.2,0.2-0.2
		c0-0.1-0.1-0.1-0.2-0.2c0.1,0,0.2,0,0.2,0c0,0-0.4-0.3,0-0.2C185.3,179.4,185,179.5,185,179.4C185.3,179.4,185,179.5,185,179.4z
		 M185.3,176.6c0.2,0,0.4-0.2,0.1-0.1c-0.1-0.2,0.6-0.1,0.6-0.4c0.2,0.1-0.4,0.7-0.6,0.6c0.1,0-0.2,0.3-0.1,0.1
		c-0.1,0.1,0.1,0.1,0.1,0.2c-0.3,0,0,0.1,0,0.3c-0.1,0-0.2-0.1-0.2,0.2c0,0,0.3-0.1,0.4-0.1c-0.3,0.3-0.3-0.1-0.5,0.1
		c0-0.2,0-0.3-0.2-0.2c0-0.2,0.2-0.2,0.2-0.4c0.1,0,0,0.2,0.1,0.3C185.2,176.9,185.2,176.8,185.3,176.6
		C185.5,176.7,185.2,176.8,185.3,176.6z M185.6,175c0.2,0,0,0.4-0.1,0.4C185.5,175.3,185.6,175.1,185.6,175
		C185.8,175,185.6,175,185.6,175z M184.7,173c-0.1,0.1,0.4,0.4,0.5,0.4c-0.1,0.1-0.5-0.1-0.5-0.2C184.6,173,184.6,172.9,184.7,173
		C184.6,173.1,184.7,173.1,184.7,173z M189.4,166.9c0.2,0.1,0.5,0,0.4,0.4C189.6,167,189.2,167.3,189.4,166.9
		C189.6,167,189.4,167,189.4,166.9z M213.5,166.8c0,0-0.2,0-0.2-0.1c0,0,0.2-0.2,0.1-0.2C214.2,166.7,213.3,166.8,213.5,166.8
		C213.5,166.7,213.5,166.8,213.5,166.8z M197,163.4c0.1,0.1,0.2,0.2,0.3,0.2c-0.3,0.2-1,0.3-1.4,0.8c0.1,0.2,0.3-0.3,0.4,0
		c-0.1-0.1-0.2,0-0.2,0c0,0.1,0.1,0.2,0.2,0.3c-0.1,0.1-1.2,0.1-1.4,0.1c0,0.1,0.2,0.2,0.2,0.3c-0.1-0.1-0.3-0.1-0.4-0.1
		c0.2-0.3,0.2-0.6-0.1-0.9C194.3,164.6,196.6,163.8,197,163.4C197.1,163.5,197,163.5,197,163.4z M203.2,151c0.1,0,0.4-0.2,0.6,0
		C203.6,151.2,203.4,151.2,203.2,151C203.3,151,203.2,151.1,203.2,151z M204.3,148.4c-0.1,0.1-0.2,0.1-0.3,0.2
		c0.1-0.3-0.1,0-0.1-0.2c0.2,0,0.2,0,0.1-0.3c0.1,0,0.3,0.4,0.4,0.2C205.7,148.9,204.1,148.2,204.3,148.4
		C204.2,148.5,204.3,148.4,204.3,148.4z M208.3,142.2c0-0.2-0.1-0.3-0.2-0.2c0-0.1,0.2-0.3,0-0.3c0.1-0.2-0.1-0.1,0.1-0.2
		c0.1,0,0.6,1.7,0.7,1.8C208.7,142.9,208.5,142.5,208.3,142.2C208.2,142,208.3,142.2,208.3,142.2z M231.8,269.1
		c0,0,0.2,0.4,0.1,0.4C231.5,269.5,231.5,269.4,231.8,269.1C231.8,269.1,231.7,269.2,231.8,269.1z M201.4,266.9
		c0,0.2,0.1,0.3,0.3,0.3c-0.2-0.1-1,0-0.9-0.4C201,266.8,201.2,266.9,201.4,266.9C201.4,267.1,201.3,266.9,201.4,266.9z M231,266.8
		c0.5-0.1,0.3,0,0.5,0c0.3-0.1,0.4-0.1,0.4,0.2c0,0.1,0.1,0.1,0.1,0.1c0.6,0,1.2-0.2,1.7-0.5c0.1,0,0.1,0.1,0.2,0.1
		c0.2,0,0-0.2,0.1-0.2c0.8,0,1.3,0.2,2.2,0c0.2-0.1,0.3-0.1,0.4,0c0.1,0.1,0.1,0.2,0,0.2c0-0.1,0-0.1,0-0.2c0,0-0.3,1,0.2,0.6
		c-0.1-0.3,0.6-0.6,1-0.5c0-0.1,0.1-0.5,0.4-0.5c0,0.1,0.1,0.7,0.1,0.7c0,0,0-0.2,0-0.2c-0.2,1.2-0.4,0.9-2,1.2
		c-0.2,0.2-0.5,0.1-0.7,0.2c-0.2,0-0.2,0.1-0.1,0.2c-1.7,0.6-6.8-1.2-5.3-1.4C230.4,265.8,230.1,266.7,231,266.8
		C231.3,266.7,230.9,266.7,231,266.8z M228.8,265.8C228.1,266,229.1,265.1,228.8,265.8C228.7,265.9,228.9,265.7,228.8,265.8z
		 M240.1,265.3c0,0.3-0.2,0.3-0.3,0.6C239.4,265.8,240.3,265.3,240.1,265.3C240.1,265.6,240.1,265.3,240.1,265.3z M227.3,263.7
		c0.5,0,0.8,0.7,0.4,1C227.2,265.3,227.3,263.7,227.3,263.7C227.6,263.7,227.3,263.8,227.3,263.7z M240.4,263.3
		c0.3,0.2,0.2,2.1,0.1,2C239.8,265,240.4,263,240.4,263.3C240.7,263.5,240.4,263.3,240.4,263.3z M235.8,262.3
		c0.2,0.1,0.3,0.1,0.3,0.3C235.7,262.7,235.6,262.6,235.8,262.3C235.9,262.4,235.7,262.4,235.8,262.3z M235,262.4
		c0,0.5-0.2,0.2-0.5,0.3C234.8,262.5,234.8,262.4,235,262.4C234.9,262.9,234.9,262.4,235,262.4z M233.3,261.8
		C233.2,262.3,232.4,261.7,233.3,261.8C233.3,261.9,233.2,261.8,233.3,261.8z M241,262c0-0.4,0.6-0.2,0.7-0.1
		C241.6,262,241.1,262,241,262C241.1,262,241.1,262,241,262C241,261.7,241.2,262.1,241,262z M233.9,261.5c0,0.2-0.2,0.4-0.4,0.4
		C233.4,261.7,233.7,261.2,233.9,261.5C233.8,261.5,233.8,261.5,233.9,261.5C233.9,261.7,233.8,261.3,233.9,261.5z M232.3,261.6
		c0-0.3-0.7,0.9-1,0.6c0-0.4,0.2-0.7,0.6-0.9C232,261.3,232.2,261.5,232.3,261.6C232.3,261.8,232.4,261.6,232.3,261.6z
		 M240.7,261.5c-0.3,0.1-0.4-0.2-0.5-0.2C240.2,260.8,240.8,261.2,240.7,261.5C240.6,261.5,240.6,261.5,240.7,261.5
		C240.4,261.6,240.7,261.4,240.7,261.5z M234.2,261C235.2,262.3,233.4,261.1,234.2,261C234.2,261.1,234.1,261,234.2,261
		C235.2,262.3,234,261,234.2,261z M237.4,261c0.2,0,0.3,0.2,0.4,0.2c0-0.1-0.7,1-0.8,0.1c0.1,0,0.3,0,0.4-0.1
		C237.4,261.2,237.4,261.1,237.4,261C237.6,261,237.4,261,237.4,261z M242.8,262.3c0-0.1-0.8,1.2-0.9,0.7c-0.2-1.1,0.5-1.4,0.6-2.2
		c0.2,0.1,0.4,0,0.6,0c0,0.2,0,0.4-0.1,0.5c-0.1,0.2,0.2,0.2,0.2,0.4c-0.1-0.1-0.1-0.1-0.2-0.2c-0.3,0.1,0,0.6,0,0.7
		C242.9,262.3,242.8,262.3,242.8,262.3C242.7,261.9,242.7,262.3,242.8,262.3z M239.9,260.7C239.8,261.5,239.4,260.4,239.9,260.7
		C239.9,260.8,239.8,260.6,239.9,260.7z M232.5,260.6c0,0.2-0.1,0.3-0.2,0.4C232.1,260.8,232.1,260.2,232.5,260.6
		C232.5,260.8,232.5,260.6,232.5,260.6z M236.4,260.2c0.1,0.4-0.8,0.6-1,0.7c0-0.2,0-0.2,0.3-0.2c0-0.2-0.1,0-0.2-0.1
		C235.5,260.4,236.2,260.1,236.4,260.2C236.5,260.6,236.3,260.2,236.4,260.2z M241.9,260.2c-0.1,0.1-0.1,0.4,0,0.5
		c-0.3-0.1-0.4-0.3-0.3-0.7C241.7,260.1,241.8,260.2,241.9,260.2C241.9,260.3,241.8,260.2,241.9,260.2z M231.6,260.3
		c-0.2,0-0.5,0-0.3-0.2C231.5,259.6,231.9,260.1,231.6,260.3C231.5,260.3,231.8,260.2,231.6,260.3z M233.8,259.7
		c0.5,0-0.2,1.3-0.8,1.1c0-0.1,0-0.5,0-0.5C233.4,260.2,233.7,260,233.8,259.7C234.3,259.7,233.8,259.7,233.8,259.7z M240,259.4
		c0.3,0-1,1.1-1,1.2c-0.4,0.1,0-0.8,0.3-0.9C239.4,259.6,240.1,259.3,240,259.4C240.5,259.4,240,259.6,240,259.4z M234.9,260.2
		c0,0.1,0.5,0.3,0.4,0.4c-0.1,0-0.6-0.5-0.6-0.2c0.1,0.1,0.1,0.7-0.2,0.4c0.1-0.1,0.1-0.2,0.3-0.3
		C234.4,259.7,234.8,258.8,234.9,260.2C234.9,260.3,234.9,260.1,234.9,260.2C234.9,260.3,234.9,260,234.9,260.2z M194.9,259.2
		c0.1,0,0.4,0.1,0.3,0.2c-0.1,0-0.2,0-0.3,0C194.8,259.3,194.8,259.2,194.9,259.2C195,259.2,194.9,259.3,194.9,259.2z M231.1,258.9
		c0.4,0,0.4,0.6,0.1,0.8C230.9,259.7,231,259,231.1,258.9C231.3,258.9,231.3,258.9,231.1,258.9C231.5,258.8,231,259,231.1,258.9z
		 M238.2,258.6c0.4,0.1,0.4,0.2,0.4,0.5c0.8-0.2,0.4,0.5,0.4,0.6c-0.2-0.2-0.6-1-0.8-0.7C238.1,258.8,238.1,258.7,238.2,258.6
		C238.6,258.7,238.2,258.6,238.2,258.6z M220,258.5c0,0.5,0.8,0.3,0.9,0.8c-0.1,0-0.2,0-0.3,0c-0.1,0-0.1,0.4-0.3,0.5
		C220.1,259.5,219.7,258.5,220,258.5C220,259,220,258.5,220,258.5z M232.5,258.5c0.5,0,0.4,0.5,0.1,0.7
		C232.4,259.1,232.4,258.6,232.5,258.5C232.7,258.5,232.7,258.5,232.5,258.5C233,258.5,232.4,258.6,232.5,258.5z M233.8,258.3
		c0.9-0.2,0,0.6,0,0.4c-0.7,0.4-0.1-0.1,0-0.1C233.7,258.3,234.4,258,233.8,258.3C234.7,258.1,233.7,258.4,233.8,258.3z
		 M237.5,258.6c-0.4,0.1,0-0.8,0.1-0.3C237.6,258.4,237.3,258.7,237.5,258.6C237.1,258.7,237.6,258.5,237.5,258.6z M230.9,258
		c0.3,0-0.1,0.8,0,0.9C230.5,258.5,230.6,258.2,230.9,258C231.2,258,231,258.1,230.9,258z M237.9,257.9c0.1,0,0.3,0.4,0.3,0.5
		C237.9,258.4,237.8,258.1,237.9,257.9C237.9,257.9,237.9,257.9,237.9,257.9C238,257.9,237.8,258.1,237.9,257.9z M261,260.6
		c0,0-0.2,0.7-0.2,0.6c-0.2-0.1-0.6,0.1-0.8,0.2c0,1.3-1.5,1.1-1.5,2.2c-0.2-0.1-0.2,0.2-0.4,0.1c0,0.3-2.4-0.8-2.2-0.9
		c0.1-0.9,4.3-4.8,5.9-5.1C262,257.8,261,260.8,261,260.6C261,260.8,261,260.6,261,260.6z M237.2,257.1c0.4,0-0.1,0.5,0,0.5
		c-0.1,0-0.2-0.2-0.3-0.2C237,257.3,237.1,257.2,237.2,257.1C237.5,257.1,237.1,257.1,237.2,257.1z M236.5,257c0.6-0.1-0.4,1-0.8,1
		C235.1,257.5,236.5,257.3,236.5,257C236.7,257.1,236.7,257.1,236.5,257C237.1,257,236.5,257.1,236.5,257z M202.7,257
		C203.3,257.2,202.6,257.3,202.7,257C202.7,257.2,202.7,256.7,202.7,257C202.8,257.1,202.7,256.8,202.7,257z M232.1,256.8
		c0,0.1,0.7,1.1,0.9,1.1c0.1-0.6,0.7,0.6,0.3,0.5c-0.5-0.1-1.1-1.2-1.6-1C231.8,257.1,231.3,256.5,232.1,256.8
		C232.1,256.8,232.1,256.8,232.1,256.8C232.1,257,232,256.7,232.1,256.8z M219.8,256.7c0.1,0.2,0.4,0.5,0,0.4
		c0.1,0.1,0.9,1.2,0.1,1c0.1-0.1,0.1-0.1,0-0.2c-0.3,0,0.1,0.1-0.2-0.1C217.6,258.9,220.2,255.5,219.8,256.7
		C219.9,256.9,219.8,256.6,219.8,256.7z M234,254c0.1,0.4-0.4,0.5-0.4,0.2c0.1-0.2,0.2-0.2,0.4-0.1C234,254,234.1,254.1,234,254
		C234.1,254.4,234,254,234,254z M235.6,255c0.1,0.5,0.1,0,0.2,0.5c-0.3-0.2-0.9,0.5-1-0.4c0.2,0,0.4-0.4,0.1-0.2
		c0.4-0.2,0.3-0.3-0.1-0.3c0.4-0.3-0.4-1.2,1.2-0.6c0,0.2-0.3,0.1-0.4,0c-0.2,0.3,0.1,0.7,0.2,0.9C235.7,255,235.7,255,235.6,255
		C235.7,255.5,235.7,255,235.6,255z M237.3,254c-0.3-0.1-0.1-0.2-0.3-0.3C237.2,253.6,237.3,254.1,237.3,254
		C237,253.9,237.3,253.9,237.3,254z M217.8,253.6c0.2,0,0.5,0.2,0.4,0.4C218,254,217.7,253.8,217.8,253.6
		C217.9,253.6,217.7,253.8,217.8,253.6z M183.4,253.6c0,0-0.1,0.3-0.1,0.4C183,254.1,182.9,253.4,183.4,253.6
		C183.4,253.7,183.3,253.6,183.4,253.6z M230.5,253c0.3,0.1,0.4,0.8,0.8,0.7c-0.1,0.3-0.9,0.1-0.9,0.2c0-0.1,0.1-0.2,0.1-0.2
		C230.3,253.5,230.3,253.2,230.5,253C230.8,253.1,230.5,253.1,230.5,253z M228.5,252.8c-0.1,0.6-0.8,0-0.7-0.2
		C227.9,252.5,228.5,252.9,228.5,252.8C228.7,253,228.1,252.8,228.5,252.8C228.3,253.4,228.3,252.8,228.5,252.8z M227.6,252.6
		c0,0.1,0.2,0.3,0,0.3c0,0.1,0.2,0,0.1,0.1C227.1,252.7,227.4,253,227.6,252.6C227.6,252.7,227.5,252.6,227.6,252.6z M163.3,252.7
		c0.4,0.3,0.3,0.3-0.4,0.3C163,252.5,163.1,252.4,163.3,252.7C163.4,252.8,163.4,252.7,163.3,252.7z M228.7,252.1
		c0.4,0,0.2,0.4,0.3,0.6c-0.2,0-0.4-0.1-0.4,0.2c-0.1,0-0.3-0.2-0.3-0.3C228.7,252.6,228.6,252.5,228.7,252.1
		C228.9,252.2,228.9,252.2,228.7,252.1C229.1,252.1,228.7,252.2,228.7,252.1z M229.1,251.8C229.7,251.7,228.9,252.5,229.1,251.8
		C229.2,251.8,229,251.8,229.1,251.8z M163.7,251.1c0.2,0.3-0.2,1.4-0.7,1.3c0-0.4-0.6-0.4-0.3-0.9
		C162.8,251.5,164,251.1,163.7,251.1C163.8,251.4,163.6,251.1,163.7,251.1z M235.6,250.6c0.4,0.3,0.7,0.7,0.9,1.2
		c0.2,0.9-2.4,0.1-2.3-0.2C234.3,251.3,235.6,250.7,235.6,250.6C235.7,250.6,235.6,250.7,235.6,250.6z M231.6,250.5
		c0.3,0,0.3,0.5-0.1,0.5C231.5,250.9,231.5,250.7,231.6,250.5C231.7,250.6,231.7,250.6,231.6,250.5
		C231.9,250.5,231.6,250.7,231.6,250.5z M234.5,249.4c-0.1-0.1-0.2-0.2-0.4-0.2C234.4,249,234.5,249,234.5,249.4
		C234.4,249.3,234.6,249.3,234.5,249.4z M231.9,249.8c0,0,0.1,0,0.1-0.1c-0.1-0.1-0.4,0-0.5-0.2c0,0-0.1-0.6-0.1-0.6
		c0.3,0,0.6,0,0.8-0.1c0,0.1,0,0.1,0.1,0.2c0.6,0.4-0.1,0.4-0.1,0.2c-0.3,0,0.1,0.4,0.1,0.5C232.1,249.7,232,249.8,231.9,249.8
		C231.9,249.8,231.9,249.8,231.9,249.8z M168.3,248.6c0.1,0,0.6,0,0.5,0.2c-0.1,0.1-0.2,0.2-0.3,0.2c0.1,0.1,0.6,0.1,0.1,0.3
		c0.1,0.2,0.5,0.5,0.5,0.1c0.1,0.1,0.8,0.7,0.2,0.8c-0.4,2.2-2,0-2.7,0.3C166.5,249.1,167.1,249.3,168.3,248.6
		C168.3,248.6,168.2,248.7,168.3,248.6z M199.7,248.3c0.1,0.1,0.1,0.1,0.2,0.2c-0.1,0.1-0.7,0.2-0.6-0.1
		C199.4,248.5,199.7,248.4,199.7,248.3C199.8,248.4,199.7,248.4,199.7,248.3z M234.2,247.9c0.1,0.3-0.5,0.4-0.7,0.5
		c-0.4-0.1-0.2-0.2-0.2-0.4C233.2,247.9,234.3,247.4,234.2,247.9C234.2,248.2,234.2,247.9,234.2,247.9z M233.2,246.9
		c-0.2,0.6-0.4,0.1-0.8,0.2C232.3,246.3,233.5,247.3,233.2,246.9C232.9,247.5,233.1,246.9,233.2,246.9z M230.2,246.1
		c0.3,0.5,0.2,0.8-0.4,0.7C229.5,246.4,229.6,246.2,230.2,246.1C230.2,246.3,230.2,246.1,230.2,246.1z M183.4,247
		c0.2-2.6,0.4-0.3,0.2-0.5c0,0.1-0.1,0.1-0.2,0.1c0.4,0.5,1.7,0.7,1.4,0.2c0.4,0.2,0.5-0.6,0.8-0.6c0.4-0.4,0.6-0.3,1-0.2
		c0.2-0.5,0.7,0.2,0.3,0.1c0.1,0.2,0.6,0.5,0.6,0.9c-0.2,0-0.1-0.1-0.2,0.2c0.2-0.2,0.5,0.2,0.4,0.4c-0.1,0-0.1,0-0.2,0
		c0,0.2,0.1,0.4,0.2,0.3c0.6,0.5-0.7,4.4-0.5,5.2c0-0.2-0.2,0.6-0.3,0.8c0.5,0.4-0.5,0.3-0.7,0.4c-0.1-0.4-0.4-0.6-0.8-0.6
		c-0.1,0.2-0.2,0.3-0.1,0.5c0,0.4-0.3,0.5-0.5,0.7c-0.8-0.2-0.6,0-1-0.8c-0.3,0.1-0.1,0.4-0.4,0.4c-0.1-0.2-0.2-0.5-0.1-0.7
		c0.1,0,0.1,0.1,0.2,0.1c0,0-0.2-0.4-0.2-0.5c0.2,0,0.4-1.9,0.4-2.1C184.1,251.5,183.1,247.3,183.4,247
		C183.4,246.7,183.3,247.1,183.4,247z M191.1,241.7c0.2,0,0.3,0.1,0.2,0.3C191.2,241.9,191.1,241.8,191.1,241.7
		C191.2,241.7,191.1,241.8,191.1,241.7z M208,240.5c0,0.2-0.5,0.2-0.5,0C207.6,240.4,208,240.6,208,240.5
		C208,240.8,207.9,240.4,208,240.5z M210.2,240.7c0,0.2-1.2-0.1-1.3-0.2C208.8,240.2,210.1,240.6,210.2,240.7
		C210.2,240.9,210.1,240.6,210.2,240.7z M189,240.2c0.3-0.3,0.6-0.4,1-0.3C190.1,240.5,189.1,240.5,189,240.2
		C189,240.1,189,240.1,189,240.2C188.9,239.9,189,240.4,189,240.2z M206,239.4c0,0.4-0.4,0.2-0.6,0.3
		C205.3,239.2,205.7,239.4,206,239.4C205.9,239.6,205.9,239.6,206,239.4C206,239.8,205.9,239.4,206,239.4z M187.3,239.1
		c0.1-0.5,0.4,4.3-0.3,4.1c0,0,0.1,0,0.1,0c0.1,0.1-0.6,1.9-0.6,2c-0.4,0.6-1.4-1-1.4-1c0-0.1,0.3,0.1,0.3-0.1
		c-0.1-0.1-0.8-1-0.8-1.2c0.1-0.1,0.3-0.1,0.3-0.4c0,0-0.8-0.9,0-0.7c0.1-0.5,1.9-2.2,1.9-1.5C187.2,240.1,186.6,238.7,187.3,239.1
		C187.2,239.9,187.2,239,187.3,239.1z M207.2,239c0.5,0,0.9,0.1,1.4,0.1c0.1,0.3-1.5,0-1.2,0.2c-0.2,0-1.4,0-1.2-0.4
		C206.4,238.6,207.2,238.8,207.2,239C207.3,239.2,207.2,238.6,207.2,239C207.6,239,207.2,238.8,207.2,239z M206.3,238.4
		c0-0.2,0.1-0.3,0.4-0.2c0.7-0.1,0.9,0,0.8,0.6c-0.7,0.1-1.2-0.2-1.7-0.6C206,238,206.2,238.1,206.3,238.4
		C206.3,238.1,206.3,238.4,206.3,238.4z M202,234.4C201.6,234.3,202,234.6,202,234.4C201.8,234.4,202.1,234.3,202,234.4z
		 M201.5,234.3C202.1,234.3,201.4,235,201.5,234.3C201.5,234.3,201.5,234.5,201.5,234.3z M160.1,222.7c0.1,0.3,0.2,0.3,0.3,0.1
		c0,0.3,0.3,0.3,0.3,0.6c-0.3,0-0.8-0.5-0.8-0.7C160,222.7,160.1,222.7,160.1,222.7C160.2,223,160.1,222.8,160.1,222.7z
		 M158.6,220.9c-0.1,0-0.4-0.1-0.3-0.2C158.4,220.6,158.5,220.7,158.6,220.9C158.5,220.9,158.6,220.8,158.6,220.9z M157.2,218
		c-0.1,0.4-0.6,0.2-0.6-0.3C157.2,217.8,157.1,218.3,157.2,218C157.1,218.4,157.2,218.1,157.2,218z M161.7,213
		c0,0.3-0.2,0.2-0.4,0.2C161.3,212.9,161.9,213.1,161.7,213C161.7,213.3,161.6,213,161.7,213z M161,212.6c0.1,0.3-0.3,0.2-0.4,0
		C160.7,212.6,160.8,212.6,161,212.6C160.9,212.7,160.9,212.7,161,212.6C161.1,212.9,160.8,212.6,161,212.6z M182.7,199.8
		c-0.1,0-0.1,0-0.1-0.1c0.2-0.1,0.4-0.1,0.6-0.1C183,199.6,182.9,199.7,182.7,199.8C182.6,199.8,182.6,199.7,182.7,199.8z
		 M182.3,199.7c-0.4,0-1.5,0.3-1.9,0.2c0-0.6,1,0,1.1-0.3c0-0.1-0.2,0-0.2-0.1C181.7,199.4,181.9,199.5,182.3,199.7
		C182.2,199.7,182.3,199.6,182.3,199.7C181.8,199.7,182.3,199.5,182.3,199.7z M184.9,199.1c-0.2,0.4-0.9-0.1-0.7,0.3
		C183.5,199.1,184.3,199.1,184.9,199.1C184.8,199.1,184.9,199.1,184.9,199.1C184.7,199.5,184.7,199.1,184.9,199.1z M188.7,196.2
		c0.2,0-0.1,0.3-0.1,0.3c-0.1,0-0.2,0-0.2-0.1C188.5,196.4,188.6,196.3,188.7,196.2C188.9,196.2,188.7,196.3,188.7,196.2z
		 M187.9,195.7c0.2-0.1,0.2,0.4,0.2,0.4c-0.1,0-0.3-0.2-0.4-0.3C187.7,195.8,187.8,195.8,187.9,195.7
		C188.1,195.6,187.9,195.7,187.9,195.7z M188.6,195.6c0.1,0.4-0.5,0.4-0.5,0C188.2,195.7,188.8,195.7,188.6,195.6
		C188.6,196,188.5,195.6,188.6,195.6z M188.5,193.9c0.1,0,0.3,0.2,0.3,0.3c-0.2-0.1-0.8,0.7-0.4,1c-0.3,0-0.5,0.1-0.4,0.5
		C187.6,195.6,188.5,193.9,188.5,193.9C188.6,193.8,188.4,193.9,188.5,193.9z M148.5,193.8c0,0-0.1,0.1-0.1,0.1
		c-0.1,0-0.2-0.3-0.3-0.3C148.3,193.5,148.4,193.6,148.5,193.8C148.5,193.8,148.5,193.7,148.5,193.8z M160.5,193.1
		c-0.3,0.1-0.7,0.1-0.9,0.3c-0.2-0.7,1.3-0.8,1.3-1.2C161.1,192.6,160.9,192.9,160.5,193.1C160.2,193.2,160.5,193.1,160.5,193.1z
		 M193.2,191.5c0.1,0.3,0.1,0.6,0.1,0.9C192.8,192.4,193.2,191.5,193.2,191.5C193.3,191.8,193.1,191.4,193.2,191.5z M151.8,190.2
		c0.2-0.1,0.5-0.2,0.6-0.4c0.3,0.1,0.7,0,0.8-0.3c0.1,1-1.8-2.2-0.5-0.9c0,0.1,0.3-0.8,0.3-0.8c0.1,0.2,1.4-0.7,1.5-0.1
		c0.1-0.1-0.1-0.2,0-0.3c0.2,0,0.3,0,0.5,0c0.3-0.1,0,0.4,0.1,0.4c0-0.4,0.4-0.3,0.6-0.6c0.6,0.4,1.8,0.7,2.1,1
		c0.3-0.2,0.4,1.9,0.1,2.4c0.8,0.1,0.6,0.1,0.8,0.9c-0.1,0.1-0.4,0.4-0.3,0.6c-0.3,0.1-0.6,0.1-0.9,0.1c0.3,0.5-1.1,0.6-1.2,0.7
		c0.1-0.1,0,2.3-0.1,2.3c-0.2,0.7-0.7,3.1-1.8,3.3c-0.2,1.1-0.2-0.1-0.9,0.4c0,0-0.4,0.1-0.5,0.1c0.1-0.1,0.1-0.2,0.1-0.3
		c-0.5,0.3-1,0.3-1.5,0.1c0,0.1,0.1,0.2,0.2,0.1c0,0.7-2.5,0.3-2.6,0.8c-0.8,0.2-1.5,0.3-2.3,0.1c0.3-0.6-1.1,0.3-0.6-0.5
		c-0.4-0.1,0.6-0.4,0.8-0.4c0,0-0.6-0.2-0.4,0.1c-0.4,0-0.9-0.2-1.3-0.2c0.1-0.1,0.2-0.1,0.3,0c0-0.4-0.1,0,0.3-0.2
		c-0.1-0.1,0.5-0.3,0.5-0.3c-0.3-0.2-1,0.4-0.8-0.3c-0.3-0.5,0.3-1,0.5-0.8c0.1,0,0.5,0.1,0.4-0.1c-0.5-0.1-0.9-0.1-1.4-0.2
		c0,0,0.5-0.7,0.5-0.3c0.2-0.1,0.7-0.5,0.6,0c0.2,0,0.2-0.2,0.3-0.2c0,0.3,0.1,0.3,0.4,0.3c0-0.1-0.2-0.1-0.2-0.2
		c0.1,0,0.2,0,0.2-0.1c0-0.1-0.2-0.2-0.2-0.3c0.4,0,0.8-0.1,1.1-0.3c-0.1,0-0.1,0,0-0.1c0,0,0.2,0.3,0.2,0.1
		c-0.2-0.3-0.8-0.1-1.1-0.1c0.6-0.4,1.1-0.6,1.6-1c0-0.1-0.2,0-0.2,0c-0.2-0.8,1.1-0.6,1.4-0.7c-0.5-0.3-1.1-0.5-1.7-0.6
		c0.4-0.3,0.1-0.1,0-0.2c0-0.2-0.1-0.5-0.6-0.6c0-0.2,0.1-0.2,0.3-0.2c-0.1,0.1,0.1-0.9,0.2-0.4c0.1-0.1,0-0.1-0.1-0.1
		c0.2-0.1,0.3,0.1,0.5,0.1c0-0.3,0.9-0.7,0.9-0.7c0-0.1-0.5-0.2-0.4,0c-1.1-0.2-0.7-0.6,0-0.6c0.1-0.2-0.1-0.2-0.1-0.4
		c0.3,0,0-0.2,0.2-0.3c0.3,0.2-1-0.9,0.2-0.4c-0.1,0.1,0.6,0.2,0.7,0.2c0.1,0.1,0.4,0.2,0.6,0.2c0.1,0.2,0.1,0.2,0.2,0.5
		c0.1,0,1.2-0.2,1.2,0C152,190.3,151.9,190.2,151.8,190.2C152,190.1,151.8,190.3,151.8,190.2z M160.5,187.2c0.4,0,0.2,0.9,0.1,1.1
		C159.8,188.2,159.8,187.4,160.5,187.2C160.5,187.2,160.6,187.1,160.5,187.2C160.8,187.2,160.3,187.2,160.5,187.2z M194.8,186.8
		C194.7,187.7,193.6,186.6,194.8,186.8C194.8,186.8,194.8,186.8,194.8,186.8C194.7,187.7,194.6,186.8,194.8,186.8z M159.2,185.3
		c0,0.1-0.3,0.5-0.5,0.4C158.7,185.5,159,185.2,159.2,185.3C159.2,185.4,159.1,185.2,159.2,185.3z M158.5,183.5
		c0,0.1,0.1,0.1,0.1,0.2C158.6,183.7,157.1,183.7,158.5,183.5C158.5,183.6,158.4,183.5,158.5,183.5z M159.2,183.2
		c0,0.3-0.5,0.4-0.7,0.3C158.5,183.3,159.1,183.2,159.2,183.2C159.2,183.3,159.2,183.3,159.2,183.2
		C159.3,183.5,159.2,183.2,159.2,183.2z M160.2,182.5C160.3,183,159.5,182.6,160.2,182.5C160.2,182.6,160,182.5,160.2,182.5z
		 M160,182.1C159.9,182.9,159.2,181.7,160,182.1C160,182.2,160,182.1,160,182.1z M157.5,181.5c0.2,0.1,0.2-0.3,0.4,0
		c-0.1,0.2-0.1,0,0,0.2c-0.2,0-0.4,0.3-0.6,0.3C157.4,181.8,157.4,181.6,157.5,181.5C157.7,181.6,157.5,181.5,157.5,181.5z
		 M162.9,178.6c-0.1,0.1-0.1,0.3,0.1,0.3c0.4-0.3-0.4-0.7,0.4-0.7c-0.1,0.2,0.2,0.1,0.2,0.1c-0.5-0.7,1.3-1.7,1.2-0.7
		c0.1,0,0.7-0.1,0.4,0.1c0.7-0.1,1.4-0.1,2,0.2c0.1,0-0.1-0.2,0.1-0.3c0.3,0,0.5,0.1,0.8,0.1c0,0.1-0.4,0-0.4,0.2
		c0,0,0.3,0,0.3,0.1c0,0.2-0.6,0.5-0.2,0.5c-0.7,0.9-2.5,1.2-2.2,1.7c0,0.4-0.2,0.6-0.5,0.8c-0.1-0.1-0.7,0.3-0.7,0.4
		c-0.1-1.1,3.8,0.2,4.1,0.2c2.2,0-1.3,3-1.4,3.5c-0.1,0-0.9,0.7-0.9,0.5c1.5-0.5-3.8,2.6-1.6,1.4c0.1,0,0.2,0.1,0.3,0
		c0,0.3,0.9,0.4,0.8,0c0.5,0.1,1,0.4,1.4,0.8c-0.7,2,3.2,6.2,2.6,7.3c-0.6-0.5,0.1,1.9,0.1,1.9c-0.2,0-0.5-0.5-0.6-0.1
		c0.3,1.1,1.3,1.6-0.2,2.5c0,0.2,0.1,0,0.2,0c-0.1,0.3,1.7,0.1,2.1,0.1c-0.2,1.2,1.2,2.1-0.2,4c0,0-0.1,0-0.1-0.1
		c-0.1,0.4-0.4,0.6-0.9,0.4c0.2,0.5-0.2,1-0.8,0.8c0.2-0.2-0.2-0.1-0.3,0c0.3-0.1,1.6,1.2,1.9,0.9c-0.2,0.6-0.6,0.9-1.2,0.9
		c-0.5,0.4-0.8,0.6-1.6,0.5c-0.1,0-0.2,0.1-0.2,0.2c-0.4-0.1-3.3-1.2-3.9-0.8c1.4,1.1-1.4-0.4-1.5,0.4c-1.6-0.4-2.6-0.3-3.7-0.1
		c0.2,1-2.8-0.2-2.9-0.4c-1.1,0.2-1.2,1.2-2.5,0.5c0.3,0.2,2.5-2.2,3.2-2c0.2-0.3,1.2-1.1,1.2-1.3c0.5-0.1,2.9,1.1,2.9,0
		c0.1,0-2.8-1.6-2.3-1.6c-0.1-0.3-0.7,0-0.5-0.5c0,0.1-0.5-0.1-0.4-0.1c-0.1-0.1-0.4,0.4-0.3,0.4c-0.2,0.2-1.5-0.5-1.3-0.8
		c0.1,0,0.3,0.2,0.2-0.1c0.3,0.1,0.2,0,0.1-0.2c-0.1,0.1-0.2,0.1-0.3-0.1c0.1-0.9,2.5-0.2,2.9-1c1,0.3,0.7-3.3-0.1-1.7
		c-0.1,0-0.2-0.1-0.2-0.2c-0.1,0-0.3,0.1-0.4,0c0.5,0.7,0.7-1.5,0.7-1.8c0.3-0.3,0.7-0.4,1.1-0.1c-0.3,0.2,0.1,0.3,0.2,0.4
		c0,0.1,0,0.2-0.1,0.2c0.1,0.2,0.6-0.1,0.6-0.3c0.3,0.3,0.7,0.3,1.1,0.2c0.1,0.2,0.2,0.2,0.3,0.2c0,0,0-0.2,0-0.2
		c0.3-0.3,0.5-0.6,0.8-1c-0.2-0.8,0.3-0.7,0.7-1.3c0-0.1-0.1,0.1-0.2,0c0-0.1,0-0.2,0-0.3c-0.1,0.3-0.2,0.1-0.3,0
		c-0.2,0.1-0.4,0.4-0.4,0.4c-1.5,0.4,0.7-3.5,0.6-3.3c-0.1-0.1-0.5-0.2-0.6,0c0,0,0.1,0.1,0.1,0.1c-0.2-0.1-0.6,0.1-0.8,0.3
		c0,0-1-0.4-1.1-0.5c0.2-0.1-1.4,1.1-0.9-0.2c1,0.7-1.4-0.4-0.8-0.3c0.3-0.3,1.1-1,1.2-1.5c1.5-0.5-0.1-1,0.2-1.3
		c0.1-0.1,0.3-0.4,0.4-0.7c-0.1-0.1-0.5,0.7-0.5,0.7c0.1-0.4-0.2-0.6-0.5-0.8c-0.1,0.1,0.1,0.5,0.1,0.6c-0.2-0.1-0.8,0.3-0.5,0.5
		c-0.1,0.1-0.2,0.1-0.1,0c0,0.7-0.3,0.9-0.9,0.8c0.1-0.5,0.3-0.9,0.6-1.3c-0.3,0.2-0.2-0.5,0-0.1c0.5-0.1,0-1.4,0.8-1.4
		c0-0.1-0.1-0.1-0.1-0.1c0-0.1,0.3-0.2,0.3-0.3c0.6,0.8-3,2-2.3,1.6c0-0.2,0.1-0.2,0.3-0.2c0,0-0.6,0.2-0.7,0.2
		c0-0.3,0.4-0.7,0.8-0.7c-0.3,0.2,0.6-0.4,0.4,0.1c0.5,0,1.1-1.3,1.6-1.3c-0.1-0.3,0.1-0.4,0.4-0.3c-0.1-0.1-0.4,0-0.4-0.1
		c0.3-0.2,0.8-0.2,1-0.6c0,0.1-1.2,0.4-1.2,0.4c0.6,1-0.3,0.4-0.5,0.6c-0.2,0.1-1.1,0.2-1-0.2c0,0.1-0.1,0.1-0.1,0
		c0-0.2,0.8-0.3,1-0.3c0.2,0.1-1-0.6-0.3-0.2c0-0.2-0.2-1,0.5-0.3c0.1,0,0-0.2,0.2-0.1c0-0.2,0.2-0.7,0.2-0.3
		c0.1-0.1,0.1-0.1-0.1-0.1c0,0,0.4-0.2,0.4-0.2c-0.1,0-0.2-0.1-0.3-0.1c0-0.1,0.3-0.4,0.5-0.4c0,0,0.3-0.5,0.3-0.5
		c-0.6,0-0.8,0.8-0.6-0.2c0,0-0.2,0.2-0.2,0.2c-0.1,0,0-0.2-0.1-0.3c-0.2,0.2-0.2,0.1-0.4-0.1c0-0.1-0.1-0.2-0.2-0.2
		c0.3-0.4,0.1-0.6-0.4-0.6c0-0.3,0.3-0.8,0.3-0.2c0.1,0,0.2-0.5,0.2-0.5c0.1,0.1,0.2,0.5,0.4,0.4c-0.2-0.4,0.7-0.8,0.5,0.4
		c-0.1,0-0.3,0.3-0.2,0.4c0.2,0,0.5-0.6,0.5-0.8c0.1,0.1-0.3,0.8-0.4,0.9c0.1,0.1,0.1,0.2,0.1,0.3c0.2,0,0.6-0.1,0.7-0.3
		c-0.2-0.2-1.4,0.4-0.2-0.9c0.1,0,0.1,0.3,0.2,0.2c0-0.3-0.2-0.3,0.1-0.6c0-0.2,0-0.4,0-0.5c0.3-0.2,0.2,0.1,0.3,0.2
		c0-0.1,0.1-0.2,0.2-0.3c0.1-0.1,0.1,0.3,0.2,0.3c-0.1,0,0.7-0.2,0.6-0.1c0-0.2-0.2-0.4-0.4-0.3C162.7,179,162.8,178.6,162.9,178.6
		C162.9,178.7,162.8,178.6,162.9,178.6z M160,177.5c0,0,1-0.3,1-0.3c0-0.1,0-0.1,0.1-0.1c0.2,0.1,1.7,0.2,0.2,0.8
		c0.1,0.2,0.3,0,0.4-0.1c0,0.3-1.2,1-1.4,1c-0.1,0.1-0.1,0.5-0.2,0.1c-0.1,0.1-0.9,0.6-0.8,0.6c-0.2,0.1-0.9,0.9-0.7,1
		c0,0-0.4,0.9-0.6,0.9c0.1-0.1,0-0.1,0.1-0.2c-0.6-0.2,0.3-1.4,0.3-1.7c-0.7,0.2,0.5-0.6,0.4-0.4c0.1-0.1,0.6,0.2,0.5-0.4
		c0.1,0,0.3,0,0.4,0c0-0.1-0.2,0-0.2-0.1c0-0.2,0.4-0.1,0.4,0c-0.1-0.1-0.8-0.6-0.2-0.6C159.6,177.8,159.7,177.6,160,177.5z
		 M169.3,176.4c0,0,0.2,0.2,0.3,0.2c-0.1,0-0.1,0.1-0.1,0.2c-0.2,0-0.3,0-0.3-0.3C169.2,176.5,169.2,176.4,169.3,176.4
		C169.3,176.4,169.3,176.4,169.3,176.4z M169,176.2c0-0.1,0.2-0.1,0.2-0.1c0,0.1-0.1,0.4-0.2,0.4C169,176.4,169,176.3,169,176.2
		C169,176.1,169,176.2,169,176.2z M168.8,176.2c0.1,0.2-0.3,0.5-0.4,0.5c0,0.2,0.7,0.1,0.4,0.3c0.5,0,0,0.3-0.3,0.2
		c-0.1,0.1,0,0.5-0.2,0.5c-0.1,0-0.1-0.1-0.1-0.2c-0.1-0.2-0.3-0.1-0.5,0c-0.4-0.2,0.4-1.7,0.7-1.2c0,0,0.1-0.3,0.1-0.3
		C168.6,176.1,168.7,176.1,168.8,176.2C168.9,176.4,168.8,176.3,168.8,176.2z M168.9,176.6c0,0,0-0.1,0-0.1
		c0.2,0.1-0.2,0.4-0.4,0.3C168.7,176.7,168.8,176.6,168.9,176.6C168.9,176.5,168.8,176.6,168.9,176.6z M169.7,175.9
		c0,0,0,0.1,0,0.1c0.8,0.1-0.3,0.3-0.4,0.3C169.3,176.1,169.4,175.9,169.7,175.9C169.6,175.9,169.6,175.9,169.7,175.9z M169,175.5
		c0.2,0,0,0.2,0,0.2c-0.1,0-0.1,0-0.2,0c0.1,0.1,0.1,0.2,0.1,0.3c-0.2,0.1-0.2-0.4-0.4-0.4C168.7,175.6,168.9,175.6,169,175.5
		C169.2,175.5,169,175.5,169,175.5z M172.7,173.5c0,0.1,0.1-0.2,0.1-0.2c0,0.4-1.1-0.7-0.4-0.7c0,0.5,0.4-0.1,0.5-0.3
		c0,0.1-0.1,0.1-0.1,0.1c0.1-0.1,0-0.2-0.2-0.2c0-0.1,0.3-0.1,0.2-0.3c0.1,0.2,0.1,0.2,0.2,0c0.1-0.1,0.2-0.2,0.4-0.1
		c0,0.2-0.1,0.3-0.2,0.5c0.1-0.1,0.1-0.1,0.2,0c0.5-1.3,1.3-0.5,0.6-0.5c0,0.2,0.3,0.1,0.4,0.2c-0.3,0.3-0.4,0.3-0.4-0.1
		c0,0-0.5,0.6-0.6,0.6c0.6,0.1-0.3,0.3,0.4,0.2c-0.1,0.3-0.2,0.1-0.4,0.1c-0.1,0.2,0,0.3-0.2,0.4c0,0.1,0.3,0.2,0.3,0.3
		c-0.1,0-0.2,0-0.2,0.1c-0.3-0.2-0.4,0.2-0.3,0.3c-0.1-0.2-0.3,0.5-0.4,0.4C172.5,174.2,172.6,173.9,172.7,173.5
		C172.7,173.6,172.7,173.5,172.7,173.5z M185.1,170c0.3,0.1,0.1,0.4,0,0.6c-0.1,0-0.2,0-0.3,0c0.1-0.2,0.2-0.1,0.2-0.4
		C185.1,170.4,185.1,170.4,185.1,170C185.4,170.1,185.1,170.1,185.1,170z M188.3,166.8c0.1,0,0.2,0,0.2,0.1c-0.4,0-0.4,0.5-0.5-0.1
		C188.1,166.8,188.2,166.8,188.3,166.8C188.5,166.7,188.3,166.8,188.3,166.8z M164.8,166.7c-0.4,0-0.1-0.8-0.4-0.7
		c0-0.1,0.1-0.3,0.1-0.4C164.9,165.7,165,166.5,164.8,166.7C164.7,166.7,164.7,166.7,164.8,166.7
		C164.4,166.7,164.9,166.7,164.8,166.7z M192.9,163.2c0.3-0.1,0.2,0.3,0.4,0.2c-0.5,0.2,0.1,0.9-1.1,0.3c0-0.2,0.4-0.2,0.6-0.2
		c-0.1,0-0.1-0.1,0-0.2C192.7,163.4,192.9,163.4,192.9,163.2C193.2,163.1,192.9,163.3,192.9,163.2z M165.1,164.7
		c0,0,0.7,0.9,0.1,0.8C165.2,165.4,164.8,164.7,165.1,164.7C165.1,164.7,165,164.7,165.1,164.7z M165.2,163.2
		c0-0.1,0.6,0.2,0.4,0.2c0,0.2,0.3-0.2,0.4-0.2c0,0.5,0.2-0.2,0.2,0.3c0.1-0.1,0.1-0.2,0.3-0.2c-0.1,0.3,0,0.4,0.3,0.5
		c0,0.2-0.9,0.4-0.9,0.1c-0.1,0.1,0.1,0.2,0.2,0.2c-0.1,0.1-0.3,0.3-0.5,0.3c0.2,0.4-0.3,0.3-0.3,0.4c0-0.1,0-0.1,0-0.2
		c-0.2,0.4,0-0.3-0.1-0.4c0,0.1-0.6,0.1-0.6,0.1C164.5,163.9,164.9,163.2,165.2,163.2C165.2,163.1,165.2,163.2,165.2,163.2
		C165.2,163.1,165.2,163.2,165.2,163.2z M198.8,156.6c-0.2,0,0.2,0.4-0.4,0.1c0,0,0.1,0.1,0.1,0.1
		C198.6,156.8,198.7,156.7,198.8,156.6C199.1,156.6,198.8,156.7,198.8,156.6z M200.4,154.6c0,0.4-0.2,0.2-0.4,0.2
		C200,154.5,200.2,154.7,200.4,154.6C200.3,154.9,200.3,154.9,200.4,154.6C200.3,155,200.2,154.7,200.4,154.6z M199.8,154.2
		c0.1,0,0.2,0.1,0.3,0.1c0,0-0.3,0.3-0.3,0.2C199.7,154.5,199.8,154.3,199.8,154.2C199.9,154.3,199.8,154.3,199.8,154.2z
		 M234.8,154.1c0.3,0.1,0.4,0.6,0.7,0.5C233.8,155.9,234.8,154.1,234.8,154.1C235.1,154.1,234.8,154.1,234.8,154.1z M235.1,153.9
		c0.1,0,0.5,0,0.5,0C235.5,154.2,235.3,154.2,235.1,153.9C235.2,153.9,235.1,154,235.1,153.9z M200.3,153.9c0-0.2,0.1,0,0.2-0.1
		c0,0.2,0,0.4-0.1,0.6c-0.2,0-0.1-0.4,0.1-0.4C200.4,154,200.4,154,200.3,153.9C200.4,153.8,200.4,153.9,200.3,153.9z M202.7,150.3
		c0,0.2-0.3,0.5-0.4,0.2C202.5,150.5,202.5,150.3,202.7,150.3C202.7,150.4,202.6,150.3,202.7,150.3
		C202.7,150.5,202.5,150.3,202.7,150.3z M242.7,145.1c0,0.3-0.6,0.1-0.6-0.1C242,144.5,242.6,145.1,242.7,145.1
		C242.6,145.2,242.6,145.2,242.7,145.1C242.7,145.4,242.6,145.1,242.7,145.1z M205.5,144.5c0.1,0,0.1,0,0.2-0.1
		c-0.2,0.1-0.1,0.4,0,0.5c-0.1-0.1-0.6-0.3-0.6-0.4C205.2,144.4,205.3,144.3,205.5,144.5C205.6,144.5,205.5,144.4,205.5,144.5z
		 M208.8,139.7c-0.2,0.2-0.4-0.1-0.3-0.3C208.7,139.5,208.7,139.6,208.8,139.7C208.7,139.8,208.8,139.6,208.8,139.7z M209,139.1
		c0.6,1.5-0.5,0.1-0.2-0.2c0,0.3,0.1,0.3,0.2,0.1C209.1,139.9,209,139.2,209,139.1C209.1,139.3,209.1,139.3,209,139.1
		C209.1,139.3,209,139.2,209,139.1z M212.3,136.3c0,0.1,0,0.1,0.1,0.2c0,0,0-0.3,0-0.3c0.6,0-0.2,1.4-0.2,1.6c0,0-0.2-0.1-0.1,0
		c0-0.1-0.1-0.1-0.1-0.2c0.1,0.4-0.1,0.1-0.1,0.1c-0.1,0.1-0.2,0.3-0.5,0.2c0-0.2,0.1-0.4,0.2-0.5c-0.1,0.8-0.4-0.7-0.2-0.4
		c0.4,0.2,0,0.1,0.2-0.2c0.1,0,0.1,0.1,0.1,0.2c0.1-0.2,0.1-0.1,0.3,0.1c0-0.2-0.2-0.3,0-0.6c0.2,0.1,0.2,0.2,0.3,0.4
		c0.1-0.3-0.2-0.5-0.1-0.7C212.1,136.2,212.2,136.2,212.3,136.3C212.3,136.3,212.3,136.3,212.3,136.3z M213.1,135.5
		c0.1,0.1,0.2,0.1,0.1,0.2c-0.4,0.1-0.5-0.9-0.1-0.7c-0.2,0.2-0.1,0.4,0.1,0.4C213.2,135.5,213.1,135.4,213.1,135.5
		C213.2,135.5,213.2,135.5,213.1,135.5C213.2,135.6,213.1,135.4,213.1,135.5z M213.6,134.8c0.1,0.1,0.3,0.3,0.1,0.4
		C213.7,135.1,213.7,135,213.6,134.8C213.7,134.9,213.6,134.9,213.6,134.8z M195.8,191.8c1.5-1.3,2.4,0.7,1.6,1.6
		c-0.1-0.4-0.6-0.1-0.8-0.1c0,0.1,0.2,2-0.2,2c-0.1-0.6,0.8,0,0.8,0.2c0-0.1-0.9,0.3-0.9,0.3c0,0-0.4,0.8-0.4,1.1
		c-0.2,0-0.2-0.4-0.3-0.4c0,0.8-2.1-0.7-1.6-0.6c0-0.2,1.1-0.9,1.1-0.5c0,0-0.8,0.3-0.1,0.5c0.4-0.1,0.3-0.3,0.5-0.5
		c0,0.1,0.4,0.2,0.4,0.1c-0.6-0.3-0.9-0.7-1.6-1c0,0.1,0,0.3-0.2,0.3c-0.1-0.1,0.1-0.5,0.2-0.3c-0.3-0.2-0.3-0.4,0-0.6
		c0-0.1-0.1-0.8-0.3-0.8c0-0.3-0.6,0,0.1-0.2c0,0-0.3-0.2-0.4-0.2c0,0.6,2.2-1,0.9-0.9c0.3,0,0.7,0.4,1,0.1c0,0.2,0,0.2-0.2,0.3
		c0,0,0.1,0.4,0.1,0.4C196,192.3,196.1,192.1,195.8,191.8C196.1,191.5,195.7,191.8,195.8,191.8z M204.6,258.4c0.2,0.2-2.3,4-0.7,4
		c-0.1,0.4,0,0.5-0.1,1c-1.6,0.4-1.7-0.5-4.1-0.6c0-0.2-1.7-0.7-1.3-0.8c-0.3-0.7-1.6-1.1-2.3-1.2c-0.8-0.7-0.4-0.7-0.6-1.6
		c0,0-0.1,0.1-0.1,0c0.1,0,0.6-0.5,0.7-0.6c0.5-0.6,0.4,0.5,1.2,0.1c-0.1-1.3,1,0.1,1,0c0.3,0,0.6-0.2,0.7,0.3
		c0.9-0.1,3.2-0.7,4-0.6c0,0.1,0.4,0.3,0.4,0.3c0.3,0,0.3-0.3,0.5-0.4c0,0.2,0.3,0,0.4,0C204.4,257.8,204.7,258.4,204.6,258.4
		C204.9,258.6,204.5,258.3,204.6,258.4z M150.4,142c0.2,0,0.3,0.3,0,0.3c0,0,0.1,0.3,0.1,0.3c-0.2,0.1-0.3,0.4-0.6,0.4
		c0.4,0-0.5,0.6-0.5,0c-0.3,0.1,0.7,1-0.2,1c0.3,0.4-0.1,0.4-0.1,0.9c0.1-0.1,0.3-0.7,0.6-0.6c0,0.1-0.1,0.5,0,0.5
		c-0.3-0.9,0.8-1,1.1-0.5c0.5,0,2.3-2.9,2-0.9c0.1,0-0.1,0.8-0.1,0.9c0.2,0,0.3,0,0.3,0.2c0.3,0,0.3-0.4,0.4-0.6
		c-0.1-0.2,0.6-0.4,0.6-0.5c0.2,0.4,1-0.3,0.9,0.1c0.5-0.4,0.3,0.9,0.2,1.1c0.1-0.1,0.1-0.2,0.2-0.3c0,0-0.2,1.1-0.3,1.3
		c0.5,0.1,0.2-1.2,0.5-1.2c-0.1-0.3,0.5-0.7,0.6-0.3c0.4,0,0.2,0.7,0.3,0.9c-0.9-0.4,2.2-0.1,1.3,0c0-0.1,3.2-2.3,2.3,0.9
		c0.4-0.1,1.3-0.8,1.7-0.2c0,0-0.8,0.1-0.9,0.1c0.1,0.4-0.3,0.4-0.6,0.4c0,0.1,0.2,0.4,0.2,0.5c0.6-0.6-0.2,1.1-0.2,0.8
		c-0.1-0.1-0.4,0-0.4,0.2c0.2,0.2,0.6,0,0.9,0.1c0,0,0.1,1.3,0.3,1.2c0.1-0.1,0.1-0.1,0.2,0c0.1,0.1,0,0.4-0.2,0.5
		c0.2,0.3-0.3,0.2-0.4,0.2c0.1,0.1,0.1,0.2-0.1,0.2c0.4,0.2,0.4,0.5-0.2,0.7c0.1-0.2,0.2-0.2,0.3-0.1c-0.1,0.2-0.9,1-0.9,0.2
		c-0.1,0.1,0,0.4,0.2,0.4c-0.1,0.3-0.2,0.1-0.4,0c0,0.3-0.9,1-1.1,0.5c-0.1,0.1-0.1,0.5-0.2,0.3c0.2,0,0.2-0.1,0-0.2
		c-0.2,0.3,0.2,0.3-0.3,0.2c-0.1,0,0.2,0.2,0.2,0.2c-0.1,0-0.1,0.1-0.2,0.1c-0.5-0.1-5,0.8-5,1c0-0.1,0.3,0,0.3-0.1
		c-0.1-0.1-0.3,0.1-0.4,0.1c0.1,1.6-6.1-2.1-6.3-2.1c0.7-1-1.6-1.4-1.5-1.8c-0.6-0.1-1.1-0.3-1.6-0.5c0.2-0.4,0.4-0.7,0.7-1
		c0.5,0.5,0.1,0.7,1.1,0.6c-0.1-0.3,0.2-0.1,0.1-0.4c0.2,0,0.3,0.2,0.5,0.1c-0.6-0.2,0.6-0.5,0.7-0.5c-0.1-0.2-0.9,0-1.1-0.1
		c0.4-0.2,0.6-0.6,1.1-0.6c0-0.2-0.5,0-0.5,0c-0.5,0.2-0.3-0.3-0.2-0.4c-0.4,0.2,0.1-0.6,0.4-0.7c-0.1-0.1-0.1-0.1-0.2,0
		c0.1-0.2-0.1-0.2,0.1-0.2c0-0.1-1.9-1-1.8-1c-0.9,0.2-0.6-0.7-0.3-0.7c0.4,0.3,0.8,0.3,1.2,0.2c0,0,0,0.3,0,0.3
		c0-0.2,0-0.3,0.2-0.3c0.3,0.1,0.3,0.1,0.1,0.2c0,0,0.5-0.1,0.5,0c0-0.1,0.8,0.2,0.8,0.2c0,0-0.1,0-0.1,0c0,0.1,0.9,0.5,1,0.6
		c0.1,0,0.5-0.5,0.4-0.6c-0.6,0.5-1.3-0.5-1.2-0.5c0.2-0.1,0-0.3,0.3-0.2c0.1-0.2,1.1-0.2,1.4-0.1c-0.3-0.2-0.1-0.1-0.2-0.4
		c-0.1,0-0.1,0.1,0,0.1c-0.1,0-0.1-0.1-0.1-0.2c-0.4,0.2-0.2,0-0.6-0.1c0-0.2,0.2-0.1,0.3-0.2c0.1-0.2-0.4,0.4-0.2-0.3
		c-0.1,0-0.6,0.1-0.3-0.2c-0.1,0.1,0,0.3-0.3,0.2c0.2-0.3-0.3-0.1,0.1-0.3c-0.2-0.2-0.5,0.2-0.6-0.2c-0.1,0.3-0.3,0.3-0.6,0.1
		c-0.2,0-1.2,0-0.9-0.4c0-0.1-0.5-0.4-0.6-0.4c-0.4-0.3,0.5-0.2,0.9,0.1c0-0.2,0.1-0.5,0.1-0.4c-0.1-1.2,1,0,0.7,0.5
		c0,0.1,0.2-0.1,0.1-0.3c0.1-0.1,0.6,0.1,0.6,0.1c-0.2-0.2-1.4-1.3-0.1-0.7c1.3-1.2-0.8-0.4,0.5-0.5c-0.5-1.5,1.6,0.3,1,0.5
		c-0.2,0.4,0.1,0,0.2,0c0,0.2,0.2,0.4,0,0.6c0.3-0.2,0.2,0.2,0.1,0.3c0.5,0.1-0.8-2.5,0.8-1.3c0-0.2-0.2-0.2-0.1-0.5
		c-0.2,0.1-0.3,0.1-0.2-0.1c-0.5,0.3-0.6-0.4-0.4-0.4c0,0,0.2,0.5,0.2-0.2c0.3,0.1,0.6,0.2,0.9,0.3c0.2,0,0.1,0.2,0.1,0.3
		c0-0.1,0-0.1,0.1-0.1c0.1,0,0.1,1.9,0,2c0,0.1,0.3,0,0.3,0C150.5,141.8,150.5,141.9,150.4,142C150.6,142,150.5,141.9,150.4,142z"
/></svg>