<?xml version="1.0" encoding="utf-8"?>
<!-- FILE PREPARED BY MAURITS KORSE FOR AEGEE LOGO GENERATION TOOL -->
<!DOCTYPE svg PUBLIC "-//W3C//DTD SVG 1.1//EN" "http://www.w3.org/Graphics/SVG/1.1/DTD/svg11.dtd">
<svg version="1.1" xmlns="http://www.w3.org/2000/svg" xmlns:xlink="http://www.w3.org/1999/xlink" x="0px" y="0px" width="145px"
	 height="100px" viewBox="0 0 145 100" enable-background="new 0 0 145 100" xml:space="preserve">
	 
	<rect id="background" fill="{{BGCOLOR}}" width="145" height="100"/>
			
	<g id="AEGEE"  style="fill:{{COLOR}}">
		<g id="AEGE-E">	
			<polygon points="130.106,51.644 121.291,51.644 121.291,52.995 130.106,52.995 130.106,58.109 115.867,58.105 
				115.866,47.934 130.106,47.934 					"/>
			<rect x="115.866" y="41.743" width="14.242" height="4.804"/>
		</g>
		<g id="AEG-E-E">
			<polygon points="114.45,51.644 105.636,51.644 105.636,52.995 114.45,52.995 114.45,58.109 100.21,58.105 
				100.21,47.934 114.45,47.934 					"/>
			<rect x="100.21" y="41.743" width="14.242" height="4.804"/>
		</g>
		<g id="AE-G-EE">
			<path  d="M94.011,58.105h-9.452V47.934h5.368v5.062h3.538v-1.358h-2.102v-3.704h7.45v5.369l0,0
				C98.813,55.955,96.663,58.105,94.011,58.105z"/>
			<path d="M89.362,41.743c-2.653,0-4.803,2.151-4.803,4.803l0,0h14.254v-4.803H89.362z"/>
		</g>
		<g id="A-E-GEE">
			<polygon points="68.899,55.53 67.348,50.87 63.454,53.634 64.941,58.107 61.047,55.343 57.153,58.107 
				58.641,53.634 54.747,50.87 59.56,50.87 61.047,46.397 62.535,50.87 67.348,50.87 64.313,41.743 57.789,41.743 52.331,58.105 
				83.139,58.109 83.139,52.995 74.324,52.995 74.324,51.644 83.139,51.644 83.139,47.934 68.899,47.934 					"/>
			<rect x="68.899" y="41.743" width="14.242" height="4.804"/>
		</g>
		
		<g transform="matrix(1 0 0 1 {{LANCHOR_X1}} {{LANCHOR_Y1}})">
			{{LTEXT1}}
		</g>
		<g transform="matrix(1 0 0 1 {{LANCHOR_X2}} {{LANCHOR_Y2}})">
			{{LTEXT2}}
		</g>
	</g>
		
	<g id="STARS" style="fill:{{COLOR}}">
		<polygon points="48.773,16.117 49.939,19.705 53.713,19.705 50.66,21.923 51.826,25.512 48.773,23.294 
			45.721,25.512 46.887,21.923 43.834,19.705 47.607,19.705 			"/>
		<polygon points="34.394,20.035 35.56,23.625 39.333,23.625 36.28,25.842 37.446,29.431 34.394,27.213 
			31.341,29.431 32.506,25.842 29.454,23.625 33.228,23.625 			"/>
		<polygon points="24.356,30.073 25.522,33.662 29.295,33.662 26.243,35.88 27.409,39.468 24.356,37.25 
			21.303,39.468 22.469,35.88 19.416,33.662 23.19,33.662 			"/>
		<polygon points="19.888,44.967 21.054,48.556 24.827,48.556 21.774,50.774 22.94,54.363 19.888,52.145 
			16.835,54.363 18.001,50.774 14.948,48.556 18.722,48.556 			"/>
		<polygon points="24.356,58.833 25.522,62.421 29.295,62.421 26.243,64.64 27.409,68.229 24.356,66.011 
			21.303,68.229 22.469,64.64 19.416,62.421 23.19,62.421 			"/>
		<polygon points="34.394,68.87 35.56,72.458 39.333,72.459 36.28,74.677 37.446,78.267 34.394,76.049 
			31.341,78.267 32.506,74.677 29.454,72.458 33.228,72.459 			"/>
		<polygon points="48.773,73.888 49.939,77.477 53.713,77.477 50.66,79.695 51.826,83.284 48.773,81.066 
			45.721,83.284 46.887,79.695 43.834,77.477 47.607,77.477 			"/>
		<polygon points="63.153,68.87 64.319,72.458 68.093,72.458 65.04,74.677 66.206,78.267 63.153,76.048 
			60.101,78.267 61.267,74.677 58.214,72.458 61.987,72.458 			"/>
		<polygon points="73.191,58.833 74.356,62.421 78.13,62.421 75.077,64.64 76.244,68.229 73.191,66.011 
			70.138,68.229 71.304,64.64 68.251,62.421 72.025,62.421 			"/>
		<polygon points="73.191,30.073 74.356,33.662 78.13,33.662 75.077,35.88 76.244,39.468 73.191,37.25 
			70.138,39.468 71.304,35.88 68.251,33.662 72.025,33.662 			"/>
		<polygon points="63.153,20.035 64.319,23.625 68.093,23.625 65.04,25.842 66.206,29.431 63.153,27.213 
			60.101,29.431 61.267,25.842 58.214,23.625 61.987,23.625 			"/>
	</g>
		
	<path fill-rule="evenodd" clip-rule="evenodd" fill="{{COLOR}}" d="M49.854,61.92c0.133-0.005-0.028,0.609,0.364,0.229
		c0.245-0.237,0.236-0.693,0.486-0.879c0.373-0.277,0.298-0.364-0.067-0.661c-0.309-0.252,0.015-0.979,0.399-0.802
		c0.222,0.103,0.333,0.458,0.564,0.515c0.292,0.07,0.157-0.425,0.078-0.517c-0.446-0.521-1.181-0.677-1.756-0.998
		c-0.006-0.145,0.251-0.167,0.243-0.304c-0.012-0.181-0.573-0.091-0.691-0.125c-0.527-0.156-1-0.807-1.07-1.331
		c-0.063-0.471-0.821-0.424-0.848-0.907c-0.005-0.092-0.008-1.008,0.059-1.012c0.012,0.044,0.703-0.179,0.883-0.128
		c0.018,0.227-0.209,0.422-0.143,0.672c0.14,0.527,0.407-0.188,0.453-0.181c0.013,0.074,0.207,0.631,0.215,0.621
		c-0.113-0.083-0.095-0.436-0.119-0.564c0.247,0.271,0.436,0.563,0.509,0.883c-0.099-0.074-0.206-0.132-0.322-0.173
		c-0.019,0.106,0.369,0.502,0.475,0.502c0.026-0.17-0.212-0.113-0.226-0.263c-0.052-0.038,0.627,0.277,0.399,0.374
		c0.073-0.078,0.346,0.152,0.588,0.204c0.193,0.042,0.729,0.099,0.659,0.412c-0.206-0.007-0.412-0.02-0.617-0.039
		c0.105,0.098,0.225,0.115,0.36,0.05c0.288-0.06,0.577,0.176,0.795,0.333c0.242,0.174,0.722,0.414,0.878,0.676
		c-0.008-0.013,0.054,0.681,0.031,0.77c-0.157-0.004-0.106,0.265-0.09,0.336c0.063,0.278,0.138,0.103-0.011,0.105
		c0.049-0.033,0.43,0.585,0.541,0.577c-0.412,0.027-0.077,0.346,0.116,0.39c-0.116-0.175-0.132-0.099-0.135-0.352
		c-0.021,0.129,0.413,0.314,0.293,0.453c0.342,0.098,0.23,0.375,0.209,0.637c0.227-0.135,0.111-0.002,0.192-0.241
		c0.306,0.697-0.045,0.099,0.108,0.13c0.053,0.087,0.081,0.182,0.085,0.284c0.067,0.153,0.36-0.152,0.487-0.039
		c0.109,0.42-0.788,0.165-0.14,0.719c0.146,0.125,0.167,0.401,0.212,0.573c0.127,0.488,0.158-0.023,0.351-0.106
		c0.123,0.119,0.097,0.559,0.329,0.559c0.021-0.092,0.042-0.351,0.169-0.371c-0.018-0.011,0.474,0.551,0.332,0.124
		c-0.062-0.187-0.627-0.696-0.462-0.894c0.226,0.014,0.257,0.152,0.362,0.314c-0.047-0.159,0.036-0.225,0.249-0.196
		c-0.277,0.061-0.287,0.053-0.028-0.022c-0.027-0.177-0.167-0.088-0.119-0.297c0.058,0.057,0.09,0.043,0.096-0.039
		c-0.132-0.125-0.175-0.061-0.131,0.195c-0.018,0.02-0.246-0.237-0.282-0.263c0.108-0.289,0.783,0.073,0.792,0.033
		c0.065-0.016-0.075-0.348-0.079-0.394c0.018,0.23,0.414,0.208,0.378-0.069c-0.233,0.081-0.436-0.396-0.665-0.495
		c-0.367-0.161-0.231-0.03-0.558-0.081c0.107-0.194-0.189-0.112-0.153-0.269c0.091,0.028,0.117,0.002,0.079-0.077
		c0.07,0.019,0.128,0.056,0.175,0.111c-0.116-0.024-0.12,0.013-0.012,0.112c0.21,0.094-0.37-0.695-0.363-0.687
		c-0.097-0.125-0.292-0.706,0.053-0.662c-0.254,0.439,0.598,0.243,0.628,0.51c0.026-0.159-0.356-0.047-0.299-0.274
		c0.261-0.124,0.23,0.313,0.458,0.241c-0.01-0.026-0.269-0.33-0.203-0.347c0.142-0.035,0.346,0.183,0.463,0.134
		c-0.718-0.632-0.428-0.356,0.216-0.729c0.366-0.213,0.92-0.042,1.339,0.015c-0.522,0.055-0.319,0.783-0.362,1.118
		c0.021,0.083,0.523-0.228,0.594-0.196c-0.065,0.04-0.17,0.132-0.209,0.196c0.101,0.145,0.334,0.226,0.39,0.401
		c0.012,0.212-0.409,0.36,0.029,0.436c-0.034,0.25-0.395-0.167-0.47-0.156c-0.007,0.107-0.011,0.216-0.012,0.323
		c-0.006-0.042,0.068-0.172,0.13-0.116c-0.043,0.075-0.098,0.141-0.164,0.196c0.059,0.193,0.549-0.03,0.409,0.041
		c0.099-0.05,0.357,0.247,0.339,0.339c0.006-0.029-0.369-0.105-0.403,0.122c0.305-0.085,0.507,0.207,0.792,0.229
		c-0.024,0.21-0.228,0.091-0.192,0.324c0.133,0.033,0.581-0.069,0.65-0.2c0.123,0.11-0.505,0.348-0.526,0.44
		c0.113,0.142,0.327-0.195,0.447-0.167c0.005,0.063,0.009,0.126,0.011,0.188c0.322-0.115,0.181-0.336,0.549-0.276
		c0.247,0.04,0.259,0.042,0.505,0.229c0.202,0.152,0.798,0.075,0.767-0.253c-0.055-0.567,0.356-0.592,0.831-0.436
		c0.462,0.152,1.428,0.238,1.686-0.306c0.132-0.279,0.073-0.568,0.478-0.583c0.13,0.017,0.685-0.422,0.745-0.34
		c0.02,0.027,0.12,1.518,0.229,1.412c0.048-0.013,0.075,1.084,0.076,1.196c0.004,0.63-0.004,0.734-0.464,1.212
		c-0.499,0.517-1.023,1.007-1.572,1.47c-8.166,6.891-20.657,6.658-28.511-0.603c-8.063-7.456-9.051-20.102-2.137-28.664
		c6.063-7.507,16.859-10.083,25.649-6.047c1.275,0.585,2.479,1.29,3.629,2.095c-0.566,0.019-1.104,0.371-1.665,0.333
		c-0.383-0.025-1.239-0.36-1.523,0.039c0.038,0.132,0.361,0.15,0.458,0.18c0.317,0.099,0.313,0.544,0.46,0.787
		c0.142,0.232,0.443,0.151,0.534,0.447c0.056,0.184,0.053,0.567,0.268,0.66c-0.405,0.17-0.792-0.609-1.035,0.097
		c-0.097,0.282-0.352,0.523-0.325,0.842c0.03,0.346,0.329,0.371,0.511,0.598c-0.253,0.093-0.295,0.153-0.125,0.179
		c-0.252,0.074-1.174-0.159-1.296-0.069c-0.315,0.233,0.048,0.411,0.183,0.568c0.194,0.224,0.206-0.037,0.35-0.034
		c0.304,0.282,0.134,0.728-0.302,0.542c-0.087-0.037-0.546-0.46-0.546-0.129c-0.214-0.024-0.364-0.541-0.476-0.486
		c0.035-0.093-0.39-0.821-0.158-0.637c-0.12,0.029-0.371-0.502-0.639-0.413c0.244-0.046-0.169-0.029-0.015-0.03
		c-0.075,0.001-0.068-0.028,0.02-0.087c-0.047-0.113-0.226,0.041-0.3-0.017c0.085-0.157,0.278-0.011-0.057-0.238
		c-0.113-0.076-0.249-0.183-0.379-0.232c0.001,0.016,0.626,0.377,0.555,0.156c0.863,0.936,3.769-0.329,1.861-1.648
		c0.121,0.246-0.263-0.256-0.391-0.184c0.216,0.284-1.184-0.305-1.372-0.369c-0.191-0.066-0.391,0.001-0.547-0.048
		c-0.133-0.042-0.45,0.034-0.463,0.026c0.049-0.016,0.105,0.236,0.023,0.217c0.043-0.432-0.549-0.138-0.588-0.503
		c0.142,0.141,0.229,0.117,0.261-0.073c-0.071-0.062-0.597-0.253-0.295,0.062c-0.186-0.229-0.039,0.036-0.039,0.089
		c-0.011-0.198-0.949,0.06-1.019-0.223c0.065-0.016,0.91-0.337,0.451-0.468c0.016,0.004-0.399-0.137-0.247-0.187
		c-0.193,0.063-0.085-0.013-0.362-0.1c-0.01,0.003-0.113,0.411-0.142,0.447c0.003,0,0.091-0.238,0.066-0.239
		c0.011,0-0.309,0.143-0.115-0.135c0.184-0.264-0.357-0.355-0.183-0.074c-0.033-0.136-0.083,0.451-0.107,0.565
		c-0.127-0.156,0.074-0.419-0.107-0.543c-0.125-0.022-0.156,0.848-0.182,0.956c-0.017-0.126-0.035-0.141-0.056-0.044
		c0.017-0.001,0.01-0.605,0.011-0.669c0.001-0.152-0.024-0.144,0.086-0.24c0.078-0.068-0.158-0.131-0.165-0.175
		c-0.096,0.185,0.156-0.071-0.079,0.106c0.095,0.075,0.117,0.167,0.067,0.279c-0.04-0.06-0.088-0.111-0.146-0.154
		c-0.242-0.166,0.201,0.346-0.12,0.121c-0.04,0.049,0.143,0.27,0.147,0.268c-0.121-0.242-0.071,0.079-0.051,0.151
		c0.01-0.017-0.168-0.27-0.215-0.263c-0.086,0.08-0.292,0.499-0.216,0.547c0.099,0.022,0.124-0.028,0.074-0.15
		c0.258,0.133,0.106-0.077,0.159-0.235c-0.067,0.01,0.048,0.554,0.062,0.615c-0.037-0.028-0.374-0.326-0.334-0.118
		c-0.045,0-0.143-0.201-0.198-0.234c0.036,0.104,0.014,0.216-0.107,0.177c0.046,0.17,0.313,0.123,0.254,0.348
		c-0.141-0.101-0.462-0.161-0.249,0.084c0.057-0.059-0.07-0.381-0.119-0.436c-0.196-0.018,0.026,0.317,0.034,0.375
		c-0.098-0.435-0.059,0.63-0.164,0.525c0.072-0.143,0.232-0.521,0.022-0.632c-0.019,0.072-0.213,0.302-0.085,0.369
		c0.068-0.206-0.083-0.222-0.231-0.079c-0.011-0.05,0.153-0.302,0.136-0.312c-0.054-0.031-0.152-0.082-0.209-0.09
		c-0.003-0.033,0.163,0.049,0.156,0.003c-0.07-0.489-0.099,0.279-0.1,0.288c-0.055-0.024-0.112-0.028-0.169-0.011
		c0.095,0.162,0.065-0.16,0.09,0.128c-0.121-0.034-0.049,0.057-0.158-0.061c0.014,0.135,0.036,0.37,0.209,0.425
		c0,0-0.289-0.261-0.192-0.034c-0.079-0.434-0.036-0.102-0.187-0.212c-0.059,0.163-0.216,0.427-0.107,0.587
		c0.065,0.012,0.236-0.282,0.289-0.229c-0.098,0.063-0.17,0.146-0.216,0.251c0.14-0.091-0.13,0.159-0.13,0.251
		c0.019-0.001,0.232-0.146,0.227-0.079c-0.604,0.277-0.1,0.1-0.401-0.117c-0.01,0.061-0.016,0.123-0.018,0.184
		c-0.285-0.076-0.05-0.418-0.017-0.564c-0.238-0.046-0.195,0.501-0.192,0.57c-0.607-0.782,0.168-0.108-0.181-0.202
		c0.079-0.016-0.145,0.341-0.142,0.324c0.216-0.193,0.256-0.202,0.118-0.026c-0.08,0.21-0.019,0.193,0.182-0.052
		c-0.008-0.006-0.875,0.63-0.843,0.799c0.115-0.005,0.619-0.471,0.594-0.404c-0.112,0.083,0.207-0.127,0.231-0.132
		c-0.079,0.069,0.229,0.028,0.249-0.129c-0.25,0.313,0.385,0.003,0.408-0.006c-0.003,0.222-0.332,0.168-0.458,0.179
		c0,0.136,0.245,0.15,0.051,0.313c-0.051,0.005,0.022-0.261-0.073-0.234c-0.177,0.084-0.547,0.379-0.283,0.492
		c-0.078-0.023-0.12-0.004-0.124,0.056c0,0,0.256-0.086,0.289-0.084c-0.225,0.097-0.235,0.19-0.028,0.279
		c-0.134-0.078-0.234-0.057-0.301,0.063c-0.156,0.117-0.146,0.167,0.029,0.149c-0.158,0.091-0.663,0.342-0.317,0.386
		c-0.054,0.008-0.212,0.056-0.213,0.06c0.007-0.032-0.029,0.144,0.015,0.231c-0.349-0.298,0.104-0.012,0.057,0.167
		c-0.296,0.015-0.189,0.235-0.436,0.313c0.035-0.084,0.263-0.129,0.125-0.257c0.001,0-0.234,0.244-0.198,0.296
		c0.151-0.084,0.02,0.235,0.102-0.017c-0.033,0.158,0.017,0.145,0.147-0.04c-0.242,0.193-0.21,0.279-0.116,0.13
		c-0.038,0.061,0.024,0.252,0.009,0.323c-0.329-0.193-0.175,0.222-0.199,0.276c0.135-0.307-0.589,0.635-0.158,0.098
		c0.075-0.234-0.166,0.163-0.356,0c0.111,0.052,0.09,0.091-0.062,0.118c0.19-0.009,0.186,0.279,0.374,0.056
		c-0.008-0.019-0.859,0.843-0.928,0.984c0.469-0.279-0.061,0.024-0.158,0.084c0.196-0.269-0.253-0.091-0.345,0.056
		c0.226-0.143,0.343-0.132,0.351,0.034c-0.233-0.116-0.302,0.066-0.39,0.117c-0.059-0.094,0.117-0.173-0.063-0.212
		c0.016,0.111-0.02,0.194-0.107,0.251c0.009-0.054,0.113,0.12,0.125,0.14c-0.06-0.102-0.104-0.097-0.131,0.017
		c-0.046-0.369-0.473,0.131-0.379,0.101c-0.177,0.114-0.192,0.219-0.418,0.162c0.005,0.178-0.085,0.245,0.187,0.156
		c-0.066-0.004-0.21,0.079-0.278,0.112c0.279-0.176-0.235-0.177-0.182-0.094c0.072,0.112,0.051,0.346-0.135,0.088
		c-0.002,0.001-0.16,0.385-0.231,0.343c0.294,0.173-0.057-0.021,0.073,0.275c0.064-0.062,0.097,0.1-0.17,0.108
		c0.096,0.141-0.099,0.023,0.074,0.14c-0.053-0.012-0.288,0.017-0.198,0.168c0.161,0,0.355-0.213,0.515-0.067
		c-0.359,0.344-0.572-0.122-0.407,0.598c-0.088-0.081-0.166-0.457-0.125-0.032c0.001,0.014,0.069,0.397,0.045,0.406
		c0.154-0.13,0.158-0.187,0.012-0.167c0.187-0.051,0.019,0.091,0.249-0.044c-0.001,0.043,0.013,0.081,0.04,0.112
		c-0.354-0.095-0.416,0.625-0.254,0.313c-0.055,0.149-0.132,0.33-0.153,0.487c-0.027-0.118,0.409-0.089,0.447-0.078
		c-0.219-0.131-0.292,0.436-0.292,0.534c0,0.13,0.024,0.284,0.125,0.378c0.069,0.065,0.269,0.243,0.316,0.262
		c0.389,0.163,0.869-0.212,1.126-0.445c0.083-0.076,0.935-0.544,0.762-0.579c-0.158-0.352,0.408,0.184-0.011,0.397
		c0.344,0.02,0.234,0.042,0.293,0.405c0.005,0.034,0.125,0.618,0.165,0.584c-0.133-0.087,0.092,0.47,0.122,0.524
		c0.129,0.232,0.463,0.85,0.127,0.772c-0.041,0.18,0.144,0.452,0.277,0.554c-0.383,0.526,0.604,0.273,0.64,0.15
		c0.14-0.481,0.095-0.514,0.568-0.457c0.831,0.101,0.477-2.043,0.767-2.085c-0.032-0.039-0.066-0.076-0.102-0.111
		c0.035-0.148,0.371-0.088,0.424-0.274c0.119,0.076,0.219-0.019,0.3-0.185c0.056,0.019-0.128,0.205-0.119,0.241
		c0.352,0.047,0.033-0.496,0.266-0.257c0.267-0.008,0.205-1.208-0.192-1.208c0.009,0.571-0.875-0.712-0.515-1
		c0.043,0.033,0.089,0.063,0.136,0.089c-0.216,0.064,0.229-1.569,0.43-1.196c-0.021-0.079-0.02-0.104,0.003-0.076
		c-0.17-0.026,0.136-0.22,0.036-0.064c-0.033-0.215,0.682-0.597,0.807-0.813c0.146-0.253,0.211-0.377,0.124-0.661
		c-0.137-0.445,0.208-0.232,0.02-0.605c0.076,0.123,0.114,0.111,0.113-0.034c-0.006,0.12,0.173-0.008,0.181-0.056
		c-0.04,0.006-0.138,0.077-0.153,0.073c0.047-0.048,0.026-0.335,0.097-0.419c0.254-0.07,0.253,0.468,0.119-0.028
		c0.274,0.12,0.056,0.176,0.278,0.09c0.197-0.077,0.109-0.02,0.314-0.035c0.308-0.023,0.462,0.506,0.527,0.632
		c-0.161-0.227-0.035,0.081-0.04,0.106c-0.269-0.212-0.461,0.569-0.558,0.701c-0.238,0.325-0.328,0.313-0.409,0.786
		c-0.124,0.019-0.146-0.002-0.068-0.062c-0.745,0.068,0.084,2.324-0.25,2.275c0.103,0.196,0.528,0.359,0.119,0.436
		c0.026-0.107,0.14-0.051,0-0.146c-0.109,0.52,0.571,0.015,0.481,0.531c0.019,0.024,0.183-0.204,0.209-0.201
		c0,0.175,0.125,0.005,0.079,0.189c0.417-0.053,0.644-0.509,1.064-0.52c-0.05,0.042-0.005,0.061,0.044,0.084
		c0.038,0.025,0.457-0.403,0.662-0.296c-0.024-0.206,0.597-0.316,0.696-0.24c-0.265-0.101-0.031,0.159,0.111,0.184
		c0.161,0.028,0.615-0.011,0.659,0.218c-0.161,0.078-0.868,0.286-0.86,0.229c-0.149,0.348-0.124,0.313-0.509,0.338
		c-0.059,0.004-0.655,0.063-0.6-0.082c-0.044,0.121-0.51,0.362-0.521,0.145c-0.03,0.046-0.523,0.701-0.498,0.755
		c0.067,0.022,0.137,0.031,0.209,0.027c-0.337,0.216,0.126,0.29,0.298,0.278c0.29-0.02,0.193,0.454,0.178,0.636
		c-0.104,1.253-0.565-0.021-1.028,0.082c-0.675,0.149-0.575,0.792-0.486,1.367c0.037,0.239,0.108,0.471,0.115,0.715
		c0.012,0.506-0.552,0.187-0.662,0.622c0.078-0.039,0.161-0.054,0.25-0.045c-0.64,0.717-1.099-0.339-1.904,0.135
		c-0.337,0.199-1.532,0.96-1.773,0.302c0.103-0.104,0.406-0.036,0.168-0.345c-0.257-0.334-0.205,0.174-0.208,0.2
		c-0.156-0.019-1.01,0.077-0.956,0.368c-0.03-0.034-0.334-0.163-0.345-0.146c0.183,0.079,0.298-0.312,0.187-0.414
		c-0.212,0.217-0.25-0.048-0.6,0.022c0.013-0.155,0.127-0.283-0.113-0.317c0.049,0.022,0.174,0.027,0.237,0.027
		c-0.014-0.047-0.218-0.398-0.282-0.207c-0.069-0.041,0.133-0.168,0.152-0.19c-0.152,0.004-0.035-0.129-0.028-0.19
		c0.065,0.209,0.219,0.441,0.447,0.498c0.068,0.092-0.093,0.098,0.006,0.207c0.028-0.008,0.486-0.511,0.005-0.229
		c0.169-0.152-0.121-0.43-0.005-0.554c0.006,0.132-0.229-0.025-0.413,0.017c0.054-0.096,0.371-0.614,0.391-0.61
		c-0.025,0.051-0.017,0.093,0.026,0.126c-0.043-0.004,0.29,0.066,0.225-0.129c-0.046-0.141-0.242-0.233-0.263-0.377
		c-0.158-0.292,0.193-0.592,0.227-0.867c0.004,0.185-0.875,0.489-1.034,0.488c-0.494-0.002-0.295,1.029-0.285,1.026
		c-0.282-0.257,0.107,0.585,0.065,0.689c-0.099,0.243,0.155,0.359,0.109,0.505c-0.013,0.041-0.333,0.578,0.03,0.578
		c-0.116,0.104-0.425,0.19-0.47,0.201c0.006,0.05,0.008,0.101,0.006,0.151c-0.084-0.096-0.113-0.208-0.085-0.336
		c-0.136,0.015-0.271,0.032-0.407,0.051c0.044-0.093,0.291-0.035,0.368-0.044c-0.158-0.303-0.594,0.314-0.672,0.302
		c-0.171-0.027-1.157,0.094-1.127,0.195c0.041-0.116,0.119-0.198,0.232-0.246c0.003-0.01-0.417,0.392-0.317,0.392
		c-0.024,0.219-0.156,0.449-0.293,0.615c-0.205,0.247-0.463,0.077-0.058,0.357c0.032-0.253-0.426,0.041-0.503,0.045
		c0.016,0.169,0.33,0.176,0.441,0.174c0.018-0.089-0.904,0.093-0.987,0.115c-0.148,0.04-0.309,0.083-0.444,0.157
		c-0.27,0.145-0.104,0.415-0.285,0.564c-0.308,0.257-0.58,0.038-0.861,0.414c-0.377,0.504-0.743-0.491-1.162-0.413
		c0,0.095,0.061,0.994,0.107,0.99c0.004-0.006-0.695-0.023-0.758-0.04c0.171-0.313-0.464-0.514-0.464-0.263
		c-0.154-0.105-0.566-0.144-0.718-0.006c-0.146,0.132,0.178,0.3,0.192,0.403c-0.703-0.22,0.644,0.543,0.509,0.709
		c0.034,0.059,0.499-0.055,0.405,0.15c-0.05,0.111,0.391,0.69,0.007,0.342c-0.21,0.25,0.956,1.041,0.458,1.185
		c0.007-0.102-0.037-0.172-0.13-0.213c-0.061,0.14,0.129,0.717,0.288,0.761c-0.328-0.659-0.553,0.592-0.619,0.938
		c-0.117,0.622-0.582,0.698-1.127,0.469c-0.678-0.286-1.528-0.459-2.153-0.796c-0.16-0.086-1.258-0.624-1.063-0.063
		c-0.583-0.089-0.708,0.054-0.753,0.554c0.232-0.166,0.071,0.278,0.067,0.299c0.036-0.196-0.141,0.48-0.159,0.617
		c-0.071,0.523-0.142,0.918-0.502,1.316c-0.314,0.348-0.458,0.702-0.484,1.163c-0.02,0.352,0.281,0.229,0.044,0.685
		c-0.19,0.364-0.475,0.665-0.016,0.818c0.352,0.116,0.922,0.085,1.185,0.353c0.307,0.312,0.157,0.592,0.276,0.938
		c0.129,0.377,0.871,0.034,1.104-0.015c0.701-0.147,1.594,0.52,2.13,0.007c0.229-0.22,0.448-0.368,0.764-0.196
		c-0.001-0.009,0.063-0.287,0.053-0.269c0.123-0.237,0.389-0.443,0.603-0.593c0.387-0.271,0.148-0.295-0.019-0.72
		c-0.153-0.389,0.66-1.057,0.994-1.16c-0.281-0.188,1.32-0.571,1.466-0.668c0.39-0.256,0.261-0.794,0.368-1.18
		c0.306-1.098,2.054,0.556,2.164,0.264c-0.043-0.123,0.012-0.221,0.35-0.377c0.197-0.091,0.4-0.163,0.602-0.242
		c0.225-0.088,0.322-0.348,0.539-0.423c0.516-0.179,0.917,0.532,1.007,0.914c0.12,0.51,0.366,0.471,0.464,0.944
		c0.063,0.312,0.806,0.653,1.033,0.866c0.234,0.22,0.544,0.307,0.817,0.462c0.268,0.152,0.278,0.499,0.567,0.505
		c0.104-0.024,0.183,0.005,0.239,0.089c-0.097,0.221-0.019,0.31,0.236,0.264c0.262,0.12,0.386,0.438,0.469,0.691
		C50.113,61.035,50.36,61.899,49.854,61.92C49.881,61.919,50.106,61.91,49.854,61.92C49.979,61.915,50.05,61.912,49.854,61.92z
		 M57.881,58.874C58.051,59.02,57.75,58.907,57.881,58.874C57.898,58.889,57.843,58.884,57.881,58.874z M57.921,58.746
		c0.038,0.015,0.076,0.029,0.113,0.044C57.858,58.865,57.927,58.842,57.921,58.746C57.972,58.729,57.923,58.778,57.921,58.746z
		 M38.165,45.007c-0.02,0-0.034,0.102-0.135,0.066C38.075,45.052,38.12,45.029,38.165,45.007
		C38.146,45.007,38.165,45.015,38.165,45.007z M41.079,42.33c0.029,0.059,0.011,0.089-0.057,0.09
		C41.016,42.327,41.074,42.33,41.079,42.33C41.108,42.389,41.039,42.333,41.079,42.33z M51.692,42.229
		c0.026,0.049-0.043,0.076-0.073,0.078C51.599,42.247,51.719,42.232,51.692,42.229C51.718,42.278,51.666,42.226,51.692,42.229z
		 M51.138,46.985c0.052-0.035,0.129,0.084,0.13,0.106C51.231,47.119,51.114,46.947,51.138,46.985
		C51.19,46.951,51.15,47.005,51.138,46.985z M46.787,46.672c0.017,0,0.133,0.091,0.153,0.101
		C46.816,46.949,46.787,46.646,46.787,46.672C46.804,46.672,46.787,46.748,46.787,46.672z M49.339,46.628
		c0.096,0.195-0.275,0.205-0.192-0.128C49.44,46.745,49.335,46.629,49.339,46.628C49.435,46.823,49.322,46.633,49.339,46.628z
		 M50.085,45.136c0.164,0,0.137-0.342,0.215-0.425c-0.159,0-0.061,0.961-0.333,1.029C49.901,45.541,50.051,45.181,50.085,45.136
		C50.226,45.136,50.063,45.165,50.085,45.136z M51.24,44.303c-0.236,0.106-0.039,0.843-0.424,0.805
		c0.088-0.184,0.092-1.344,0.571-0.944C51.372,44.182,51.173,44.328,51.24,44.303C51.092,44.369,51.258,44.296,51.24,44.303z
		 M51.29,43.794c0.06-0.008,0.077,0.017,0.051,0.073C51.32,43.866,51.286,43.765,51.29,43.794
		C51.35,43.786,51.292,43.807,51.29,43.794z M53.242,43.448c0.099,0.239-0.426,0.587-0.571,0.699
		c0.13,0.021-0.153-0.489-0.153-0.503C52.646,43.516,53.192,43.454,53.242,43.448C53.317,43.629,53.229,43.449,53.242,43.448z
		 M53.186,43.112c0.024,0.145-0.081,0.063-0.119,0.018C53.087,43.105,53.212,43.107,53.186,43.112
		C53.21,43.256,53.156,43.117,53.186,43.112z M52.925,43.38c-0.016,0.135-0.324-0.068-0.345-0.117
		c-0.01-0.217,0.492-0.139,0.522,0.015C53.12,43.372,52.881,43.388,52.925,43.38C52.91,43.515,52.95,43.376,52.925,43.38z
		 M53.429,42.833C53.435,42.864,53.411,42.79,53.429,42.833C53.43,42.837,53.434,42.845,53.429,42.833z M52.071,42.436
		c-0.072-0.004-0.019,0.056-0.073,0.061C52.028,42.376,52.069,42.425,52.071,42.436C51.999,42.432,52.063,42.386,52.071,42.436z
		 M51.862,42.257c0.045,0,0.081,0.12,0.135,0.089C51.901,42.375,51.865,42.242,51.862,42.257
		C51.908,42.257,51.859,42.276,51.862,42.257z M51.935,42.112c0.063,0.022-0.029,0.08-0.022,0.151
		c-0.059-0.002-0.037-0.212,0.004-0.227C51.956,42.023,51.937,42.154,51.935,42.112C51.998,42.134,51.934,42.081,51.935,42.112z
		 M51.37,42.14c-0.017-0.09,0.265-0.073,0.285-0.069c0.303,0.064,0.068,0.277,0.111,0.283c0.056-0.088,0.102-0.084,0.137,0.011
		C51.925,42.424,51.234,42.11,51.37,42.14C51.356,42.071,51.343,42.134,51.37,42.14z M54.713,41.961
		c0.056,0.002,0.023,0.141-0.017,0.106C54.691,42.015,54.732,41.946,54.713,41.961C54.769,41.963,54.698,41.972,54.713,41.961z
		 M52.026,42.095c-0.033,0.121,0.038,0.069-0.011,0.079C52.029,42.078,51.977,42.094,52.026,42.095
		C51.993,42.216,51.98,42.094,52.026,42.095z M51.947,41.938c0.126,0.021,0.125,0,0.101,0.224
		C51.941,42.07,51.968,41.896,51.947,41.938C52.073,41.959,51.938,41.958,51.947,41.938z M55.318,41.643
		c-0.037,0.017,0.121-0.034,0.119,0.078C55.273,41.74,55.316,41.628,55.318,41.643C55.282,41.659,55.317,41.636,55.318,41.643z
		 M51.924,39.446C52,39.417,51.87,39.771,51.924,39.446C51.939,39.44,51.927,39.425,51.924,39.446z M51.771,39.077
		c-0.021,0.078-0.008,0.095-0.045,0.162C51.707,39.242,51.745,39.075,51.771,39.077C51.75,39.155,51.763,39.076,51.771,39.077z
		 M53.124,37.774c0.019,0.071-0.047,0.273-0.125,0.095C53.041,37.837,53.082,37.806,53.124,37.774
		C53.143,37.845,53.11,37.774,53.124,37.774z M57.174,59.433c-0.025,0.011,0.046,0.135-0.084,0.095
		C57.118,59.496,57.146,59.464,57.174,59.433C57.148,59.443,57.173,59.439,57.174,59.433z M58.866,58.371
		c0.005-0.017,0.322,0.022,0.327,0.072c0.005,0.146-0.435,0.107-0.48,0.269c-0.008,0.114,0.214-0.003,0.249,0.034
		c-0.029,0.126-0.836,0.417-0.713,0.11c-0.06-0.009-0.344-0.029-0.317,0.103c0.543,0.16-0.55-0.027-0.588,0.199
		C57.32,59.156,58.801,57.823,58.866,58.371C58.87,58.359,58.864,58.351,58.866,58.371z M52.235,58.08
		c0.046,0,0.09,0.079,0.073,0.123C52.148,57.934,52.253,58.131,52.235,58.08C52.281,58.08,52.243,58.102,52.235,58.08z
		 M52.213,58.063c-0.025,0.045,0.021,0.115,0.022,0.112c-0.052-0.001-0.083-0.025-0.094-0.075
		C52.146,58.075,52.229,58.063,52.213,58.063C52.188,58.108,52.202,58.064,52.213,58.063z M49.259,56.415
		c0.001-0.011,0.038-0.029,0.091,0.022C49.32,56.43,49.29,56.422,49.259,56.415C49.261,56.403,49.283,56.409,49.259,56.415z
		 M49.214,55.951c-0.045,0.017-0.115-0.053-0.057-0.078C49.182,55.935,49.208,55.976,49.214,55.951
		C49.169,55.967,49.209,55.971,49.214,55.951z M49.197,55.855c0.018-0.002-0.109-0.289-0.124-0.324
		C49.054,55.649,49.298,55.723,49.197,55.855C49.215,55.853,49.221,55.825,49.197,55.855z M48.914,55.308
		c0.071,0.089,0.063,0.169-0.028,0.241c-0.012-0.049-0.041-0.073-0.085-0.073C48.782,55.34,48.969,55.311,48.914,55.308
		C48.986,55.395,48.888,55.306,48.914,55.308z M37.775,51.172c-0.069-0.054,0.055-0.046,0.084-0.027
		C37.872,51.296,37.721,51.158,37.775,51.172C37.706,51.118,37.764,51.169,37.775,51.172z M43.064,49.243
		c0.053,0.054,0.106,0.109,0.159,0.163c-0.11-0.046-0.193-0.121-0.249-0.224c0.035-0.004,0.069-0.008,0.104-0.011
		C43.117,49.202,43.059,49.255,43.064,49.243C43.136,49.28,43.078,49.214,43.064,49.243z M44.201,48.673
		c-0.031,0.001-0.363,0.273-0.373,0.039C43.958,48.747,44.082,48.733,44.201,48.673C44.17,48.674,44.182,48.677,44.201,48.673z
		 M44.19,48.316c0.006,0.132-0.262,0.45-0.413,0.357c0.059-0.121-0.006-0.301,0.204-0.273c0.054-0.116-0.244-0.348,0.073-0.308
		C44.099,48.191,44.002,48.375,44.19,48.316C44.196,48.446,44.164,48.324,44.19,48.316z M45.096,42.895
		c0.146,0.1,0.137,0.163-0.029,0.19C45.059,43.075,45.104,42.857,45.096,42.895C45.145,42.925,45.092,42.914,45.096,42.895z
		 M45.146,42.234c0.066-0.032,0.123-0.077,0.17-0.134c-0.233-0.059-0.016,0.546-0.272,0.274c0.04-0.138,0.07-0.143,0.089-0.014
		C45.213,42.272,45.147,42.218,45.146,42.234C45.131,42.234,45.145,42.274,45.146,42.234z M45.231,41.832
		C45.235,41.832,45.231,42.06,45.231,41.832C45.237,41.832,45.231,41.839,45.231,41.832z M45.011,41.352
		c-0.018,0.042,0.093,0.095,0.119,0.095C45.098,41.537,45.005,41.311,45.011,41.352C44.993,41.394,45.014,41.376,45.011,41.352z
		 M46.148,39.876c0.054,0.027,0.133-0.018,0.102,0.1C46.198,39.911,46.141,39.9,46.148,39.876
		C46.202,39.904,46.139,39.906,46.148,39.876z M51.964,39.848c0.016,0.055-0.066-0.156,0.022-0.067
		C52.02,39.874,51.939,39.852,51.964,39.848C51.98,39.903,51.957,39.849,51.964,39.848z M47.993,39.049
		c0.054,0.006-0.255,0.237-0.272,0.257c0.035,0.02,0.065,0.046,0.091,0.078c-0.037,0.076-0.507,0.187-0.408-0.134
		C47.41,39.244,48.073,38.972,47.993,39.049C48.101,39.061,47.982,39.059,47.993,39.049z M49.475,36.059
		c0.051-0.023,0.102-0.021,0.153,0.006C49.575,36.095,49.523,36.093,49.475,36.059C49.526,36.035,49.472,36.065,49.475,36.059z
		 M49.735,35.416c-0.04,0.029-0.078,0.027-0.113-0.005C49.678,35.456,49.716,35.458,49.735,35.416
		C49.695,35.445,49.743,35.429,49.735,35.416z M50.702,33.924c-0.013-0.062-0.026-0.123-0.04-0.185
		c0.087,0.005,0.136,0.37,0.159,0.441C50.775,34.177,50.734,33.883,50.702,33.924C50.688,33.863,50.697,33.93,50.702,33.924z
		 M56.365,64.547c0.006,0.008,0.014,0.136,0.011,0.084C56.215,64.631,56.29,64.584,56.365,64.547
		C56.371,64.555,56.354,64.553,56.365,64.547z M49.033,64.016c0.014,0.199-0.153-0.005-0.147-0.033
		C48.985,63.953,49.041,64.037,49.033,64.016C49.047,64.215,49.027,63.998,49.033,64.016z M56.189,63.972
		c0.049-0.028,0.056-0.063,0.019-0.106c-0.04,0.188,0.554,0.107,0.673,0.099c0.35-0.028,0.481,0.004,0.661,0.13
		c0.163,0,0.196-0.251,0.362-0.251c-0.028,0.761-1.943,0.778-2.059,0.084c0.121,0.134,0.157,0.099,0.107-0.105
		C55.905,63.853,56.286,63.979,56.189,63.972C56.328,63.953,56.163,63.97,56.189,63.972z M55.658,63.749
		C55.454,63.811,55.752,63.543,55.658,63.749C55.619,63.761,55.668,63.726,55.658,63.749z M58.385,63.607
		c0,0.077-0.055,0.075-0.08,0.142C58.164,63.746,58.436,63.607,58.385,63.607C58.385,63.685,58.379,63.607,58.385,63.607z
		 M55.29,63.245c0.146-0.012,0.188,0.161,0.125,0.263C55.244,63.447,55.286,63.323,55.29,63.245
		C55.437,63.233,55.289,63.263,55.29,63.245z M58.441,63.133c0.102,0.061,0.04,0.417,0.063,0.504
		C58.305,63.676,58.444,63.064,58.441,63.133C58.542,63.193,58.44,63.143,58.441,63.133z M57.333,62.898
		C57.455,62.979,57.283,63.025,57.333,62.898C57.339,62.902,57.324,62.921,57.333,62.898z M57.14,62.931
		c-0.017,0.177-0.136,0.073-0.107-0.055C57.451,63.2,57.102,62.913,57.14,62.931C57.119,63.148,57.132,62.927,57.14,62.931
		C57.123,63.107,57.127,62.925,57.14,62.931z M56.733,62.78c0.017,0.071-0.019,0.085-0.107,0.039
		C56.632,62.797,56.775,62.785,56.733,62.78C56.75,62.852,56.715,62.778,56.733,62.78z M58.588,62.831
		c0.007-0.073,0.143-0.066,0.159-0.027C58.746,62.827,58.534,62.822,58.588,62.831C58.595,62.758,58.641,62.84,58.588,62.831z
		 M56.875,62.691c0.003,0.061-0.054,0.104-0.102,0.096C56.772,62.7,56.875,62.691,56.875,62.691
		C56.878,62.752,56.85,62.664,56.875,62.691z M56.501,62.726c-0.001-0.013-0.22,0.137-0.254,0.145
		C56.228,62.613,56.415,62.759,56.501,62.726C56.5,62.713,56.516,62.72,56.501,62.726z M58.521,62.696
		c-0.063,0.029-0.098-0.042-0.13-0.056C58.409,62.47,58.511,62.731,58.521,62.696C58.458,62.726,58.527,62.672,58.521,62.696z
		 M56.953,62.586c0.083,0.027,0.102,0.081,0.057,0.161C56.774,62.727,56.992,62.584,56.953,62.586
		C57.036,62.613,56.906,62.589,56.953,62.586z M57.723,62.574c0.247-0.021,0.003,0.162-0.051,0.162
		C57.674,62.698,57.726,62.556,57.723,62.574C57.97,62.554,57.722,62.581,57.723,62.574z M59.024,62.892
		c-0.07,0.073-0.14,0.146-0.209,0.219c-0.02-0.079,0.122-0.634,0.291-0.482C59.124,62.644,59.021,62.892,59.024,62.892
		C58.966,62.976,59.086,62.892,59.024,62.892z M58.334,62.502c-0.009,0.082,0.034,0.093-0.08,0.066
		C58.227,62.479,58.375,62.524,58.334,62.502C58.325,62.584,58.302,62.484,58.334,62.502z M56.546,62.49
		c-0.034,0.147-0.076,0.143-0.125-0.016C56.452,62.396,56.637,62.585,56.546,62.49C56.512,62.638,56.535,62.479,56.546,62.49z
		 M57.485,62.39c-0.06,0.086-0.139,0.146-0.238,0.179C57.281,62.437,57.467,62.385,57.485,62.39
		C57.426,62.476,57.471,62.386,57.485,62.39z M58.814,62.4c0.002-0.002-0.036,0.141-0.034,0.118
		C58.702,62.503,58.674,62.356,58.814,62.4C58.816,62.398,58.792,62.394,58.814,62.4z M56.337,62.423
		c-0.077-0.02-0.146-0.123-0.012-0.123C56.335,62.402,56.337,62.423,56.337,62.423C56.26,62.403,56.37,62.394,56.337,62.423z
		 M56.857,62.261c0.102,0-0.031,0.31-0.182,0.258C56.818,62.157,56.855,62.268,56.857,62.261
		C56.959,62.261,56.854,62.271,56.857,62.261z M58.362,62.205c0.075-0.007-0.243,0.255-0.232,0.297
		C57.982,62.522,58.374,62.134,58.362,62.205C58.437,62.198,58.357,62.235,58.362,62.205z M57.117,62.4
		c0.028,0.034,0.057,0.067,0.085,0.102c-0.127-0.109-0.182-0.086-0.164,0.072C56.779,62.466,57.073,61.954,57.117,62.4
		C57.164,62.42,57.111,62.341,57.117,62.4z M47.472,62.144C47.664,62.144,47.414,62.304,47.472,62.144
		C47.476,62.144,47.463,62.169,47.472,62.144z M56.195,62.066c0.11-0.005,0.091,0.151,0.029,0.189
		C56.175,62.258,56.202,61.984,56.195,62.066C56.305,62.062,56.193,62.091,56.195,62.066z M57.915,61.998
		c0.156,0.04,0.227,0.147,0.198,0.274C58.023,62.197,57.958,62.106,57.915,61.998C58.106,62.047,57.913,62.013,57.915,61.998
		C58.071,62.038,57.912,62.015,57.915,61.998z M53.537,61.982c0,0.145,0.194,0.062,0.221,0.189
		C53.443,62.5,53.521,61.982,53.537,61.982C53.537,62.15,53.528,61.982,53.537,61.982C53.537,62.123,53.527,61.982,53.537,61.982z
		 M56.541,61.971c0.12,0.005,0.101,0.122,0.022,0.162C56.481,62.12,56.58,61.896,56.541,61.971
		C56.66,61.976,56.525,62,56.541,61.971z M56.857,61.931c0.182,0.012,0.163,0.063-0.057,0.151
		C56.733,62.054,56.861,61.929,56.857,61.931C56.898,61.937,56.833,61.944,56.857,61.931z M57.757,61.998
		C57.62,62.042,57.932,61.9,57.757,61.998C57.745,62.002,57.769,61.991,57.757,61.998z M56.167,61.853
		c0.048,0-0.014,0.213-0.011,0.218C55.952,62.014,56.173,61.887,56.167,61.853C56.215,61.853,56.171,61.878,56.167,61.853z
		 M57.848,61.836c0.009-0.002,0.083,0.096,0.079,0.123C57.833,61.943,57.837,61.853,57.848,61.836
		C57.857,61.834,57.826,61.873,57.848,61.836z M63.425,62.496c-0.217,0.596-1.497,0.879-1.067,0.319
		c0.267-0.348,0.836-0.936,1.288-1.023c0.028,0.159-0.304,0.262-0.243,0.407C63.157,62.444,63.492,62.312,63.425,62.496
		C63.248,62.983,63.475,62.359,63.425,62.496z M57.666,61.641c0.067,0,0.018,0.099,0.012,0.134
		C57.53,61.721,57.677,61.633,57.666,61.641C57.733,61.641,57.646,61.654,57.666,61.641z M57.502,61.623
		c0.125-0.01-0.126,0.241-0.193,0.241C57.273,61.833,57.492,61.544,57.502,61.623C57.628,61.613,57.506,61.652,57.502,61.623z
		 M49.345,61.623c0.082,0.042,0.095,0.099,0.04,0.169C49.251,61.338,49.329,61.698,49.345,61.623
		C49.427,61.671,49.356,61.568,49.345,61.623z M56.455,61.568c-0.092,0.223,0.403,0.188,0.272,0.385
		c-0.151-0.018-0.357-0.206-0.408-0.346C56.355,61.502,56.471,61.576,56.455,61.568C56.361,61.795,56.429,61.555,56.455,61.568z
		 M53.48,61.551c0.063,0.097,0.099,0.203,0.107,0.318c0-0.007-0.573-0.169-0.234-0.386C53.457,61.418,53.484,61.536,53.48,61.551
		C53.517,61.589,53.492,61.512,53.48,61.551z M56.908,60.897c0.027,0.103-0.107,0.116-0.096,0.044
		C56.885,60.925,56.931,60.914,56.908,60.897C56.936,61,56.896,60.888,56.908,60.897z M57.292,61.143
		c0.026,0.033,0.045,0.071,0.057,0.112c-0.184-0.127-0.211,0.08-0.177-0.159c0.027-0.193-0.158-0.331,0.217-0.21
		C57.418,60.989,57.229,61.143,57.292,61.143C57.304,61.262,57.316,61.143,57.292,61.143z M57.694,60.886
		C57.571,60.841,57.713,60.746,57.694,60.886C57.678,60.88,57.696,60.871,57.694,60.886z M52.994,60.797
		c0.044-0.004,0.116,0.047,0.096,0.101C53.023,60.88,52.993,60.8,52.994,60.797C53.038,60.793,52.979,60.841,52.994,60.797z
		 M44.694,60.802c0.017,0.094-0.039,0.069-0.085,0.063C44.564,60.748,44.752,60.82,44.694,60.802
		C44.711,60.896,44.664,60.792,44.694,60.802z M56.065,60.656c0.052,0.07,0.116,0.127,0.192,0.169
		C56.19,61.026,55.99,60.748,56.065,60.656C56.117,60.727,56.052,60.673,56.065,60.656z M55.567,60.611
		c-0.033,0.163-0.182-0.008-0.159-0.055C55.467,60.561,55.52,60.579,55.567,60.611C55.528,60.803,55.53,60.608,55.567,60.611
		C55.534,60.774,55.524,60.607,55.567,60.611z M55.353,60.545c0.008,0.047,0.027,0.092,0.017,0.117
		C55.244,60.595,55.342,60.585,55.353,60.545C55.361,60.592,55.348,60.563,55.353,60.545z M39.863,60.59
		c0.034,0.067,0.028,0.053-0.096,0.061C39.785,60.395,39.859,60.646,39.863,60.59C39.896,60.657,39.864,60.569,39.863,60.59z
		 M55.635,60.433c0.253-0.019-0.111,0.316-0.085,0.124C55.729,60.497,55.655,60.353,55.635,60.433
		C55.888,60.414,55.626,60.471,55.635,60.433z M55.715,60.354C55.865,60.347,55.669,60.545,55.715,60.354
		C55.752,60.353,55.71,60.375,55.715,60.354z M39.937,60.188c0.048,0.09,0,0.326-0.17,0.303
		C39.771,60.252,39.802,60.188,39.937,60.188C39.985,60.277,39.922,60.188,39.937,60.188z M57.292,60.081
		c0.243-0.029,0.231,0.763-0.311,0.349c-0.052-0.142,0.173-0.229,0.252-0.282C57.435,60.011,57.292,60.087,57.292,60.081
		C57.528,60.053,57.292,60.091,57.292,60.081z M56.337,60.059c0.057,0,0.075,0.119-0.018,0.123
		C56.378,59.77,56.318,60.096,56.337,60.059C56.394,60.059,56.32,60.092,56.337,60.059z M57.033,59.779
		C56.768,59.762,57.172,59.662,57.033,59.779C57.018,59.778,57.055,59.761,57.033,59.779z M56.388,59.874
		c-0.065-0.054-0.104-0.123-0.119-0.206c0.111,0.036,0.209,0.016,0.294-0.062c-0.006,0.001-0.044,0.224,0.017,0.218
		c-0.08,0.041-0.118,0.015-0.113-0.078C56.424,59.745,56.529,59.984,56.388,59.874C56.391,59.847,56.403,59.886,56.388,59.874z
		 M41.05,59.596c0.051,0.013,0.102,0.025,0.153,0.038c0.026-0.007,0.152,0.821-0.289,0.497
		C40.563,59.871,40.594,59.825,41.05,59.596C41.104,59.594,41.035,59.604,41.05,59.596z M48.643,59.527
		c0.146,0.047-0.052,0.07-0.09,0.063C48.553,59.575,48.677,59.464,48.643,59.527C48.788,59.574,48.63,59.551,48.643,59.527z
		 M56.948,59.415c0.025,0.11-0.202,0.112-0.249,0.085C56.699,59.267,56.939,59.449,56.948,59.415
		C56.973,59.525,56.946,59.421,56.948,59.415z M56.705,59.187c-0.061,0.153-0.091,0.035-0.199,0.045
		C56.552,59.13,56.618,59.114,56.705,59.187C56.63,59.375,56.696,59.179,56.705,59.187C56.645,59.34,56.692,59.175,56.705,59.187z
		 M55.998,58.998C55.895,59.448,55.831,58.948,55.998,58.998C55.99,59.032,55.978,58.992,55.998,58.998z M44.694,59.21
		c-0.034-0.105,0-0.181,0.102-0.224c0.026,0.723,0.574-0.455,0.863,0.065c0.299,0.538-0.024,1.341-0.077,1.907
		c-0.054,0.004-0.359-0.173-0.379-0.128c-0.054,0.246-0.233,0.383-0.385,0.105c-0.03,0.032-0.062,0.062-0.096,0.089
		c-0.137-0.348,0.173-0.752,0.042-1.155C44.71,59.703,44.592,59.308,44.694,59.21C44.661,59.104,44.684,59.22,44.694,59.21z
		 M46.55,57.923c0.049-0.011,0.066,0.018,0.051,0.085C46.557,57.936,46.55,57.921,46.55,57.923
		C46.599,57.912,46.55,57.946,46.55,57.923z M50.623,57.649c0,0.039-0.123,0.078-0.125-0.011
		C50.559,57.645,50.626,57.654,50.623,57.649C50.623,57.688,50.604,57.624,50.623,57.649z M51.161,57.684
		c-0.009,0.046-0.28-0.023-0.317-0.051C50.837,57.579,51.167,57.69,51.161,57.684C51.152,57.729,51.143,57.664,51.161,57.684z
		 M46.046,57.572c0.079-0.036,0.159-0.071,0.238-0.106C46.33,57.69,46.079,57.637,46.046,57.572
		C46.109,57.501,46.062,57.603,46.046,57.572z M50.147,57.376c-0.021,0.073-0.067,0.097-0.141,0.072
		C50.06,57.374,50.178,57.374,50.147,57.376C50.127,57.45,50.116,57.379,50.147,57.376z M45.65,57.304
		c-0.035,0.167,0.013,1.779-0.369,1.36c-0.18-0.197-0.148-0.462-0.233-0.588c-0.148-0.218,0.472-0.497,0.472-0.499
		C45.604,57.547,45.482,57.201,45.65,57.304C45.597,57.556,45.629,57.291,45.65,57.304C45.597,57.557,45.622,57.286,45.65,57.304z
		 M50.431,57.276c0.115,0.009,0.23,0.019,0.345,0.028c0.007,0.033-0.523,0.014-0.583-0.057
		C50.359,57.073,50.426,57.319,50.431,57.276C50.546,57.281,50.438,57.216,50.431,57.276z M50.222,57.124
		c0.115,0.004,0.23,0.008,0.345,0.012c0.02,0.115-0.481,0.092-0.481-0.078C50.071,57.061,50.289,57.157,50.222,57.124
		C50.337,57.107,50.213,57.12,50.222,57.124z M49.197,56.174C49.066,56.198,49.197,56.174,49.197,56.174
		C49.184,56.177,49.207,56.135,49.197,56.174z M49.062,56.141C49.212,56.141,49.027,56.322,49.062,56.141
		C49.074,56.141,49.054,56.18,49.062,56.141z M39.088,53.352c0.036,0.015,0.151,0.104,0.147,0.179
		C39.13,53.515,39.061,53.392,39.088,53.352C39.124,53.366,39.075,53.371,39.088,53.352z M38.714,52.899
		C38.58,52.926,38.698,52.749,38.714,52.899C38.692,52.903,38.713,52.886,38.714,52.899z M38.386,52.217
		c-0.038,0.104-0.14,0.028-0.147-0.067C38.451,52.194,38.353,52.285,38.386,52.217C38.349,52.321,38.378,52.234,38.386,52.217z
		 M39.467,51.016c0.022,0.063-0.013,0.076-0.107,0.039C39.419,51.033,39.487,51.021,39.467,51.016
		C39.489,51.079,39.441,51.009,39.467,51.016z M39.286,50.898C39.303,50.956,39.074,50.958,39.286,50.898
		C39.293,50.923,39.256,50.907,39.286,50.898z M44.53,47.813c0.045-0.051-0.243-0.118,0.125-0.05
		C44.673,47.832,44.48,47.758,44.53,47.813C44.575,47.762,44.505,47.785,44.53,47.813z M44.428,47.791
		c-0.146,0.041-0.295,0.054-0.446,0.039C43.971,47.691,44.43,47.756,44.428,47.791C44.292,47.807,44.43,47.757,44.428,47.791z
		 M45.062,47.651c-0.025,0.043-0.255,0.082-0.266,0.078C44.772,47.616,45.115,47.659,45.062,47.651
		C45.037,47.694,45.006,47.643,45.062,47.651z M45.99,46.963c0.025-0.006-0.005,0.084-0.068,0.084
		C45.944,47.019,45.967,46.991,45.99,46.963C46.015,46.957,45.988,46.971,45.99,46.963z M45.78,46.83
		c0.047,0.003,0.062,0.039,0.045,0.106C45.707,46.914,45.779,46.833,45.78,46.83C45.827,46.833,45.777,46.841,45.78,46.83z
		 M45.944,46.807c0.004,0.088-0.036,0.104-0.119,0.044C45.877,46.805,45.978,46.822,45.944,46.807
		C45.949,46.896,45.926,46.799,45.944,46.807z M45.921,46.388c0.108-0.022-0.106,0.393-0.124,0.43
		C45.752,46.813,45.961,46.242,45.921,46.388C46.029,46.366,45.917,46.404,45.921,46.388z M36.282,46.365
		C36.257,46.457,36.11,46.222,36.282,46.365C36.278,46.38,36.27,46.355,36.282,46.365z M39.167,46.198
		c-0.074,0.021-0.147,0.042-0.221,0.062c-0.041-0.205,0.286-0.134,0.323-0.28C39.441,46.089,39.094,46.198,39.167,46.198
		C39.093,46.218,39.175,46.198,39.167,46.198z M47.053,45.806c0.014,0.035,0.128,0.251-0.028,0.224
		C47.003,45.91,47.056,45.807,47.053,45.806C47.067,45.841,47.033,45.803,47.053,45.806z M37.085,45.505
		c0.13-0.031,0.247-0.088,0.35-0.174c-0.275-0.069-0.245-0.289-0.096-0.352c0.309-0.194,1.747-0.062,1.239,0.631
		c0.445,0.031-0.199,0.467-0.302,0.55c-0.306,0.249-0.183,0.918-0.506,1.287c-0.148,0.168-0.44,0.272-0.742,0.096
		c-0.173,0.391-1.018,0.282-1.335,0.196c-0.065-0.131,0.18-0.172,0.249-0.172c-0.046-0.068-0.333-0.021-0.408-0.017
		c0.191-0.135,0.382-0.251-0.011-0.207c0.04-0.062,0.335-0.148,0.329-0.207c-0.64-0.204-0.174-0.149,0.09-0.078
		c-0.145-0.415,0.25-0.028,0.283-0.229c-0.344-0.179-0.208-0.027,0.13-0.263c-0.013-0.14,0.255-0.061,0.305-0.179
		c-0.006,0.044-0.491-0.27-0.532-0.299c-0.243-0.171,0.345-0.282,0.39-0.35c-0.01-0.061-0.233-0.146-0.288-0.168
		c0,0.039,0.484-0.152,0.09-0.1C36.433,45.229,37.082,45.477,37.085,45.505C37.216,45.474,37.088,45.526,37.085,45.505z
		 M39.167,44.772c0.064,0.087,0.07,0.178,0.017,0.274C38.944,45,39.117,44.789,39.167,44.772
		C39.231,44.859,39.12,44.788,39.167,44.772z M47.455,44.694c0,0.059-0.2,0.155-0.176,0.034
		C47.346,44.735,47.462,44.695,47.455,44.694C47.455,44.753,47.398,44.683,47.455,44.694z M38.867,44.325
		c-0.017,0.065-0.057,0.099-0.119,0.101C38.746,44.319,38.884,44.334,38.867,44.325C38.85,44.39,38.841,44.31,38.867,44.325z
		 M38.691,43.895c0.003,0.018-0.065,0.095-0.136,0.083C38.473,43.833,38.629,43.903,38.691,43.895
		C38.694,43.913,38.67,43.898,38.691,43.895z M38.867,43.816c0.007,0.069-0.124,0.096-0.164,0.079
		C38.702,43.813,38.911,43.827,38.867,43.816C38.875,43.886,38.856,43.814,38.867,43.816z M39.094,43.638
		C39.13,43.775,38.902,43.677,39.094,43.638C39.102,43.667,39.061,43.645,39.094,43.638z M39.065,43.548
		C39.023,43.752,38.842,43.46,39.065,43.548C39.062,43.567,39.049,43.542,39.065,43.548z M38.449,43.403
		c0.005,0.002,0.209,0.137-0.04,0.118C38.414,43.479,38.428,43.439,38.449,43.403z M39.767,42.709
		c-0.006,0.009,0.019-0.052,0.164-0.061c-0.167-0.223,0.98-0.106,1.086-0.128c-0.023,0.263-0.536,0.419-0.685,0.609
		c0.323,0-0.216,0.204-0.221,0.296c-0.01-0.228,1.002-0.013,1.112,0.072c0.255,0.198-0.354,0.665-0.477,0.776
		c-0.071,0.096-0.126,0.2-0.166,0.313c-0.064,0.175-0.274,0.084-0.43,0.174c0.012,0.036,0.405,0.106,0.424,0.078
		c0.207,0.109,0.116,0.577,0.305,0.643c0.081,0.231,0.662,1.768,0.427,1.641c0.103,0.018,0.13,0.757-0.04,0.696
		c0.292,0.105,0.942,0.056,0.755,0.605c-0.107,0.314-0.494,0.519-0.786,0.619c0.134,0.106,0.287,0.162,0.458,0.167
		c-0.301,0.941-1.127-0.091-1.657,0.251c0.155,0.019,0.191,0.072,0.111,0.16c-0.14,0.036-0.267-0.234-0.411-0.164
		c-0.384,0.188-0.241-0.114-0.608-0.152c-0.447-0.046-0.401,0.436-0.96,0.16c-0.133-0.03-0.239,0.012-0.318,0.127
		c-0.152,0.133-0.188-0.028-0.348-0.041c0.038-0.763,1.83-0.559,1.885-0.8c0.003-0.014-0.944-0.485-0.663-0.379
		c-0.07-0.325-0.638,0.152-0.481-0.296c-0.247-0.013,0.275-0.149,0.36-0.194c0.196-0.102,0.698-0.413,0.331-0.636
		c0.081,0.049-0.301,0.104-0.278,0.092c-0.184-0.243,0.611-0.647,0.611-0.386c0.365,0.442,0.619-0.388,0.69-0.586
		c-0.563,0.074-0.141-0.313-0.018-0.704c-0.179-0.179-0.694,0.264-0.786-0.095c-0.081-0.06-0.031,0.212-0.107,0.19
		c0.015-0.397,0.193-0.75,0.351-1.106c-0.097,0.233-0.18,0.224-0.249-0.028c-0.07,0.093-0.14,0.599-0.362,0.458
		c-0.011-0.3,0.268-0.531,0.385-0.782c0,0-0.444,0.507-0.565,0.464c0.138-0.158,0.114-0.193-0.074-0.106
		c0.031-0.187,0.348-0.219,0.484-0.269c0.203-0.075,0.252-0.282,0.421-0.424c0.055,0.183-1.136,0.296-0.441,0.095
		c-0.429,0.105,0.212-0.26,0.097-0.15c-0.289-0.032,0.68-0.577,0.056-0.308c0.112-0.465-0.448-0.391,0.079-0.62
		c0.01,0.098-0.112,0.613,0.108,0.14c0.005,0.003-0.074,0.256-0.051,0.302c0.107-0.023,0.317-0.402,0.317-0.548
		c0.05,0.061,0.114,0.078,0.192,0.051C39.761,42.822,39.68,42.711,39.767,42.709C39.755,42.725,39.74,42.71,39.767,42.709z
		 M39.06,42.436c0.121-0.125,0.315,0.025,0.418-0.134c0.135-0.017-0.29,0.346-0.005,0.24c-0.167,0.133-0.579,0.161-0.658,0.387
		c-0.032,0.091-0.112,0.491-0.253,0.479c0.267-0.267,0.022-0.543,0.463-0.671C38.959,42.651,39.051,42.329,39.06,42.436
		C39.177,42.314,39.061,42.448,39.06,42.436z M41.289,42.168c0.058-0.01,0.047,0.103,0.045,0.101
		C41.185,42.28,41.289,42.18,41.289,42.168C41.347,42.158,41.289,42.177,41.289,42.168z M41.226,42.123
		c-0.003-0.004,0.074-0.048,0.022,0.067C41.241,42.168,41.233,42.146,41.226,42.123C41.223,42.119,41.233,42.122,41.226,42.123z
		 M41.181,42.129c-0.036,0.039-0.072,0.078-0.107,0.117c0.049,0.042,0.219,0.302-0.034,0.269
		C40.698,42.202,41.16,42.327,41.181,42.129C41.166,42.187,41.179,42.143,41.181,42.129z M41.204,42.218
		C41.227,42.309,41.082,42.189,41.204,42.218C41.199,42.201,41.179,42.212,41.204,42.218z M41.385,42.056
		c0.001,0.042,0.058,0.109-0.108,0.095C41.299,42.079,41.393,42.058,41.385,42.056C41.386,42.098,41.361,42.052,41.385,42.056z
		 M41.237,41.961c-0.029,0.005-0.001,0.072-0.005,0.128C41.057,42.128,41.202,41.995,41.237,41.961
		C41.208,41.966,41.229,41.969,41.237,41.961z M42.109,41.485c-0.032-0.076-0.064-0.152-0.097-0.229
		c0.057,0.05,0.331-0.351,0.21-0.067c0.105-0.074,0.146-0.292,0.322-0.246c-0.044,0.211-0.042,0.131-0.111,0.133
		c0.22-0.008-0.183,0.192-0.166,0.175c0.063,0.078,0.054,0.511-0.198,0.48C42.083,41.649,42.096,41.567,42.109,41.485
		C42.07,41.412,42.08,41.564,42.109,41.485z M45.102,40.631c0.093-0.003-0.009,0.119-0.063,0.128
		c0.011-0.042,0.022-0.084,0.033-0.126c0.014,0.021,0.02,0.044,0.018,0.07C45.095,40.709,45.105,40.59,45.102,40.631
		C45.195,40.628,45.099,40.66,45.102,40.631z M45.894,39.854c0.117-0.007-0.102,0.158-0.102,0.051
		C45.955,39.804,45.891,39.868,45.894,39.854C46.01,39.846,45.893,39.86,45.894,39.854z M40.214,39.842
		c-0.108-0.005-0.07-0.229-0.068-0.263C40.329,39.593,40.174,39.883,40.214,39.842C40.105,39.837,40.231,39.824,40.214,39.842z
		 M46.985,38.993c0.153-0.032,0.076,0.253-0.176,0.135C46.805,39.082,46.993,39.018,46.985,38.993
		C47.139,38.961,46.995,39.024,46.985,38.993z M40.292,39.356c0.121,0.066,0.128,0.129,0.023,0.19
		C40.306,39.513,40.263,39.355,40.292,39.356C40.313,39.404,40.267,39.355,40.292,39.356z M40.298,38.993
		c0-0.046,0.349,0.126,0.379,0.135c-0.01,0.01-0.301,0.222-0.351,0.24c0.061-0.016-0.21-0.238-0.209-0.257
		C40.149,39.086,40.357,39.007,40.298,38.993C40.298,39.004,40.308,38.995,40.298,38.993
		C40.298,38.931,40.308,38.995,40.298,38.993z M48.422,37.411c0.052,0.071,0.02,0.109-0.096,0.112
		C48.312,37.462,48.433,37.38,48.422,37.411C48.474,37.482,48.421,37.416,48.422,37.411z M48.79,36.925
		c-0.021,0.078-0.049,0.095-0.084,0.05C48.711,36.936,48.82,36.917,48.79,36.925C48.769,37.002,48.762,36.932,48.79,36.925z
		 M48.66,36.824c0.073,0.008,0.083,0.034,0.028,0.079C48.63,36.881,48.671,36.795,48.66,36.824
		C48.733,36.832,48.652,36.842,48.66,36.824z M57.106,36.785c0.055,0.039,0.109,0.079,0.164,0.118
		C57.139,36.935,57.018,36.923,57.106,36.785C57.16,36.826,57.098,36.799,57.106,36.785z M57.18,36.752
		c0.043,0.017,0.087,0.015,0.13-0.006C57.306,36.902,57.179,36.754,57.18,36.752C57.223,36.769,57.174,36.764,57.18,36.752z
		 M48.784,36.757c0.009-0.056,0.057,0.069,0.005,0.118C48.751,36.882,48.813,36.757,48.784,36.757
		C48.793,36.701,48.799,36.757,48.784,36.757z M49.356,35.885C49.369,36.063,49.191,35.859,49.356,35.885
		C49.357,35.906,49.301,35.876,49.356,35.885z M59.007,34.616c0,0.064-0.156,0.027-0.136-0.05
		C58.946,34.565,59.01,34.616,59.007,34.616C59.007,34.68,58.975,34.619,59.007,34.616z M50.035,34.477
		c0.084,0.142,0.054,0.148-0.091,0.017C49.937,34.312,50.092,34.555,50.035,34.477C50.094,34.473,50.027,34.466,50.035,34.477z
		 M50.832,33.32C50.708,33.474,50.896,33.135,50.832,33.32C50.828,33.325,50.837,33.304,50.832,33.32z M50.878,33.18
		c0.026,0.058,0.053,0.116,0.079,0.173c-0.113,0.093-0.186-0.163-0.136-0.224C50.839,33.262,50.873,33.195,50.878,33.18
		C50.935,33.225,50.873,33.198,50.878,33.18z M51.675,32.493c0.008,0.146,0.026,0.488-0.232,0.397
		c0.067-0.323-0.021,0.045-0.056-0.196c0.133,0.136-0.013-0.181,0.204,0C51.514,32.615,51.726,32.475,51.675,32.493
		C51.67,32.399,51.666,32.496,51.675,32.493z M51.868,32.319c0.07,0.058-0.076,0.08-0.045-0.112
		C51.923,32.189,51.865,32.376,51.868,32.319C51.938,32.377,51.869,32.283,51.868,32.319z M51.992,32.146
		c0.017,0.015,0.064,0.07,0.028,0.106C52.011,32.217,52.001,32.182,51.992,32.146C52.009,32.162,51.991,32.159,51.992,32.146z
		 M47.681,45.89c0.26-0.219,0.627,0.129,0.396,0.386c-0.082-0.23-0.342,0.448-0.249,0.447c0.046-0.166,0.167,0.075,0.17,0.073
		c-0.152,0.025-0.357,0.111-0.3,0.313c-0.108-0.004-0.479-0.101-0.512-0.223c-0.074-0.266,0.464-0.027,0.518-0.134
		c-0.306-0.154-0.51-0.347-0.51-0.709c0.097-0.021,0.418,0.018,0.209-0.185c0.137,0.039,0.343,0.121,0.327,0.161
		c0.094-0.233-0.281,0.081,0.102-0.257C47.815,45.776,47.681,45.858,47.681,45.89C47.962,45.652,47.681,45.882,47.681,45.89z
		 M49.825,61.947c0.098,0.075-0.163,0.466-0.193,0.53c-0.15,0.323,0.032,0.413,0.018,0.718c-0.019,0.399-1.2-0.312-1.416-0.402
		c-0.243-0.102-0.556-0.264-0.613-0.55c-0.111-0.548,0.353-0.094,0.47-0.259c0.137-0.193,0.736,0.178,0.98,0.111
		c0.207-0.057,0.543-0.338,0.757-0.148C49.8,61.922,49.625,61.776,49.825,61.947C49.953,62.045,49.596,61.751,49.825,61.947z
		 M36.746,33.874c0.123,0.01-0.253,0.419-0.249,0.229c0.055-0.012-0.071,0.437-0.074,0.475c0.09-0.192,0.08-0.148,0.125-0.039
		c-0.052-0.143,0.177-0.258,0.283-0.246c0.009,0.046,0.002,0.089-0.022,0.128c0.262,0.011,0.224-0.247,0.407-0.344
		c0.054-0.029,0.098,0.372,0.102,0.399c0.032-0.001,0.84-0.661,0.492,0.011c0.053-0.15-0.014,0.192-0.028,0.241
		c0.147,0.03,0.068-0.384,0.217-0.381c0.215,0.004,0.159,0.419,0.469,0.208c0.253-0.172,0.648-0.179,0.536,0.24
		c0.135-0.017,0.292-0.222,0.418-0.044c-0.02-0.085-0.313,0.129-0.356,0.128c0.092,0.329-0.083,0.105-0.079,0.375
		c0.179,0.159,0.502,0.226,0.211,0.53c0.037-0.039-0.242,0.507-0.228,0.208c0,0.29-1.369,0.645-1.681,0.571
		c-0.369-0.086-0.774,0.072-1.14-0.04c-0.201-0.062-0.192-0.312-0.326-0.463c-0.228-0.257-0.564-0.37-0.841-0.56
		c0.103-0.125,0.523-0.278,0.77-0.269c-0.347,0.022-0.349-0.038-0.006-0.179c-0.005,0.034-0.533-0.167-0.074-0.269
		c-0.134-0.222-0.46-0.141-0.589-0.275c-0.138-0.144,1.07-0.01,1.065,0.018c0.032,0.121-0.339-0.14-0.334-0.14
		c0.146-0.07,0.298-0.095,0.458-0.073c-0.091-0.063-0.355-0.296-0.294-0.324c-0.14-0.13-0.73,0.054-0.69-0.274
		c0.179-0.049,0.14-0.038,0.211,0.035c0.042-0.071,0.088-0.139,0.14-0.203c0.038,0.039,0.076,0.077,0.113,0.115
		c-0.039,0.168,0.021,0.199,0.181,0.092c-0.043-0.073-0.094-0.14-0.15-0.203c0.134-0.02,0.27-0.313,0.393-0.14
		c0.026,0.038,0.22,0.335,0.165,0.387c0.115,0.026-0.205-0.627,0.187-0.307c-0.019-0.129-0.211-0.078-0.204-0.213
		C36.664,33.058,36.853,33.737,36.746,33.874C36.872,33.884,36.753,33.865,36.746,33.874z"/>

</svg>
