<font id="OpenSans" horiz-adv-x="2048" >
<font-face font-family="OpenSans" units-per-em="2048" underline-position="-154" underline-thickness="102"/>
<missing-glyph horiz-adv-x="1229" d="M193,1462l841,0l0,-1462l-841,0M297,104l633,0l0,1254l-633,0z"/>
<glyph unicode=" " horiz-adv-x="532"/>
<glyph unicode="!" horiz-adv-x="547" d="M326,403l-105,0l-51,1059l207,0M152,106C152,197 192,242 272,242C311,242 341,230 362,207C383,184 393,150 393,106C393,63 382,30 361,7C340,-17 310,-29 272,-29C237,-29 209,-18 186,3C163,24 152,58 152,106z"/>
<glyph unicode="&quot;" horiz-adv-x="821" d="M319,1462l-40,-528l-105,0l-41,528M688,1462l-41,-528l-104,0l-41,528z"/>
<glyph unicode="#" horiz-adv-x="1323" d="M981,899l-66,-340l283,0l0,-129l-307,0l-84,-430l-137,0l84,430l-303,0l-82,-430l-136,0l80,430l-262,0l0,129l287,0l68,340l-277,0l0,127l299,0l82,436l139,0l-82,-436l305,0l84,436l134,0l-84,-436l264,0l0,-127M475,559l303,0l66,340l-303,0z"/>
<glyph unicode="$" horiz-adv-x="1171" d="M1036,449C1036,358 1002,284 934,225C866,166 771,128 649,113l0,-232l-129,0l0,223C445,104 373,110 303,122C233,133 176,149 131,170l0,156C186,301 250,281 323,266C395,250 461,242 520,242l0,440C383,725 288,776 233,833C178,890 150,964 150,1055C150,1142 184,1214 252,1270C319,1326 409,1360 520,1372l0,182l129,0l0,-180C772,1371 890,1346 1004,1300l-52,-131C853,1208 752,1232 649,1239l0,-434C754,772 832,739 884,708C936,676 974,640 999,599C1024,558 1036,508 1036,449M866,436C866,484 851,523 822,553C792,582 734,612 649,641l0,-389C794,272 866,333 866,436M319,1057C319,1006 334,966 364,935C394,904 446,875 520,848l0,387C454,1224 404,1204 370,1173C336,1142 319,1103 319,1057z"/>
<glyph unicode="%" horiz-adv-x="1686" d="M242,1026C242,913 254,828 279,771C304,714 344,686 399,686C508,686 563,799 563,1026C563,1251 508,1364 399,1364C344,1364 304,1336 279,1280C254,1224 242,1139 242,1026M700,1026C700,874 675,759 624,682C573,604 498,565 399,565C306,565 233,605 182,684C130,763 104,877 104,1026C104,1177 129,1291 179,1368C228,1445 302,1483 399,1483C496,1483 570,1443 622,1364C674,1285 700,1172 700,1026M1122,440C1122,326 1134,241 1159,185C1184,128 1224,100 1280,100C1336,100 1377,128 1404,184C1431,239 1444,325 1444,440C1444,554 1431,639 1404,694C1377,749 1336,776 1280,776C1224,776 1184,749 1159,694C1134,639 1122,554 1122,440M1581,440C1581,289 1556,174 1505,97C1454,19 1379,-20 1280,-20C1185,-20 1113,20 1062,99C1011,178 985,292 985,440C985,591 1010,705 1060,782C1109,859 1183,897 1280,897C1375,897 1449,858 1502,780C1555,701 1581,588 1581,440M1323,1462l-811,-1462l-147,0l811,1462z"/>
<glyph unicode="&amp;" horiz-adv-x="1495" d="M414,1171C414,1125 426,1081 450,1040C474,998 515,948 573,889C659,939 719,985 753,1028C786,1070 803,1119 803,1174C803,1225 786,1267 752,1300C717,1332 671,1348 614,1348C555,1348 507,1332 470,1300C433,1268 414,1225 414,1171M569,129C730,129 863,180 969,283l-437,424C458,662 406,624 375,595C344,565 322,533 307,499C292,465 285,426 285,383C285,305 311,243 363,198C414,152 483,129 569,129M113,379C113,466 136,542 183,609C229,676 312,743 432,811C375,874 337,922 317,955C296,988 280,1022 268,1057C256,1092 250,1129 250,1167C250,1267 283,1345 348,1401C413,1457 504,1485 621,1485C729,1485 814,1457 876,1402C938,1346 969,1268 969,1169C969,1098 946,1032 901,972C856,911 781,850 676,788l407,-391C1120,438 1150,487 1173,543C1195,598 1214,659 1229,725l168,0C1352,534 1283,390 1192,291l299,-291l-229,0l-185,178C998,107 918,57 837,26C756,-5 665,-20 565,-20C422,-20 311,15 232,86C153,157 113,254 113,379z"/>
<glyph unicode="'" horiz-adv-x="453" d="M319,1462l-40,-528l-105,0l-41,528z"/>
<glyph unicode="(" horiz-adv-x="606" d="M82,561C82,738 108,903 160,1057C211,1211 286,1346 383,1462l162,0C449,1333 377,1192 329,1038C280,884 256,726 256,563C256,403 281,247 330,94C379,-59 450,-198 543,-324l-160,0C285,-211 210,-78 159,73C108,224 82,387 82,561z"/>
<glyph unicode=")" horiz-adv-x="606" d="M524,561C524,386 498,222 447,71C395,-80 320,-212 223,-324l-160,0C156,-199 227,-59 276,94C325,247 350,403 350,563C350,726 326,884 278,1038C229,1192 157,1333 61,1462l162,0C321,1345 396,1210 447,1056C498,901 524,736 524,561z"/>
<glyph unicode="*" horiz-adv-x="1130" d="M657,1556l-43,-395l398,111l26,-182l-381,-31l248,-326l-172,-94l-176,362l-160,-362l-176,94l242,326l-377,31l29,182l391,-111l-43,395z"/>
<glyph unicode="+" horiz-adv-x="1171" d="M653,791l412,0l0,-138l-412,0l0,-426l-139,0l0,426l-410,0l0,138l410,0l0,428l139,0z"/>
<glyph unicode="," horiz-adv-x="502" d="M350,238l15,-23C348,148 323,71 290,-17C257,-106 223,-188 188,-264l-125,0C81,-195 101,-109 123,-7C144,95 159,177 168,238z"/>
<glyph unicode="-" horiz-adv-x="659" d="M84,473l0,152l491,0l0,-152z"/>
<glyph unicode="." horiz-adv-x="545" d="M152,106C152,151 162,185 183,208C203,231 232,242 270,242C309,242 339,231 361,208C382,185 393,151 393,106C393,63 382,29 360,6C338,-17 308,-29 270,-29C236,-29 208,-18 186,3C163,24 152,58 152,106z"/>
<glyph unicode="/" horiz-adv-x="752" d="M731,1462l-545,-1462l-166,0l545,1462z"/>
<glyph unicode="0" horiz-adv-x="1171" d="M1069,733C1069,480 1029,292 950,167C870,42 748,-20 584,-20C427,-20 307,44 225,172C143,299 102,486 102,733C102,988 142,1177 221,1300C300,1423 421,1485 584,1485C743,1485 863,1421 946,1292C1028,1163 1069,977 1069,733M270,733C270,520 295,366 345,269C395,172 475,123 584,123C695,123 775,172 825,271C874,369 899,523 899,733C899,943 874,1097 825,1195C775,1292 695,1341 584,1341C475,1341 395,1293 345,1197C295,1100 270,946 270,733z"/>
<glyph unicode="1" horiz-adv-x="1171" d="M715,0l-162,0l0,1042C553,1129 556,1211 561,1288C547,1274 531,1259 514,1244C497,1229 417,1164 276,1049l-88,114l387,299l140,0z"/>
<glyph unicode="2" horiz-adv-x="1171" d="M1061,0l-961,0l0,143l385,387C602,649 680,733 717,784C754,835 782,884 801,932C820,980 829,1032 829,1087C829,1165 805,1227 758,1273C711,1318 645,1341 561,1341C500,1341 443,1331 389,1311C334,1291 274,1255 207,1202l-88,113C254,1427 400,1483 559,1483C696,1483 804,1448 882,1378C960,1307 999,1213 999,1094C999,1001 973,910 921,819C869,728 772,614 629,475l-320,-313l0,-8l752,0z"/>
<glyph unicode="3" horiz-adv-x="1171" d="M1006,1118C1006,1025 980,948 928,889C875,830 801,790 705,770l0,-8C822,747 909,710 966,650C1023,590 1051,511 1051,414C1051,275 1003,168 906,93C809,18 672,-20 494,-20C417,-20 346,-14 282,-2C217,9 155,30 94,59l0,158C157,186 225,162 297,146C368,129 436,121 500,121C753,121 879,220 879,418C879,595 740,684 461,684l-144,0l0,143l146,0C577,827 667,852 734,903C801,953 834,1023 834,1112C834,1183 810,1239 761,1280C712,1321 645,1341 561,1341C497,1341 437,1332 380,1315C323,1298 259,1266 186,1219l-84,112C162,1378 231,1416 310,1443C388,1470 470,1483 557,1483C699,1483 809,1451 888,1386C967,1321 1006,1231 1006,1118z"/>
<glyph unicode="4" horiz-adv-x="1171" d="M1130,336l-217,0l0,-336l-159,0l0,336l-711,0l0,145l694,989l176,0l0,-983l217,0M754,487l0,486C754,1068 757,1176 764,1296l-8,0C724,1232 694,1179 666,1137l-457,-650z"/>
<glyph unicode="5" horiz-adv-x="1171" d="M557,893C711,893 832,855 921,779C1009,702 1053,598 1053,465C1053,314 1005,195 909,109C812,23 679,-20 510,-20C345,-20 220,6 133,59l0,160C180,189 238,166 307,149C376,132 445,123 512,123C629,123 721,151 786,206C851,261 883,341 883,446C883,650 758,752 508,752C445,752 360,742 254,723l-86,55l55,684l727,0l0,-153l-585,0l-37,-439C405,885 481,893 557,893z"/>
<glyph unicode="6" horiz-adv-x="1171" d="M117,625C117,912 173,1127 285,1270C396,1412 561,1483 780,1483C855,1483 915,1477 958,1464l0,-143C907,1338 848,1346 782,1346C625,1346 506,1297 423,1200C340,1102 295,948 287,739l12,0C372,854 488,911 647,911C778,911 882,871 958,792C1033,713 1071,605 1071,469C1071,317 1030,198 947,111C864,24 751,-20 610,-20C459,-20 339,37 250,151C161,264 117,422 117,625M608,121C703,121 776,151 829,211C881,270 907,356 907,469C907,566 883,642 834,697C785,752 713,780 616,780C556,780 501,768 451,743C401,718 361,684 332,641C302,598 287,553 287,506C287,437 300,373 327,314C354,255 392,208 441,173C490,138 545,121 608,121z"/>
<glyph unicode="7" horiz-adv-x="1171" d="M285,0l606,1309l-797,0l0,153l973,0l0,-133l-598,-1329z"/>
<glyph unicode="8" horiz-adv-x="1171" d="M584,1483C717,1483 823,1452 901,1390C979,1328 1018,1242 1018,1133C1018,1061 996,995 951,936C906,877 835,823 737,774C856,717 940,658 990,596C1040,533 1065,461 1065,379C1065,258 1023,161 938,89C853,16 737,-20 590,-20C434,-20 314,14 230,83C146,151 104,248 104,373C104,540 206,671 410,764C318,816 252,872 212,933C172,993 152,1060 152,1135C152,1241 191,1326 270,1389C348,1452 453,1483 584,1483M268,369C268,289 296,227 352,182C407,137 485,115 586,115C685,115 763,138 818,185C873,232 901,296 901,377C901,442 875,499 823,550C771,600 680,649 551,696C452,653 380,606 335,555C290,503 268,441 268,369M582,1348C499,1348 433,1328 386,1288C339,1248 315,1195 315,1128C315,1067 335,1014 374,970C413,926 486,882 592,838C687,878 755,921 795,967C834,1013 854,1067 854,1128C854,1195 830,1249 782,1289C733,1328 667,1348 582,1348z"/>
<glyph unicode="9" horiz-adv-x="1171" d="M1061,838C1061,266 840,-20 397,-20C320,-20 258,-13 213,0l0,143C266,126 327,117 395,117C555,117 676,167 758,266C839,365 884,516 891,721l-12,0C842,666 794,624 733,595C672,566 604,551 528,551C399,551 296,590 220,667C144,744 106,852 106,991C106,1143 149,1263 234,1351C319,1439 430,1483 569,1483C668,1483 755,1458 830,1407C904,1356 961,1281 1001,1184C1041,1086 1061,971 1061,838M569,1341C474,1341 400,1310 348,1249C296,1188 270,1102 270,993C270,897 294,822 342,767C390,712 463,684 561,684C622,684 678,696 729,721C780,746 820,779 849,822C878,865 893,909 893,956C893,1026 879,1091 852,1150C825,1209 787,1256 738,1290C689,1324 632,1341 569,1341z"/>
<glyph unicode=":" horiz-adv-x="545" d="M152,106C152,151 162,185 183,208C203,231 232,242 270,242C309,242 339,231 361,208C382,185 393,151 393,106C393,63 382,29 360,6C338,-17 308,-29 270,-29C236,-29 208,-18 186,3C163,24 152,58 152,106M152,989C152,1079 191,1124 270,1124C352,1124 393,1079 393,989C393,946 382,912 360,889C338,866 308,854 270,854C236,854 208,865 186,886C163,907 152,941 152,989z"/>
<glyph unicode=";" horiz-adv-x="545" d="M350,238l15,-23C348,148 323,71 290,-17C257,-106 223,-188 188,-264l-125,0C81,-195 101,-109 123,-7C144,95 159,177 168,238M147,989C147,1079 187,1124 266,1124C348,1124 389,1079 389,989C389,946 378,912 356,889C334,866 304,854 266,854C227,854 198,866 178,889C157,912 147,946 147,989z"/>
<glyph unicode="&lt;" horiz-adv-x="1171" d="M1065,242l-961,422l0,98l961,479l0,-149l-782,-371l782,-328z"/>
<glyph unicode="=" horiz-adv-x="1171" d="M119,858l0,137l930,0l0,-137M119,449l0,137l930,0l0,-137z"/>
<glyph unicode="&gt;" horiz-adv-x="1171" d="M104,393l783,326l-783,373l0,149l961,-479l0,-98l-961,-422z"/>
<glyph unicode="?" horiz-adv-x="879" d="M289,403l0,54C289,535 301,599 325,650C349,700 394,753 459,809C550,886 607,943 631,982C654,1021 666,1067 666,1122C666,1190 644,1243 601,1280C557,1317 494,1335 412,1335C359,1335 308,1329 258,1317C208,1304 151,1282 86,1249l-59,135C153,1450 285,1483 422,1483C549,1483 648,1452 719,1389C790,1326 825,1238 825,1124C825,1075 819,1033 806,996C793,959 773,924 748,891C723,858 668,804 584,731C517,674 472,626 451,588C429,550 418,499 418,436l0,-33M240,106C240,197 280,242 360,242C399,242 429,230 450,207C471,184 481,150 481,106C481,63 470,30 449,7C428,-17 398,-29 360,-29C325,-29 297,-18 274,3C251,24 240,58 240,106z"/>
<glyph unicode="@" horiz-adv-x="1841" d="M1720,729C1720,634 1705,548 1676,469C1647,390 1605,329 1552,286C1499,243 1437,221 1368,221C1311,221 1262,238 1223,273C1184,308 1160,352 1153,406l-8,0C1118,348 1080,303 1031,270C981,237 922,221 854,221C754,221 676,255 620,324C563,392 535,485 535,602C535,738 574,849 653,934C732,1019 835,1061 963,1061C1008,1061 1060,1057 1117,1049C1174,1040 1226,1029 1272,1014l-25,-470l0,-22C1247,403 1291,344 1380,344C1441,344 1490,380 1528,452C1566,523 1585,616 1585,731C1585,852 1560,957 1511,1048C1462,1139 1392,1209 1301,1258C1210,1307 1105,1331 987,1331C838,1331 709,1300 599,1239C489,1177 405,1089 347,975C289,860 260,728 260,578C260,375 314,218 421,109C528,0 683,-55 885,-55C1025,-55 1170,-26 1321,31l0,-133C1193,-158 1048,-186 885,-186C643,-186 455,-119 322,14C188,147 121,332 121,571C121,744 157,899 228,1034C299,1169 401,1274 533,1349C665,1423 816,1460 987,1460C1130,1460 1258,1430 1370,1370C1481,1309 1568,1224 1629,1113C1690,1002 1720,874 1720,729M686,598C686,429 751,344 881,344C1019,344 1094,448 1106,657l14,261C1072,931 1020,938 963,938C876,938 809,908 760,848C711,788 686,705 686,598z"/>
<glyph unicode="A" horiz-adv-x="1296" d="M1120,0l-182,465l-586,0l-180,-465l-172,0l578,1468l143,0l575,-1468M885,618l-170,453C693,1128 670,1199 647,1282C632,1218 611,1148 584,1071l-172,-453z"/>
<glyph unicode="B" horiz-adv-x="1327" d="M201,1462l413,0C808,1462 948,1433 1035,1375C1122,1317 1165,1225 1165,1100C1165,1013 1141,942 1093,886C1044,829 974,793 881,776l0,-10C1103,728 1214,611 1214,416C1214,285 1170,183 1082,110C993,37 870,0 711,0l-510,0M371,836l280,0C771,836 857,855 910,893C963,930 989,994 989,1083C989,1165 960,1224 901,1261C842,1297 749,1315 621,1315l-250,0M371,692l0,-547l305,0C794,145 883,168 943,214C1002,259 1032,331 1032,428C1032,519 1002,585 941,628C880,671 787,692 662,692z"/>
<glyph unicode="C" horiz-adv-x="1292" d="M827,1331C666,1331 540,1278 447,1171C354,1064 307,917 307,731C307,540 352,392 442,288C531,183 659,131 825,131C927,131 1043,149 1174,186l0,-149C1073,-1 948,-20 799,-20C584,-20 418,45 301,176C184,307 125,492 125,733C125,884 153,1016 210,1129C266,1242 347,1330 454,1391C560,1452 685,1483 829,1483C982,1483 1116,1455 1231,1399l-72,-146C1048,1305 938,1331 827,1331z"/>
<glyph unicode="D" horiz-adv-x="1493" d="M1368,745C1368,504 1303,319 1172,192C1041,64 852,0 606,0l-405,0l0,1462l448,0C876,1462 1053,1399 1179,1273C1305,1147 1368,971 1368,745M1188,739C1188,930 1140,1073 1045,1170C949,1267 807,1315 618,1315l-247,0l0,-1168l207,0C781,147 933,197 1035,297C1137,396 1188,544 1188,739z"/>
<glyph unicode="E" horiz-adv-x="1139" d="M1016,0l-815,0l0,1462l815,0l0,-151l-645,0l0,-471l606,0l0,-150l-606,0l0,-538l645,0z"/>
<glyph unicode="F" horiz-adv-x="1057" d="M371,0l-170,0l0,1462l815,0l0,-151l-645,0l0,-535l606,0l0,-151l-606,0z"/>
<glyph unicode="G" horiz-adv-x="1491" d="M844,766l497,0l0,-711C1264,30 1185,12 1105,-1C1025,-14 932,-20 827,-20C606,-20 433,46 310,178C187,309 125,494 125,731C125,883 156,1016 217,1131C278,1245 365,1332 480,1393C595,1453 729,1483 883,1483C1039,1483 1184,1454 1319,1397l-66,-150C1121,1303 994,1331 872,1331C694,1331 555,1278 455,1172C355,1066 305,919 305,731C305,534 353,384 450,282C546,180 687,129 874,129C975,129 1074,141 1171,164l0,450l-327,0z"/>
<glyph unicode="H" horiz-adv-x="1511" d="M1311,0l-170,0l0,688l-770,0l0,-688l-170,0l0,1462l170,0l0,-622l770,0l0,622l170,0z"/>
<glyph unicode="J" horiz-adv-x="547" d="M-12,-385C-75,-385 -124,-376 -160,-358l0,145C-113,-226 -63,-233 -12,-233C54,-233 104,-213 139,-173C173,-133 190,-75 190,0l0,1462l170,0l0,-1448C360,-113 328,-211 264,-280C200,-350 108,-385 -12,-385z"/>
<glyph unicode="K" horiz-adv-x="1257" d="M1257,0l-200,0l-533,709l-153,-136l0,-573l-170,0l0,1462l170,0l0,-725l663,725l201,0l-588,-635z"/>
<glyph unicode="L" horiz-adv-x="1063" d="M201,0l0,1462l170,0l0,-1308l645,0l0,-154z"/>
<glyph unicode="M" horiz-adv-x="1849" d="M848,0l-496,1296l-8,0C353,1193 358,1071 358,930l0,-930l-157,0l0,1462l256,0l463,-1206l8,0l467,1206l254,0l0,-1462l-170,0l0,942C1479,1050 1484,1167 1493,1294l-8,0l-500,-1294z"/>
<glyph unicode="N" horiz-adv-x="1544" d="M1343,0l-194,0l-799,1227l-8,0C353,1083 358,951 358,831l0,-831l-157,0l0,1462l192,0l797,-1222l8,0C1197,258 1194,316 1189,414C1184,511 1183,581 1184,623l0,839l159,0z"/>
<glyph unicode="O" horiz-adv-x="1595" d="M1470,733C1470,499 1411,315 1293,181C1174,47 1010,-20 799,-20C584,-20 418,46 301,178C184,309 125,495 125,735C125,973 184,1158 301,1289C418,1420 585,1485 801,1485C1011,1485 1175,1418 1293,1285C1411,1152 1470,968 1470,733M305,733C305,535 347,385 432,283C516,180 638,129 799,129C961,129 1083,180 1166,282C1249,384 1290,534 1290,733C1290,930 1249,1079 1167,1181C1084,1282 962,1333 801,1333C639,1333 516,1282 432,1180C347,1077 305,928 305,733z"/>
<glyph unicode="P" horiz-adv-x="1233" d="M1128,1036C1128,888 1078,774 977,695C876,615 731,575 543,575l-172,0l0,-575l-170,0l0,1462l379,0C945,1462 1128,1320 1128,1036M371,721l153,0C675,721 784,745 851,794C918,843 952,921 952,1028C952,1125 920,1197 857,1244C794,1291 695,1315 561,1315l-190,0z"/>
<glyph unicode="Q" horiz-adv-x="1595" d="M1470,733C1470,546 1432,390 1357,266C1282,142 1175,58 1038,14l348,-362l-247,0l-285,330l-55,-2C584,-20 418,46 301,178C184,309 125,495 125,735C125,973 184,1158 301,1289C418,1420 585,1485 801,1485C1011,1485 1175,1418 1293,1285C1411,1152 1470,968 1470,733M305,733C305,535 347,385 432,283C516,180 638,129 799,129C961,129 1083,180 1166,282C1249,384 1290,534 1290,733C1290,930 1249,1079 1167,1181C1084,1282 962,1333 801,1333C639,1333 516,1282 432,1180C347,1077 305,928 305,733z"/>
<glyph unicode="R" horiz-adv-x="1266" d="M371,608l0,-608l-170,0l0,1462l401,0C781,1462 914,1428 1000,1359C1085,1290 1128,1187 1128,1049C1128,856 1030,725 834,657l397,-657l-201,0l-354,608M371,754l233,0C724,754 812,778 868,826C924,873 952,945 952,1040C952,1137 924,1206 867,1249C810,1292 718,1313 592,1313l-221,0z"/>
<glyph unicode="S" horiz-adv-x="1124" d="M1026,389C1026,260 979,160 886,88C793,16 666,-20 506,-20C333,-20 199,2 106,47l0,164C166,186 231,166 302,151C373,136 443,129 512,129C625,129 711,151 768,194C825,237 854,296 854,373C854,424 844,465 824,498C803,530 769,560 722,587C674,614 601,645 504,680C368,729 271,786 213,853C154,920 125,1007 125,1114C125,1227 167,1316 252,1383C337,1450 449,1483 588,1483C733,1483 867,1456 989,1403l-53,-148C815,1306 698,1331 584,1331C494,1331 424,1312 373,1273C322,1234 297,1181 297,1112C297,1061 306,1020 325,988C344,955 375,926 420,899C464,872 532,842 623,809C776,754 882,696 940,633C997,570 1026,489 1026,389z"/>
<glyph unicode="T" horiz-adv-x="1133" d="M651,0l-170,0l0,1311l-463,0l0,151l1096,0l0,-151l-463,0z"/>
<glyph unicode="U" horiz-adv-x="1491" d="M1305,1462l0,-946C1305,349 1255,218 1154,123C1053,28 915,-20 739,-20C563,-20 427,28 331,124C234,220 186,352 186,520l0,942l170,0l0,-954C356,386 389,292 456,227C523,162 621,129 750,129C873,129 968,162 1035,228C1102,293 1135,387 1135,510l0,952z"/>
<glyph unicode="V" horiz-adv-x="1219" d="M1036,1462l183,0l-527,-1462l-168,0l-524,1462l180,0l336,-946C555,407 585,302 608,199C632,307 663,415 702,522z"/>
<glyph unicode="W" horiz-adv-x="1896" d="M1477,0l-168,0l-295,979C1000,1022 984,1077 967,1143C950,1209 941,1249 940,1262C925,1174 902,1078 870,973l-286,-973l-168,0l-389,1462l180,0l231,-903C470,432 493,318 508,215C526,337 553,456 588,573l262,889l180,0l275,-897C1337,462 1364,345 1386,215C1399,310 1423,425 1458,561l230,901l180,0z"/>
<glyph unicode="X" horiz-adv-x="1182" d="M1174,0l-193,0l-393,643l-400,-643l-180,0l486,764l-453,698l188,0l363,-579l366,579l181,0l-453,-692z"/>
<glyph unicode="Y" horiz-adv-x="1147" d="M573,731l390,731l184,0l-488,-895l0,-567l-172,0l0,559l-487,903l186,0z"/>
<glyph unicode="Z" horiz-adv-x="1169" d="M1087,0l-1005,0l0,133l776,1176l-752,0l0,153l959,0l0,-133l-776,-1175l798,0z"/>
<glyph unicode="[" horiz-adv-x="674" d="M623,-324l-457,0l0,1786l457,0l0,-141l-289,0l0,-1503l289,0z"/>
<glyph unicode="\" horiz-adv-x="752" d="M186,1462l547,-1462l-166,0l-544,1462z"/>
<glyph unicode="]" horiz-adv-x="674" d="M51,-182l289,0l0,1503l-289,0l0,141l457,0l0,-1786l-457,0z"/>
<glyph unicode="^" horiz-adv-x="1110" d="M49,551l434,922l99,0l477,-922l-152,0l-372,745l-334,-745z"/>
<glyph unicode="_" horiz-adv-x="918" d="M922,-315l-926,0l0,131l926,0z"/>
<glyph unicode="`" horiz-adv-x="1182" d="M786,1241l-110,0C633,1276 581,1325 522,1389C463,1453 420,1506 393,1548l0,21l203,0C617,1523 647,1470 685,1410C723,1349 757,1301 786,1266z"/>
<glyph unicode="a" horiz-adv-x="1139" d="M850,0l-33,156l-8,0C754,87 700,41 646,17C591,-8 523,-20 442,-20C333,-20 248,8 187,64C125,120 94,200 94,303C94,524 271,640 625,651l186,6l0,68C811,811 793,875 756,916C719,957 659,977 578,977C487,977 383,949 268,893l-51,127C271,1049 330,1072 395,1089C459,1106 523,1114 588,1114C719,1114 816,1085 879,1027C942,969 973,876 973,748l0,-748M475,117C578,117 660,145 719,202C778,259 807,338 807,440l0,99l-166,-7C509,527 414,507 356,471C297,434 268,378 268,301C268,241 286,195 323,164C359,133 410,117 475,117z"/>
<glyph unicode="b" horiz-adv-x="1255" d="M686,1114C830,1114 942,1065 1022,967C1101,868 1141,729 1141,549C1141,369 1101,229 1021,130C940,30 829,-20 686,-20C615,-20 550,-7 491,20C432,46 382,86 342,141l-12,0l-35,-141l-119,0l0,1556l166,0l0,-378C342,1093 339,1017 334,950l8,0C419,1059 534,1114 686,1114M662,975C549,975 467,943 417,878C367,813 342,703 342,549C342,395 368,285 419,219C470,152 553,119 666,119C768,119 844,156 894,231C944,305 969,412 969,551C969,694 944,800 894,870C844,940 767,975 662,975z"/>
<glyph unicode="c" horiz-adv-x="975" d="M614,-20C455,-20 333,29 246,127C159,224 115,362 115,541C115,724 159,866 248,966C336,1066 462,1116 625,1116C678,1116 730,1110 783,1099C836,1088 877,1074 907,1059l-51,-141C819,933 779,945 736,955C693,964 654,969 621,969C398,969 287,827 287,543C287,408 314,305 369,233C423,161 503,125 610,125C701,125 795,145 891,184l0,-147C818,-1 725,-20 614,-20z"/>
<glyph unicode="d" horiz-adv-x="1255" d="M922,147l-9,0C836,36 722,-20 569,-20C426,-20 314,29 235,127C155,225 115,364 115,545C115,726 155,866 235,966C315,1066 426,1116 569,1116C718,1116 832,1062 911,954l13,0l-7,79l-4,77l0,446l166,0l0,-1556l-135,0M590,119C703,119 786,150 837,212C888,273 913,373 913,510l0,35C913,700 887,811 836,878C784,944 701,977 588,977C491,977 416,939 365,864C313,788 287,681 287,543C287,403 313,297 364,226C415,155 491,119 590,119z"/>
<glyph unicode="e" horiz-adv-x="1149" d="M639,-20C477,-20 349,29 256,128C162,227 115,364 115,539C115,716 159,856 246,960C333,1064 449,1116 596,1116C733,1116 842,1071 922,981C1002,890 1042,771 1042,623l0,-105l-755,0C290,389 323,292 385,225C446,158 533,125 645,125C763,125 880,150 995,199l0,-148C936,26 881,8 829,-3C776,-14 713,-20 639,-20M594,977C506,977 436,948 384,891C331,834 300,754 291,653l573,0C864,758 841,838 794,894C747,949 681,977 594,977z"/>
<glyph unicode="f" horiz-adv-x="694" d="M670,967l-279,0l0,-967l-166,0l0,967l-196,0l0,75l196,60l0,61C225,1432 343,1567 578,1567C636,1567 704,1555 782,1532l-43,-133C675,1420 620,1430 575,1430C512,1430 466,1409 436,1368C406,1326 391,1259 391,1167l0,-71l279,0z"/>
<glyph unicode="g" horiz-adv-x="1122" d="M1073,1096l0,-105l-203,-24C889,944 905,913 920,876C935,838 942,795 942,748C942,641 905,555 832,491C759,427 658,395 530,395C497,395 467,398 438,403C367,366 332,319 332,262C332,232 344,210 369,196C394,181 436,174 496,174l194,0C809,174 900,149 964,99C1027,49 1059,-24 1059,-119C1059,-240 1010,-333 913,-396C816,-460 674,-492 487,-492C344,-492 233,-465 156,-412C78,-359 39,-283 39,-186C39,-119 60,-62 103,-13C146,36 206,69 283,86C255,99 232,118 213,145C194,172 184,203 184,238C184,278 195,313 216,343C237,373 271,402 317,430C260,453 214,493 179,549C143,605 125,669 125,741C125,861 161,954 233,1019C305,1084 407,1116 539,1116C596,1116 648,1109 694,1096M199,-184C199,-243 224,-288 274,-319C324,-350 396,-365 489,-365C628,-365 732,-344 799,-302C866,-261 899,-204 899,-133C899,-74 881,-32 844,-9C807,14 738,25 637,25l-199,0C363,25 304,7 262,-29C220,-65 199,-117 199,-184M289,745C289,668 311,610 354,571C397,532 458,512 535,512C697,512 778,591 778,748C778,913 696,995 532,995C454,995 394,974 352,932C310,890 289,828 289,745z"/>
<glyph unicode="h" horiz-adv-x="1257" d="M926,0l0,709C926,798 906,865 865,909C824,953 761,975 674,975C559,975 475,944 422,881C369,818 342,716 342,573l0,-573l-166,0l0,1556l166,0l0,-471C342,1028 339,981 334,944l10,0C377,997 423,1038 484,1069C544,1099 613,1114 690,1114C824,1114 925,1082 992,1019C1059,955 1092,854 1092,715l0,-715z"/>
<glyph unicode="i" horiz-adv-x="518" d="M342,0l-166,0l0,1096l166,0M162,1393C162,1431 171,1459 190,1477C209,1494 232,1503 260,1503C287,1503 310,1494 329,1476C348,1458 358,1430 358,1393C358,1356 348,1328 329,1310C310,1291 287,1282 260,1282C232,1282 209,1291 190,1310C171,1328 162,1356 162,1393z"/>
<glyph unicode="j" horiz-adv-x="518" d="M43,-492C-20,-492 -72,-484 -111,-467l0,135C-65,-345 -20,-352 25,-352C77,-352 115,-338 140,-309C164,-281 176,-238 176,-180l0,1276l166,0l0,-1264C342,-384 242,-492 43,-492M162,1393C162,1431 171,1459 190,1477C209,1494 232,1503 260,1503C287,1503 310,1494 329,1476C348,1458 358,1430 358,1393C358,1356 348,1328 329,1310C310,1291 287,1282 260,1282C232,1282 209,1291 190,1310C171,1328 162,1356 162,1393z"/>
<glyph unicode="k" horiz-adv-x="1075" d="M340,561C369,602 412,655 471,721l354,375l197,0l-444,-467l475,-629l-201,0l-387,518l-125,-108l0,-410l-164,0l0,1556l164,0l0,-825C340,694 337,638 332,561z"/>
<glyph unicode="l" horiz-adv-x="518" d="M342,0l-166,0l0,1556l166,0z"/>
<glyph unicode="m" horiz-adv-x="1905" d="M1573,0l0,713C1573,800 1554,866 1517,910C1480,953 1422,975 1343,975C1240,975 1163,945 1114,886C1065,827 1040,735 1040,612l0,-612l-166,0l0,713C874,800 855,866 818,910C781,953 722,975 643,975C539,975 463,944 415,882C366,819 342,717 342,575l0,-575l-166,0l0,1096l135,0l27,-150l8,0C377,999 422,1041 479,1071C536,1101 599,1116 670,1116C841,1116 953,1054 1006,930l8,0C1047,987 1094,1033 1156,1066C1218,1099 1289,1116 1368,1116C1492,1116 1585,1084 1647,1021C1708,957 1739,855 1739,715l0,-715z"/>
<glyph unicode="n" horiz-adv-x="1257" d="M926,0l0,709C926,798 906,865 865,909C824,953 761,975 674,975C559,975 475,944 422,882C369,820 342,718 342,575l0,-575l-166,0l0,1096l135,0l27,-150l8,0C380,1000 428,1042 489,1072C550,1101 619,1116 694,1116C826,1116 925,1084 992,1021C1059,957 1092,855 1092,715l0,-715z"/>
<glyph unicode="o" horiz-adv-x="1237" d="M1122,549C1122,370 1077,231 987,131C897,30 773,-20 614,-20C516,-20 429,3 353,49C277,95 218,161 177,247C136,333 115,434 115,549C115,728 160,867 249,967C338,1066 462,1116 621,1116C774,1116 896,1065 987,963C1077,861 1122,723 1122,549M287,549C287,409 315,302 371,229C427,156 509,119 618,119C727,119 809,156 866,229C922,302 950,408 950,549C950,688 922,794 866,867C809,939 726,975 616,975C507,975 425,939 370,868C315,797 287,690 287,549z"/>
<glyph unicode="p" horiz-adv-x="1255" d="M686,-20C615,-20 550,-7 491,20C432,46 382,86 342,141l-12,0C338,77 342,16 342,-41l0,-451l-166,0l0,1588l135,0l23,-150l8,0C385,1006 434,1049 491,1076C548,1103 613,1116 686,1116C831,1116 944,1066 1023,967C1102,868 1141,728 1141,549C1141,369 1101,229 1021,130C940,30 829,-20 686,-20M662,975C550,975 469,944 419,882C369,820 343,721 342,586l0,-37C342,395 368,285 419,219C470,152 553,119 666,119C761,119 835,157 889,234C942,311 969,416 969,551C969,688 942,793 889,866C835,939 759,975 662,975z"/>
<glyph unicode="q" horiz-adv-x="1255" d="M590,119C701,119 781,149 832,208C883,267 910,367 913,508l0,37C913,698 887,809 835,876C783,943 701,977 588,977C491,977 416,939 365,864C313,788 287,681 287,543C287,405 313,300 364,228C415,155 490,119 590,119M565,-20C424,-20 313,30 234,129C155,228 115,367 115,545C115,724 155,864 235,965C315,1066 426,1116 569,1116C719,1116 834,1059 915,946l9,0l24,150l131,0l0,-1588l-166,0l0,469C913,44 917,100 924,147l-13,0C834,36 719,-20 565,-20z"/>
<glyph unicode="r" horiz-adv-x="836" d="M676,1116C725,1116 768,1112 807,1104l-23,-154C739,960 699,965 664,965C575,965 500,929 437,857C374,785 342,695 342,588l0,-588l-166,0l0,1096l137,0l19,-203l8,0C381,964 430,1019 487,1058C544,1097 607,1116 676,1116z"/>
<glyph unicode="s" horiz-adv-x="977" d="M883,299C883,197 845,118 769,63C693,8 586,-20 449,-20C304,-20 190,3 109,49l0,154C162,176 218,155 279,140C339,125 397,117 453,117C540,117 606,131 653,159C700,186 723,228 723,285C723,328 705,364 668,395C631,425 558,461 451,502C349,540 277,573 234,602C191,630 159,662 138,698C117,734 106,777 106,827C106,916 142,987 215,1039C288,1090 387,1116 514,1116C632,1116 747,1092 860,1044l-59,-135C691,954 591,977 502,977C423,977 364,965 324,940C284,915 264,881 264,838C264,809 272,784 287,763C302,742 326,723 359,704C392,685 456,658 551,623C681,576 769,528 815,480C860,432 883,372 883,299z"/>
<glyph unicode="t" horiz-adv-x="723" d="M530,117C559,117 588,119 615,124C642,128 664,132 680,137l0,-127C662,1 636,-6 601,-11C566,-17 534,-20 506,-20C294,-20 188,92 188,315l0,652l-157,0l0,80l157,69l70,234l96,0l0,-254l318,0l0,-129l-318,0l0,-645C354,256 370,205 401,170C432,135 475,117 530,117z"/>
<glyph unicode="u" horiz-adv-x="1257" d="M332,1096l0,-711C332,296 352,229 393,185C434,141 497,119 584,119C699,119 783,150 836,213C889,276 915,378 915,520l0,576l166,0l0,-1096l-137,0l-24,147l-9,0C877,93 830,52 770,23C709,-6 640,-20 563,-20C430,-20 330,12 264,75C197,138 164,240 164,379l0,717z"/>
<glyph unicode="v" horiz-adv-x="1026" d="M416,0l-416,1096l178,0l236,-650C467,294 499,195 508,150l8,0C523,185 547,259 586,370C625,481 712,723 848,1096l178,0l-416,-1096z"/>
<glyph unicode="w" horiz-adv-x="1593" d="M1071,0l-201,643C857,682 834,772 799,911l-8,0C764,794 741,704 721,641l-207,-641l-192,0l-299,1096l174,0C268,821 322,611 359,467C396,323 417,226 422,176l8,0C437,214 449,263 466,324C482,384 496,432 508,467l201,629l180,0l196,-629C1122,352 1148,256 1161,178l8,0C1172,202 1179,239 1191,289C1202,339 1272,608 1399,1096l172,0l-303,-1096z"/>
<glyph unicode="x" horiz-adv-x="1073" d="M440,561l-381,535l189,0l289,-420l288,420l187,0l-381,-535l401,-561l-188,0l-307,444l-310,-444l-188,0z"/>
<glyph unicode="y" horiz-adv-x="1032" d="M2,1096l178,0l240,-625C473,328 505,225 518,162l8,0C535,196 553,254 581,337C608,419 699,672 852,1096l178,0l-471,-1248C512,-275 458,-363 396,-414C333,-466 257,-492 166,-492C115,-492 65,-486 16,-475l0,133C53,-350 94,-354 139,-354C253,-354 334,-290 383,-162l61,156z"/>
<glyph unicode="z" horiz-adv-x="958" d="M877,0l-795,0l0,113l598,854l-561,0l0,129l743,0l0,-129l-590,-838l605,0z"/>
<glyph unicode="{" horiz-adv-x="776" d="M475,12C475,-56 495,-105 534,-136C573,-167 630,-183 705,-184l0,-140C578,-323 480,-294 411,-237C342,-180 307,-101 307,2l0,303C307,374 286,424 244,454C202,483 141,498 61,498l0,141C148,640 210,656 249,687C288,718 307,765 307,829l0,306C307,1238 343,1319 415,1376C487,1433 584,1462 705,1462l0,-139C552,1319 475,1253 475,1124l0,-295C475,686 401,601 252,575l0,-12C401,537 475,452 475,309z"/>
<glyph unicode="|" horiz-adv-x="1128" d="M494,1556l141,0l0,-2052l-141,0z"/>
<glyph unicode="}" horiz-adv-x="776" d="M522,575C373,601 299,686 299,829l0,295C299,1253 223,1319 72,1323l0,139C195,1462 291,1433 362,1375C432,1317 467,1237 467,1135l0,-306C467,764 487,717 526,687C565,656 628,640 715,639l0,-141C634,498 572,483 530,454C488,424 467,374 467,305l0,-303C467,-100 433,-179 365,-236C296,-293 199,-323 72,-324l0,140C146,-183 202,-167 241,-136C280,-105 299,-56 299,12l0,297C299,385 317,443 354,483C391,523 447,550 522,563z"/>
<glyph unicode="~" horiz-adv-x="1171" d="M338,713C303,713 264,702 222,680C179,657 140,628 104,592l0,151C171,816 252,852 348,852C393,852 435,847 473,838C510,829 559,811 618,786C662,767 700,754 733,745C766,736 798,731 829,731C865,731 904,742 947,763C990,784 1029,814 1065,852l0,-150C997,629 916,592 821,592C773,592 728,598 686,609C644,620 599,636 551,657C501,678 461,693 431,701C401,709 370,713 338,713z"/>
<glyph unicode="&#xA0;" horiz-adv-x="532"/>
<glyph unicode="&#xA1;" horiz-adv-x="547" d="M219,684l105,0l51,-1057l-207,0M393,983C393,893 353,848 272,848C232,848 202,860 182,884C162,907 152,940 152,983C152,1025 163,1058 184,1082C205,1106 234,1118 272,1118C306,1118 335,1107 358,1086C381,1065 393,1030 393,983z"/>
<glyph unicode="&#xA2;" horiz-adv-x="1171" d="M971,240C901,204 817,184 719,180l0,-200l-133,0l0,206C451,207 351,264 287,355C222,446 190,574 190,741C190,1080 322,1270 586,1311l0,172l135,0l0,-164C771,1317 820,1311 867,1300C914,1289 954,1275 987,1260l-49,-140C849,1154 769,1171 696,1171C581,1171 497,1136 443,1066C389,995 362,888 362,743C362,602 389,497 442,430C495,362 577,328 688,328C782,328 876,348 971,387z"/>
<glyph unicode="&#xA3;" horiz-adv-x="1171" d="M682,1481C809,1481 929,1453 1042,1397l-61,-133C878,1315 779,1341 684,1341C602,1341 540,1320 499,1279C457,1238 436,1170 436,1077l0,-295l422,0l0,-127l-422,0l0,-221C436,367 425,311 404,266C382,221 346,183 297,154l795,0l0,-154l-1029,0l0,141C200,172 268,269 268,432l0,223l-198,0l0,127l198,0l0,316C268,1217 305,1310 380,1379C455,1447 555,1481 682,1481z"/>
<glyph unicode="&#xA4;" horiz-adv-x="1171" d="M184,723C184,804 209,881 258,952l-135,140l94,92l135,-133C421,1100 499,1124 586,1124C671,1124 747,1100 815,1051l137,133l95,-92l-134,-138C962,879 987,802 987,723C987,636 962,558 913,489l131,-135l-92,-92l-137,133C747,348 671,324 586,324C497,324 419,348 352,397l-135,-133l-92,92l133,136C209,563 184,640 184,723M313,723C313,648 339,584 392,531C444,478 509,451 586,451C663,451 728,478 781,531C834,584 860,648 860,723C860,799 833,864 780,918C727,972 662,999 586,999C509,999 444,972 392,917C339,862 313,798 313,723z"/>
<glyph unicode="&#xA5;" horiz-adv-x="1171" d="M584,735l379,727l174,0l-416,-770l262,0l0,-127l-317,0l0,-170l317,0l0,-127l-317,0l0,-268l-164,0l0,268l-316,0l0,127l316,0l0,170l-316,0l0,127l256,0l-411,770l178,0z"/>
<glyph unicode="&#xA6;" horiz-adv-x="1128" d="M494,1556l141,0l0,-776l-141,0M494,281l141,0l0,-777l-141,0z"/>
<glyph unicode="&#xA7;" horiz-adv-x="1057" d="M139,809C139,866 153,918 182,964C211,1009 251,1044 303,1069C254,1096 215,1128 187,1165C159,1202 145,1248 145,1305C145,1386 180,1449 249,1496C318,1542 418,1565 549,1565C612,1565 670,1560 723,1551C776,1541 834,1523 899,1497l-53,-131C781,1392 726,1410 681,1419C636,1428 588,1432 537,1432C460,1432 402,1422 363,1403C324,1383 305,1352 305,1309C305,1269 326,1235 367,1207C408,1179 479,1147 582,1110C706,1065 793,1017 843,967C893,916 918,855 918,784C918,724 904,671 877,624C850,577 811,539 762,512C864,458 915,382 915,285C915,192 876,120 798,69C720,18 610,-8 469,-8C324,-8 208,14 123,57l0,148C175,180 233,161 298,146C363,131 422,123 477,123C566,123 635,136 682,161C729,186 752,223 752,270C752,301 744,326 728,345C712,364 686,384 650,403C614,422 558,446 481,475C386,510 317,542 272,572C227,602 194,636 172,674C150,712 139,757 139,809M285,829C285,778 307,735 351,700C395,665 473,627 584,586l49,-19C724,620 770,684 770,758C770,813 746,860 697,897C648,934 561,972 438,1010C393,997 356,974 328,941C299,908 285,870 285,829z"/>
<glyph unicode="&#xA8;" horiz-adv-x="1182" d="M309,1393C309,1428 318,1453 336,1468C353,1483 374,1491 399,1491C424,1491 446,1483 465,1468C483,1453 492,1428 492,1393C492,1360 483,1335 465,1319C446,1302 424,1294 399,1294C374,1294 353,1302 336,1319C318,1335 309,1360 309,1393M690,1393C690,1428 699,1453 717,1468C734,1483 755,1491 780,1491C805,1491 826,1483 845,1468C863,1453 872,1428 872,1393C872,1360 863,1335 845,1319C826,1302 805,1294 780,1294C755,1294 734,1302 717,1319C699,1335 690,1360 690,1393z"/>
<glyph unicode="&#xA9;" horiz-adv-x="1704" d="M893,1059C810,1059 746,1030 701,972C656,914 633,834 633,731C633,619 654,536 697,482C739,428 804,401 891,401C948,401 1019,416 1102,446l0,-124C1070,309 1037,297 1004,288C970,279 930,274 883,274C754,274 654,314 585,395C516,475 481,587 481,731C481,870 518,981 592,1063C665,1145 766,1186 893,1186C978,1186 1060,1166 1139,1126l-58,-118C1009,1042 946,1059 893,1059M100,731C100,864 133,989 200,1106C267,1223 358,1315 475,1382C592,1449 717,1483 852,1483C985,1483 1110,1450 1227,1383C1344,1316 1436,1225 1503,1108C1570,991 1604,866 1604,731C1604,600 1572,476 1507,361C1442,246 1352,153 1235,84C1118,15 991,-20 852,-20C714,-20 587,15 470,84C353,153 263,245 198,360C133,475 100,599 100,731M205,731C205,616 234,508 292,408C350,307 429,228 530,171C630,113 737,84 852,84C968,84 1076,113 1175,171C1274,229 1353,308 1412,407C1470,506 1499,614 1499,731C1499,847 1470,955 1412,1054C1354,1153 1276,1232 1177,1291C1078,1349 969,1378 852,1378C736,1378 628,1349 529,1291C430,1233 351,1155 293,1056C234,957 205,848 205,731z"/>
<glyph unicode="&#xAA;" horiz-adv-x="725" d="M532,801l-24,84C447,820 369,788 276,788C213,788 163,805 126,838C89,871 70,921 70,989C70,1057 96,1109 147,1144C198,1179 279,1198 389,1202l117,4l0,39C506,1334 457,1378 358,1378C291,1378 223,1361 154,1327l-43,96C187,1460 269,1479 358,1479C445,1479 511,1462 557,1427C602,1392 625,1334 625,1253l0,-452M193,989C193,922 230,889 305,889C439,889 506,949 506,1069l0,49l-98,-4C333,1111 279,1101 245,1082C210,1063 193,1032 193,989z"/>
<glyph unicode="&#xAB;" horiz-adv-x="1018" d="M82,551l342,407l119,-69l-289,-350l289,-351l-119,-71l-342,407M477,551l344,407l117,-69l-287,-350l287,-351l-117,-71l-344,407z"/>
<glyph unicode="&#xAC;" horiz-adv-x="1171" d="M1065,791l0,-527l-137,0l0,389l-824,0l0,138z"/>
<glyph unicode="&#xAD;" horiz-adv-x="659" d="M84,473l0,152l491,0l0,-152z"/>
<glyph unicode="&#xAE;" horiz-adv-x="1704" d="M723,762l108,0C884,762 927,776 960,804C992,831 1008,866 1008,909C1008,959 994,995 965,1017C936,1038 891,1049 829,1049l-106,0M1157,913C1157,860 1143,813 1115,772C1086,731 1046,700 995,680l238,-395l-168,0l-207,354l-135,0l0,-354l-148,0l0,891l261,0C947,1176 1028,1154 1080,1111C1131,1068 1157,1002 1157,913M100,731C100,864 133,989 200,1106C267,1223 358,1315 475,1382C592,1449 717,1483 852,1483C985,1483 1110,1450 1227,1383C1344,1316 1436,1225 1503,1108C1570,991 1604,866 1604,731C1604,600 1572,476 1507,361C1442,246 1352,153 1235,84C1118,15 991,-20 852,-20C714,-20 587,15 470,84C353,153 263,245 198,360C133,475 100,599 100,731M205,731C205,616 234,508 292,408C350,307 429,228 530,171C630,113 737,84 852,84C968,84 1076,113 1175,171C1274,229 1353,308 1412,407C1470,506 1499,614 1499,731C1499,847 1470,955 1412,1054C1354,1153 1276,1232 1177,1291C1078,1349 969,1378 852,1378C736,1378 628,1349 529,1291C430,1233 351,1155 293,1056C234,957 205,848 205,731z"/>
<glyph unicode="&#xAF;" horiz-adv-x="1024" d="M1030,1556l-1036,0l0,127l1036,0z"/>
<glyph unicode="&#xB0;" horiz-adv-x="877" d="M127,1171C127,1258 157,1331 218,1392C278,1453 351,1483 438,1483C525,1483 598,1453 659,1393C720,1332 750,1258 750,1171C750,1115 736,1063 709,1016C682,968 644,930 595,902C546,874 494,860 438,860C351,860 278,890 218,950C157,1010 127,1084 127,1171M242,1171C242,1116 262,1070 301,1032C340,994 386,975 440,975C493,975 539,994 578,1032C616,1069 635,1116 635,1171C635,1227 616,1274 579,1312C541,1349 495,1368 440,1368C385,1368 338,1349 300,1311C261,1273 242,1226 242,1171z"/>
<glyph unicode="&#xB1;" horiz-adv-x="1171" d="M653,791l412,0l0,-138l-412,0l0,-426l-139,0l0,426l-410,0l0,138l410,0l0,428l139,0M104,1l0,138l961,0l0,-138z"/>
<glyph unicode="&#xB2;" horiz-adv-x="711" d="M653,586l-604,0l0,104l236,230C344,977 388,1022 415,1055C442,1087 462,1116 473,1141C484,1166 489,1197 489,1233C489,1278 476,1313 449,1336C422,1359 388,1370 346,1370C311,1370 278,1364 245,1351C212,1338 173,1315 127,1282l-66,88C148,1444 243,1481 344,1481C432,1481 501,1459 550,1416C599,1373 623,1314 623,1239C623,1186 608,1134 579,1084C549,1033 485,962 387,870l-174,-165l440,0z"/>
<glyph unicode="&#xB3;" horiz-adv-x="711" d="M627,1255C627,1202 613,1158 586,1124C559,1089 522,1064 477,1049C594,1018 653,948 653,840C653,755 622,688 561,641C500,593 413,569 301,569C200,569 110,588 33,625l0,123C131,703 221,680 303,680C444,680 514,734 514,842C514,939 437,987 283,987l-117,0l0,107l119,0C354,1094 405,1107 438,1134C471,1160 487,1196 487,1241C487,1282 474,1313 447,1336C420,1359 385,1370 340,1370C296,1370 255,1363 218,1349C181,1334 143,1315 106,1292l-69,90C79,1412 123,1436 170,1454C217,1472 271,1481 334,1481C425,1481 496,1461 549,1422C601,1382 627,1326 627,1255z"/>
<glyph unicode="&#xB4;" horiz-adv-x="1182" d="M393,1266C425,1307 460,1357 497,1416C534,1475 563,1526 584,1569l202,0l0,-21C757,1505 713,1451 655,1388C597,1325 547,1276 504,1241l-111,0z"/>
<glyph unicode="&#xB5;" horiz-adv-x="1268" d="M342,381C342,206 427,119 596,119C710,119 794,151 847,214C900,277 926,379 926,520l0,576l166,0l0,-1096l-136,0l-26,147l-10,0C846,36 733,-20 580,-20C480,-20 401,11 342,72l-10,0C339,16 342,-65 342,-172l0,-320l-166,0l0,1588l166,0z"/>
<glyph unicode="&#xB6;" horiz-adv-x="1341" d="M1120,-260l-114,0l0,1712l-213,0l0,-1712l-115,0l0,819C637,547 588,541 532,541C388,541 282,583 215,666C147,749 113,875 113,1042C113,1215 149,1344 222,1429C295,1514 408,1556 563,1556l557,0z"/>
<glyph unicode="&#xB7;" horiz-adv-x="545" d="M152,723C152,767 162,801 183,824C204,847 233,858 270,858C309,858 339,847 361,824C382,801 393,767 393,723C393,680 382,646 360,623C338,600 308,588 270,588C236,588 208,599 186,620C163,641 152,675 152,723z"/>
<glyph unicode="&#xB8;" horiz-adv-x="465" d="M436,-289C436,-354 411,-404 360,-439C309,-474 233,-492 133,-492C99,-492 67,-489 37,-483l0,106C67,-382 102,-385 141,-385C194,-385 234,-378 261,-365C288,-352 301,-327 301,-291C301,-262 288,-239 262,-221C235,-204 186,-189 113,-178l88,178l110,0l-55,-115C376,-141 436,-199 436,-289z"/>
<glyph unicode="&#xB9;" horiz-adv-x="711" d="M338,1462l143,0l0,-876l-133,0l0,579C348,1226 350,1286 354,1346C339,1331 323,1317 305,1302C287,1287 233,1247 143,1184l-67,96z"/>
<glyph unicode="&#xBA;" horiz-adv-x="768" d="M702,1135C702,1026 674,941 617,880C560,819 481,788 381,788C284,788 207,819 151,881C94,943 66,1028 66,1135C66,1244 94,1328 150,1389C206,1449 284,1479 385,1479C486,1479 565,1449 620,1388C675,1327 702,1243 702,1135M188,1135C188,1054 203,993 234,952C264,911 314,891 383,891C453,891 503,911 534,952C565,993 580,1054 580,1135C580,1217 565,1278 534,1317C503,1356 453,1376 383,1376C314,1376 265,1356 234,1317C203,1278 188,1217 188,1135z"/>
<glyph unicode="&#xBB;" horiz-adv-x="1018" d="M936,524l-344,-407l-117,71l287,351l-287,350l117,69l344,-407M541,524l-344,-407l-117,71l287,351l-287,350l117,69l344,-407z"/>
<glyph unicode="&#xBC;" horiz-adv-x="1597" d="M1298,1462l-903,-1462l-143,0l903,1462M337,1462l143,0l0,-876l-133,0l0,579C347,1226 349,1286 353,1346C338,1331 322,1317 304,1302C286,1287 232,1247 142,1184l-67,96M1489,203l-125,0l0,-202l-145,0l0,202l-402,0l0,101l408,579l139,0l0,-563l125,0M1219,320l0,195C1219,604 1221,674 1225,724C1222,716 1216,706 1208,693C1200,680 1191,666 1181,651C1171,636 1161,621 1151,606C1141,591 1132,577 1125,566l-168,-246z"/>
<glyph unicode="&#xBD;" horiz-adv-x="1597" d="M1230,1462l-903,-1462l-143,0l903,1462M308,1462l143,0l0,-876l-133,0l0,579C318,1226 320,1286 324,1346C309,1331 293,1317 275,1302C257,1287 203,1247 113,1184l-67,96M1499,1l-604,0l0,104l236,230C1190,392 1234,437 1261,470C1288,502 1308,531 1319,556C1330,581 1335,612 1335,648C1335,693 1322,728 1295,751C1268,774 1234,785 1192,785C1157,785 1124,779 1091,766C1058,753 1019,730 973,697l-66,88C994,859 1089,896 1190,896C1278,896 1347,874 1396,831C1445,788 1469,729 1469,654C1469,601 1454,549 1425,499C1395,448 1331,377 1233,285l-174,-165l440,0z"/>
<glyph unicode="&#xBE;" horiz-adv-x="1597" d="M620,1255C620,1202 606,1158 579,1124C552,1089 515,1064 470,1049C587,1018 646,948 646,840C646,755 615,688 554,641C493,593 406,569 294,569C193,569 103,588 26,625l0,123C124,703 214,680 296,680C437,680 507,734 507,842C507,939 430,987 276,987l-117,0l0,107l119,0C347,1094 398,1107 431,1134C464,1160 480,1196 480,1241C480,1282 467,1313 440,1336C413,1359 378,1370 333,1370C289,1370 248,1363 211,1349C174,1334 136,1315 99,1292l-69,90C72,1412 116,1436 163,1454C210,1472 264,1481 327,1481C418,1481 489,1461 542,1422C594,1382 620,1326 620,1255M1390,1462l-903,-1462l-143,0l903,1462M1569,203l-125,0l0,-202l-145,0l0,202l-402,0l0,101l408,579l139,0l0,-563l125,0M1299,320l0,195C1299,604 1301,674 1305,724C1302,716 1296,706 1288,693C1280,680 1271,666 1261,651C1251,636 1241,621 1231,606C1221,591 1212,577 1205,566l-168,-246z"/>
<glyph unicode="&#xBF;" horiz-adv-x="879" d="M590,684l0,-51C590,552 578,486 553,437C528,388 483,335 418,279C337,208 287,161 267,136C246,111 232,85 224,60C215,34 211,2 211,-35C211,-102 233,-154 277,-191C321,-229 384,-248 465,-248C518,-248 570,-242 620,-229C670,-216 728,-194 793,-162l59,-135C721,-361 589,-393 457,-393C330,-393 231,-362 159,-300C87,-238 51,-150 51,-37C51,10 57,51 69,86C80,121 97,153 118,183C139,212 165,241 195,268C224,295 257,325 293,356C360,415 405,463 427,502C448,541 459,591 459,653l0,31M639,983C639,893 599,848 518,848C479,848 449,860 428,883C407,906 397,939 397,983C397,1026 408,1059 430,1083C452,1106 481,1118 518,1118C552,1118 581,1107 604,1086C627,1065 639,1030 639,983z"/>
<glyph unicode="&#xC0;" horiz-adv-x="1296" d="M1120,0l-182,465l-586,0l-180,-465l-172,0l578,1468l143,0l575,-1468M885,618l-170,453C693,1128 670,1199 647,1282C632,1218 611,1148 584,1071l-172,-453M724,1579l-110,0C571,1614 519,1663 460,1727C401,1791 358,1844 331,1886l0,21l203,0C555,1861 585,1808 623,1748C661,1687 695,1639 724,1604z"/>
<glyph unicode="&#xC1;" horiz-adv-x="1296" d="M1120,0l-182,465l-586,0l-180,-465l-172,0l578,1468l143,0l575,-1468M885,618l-170,453C693,1128 670,1199 647,1282C632,1218 611,1148 584,1071l-172,-453M526,1604C558,1645 593,1695 630,1754C667,1813 696,1864 717,1907l202,0l0,-21C890,1843 846,1789 788,1726C730,1663 680,1614 637,1579l-111,0z"/>
<glyph unicode="&#xC2;" horiz-adv-x="1296" d="M1120,0l-182,465l-586,0l-180,-465l-172,0l578,1468l143,0l575,-1468M885,618l-170,453C693,1128 670,1199 647,1282C632,1218 611,1148 584,1071l-172,-453M303,1602C388,1693 447,1759 481,1802C515,1845 540,1880 555,1907l166,0C736,1879 761,1843 798,1799C834,1754 894,1689 977,1602l0,-23l-119,0C799,1616 726,1678 637,1765C546,1676 473,1614 418,1579l-115,0z"/>
<glyph unicode="&#xC3;" horiz-adv-x="1296" d="M1120,0l-182,465l-586,0l-180,-465l-172,0l578,1468l143,0l575,-1468M885,618l-170,453C693,1128 670,1199 647,1282C632,1218 611,1148 584,1071l-172,-453M792,1581C763,1581 735,1587 708,1600C681,1612 654,1626 628,1641C601,1656 576,1669 552,1682C527,1694 504,1700 481,1700C448,1700 423,1690 406,1670C389,1650 375,1620 366,1579l-98,0C277,1660 300,1723 339,1769C377,1814 426,1837 487,1837C518,1837 547,1831 576,1819C605,1806 632,1793 658,1778C684,1763 709,1749 733,1737C757,1724 780,1718 801,1718C834,1718 858,1728 874,1748C890,1767 903,1798 913,1839l99,0C1003,1758 980,1695 943,1650C905,1604 855,1581 792,1581z"/>
<glyph unicode="&#xC4;" horiz-adv-x="1296" d="M1120,0l-182,465l-586,0l-180,-465l-172,0l578,1468l143,0l575,-1468M885,618l-170,453C693,1128 670,1199 647,1282C632,1218 611,1148 584,1071l-172,-453M364,1731C364,1766 373,1791 391,1806C408,1821 429,1829 454,1829C479,1829 501,1821 520,1806C538,1791 547,1766 547,1731C547,1698 538,1673 520,1657C501,1640 479,1632 454,1632C429,1632 408,1640 391,1657C373,1673 364,1698 364,1731M745,1731C745,1766 754,1791 772,1806C789,1821 810,1829 835,1829C860,1829 881,1821 900,1806C918,1791 927,1766 927,1731C927,1698 918,1673 900,1657C881,1640 860,1632 835,1632C810,1632 789,1640 772,1657C754,1673 745,1698 745,1731z"/>
<glyph unicode="&#xC5;" horiz-adv-x="1296" d="M1120,0l-182,465l-586,0l-180,-465l-172,0l578,1468l143,0l575,-1468M885,618l-170,453C693,1128 670,1199 647,1282C632,1218 611,1148 584,1071l-172,-453M870,1587C870,1522 850,1469 809,1430C768,1390 713,1370 645,1370C578,1370 524,1390 484,1429C444,1468 424,1520 424,1585C424,1650 444,1702 485,1741C525,1779 578,1798 645,1798C712,1798 767,1778 808,1739C849,1699 870,1648 870,1587M762,1585C762,1622 751,1651 729,1672C707,1692 679,1702 645,1702C611,1702 583,1692 561,1672C539,1651 528,1622 528,1585C528,1548 538,1519 558,1499C578,1478 607,1468 645,1468C680,1468 708,1478 730,1499C751,1519 762,1548 762,1585z"/>
<glyph unicode="&#xC6;" horiz-adv-x="1788" d="M1665,0l-750,0l0,465l-514,0l-227,-465l-176,0l698,1462l969,0l0,-151l-580,0l0,-471l541,0l0,-150l-541,0l0,-538l580,0M469,618l446,0l0,693l-118,0z"/>
<glyph unicode="&#xC7;" horiz-adv-x="1292" d="M827,1331C666,1331 540,1278 447,1171C354,1064 307,917 307,731C307,540 352,392 442,288C531,183 659,131 825,131C927,131 1043,149 1174,186l0,-149C1073,-1 948,-20 799,-20C584,-20 418,45 301,176C184,307 125,492 125,733C125,884 153,1016 210,1129C266,1242 347,1330 454,1391C560,1452 685,1483 829,1483C982,1483 1116,1455 1231,1399l-72,-146C1048,1305 938,1331 827,1331M950,-289C950,-354 925,-404 874,-439C823,-474 747,-492 647,-492C613,-492 581,-489 551,-483l0,106C581,-382 616,-385 655,-385C708,-385 748,-378 775,-365C802,-352 815,-327 815,-291C815,-262 802,-239 776,-221C749,-204 700,-189 627,-178l88,178l110,0l-55,-115C890,-141 950,-199 950,-289z"/>
<glyph unicode="&#xC8;" horiz-adv-x="1139" d="M1016,0l-815,0l0,1462l815,0l0,-151l-645,0l0,-471l606,0l0,-150l-606,0l0,-538l645,0M713,1579l-110,0C560,1614 508,1663 449,1727C390,1791 347,1844 320,1886l0,21l203,0C544,1861 574,1808 612,1748C650,1687 684,1639 713,1604z"/>
<glyph unicode="&#xC9;" horiz-adv-x="1139" d="M1016,0l-815,0l0,1462l815,0l0,-151l-645,0l0,-471l606,0l0,-150l-606,0l0,-538l645,0M456,1604C488,1645 523,1695 560,1754C597,1813 626,1864 647,1907l202,0l0,-21C820,1843 776,1789 718,1726C660,1663 610,1614 567,1579l-111,0z"/>
<glyph unicode="&#xCA;" horiz-adv-x="1139" d="M1016,0l-815,0l0,1462l815,0l0,-151l-645,0l0,-471l606,0l0,-150l-606,0l0,-538l645,0M263,1602C348,1693 407,1759 441,1802C475,1845 500,1880 515,1907l166,0C696,1879 721,1843 758,1799C794,1754 854,1689 937,1602l0,-23l-119,0C759,1616 686,1678 597,1765C506,1676 433,1614 378,1579l-115,0z"/>
<glyph unicode="&#xCB;" horiz-adv-x="1139" d="M1016,0l-815,0l0,1462l815,0l0,-151l-645,0l0,-471l606,0l0,-150l-606,0l0,-538l645,0M327,1731C327,1766 336,1791 354,1806C371,1821 392,1829 417,1829C442,1829 464,1821 483,1806C501,1791 510,1766 510,1731C510,1698 501,1673 483,1657C464,1640 442,1632 417,1632C392,1632 371,1640 354,1657C336,1673 327,1698 327,1731M708,1731C708,1766 717,1791 735,1806C752,1821 773,1829 798,1829C823,1829 844,1821 863,1806C881,1791 890,1766 890,1731C890,1698 881,1673 863,1657C844,1640 823,1632 798,1632C773,1632 752,1640 735,1657C717,1673 708,1698 708,1731z"/>
<glyph unicode="&#xD0;" horiz-adv-x="1479" d="M1352,745C1352,504 1287,319 1156,192C1025,64 836,0 590,0l-389,0l0,649l-154,0l0,150l154,0l0,663l434,0C860,1462 1035,1400 1162,1275C1289,1150 1352,973 1352,745M1171,739C1171,1123 981,1315 602,1315l-231,0l0,-516l379,0l0,-150l-379,0l0,-502l190,0C968,147 1171,344 1171,739z"/>
<glyph unicode="&#xD1;" horiz-adv-x="1544" d="M1343,0l-194,0l-799,1227l-8,0C353,1083 358,951 358,831l0,-831l-157,0l0,1462l192,0l797,-1222l8,0C1197,258 1194,316 1189,414C1184,511 1183,581 1184,623l0,839l159,0M935,1581C906,1581 878,1587 851,1600C824,1612 797,1626 771,1641C744,1656 719,1669 695,1682C670,1694 647,1700 624,1700C591,1700 566,1690 549,1670C532,1650 518,1620 509,1579l-98,0C420,1660 443,1723 482,1769C520,1814 569,1837 630,1837C661,1837 690,1831 719,1819C748,1806 775,1793 801,1778C827,1763 852,1749 876,1737C900,1724 923,1718 944,1718C977,1718 1001,1728 1017,1748C1033,1767 1046,1798 1056,1839l99,0C1146,1758 1123,1695 1086,1650C1048,1604 998,1581 935,1581z"/>
<glyph unicode="&#xD2;" horiz-adv-x="1595" d="M1470,733C1470,499 1411,315 1293,181C1174,47 1010,-20 799,-20C584,-20 418,46 301,178C184,309 125,495 125,735C125,973 184,1158 301,1289C418,1420 585,1485 801,1485C1011,1485 1175,1418 1293,1285C1411,1152 1470,968 1470,733M305,733C305,535 347,385 432,283C516,180 638,129 799,129C961,129 1083,180 1166,282C1249,384 1290,534 1290,733C1290,930 1249,1079 1167,1181C1084,1282 962,1333 801,1333C639,1333 516,1282 432,1180C347,1077 305,928 305,733M907,1579l-110,0C754,1614 702,1663 643,1727C584,1791 541,1844 514,1886l0,21l203,0C738,1861 768,1808 806,1748C844,1687 878,1639 907,1604z"/>
<glyph unicode="&#xD3;" horiz-adv-x="1595" d="M1470,733C1470,499 1411,315 1293,181C1174,47 1010,-20 799,-20C584,-20 418,46 301,178C184,309 125,495 125,735C125,973 184,1158 301,1289C418,1420 585,1485 801,1485C1011,1485 1175,1418 1293,1285C1411,1152 1470,968 1470,733M305,733C305,535 347,385 432,283C516,180 638,129 799,129C961,129 1083,180 1166,282C1249,384 1290,534 1290,733C1290,930 1249,1079 1167,1181C1084,1282 962,1333 801,1333C639,1333 516,1282 432,1180C347,1077 305,928 305,733M659,1604C691,1645 726,1695 763,1754C800,1813 829,1864 850,1907l202,0l0,-21C1023,1843 979,1789 921,1726C863,1663 813,1614 770,1579l-111,0z"/>
<glyph unicode="&#xD4;" horiz-adv-x="1595" d="M1470,733C1470,499 1411,315 1293,181C1174,47 1010,-20 799,-20C584,-20 418,46 301,178C184,309 125,495 125,735C125,973 184,1158 301,1289C418,1420 585,1485 801,1485C1011,1485 1175,1418 1293,1285C1411,1152 1470,968 1470,733M305,733C305,535 347,385 432,283C516,180 638,129 799,129C961,129 1083,180 1166,282C1249,384 1290,534 1290,733C1290,930 1249,1079 1167,1181C1084,1282 962,1333 801,1333C639,1333 516,1282 432,1180C347,1077 305,928 305,733M448,1602C533,1693 592,1759 626,1802C660,1845 685,1880 700,1907l166,0C881,1879 906,1843 943,1799C979,1754 1039,1689 1122,1602l0,-23l-119,0C944,1616 871,1678 782,1765C691,1676 618,1614 563,1579l-115,0z"/>
<glyph unicode="&#xD5;" horiz-adv-x="1595" d="M1470,733C1470,499 1411,315 1293,181C1174,47 1010,-20 799,-20C584,-20 418,46 301,178C184,309 125,495 125,735C125,973 184,1158 301,1289C418,1420 585,1485 801,1485C1011,1485 1175,1418 1293,1285C1411,1152 1470,968 1470,733M305,733C305,535 347,385 432,283C516,180 638,129 799,129C961,129 1083,180 1166,282C1249,384 1290,534 1290,733C1290,930 1249,1079 1167,1181C1084,1282 962,1333 801,1333C639,1333 516,1282 432,1180C347,1077 305,928 305,733M942,1581C913,1581 885,1587 858,1600C831,1612 804,1626 778,1641C751,1656 726,1669 702,1682C677,1694 654,1700 631,1700C598,1700 573,1690 556,1670C539,1650 525,1620 516,1579l-98,0C427,1660 450,1723 489,1769C527,1814 576,1837 637,1837C668,1837 697,1831 726,1819C755,1806 782,1793 808,1778C834,1763 859,1749 883,1737C907,1724 930,1718 951,1718C984,1718 1008,1728 1024,1748C1040,1767 1053,1798 1063,1839l99,0C1153,1758 1130,1695 1093,1650C1055,1604 1005,1581 942,1581z"/>
<glyph unicode="&#xD6;" horiz-adv-x="1595" d="M1470,733C1470,499 1411,315 1293,181C1174,47 1010,-20 799,-20C584,-20 418,46 301,178C184,309 125,495 125,735C125,973 184,1158 301,1289C418,1420 585,1485 801,1485C1011,1485 1175,1418 1293,1285C1411,1152 1470,968 1470,733M305,733C305,535 347,385 432,283C516,180 638,129 799,129C961,129 1083,180 1166,282C1249,384 1290,534 1290,733C1290,930 1249,1079 1167,1181C1084,1282 962,1333 801,1333C639,1333 516,1282 432,1180C347,1077 305,928 305,733M522,1731C522,1766 531,1791 549,1806C566,1821 587,1829 612,1829C637,1829 659,1821 678,1806C696,1791 705,1766 705,1731C705,1698 696,1673 678,1657C659,1640 637,1632 612,1632C587,1632 566,1640 549,1657C531,1673 522,1698 522,1731M903,1731C903,1766 912,1791 930,1806C947,1821 968,1829 993,1829C1018,1829 1039,1821 1058,1806C1076,1791 1085,1766 1085,1731C1085,1698 1076,1673 1058,1657C1039,1640 1018,1632 993,1632C968,1632 947,1640 930,1657C912,1673 903,1698 903,1731z"/>
<glyph unicode="&#xD7;" horiz-adv-x="1171" d="M940,1176l96,-99l-352,-354l350,-352l-96,-99l-354,351l-348,-351l-101,99l350,352l-352,352l100,101l353,-355z"/>
<glyph unicode="&#xD8;" horiz-adv-x="1595" d="M1470,733C1470,499 1411,315 1293,181C1174,47 1010,-20 799,-20C642,-20 515,13 416,80l-101,-141l-120,79l108,154C184,304 125,492 125,735C125,973 184,1158 301,1289C418,1420 585,1485 801,1485C940,1485 1062,1454 1167,1391l97,135l120,-80l-106,-148C1406,1163 1470,975 1470,733M1290,733C1290,914 1253,1056 1180,1159l-672,-948C585,156 682,129 799,129C961,129 1083,180 1166,282C1249,384 1290,534 1290,733M305,733C305,558 339,420 406,317l669,943C1004,1309 913,1333 801,1333C639,1333 516,1282 432,1180C347,1077 305,928 305,733z"/>
<glyph unicode="&#xD9;" horiz-adv-x="1491" d="M1305,1462l0,-946C1305,349 1255,218 1154,123C1053,28 915,-20 739,-20C563,-20 427,28 331,124C234,220 186,352 186,520l0,942l170,0l0,-954C356,386 389,292 456,227C523,162 621,129 750,129C873,129 968,162 1035,228C1102,293 1135,387 1135,510l0,952M856,1579l-110,0C703,1614 651,1663 592,1727C533,1791 490,1844 463,1886l0,21l203,0C687,1861 717,1808 755,1748C793,1687 827,1639 856,1604z"/>
<glyph unicode="&#xDA;" horiz-adv-x="1491" d="M1305,1462l0,-946C1305,349 1255,218 1154,123C1053,28 915,-20 739,-20C563,-20 427,28 331,124C234,220 186,352 186,520l0,942l170,0l0,-954C356,386 389,292 456,227C523,162 621,129 750,129C873,129 968,162 1035,228C1102,293 1135,387 1135,510l0,952M600,1604C632,1645 667,1695 704,1754C741,1813 770,1864 791,1907l202,0l0,-21C964,1843 920,1789 862,1726C804,1663 754,1614 711,1579l-111,0z"/>
<glyph unicode="&#xDB;" horiz-adv-x="1491" d="M1305,1462l0,-946C1305,349 1255,218 1154,123C1053,28 915,-20 739,-20C563,-20 427,28 331,124C234,220 186,352 186,520l0,942l170,0l0,-954C356,386 389,292 456,227C523,162 621,129 750,129C873,129 968,162 1035,228C1102,293 1135,387 1135,510l0,952M393,1602C478,1693 537,1759 571,1802C605,1845 630,1880 645,1907l166,0C826,1879 851,1843 888,1799C924,1754 984,1689 1067,1602l0,-23l-119,0C889,1616 816,1678 727,1765C636,1676 563,1614 508,1579l-115,0z"/>
<glyph unicode="&#xDC;" horiz-adv-x="1491" d="M1305,1462l0,-946C1305,349 1255,218 1154,123C1053,28 915,-20 739,-20C563,-20 427,28 331,124C234,220 186,352 186,520l0,942l170,0l0,-954C356,386 389,292 456,227C523,162 621,129 750,129C873,129 968,162 1035,228C1102,293 1135,387 1135,510l0,952M461,1731C461,1766 470,1791 488,1806C505,1821 526,1829 551,1829C576,1829 598,1821 617,1806C635,1791 644,1766 644,1731C644,1698 635,1673 617,1657C598,1640 576,1632 551,1632C526,1632 505,1640 488,1657C470,1673 461,1698 461,1731M842,1731C842,1766 851,1791 869,1806C886,1821 907,1829 932,1829C957,1829 978,1821 997,1806C1015,1791 1024,1766 1024,1731C1024,1698 1015,1673 997,1657C978,1640 957,1632 932,1632C907,1632 886,1640 869,1657C851,1673 842,1698 842,1731z"/>
<glyph unicode="&#xDD;" horiz-adv-x="1147" d="M573,731l390,731l184,0l-488,-895l0,-567l-172,0l0,559l-487,903l186,0M442,1604C474,1645 509,1695 546,1754C583,1813 612,1864 633,1907l202,0l0,-21C806,1843 762,1789 704,1726C646,1663 596,1614 553,1579l-111,0z"/>
<glyph unicode="&#xDE;" horiz-adv-x="1251" d="M1145,784C1145,633 1095,517 994,438C893,359 746,319 555,319l-184,0l0,-319l-170,0l0,1462l170,0l0,-256l215,0C773,1206 913,1172 1006,1103C1099,1034 1145,927 1145,784M371,465l168,0C690,465 799,489 866,537C933,584 967,663 967,772C967,871 935,944 872,990C809,1036 710,1059 575,1059l-204,0z"/>
<glyph unicode="&#xDF;" horiz-adv-x="1274" d="M1049,1266C1049,1176 1001,1093 906,1016C847,969 809,935 790,913C771,890 762,868 762,846C762,825 767,807 776,793C785,779 801,763 825,744C848,725 886,698 938,664C1031,601 1095,543 1129,491C1163,438 1180,378 1180,311C1180,204 1148,123 1083,66C1018,9 926,-20 807,-20C682,-20 583,3 512,49l0,154C554,177 601,156 653,141C705,125 755,117 803,117C946,117 1018,178 1018,299C1018,349 1004,392 977,428C949,463 898,504 825,551C740,606 682,654 650,695C618,736 602,784 602,840C602,882 614,921 637,956C660,991 695,1027 742,1062C792,1100 828,1134 849,1164C870,1194 881,1227 881,1262C881,1315 858,1356 813,1385C768,1413 703,1427 618,1427C434,1427 342,1353 342,1204l0,-1204l-166,0l0,1202C176,1321 213,1411 286,1474C359,1536 470,1567 618,1567C755,1567 862,1541 937,1489C1012,1436 1049,1362 1049,1266z"/>
<glyph unicode="&#xE0;" horiz-adv-x="1139" d="M850,0l-33,156l-8,0C754,87 700,41 646,17C591,-8 523,-20 442,-20C333,-20 248,8 187,64C125,120 94,200 94,303C94,524 271,640 625,651l186,6l0,68C811,811 793,875 756,916C719,957 659,977 578,977C487,977 383,949 268,893l-51,127C271,1049 330,1072 395,1089C459,1106 523,1114 588,1114C719,1114 816,1085 879,1027C942,969 973,876 973,748l0,-748M475,117C578,117 660,145 719,202C778,259 807,338 807,440l0,99l-166,-7C509,527 414,507 356,471C297,434 268,378 268,301C268,241 286,195 323,164C359,133 410,117 475,117M672,1241l-110,0C519,1276 467,1325 408,1389C349,1453 306,1506 279,1548l0,21l203,0C503,1523 533,1470 571,1410C609,1349 643,1301 672,1266z"/>
<glyph unicode="&#xE1;" horiz-adv-x="1139" d="M850,0l-33,156l-8,0C754,87 700,41 646,17C591,-8 523,-20 442,-20C333,-20 248,8 187,64C125,120 94,200 94,303C94,524 271,640 625,651l186,6l0,68C811,811 793,875 756,916C719,957 659,977 578,977C487,977 383,949 268,893l-51,127C271,1049 330,1072 395,1089C459,1106 523,1114 588,1114C719,1114 816,1085 879,1027C942,969 973,876 973,748l0,-748M475,117C578,117 660,145 719,202C778,259 807,338 807,440l0,99l-166,-7C509,527 414,507 356,471C297,434 268,378 268,301C268,241 286,195 323,164C359,133 410,117 475,117M436,1266C468,1307 503,1357 540,1416C577,1475 606,1526 627,1569l202,0l0,-21C800,1505 756,1451 698,1388C640,1325 590,1276 547,1241l-111,0z"/>
<glyph unicode="&#xE2;" horiz-adv-x="1139" d="M850,0l-33,156l-8,0C754,87 700,41 646,17C591,-8 523,-20 442,-20C333,-20 248,8 187,64C125,120 94,200 94,303C94,524 271,640 625,651l186,6l0,68C811,811 793,875 756,916C719,957 659,977 578,977C487,977 383,949 268,893l-51,127C271,1049 330,1072 395,1089C459,1106 523,1114 588,1114C719,1114 816,1085 879,1027C942,969 973,876 973,748l0,-748M475,117C578,117 660,145 719,202C778,259 807,338 807,440l0,99l-166,-7C509,527 414,507 356,471C297,434 268,378 268,301C268,241 286,195 323,164C359,133 410,117 475,117M228,1264C313,1355 372,1421 406,1464C440,1507 465,1542 480,1569l166,0C661,1541 686,1505 723,1461C759,1416 819,1351 902,1264l0,-23l-119,0C724,1278 651,1340 562,1427C471,1338 398,1276 343,1241l-115,0z"/>
<glyph unicode="&#xE3;" horiz-adv-x="1139" d="M850,0l-33,156l-8,0C754,87 700,41 646,17C591,-8 523,-20 442,-20C333,-20 248,8 187,64C125,120 94,200 94,303C94,524 271,640 625,651l186,6l0,68C811,811 793,875 756,916C719,957 659,977 578,977C487,977 383,949 268,893l-51,127C271,1049 330,1072 395,1089C459,1106 523,1114 588,1114C719,1114 816,1085 879,1027C942,969 973,876 973,748l0,-748M475,117C578,117 660,145 719,202C778,259 807,338 807,440l0,99l-166,-7C509,527 414,507 356,471C297,434 268,378 268,301C268,241 286,195 323,164C359,133 410,117 475,117M721,1243C692,1243 664,1249 637,1262C610,1274 583,1288 557,1303C530,1318 505,1331 481,1344C456,1356 433,1362 410,1362C377,1362 352,1352 335,1332C318,1312 304,1282 295,1241l-98,0C206,1322 229,1385 268,1431C306,1476 355,1499 416,1499C447,1499 476,1493 505,1481C534,1468 561,1455 587,1440C613,1425 638,1411 662,1399C686,1386 709,1380 730,1380C763,1380 787,1390 803,1410C819,1429 832,1460 842,1501l99,0C932,1420 909,1357 872,1312C834,1266 784,1243 721,1243z"/>
<glyph unicode="&#xE4;" horiz-adv-x="1139" d="M850,0l-33,156l-8,0C754,87 700,41 646,17C591,-8 523,-20 442,-20C333,-20 248,8 187,64C125,120 94,200 94,303C94,524 271,640 625,651l186,6l0,68C811,811 793,875 756,916C719,957 659,977 578,977C487,977 383,949 268,893l-51,127C271,1049 330,1072 395,1089C459,1106 523,1114 588,1114C719,1114 816,1085 879,1027C942,969 973,876 973,748l0,-748M475,117C578,117 660,145 719,202C778,259 807,338 807,440l0,99l-166,-7C509,527 414,507 356,471C297,434 268,378 268,301C268,241 286,195 323,164C359,133 410,117 475,117M279,1393C279,1428 288,1453 306,1468C323,1483 344,1491 369,1491C394,1491 416,1483 435,1468C453,1453 462,1428 462,1393C462,1360 453,1335 435,1319C416,1302 394,1294 369,1294C344,1294 323,1302 306,1319C288,1335 279,1360 279,1393M660,1393C660,1428 669,1453 687,1468C704,1483 725,1491 750,1491C775,1491 796,1483 815,1468C833,1453 842,1428 842,1393C842,1360 833,1335 815,1319C796,1302 775,1294 750,1294C725,1294 704,1302 687,1319C669,1335 660,1360 660,1393z"/>
<glyph unicode="&#xE5;" horiz-adv-x="1139" d="M850,0l-33,156l-8,0C754,87 700,41 646,17C591,-8 523,-20 442,-20C333,-20 248,8 187,64C125,120 94,200 94,303C94,524 271,640 625,651l186,6l0,68C811,811 793,875 756,916C719,957 659,977 578,977C487,977 383,949 268,893l-51,127C271,1049 330,1072 395,1089C459,1106 523,1114 588,1114C719,1114 816,1085 879,1027C942,969 973,876 973,748l0,-748M475,117C578,117 660,145 719,202C778,259 807,338 807,440l0,99l-166,-7C509,527 414,507 356,471C297,434 268,378 268,301C268,241 286,195 323,164C359,133 410,117 475,117M804,1458C804,1393 784,1340 743,1301C702,1261 647,1241 579,1241C512,1241 458,1261 418,1300C378,1339 358,1391 358,1456C358,1521 378,1573 419,1612C459,1650 512,1669 579,1669C646,1669 701,1649 742,1610C783,1570 804,1519 804,1458M696,1456C696,1493 685,1522 663,1543C641,1563 613,1573 579,1573C545,1573 517,1563 495,1543C473,1522 462,1493 462,1456C462,1419 472,1390 492,1370C512,1349 541,1339 579,1339C614,1339 642,1349 664,1370C685,1390 696,1419 696,1456z"/>
<glyph unicode="&#xE6;" horiz-adv-x="1757" d="M94,303C94,410 135,494 218,554C301,613 427,646 596,651l184,6l0,68C780,811 761,875 722,916C683,957 624,977 545,977C449,977 347,949 238,893l-52,127C235,1047 293,1070 360,1088C426,1105 492,1114 557,1114C644,1114 715,1100 770,1071C825,1042 866,995 893,932C928,991 975,1036 1032,1068C1089,1100 1154,1116 1227,1116C1355,1116 1458,1072 1535,983C1612,894 1651,775 1651,627l0,-107l-701,0C955,257 1063,125 1272,125C1333,125 1389,131 1442,143C1494,154 1548,173 1604,199l0,-148C1547,26 1493,8 1444,-3C1394,-14 1335,-20 1268,-20C1075,-20 937,58 854,213C800,128 740,68 675,33C609,-2 531,-20 442,-20C333,-20 248,8 187,65C125,122 94,201 94,303M268,301C268,238 286,191 322,162C357,132 404,117 463,117C560,117 636,145 692,202C748,258 776,337 776,440l0,99l-158,-7C494,527 405,506 350,470C295,433 268,377 268,301M1225,977C1144,977 1081,949 1035,894C988,839 961,758 954,653l519,0C1473,757 1452,837 1409,893C1366,949 1305,977 1225,977z"/>
<glyph unicode="&#xE7;" horiz-adv-x="975" d="M614,-20C455,-20 333,29 246,127C159,224 115,362 115,541C115,724 159,866 248,966C336,1066 462,1116 625,1116C678,1116 730,1110 783,1099C836,1088 877,1074 907,1059l-51,-141C819,933 779,945 736,955C693,964 654,969 621,969C398,969 287,827 287,543C287,408 314,305 369,233C423,161 503,125 610,125C701,125 795,145 891,184l0,-147C818,-1 725,-20 614,-20M762,-289C762,-354 737,-404 686,-439C635,-474 559,-492 459,-492C425,-492 393,-489 363,-483l0,106C393,-382 428,-385 467,-385C520,-385 560,-378 587,-365C614,-352 627,-327 627,-291C627,-262 614,-239 588,-221C561,-204 512,-189 439,-178l88,178l110,0l-55,-115C702,-141 762,-199 762,-289z"/>
<glyph unicode="&#xE8;" horiz-adv-x="1149" d="M639,-20C477,-20 349,29 256,128C162,227 115,364 115,539C115,716 159,856 246,960C333,1064 449,1116 596,1116C733,1116 842,1071 922,981C1002,890 1042,771 1042,623l0,-105l-755,0C290,389 323,292 385,225C446,158 533,125 645,125C763,125 880,150 995,199l0,-148C936,26 881,8 829,-3C776,-14 713,-20 639,-20M594,977C506,977 436,948 384,891C331,834 300,754 291,653l573,0C864,758 841,838 794,894C747,949 681,977 594,977M711,1241l-110,0C558,1276 506,1325 447,1389C388,1453 345,1506 318,1548l0,21l203,0C542,1523 572,1470 610,1410C648,1349 682,1301 711,1266z"/>
<glyph unicode="&#xE9;" horiz-adv-x="1149" d="M639,-20C477,-20 349,29 256,128C162,227 115,364 115,539C115,716 159,856 246,960C333,1064 449,1116 596,1116C733,1116 842,1071 922,981C1002,890 1042,771 1042,623l0,-105l-755,0C290,389 323,292 385,225C446,158 533,125 645,125C763,125 880,150 995,199l0,-148C936,26 881,8 829,-3C776,-14 713,-20 639,-20M594,977C506,977 436,948 384,891C331,834 300,754 291,653l573,0C864,758 841,838 794,894C747,949 681,977 594,977M471,1266C503,1307 538,1357 575,1416C612,1475 641,1526 662,1569l202,0l0,-21C835,1505 791,1451 733,1388C675,1325 625,1276 582,1241l-111,0z"/>
<glyph unicode="&#xEA;" horiz-adv-x="1149" d="M639,-20C477,-20 349,29 256,128C162,227 115,364 115,539C115,716 159,856 246,960C333,1064 449,1116 596,1116C733,1116 842,1071 922,981C1002,890 1042,771 1042,623l0,-105l-755,0C290,389 323,292 385,225C446,158 533,125 645,125C763,125 880,150 995,199l0,-148C936,26 881,8 829,-3C776,-14 713,-20 639,-20M594,977C506,977 436,948 384,891C331,834 300,754 291,653l573,0C864,758 841,838 794,894C747,949 681,977 594,977M259,1264C344,1355 403,1421 437,1464C471,1507 496,1542 511,1569l166,0C692,1541 717,1505 754,1461C790,1416 850,1351 933,1264l0,-23l-119,0C755,1278 682,1340 593,1427C502,1338 429,1276 374,1241l-115,0z"/>
<glyph unicode="&#xEB;" horiz-adv-x="1149" d="M639,-20C477,-20 349,29 256,128C162,227 115,364 115,539C115,716 159,856 246,960C333,1064 449,1116 596,1116C733,1116 842,1071 922,981C1002,890 1042,771 1042,623l0,-105l-755,0C290,389 323,292 385,225C446,158 533,125 645,125C763,125 880,150 995,199l0,-148C936,26 881,8 829,-3C776,-14 713,-20 639,-20M594,977C506,977 436,948 384,891C331,834 300,754 291,653l573,0C864,758 841,838 794,894C747,949 681,977 594,977M319,1393C319,1428 328,1453 346,1468C363,1483 384,1491 409,1491C434,1491 456,1483 475,1468C493,1453 502,1428 502,1393C502,1360 493,1335 475,1319C456,1302 434,1294 409,1294C384,1294 363,1302 346,1319C328,1335 319,1360 319,1393M700,1393C700,1428 709,1453 727,1468C744,1483 765,1491 790,1491C815,1491 836,1483 855,1468C873,1453 882,1428 882,1393C882,1360 873,1335 855,1319C836,1302 815,1294 790,1294C765,1294 744,1302 727,1319C709,1335 700,1360 700,1393z"/>
<glyph unicode="&#xEC;" horiz-adv-x="518" d="M342,0l-166,0l0,1096l166,0M355,1241l-110,0C202,1276 150,1325 91,1389C32,1453 -11,1506 -38,1548l0,21l203,0C186,1523 216,1470 254,1410C292,1349 326,1301 355,1266z"/>
<glyph unicode="&#xED;" horiz-adv-x="518" d="M342,0l-166,0l0,1096l166,0M169,1266C201,1307 236,1357 273,1416C310,1475 339,1526 360,1569l202,0l0,-21C533,1505 489,1451 431,1388C373,1325 323,1276 280,1241l-111,0z"/>
<glyph unicode="&#xEE;" horiz-adv-x="518" d="M342,0l-166,0l0,1096l166,0M-77,1264C8,1355 67,1421 101,1464C135,1507 160,1542 175,1569l166,0C356,1541 381,1505 418,1461C454,1416 514,1351 597,1264l0,-23l-119,0C419,1278 346,1340 257,1427C166,1338 93,1276 38,1241l-115,0z"/>
<glyph unicode="&#xEF;" horiz-adv-x="518" d="M342,0l-166,0l0,1096l166,0M-20,1393C-20,1428 -11,1453 7,1468C24,1483 45,1491 70,1491C95,1491 117,1483 136,1468C154,1453 163,1428 163,1393C163,1360 154,1335 136,1319C117,1302 95,1294 70,1294C45,1294 24,1302 7,1319C-11,1335 -20,1360 -20,1393M361,1393C361,1428 370,1453 388,1468C405,1483 426,1491 451,1491C476,1491 497,1483 516,1468C534,1453 543,1428 543,1393C543,1360 534,1335 516,1319C497,1302 476,1294 451,1294C426,1294 405,1302 388,1319C370,1335 361,1360 361,1393z"/>
<glyph unicode="&#xF0;" horiz-adv-x="1221" d="M1122,563C1122,376 1079,232 992,131C905,30 779,-20 614,-20C466,-20 346,25 253,115C160,204 113,324 113,475C113,628 157,749 245,836C332,923 449,967 596,967C747,967 855,927 922,846l8,4C892,993 805,1128 668,1255l-271,-155l-73,108l233,133C496,1382 434,1419 371,1452l69,117C544,1520 630,1471 698,1421l238,138l76,-107l-207,-119C906,1238 985,1124 1040,991C1095,858 1122,716 1122,563M954,512C954,610 924,687 864,744C804,801 722,829 618,829C393,829 281,709 281,469C281,358 310,272 369,211C427,150 510,119 618,119C735,119 820,153 874,220C927,287 954,384 954,512z"/>
<glyph unicode="&#xF1;" horiz-adv-x="1257" d="M926,0l0,709C926,798 906,865 865,909C824,953 761,975 674,975C559,975 475,944 422,882C369,820 342,718 342,575l0,-575l-166,0l0,1096l135,0l27,-150l8,0C380,1000 428,1042 489,1072C550,1101 619,1116 694,1116C826,1116 925,1084 992,1021C1059,957 1092,855 1092,715l0,-715M802,1243C773,1243 745,1249 718,1262C691,1274 664,1288 638,1303C611,1318 586,1331 562,1344C537,1356 514,1362 491,1362C458,1362 433,1352 416,1332C399,1312 385,1282 376,1241l-98,0C287,1322 310,1385 349,1431C387,1476 436,1499 497,1499C528,1499 557,1493 586,1481C615,1468 642,1455 668,1440C694,1425 719,1411 743,1399C767,1386 790,1380 811,1380C844,1380 868,1390 884,1410C900,1429 913,1460 923,1501l99,0C1013,1420 990,1357 953,1312C915,1266 865,1243 802,1243z"/>
<glyph unicode="&#xF2;" horiz-adv-x="1237" d="M1122,549C1122,370 1077,231 987,131C897,30 773,-20 614,-20C516,-20 429,3 353,49C277,95 218,161 177,247C136,333 115,434 115,549C115,728 160,867 249,967C338,1066 462,1116 621,1116C774,1116 896,1065 987,963C1077,861 1122,723 1122,549M287,549C287,409 315,302 371,229C427,156 509,119 618,119C727,119 809,156 866,229C922,302 950,408 950,549C950,688 922,794 866,867C809,939 726,975 616,975C507,975 425,939 370,868C315,797 287,690 287,549M742,1241l-110,0C589,1276 537,1325 478,1389C419,1453 376,1506 349,1548l0,21l203,0C573,1523 603,1470 641,1410C679,1349 713,1301 742,1266z"/>
<glyph unicode="&#xF3;" horiz-adv-x="1237" d="M1122,549C1122,370 1077,231 987,131C897,30 773,-20 614,-20C516,-20 429,3 353,49C277,95 218,161 177,247C136,333 115,434 115,549C115,728 160,867 249,967C338,1066 462,1116 621,1116C774,1116 896,1065 987,963C1077,861 1122,723 1122,549M287,549C287,409 315,302 371,229C427,156 509,119 618,119C727,119 809,156 866,229C922,302 950,408 950,549C950,688 922,794 866,867C809,939 726,975 616,975C507,975 425,939 370,868C315,797 287,690 287,549M479,1266C511,1307 546,1357 583,1416C620,1475 649,1526 670,1569l202,0l0,-21C843,1505 799,1451 741,1388C683,1325 633,1276 590,1241l-111,0z"/>
<glyph unicode="&#xF4;" horiz-adv-x="1237" d="M1122,549C1122,370 1077,231 987,131C897,30 773,-20 614,-20C516,-20 429,3 353,49C277,95 218,161 177,247C136,333 115,434 115,549C115,728 160,867 249,967C338,1066 462,1116 621,1116C774,1116 896,1065 987,963C1077,861 1122,723 1122,549M287,549C287,409 315,302 371,229C427,156 509,119 618,119C727,119 809,156 866,229C922,302 950,408 950,549C950,688 922,794 866,867C809,939 726,975 616,975C507,975 425,939 370,868C315,797 287,690 287,549M282,1264C367,1355 426,1421 460,1464C494,1507 519,1542 534,1569l166,0C715,1541 740,1505 777,1461C813,1416 873,1351 956,1264l0,-23l-119,0C778,1278 705,1340 616,1427C525,1338 452,1276 397,1241l-115,0z"/>
<glyph unicode="&#xF5;" horiz-adv-x="1237" d="M1122,549C1122,370 1077,231 987,131C897,30 773,-20 614,-20C516,-20 429,3 353,49C277,95 218,161 177,247C136,333 115,434 115,549C115,728 160,867 249,967C338,1066 462,1116 621,1116C774,1116 896,1065 987,963C1077,861 1122,723 1122,549M287,549C287,409 315,302 371,229C427,156 509,119 618,119C727,119 809,156 866,229C922,302 950,408 950,549C950,688 922,794 866,867C809,939 726,975 616,975C507,975 425,939 370,868C315,797 287,690 287,549M773,1243C744,1243 716,1249 689,1262C662,1274 635,1288 609,1303C582,1318 557,1331 533,1344C508,1356 485,1362 462,1362C429,1362 404,1352 387,1332C370,1312 356,1282 347,1241l-98,0C258,1322 281,1385 320,1431C358,1476 407,1499 468,1499C499,1499 528,1493 557,1481C586,1468 613,1455 639,1440C665,1425 690,1411 714,1399C738,1386 761,1380 782,1380C815,1380 839,1390 855,1410C871,1429 884,1460 894,1501l99,0C984,1420 961,1357 924,1312C886,1266 836,1243 773,1243z"/>
<glyph unicode="&#xF6;" horiz-adv-x="1237" d="M1122,549C1122,370 1077,231 987,131C897,30 773,-20 614,-20C516,-20 429,3 353,49C277,95 218,161 177,247C136,333 115,434 115,549C115,728 160,867 249,967C338,1066 462,1116 621,1116C774,1116 896,1065 987,963C1077,861 1122,723 1122,549M287,549C287,409 315,302 371,229C427,156 509,119 618,119C727,119 809,156 866,229C922,302 950,408 950,549C950,688 922,794 866,867C809,939 726,975 616,975C507,975 425,939 370,868C315,797 287,690 287,549M336,1393C336,1428 345,1453 363,1468C380,1483 401,1491 426,1491C451,1491 473,1483 492,1468C510,1453 519,1428 519,1393C519,1360 510,1335 492,1319C473,1302 451,1294 426,1294C401,1294 380,1302 363,1319C345,1335 336,1360 336,1393M717,1393C717,1428 726,1453 744,1468C761,1483 782,1491 807,1491C832,1491 853,1483 872,1468C890,1453 899,1428 899,1393C899,1360 890,1335 872,1319C853,1302 832,1294 807,1294C782,1294 761,1302 744,1319C726,1335 717,1360 717,1393z"/>
<glyph unicode="&#xF7;" horiz-adv-x="1171" d="M104,653l0,138l961,0l0,-138M471,373C471,413 481,443 501,464C520,484 548,494 584,494C619,494 646,484 665,463C684,442 694,412 694,373C694,335 684,305 665,284C645,263 618,252 584,252C549,252 522,263 502,284C481,305 471,334 471,373M471,1071C471,1111 481,1141 501,1162C520,1182 548,1192 584,1192C619,1192 646,1182 665,1161C684,1140 694,1110 694,1071C694,1033 684,1003 665,982C645,961 618,950 584,950C549,950 522,961 502,982C481,1003 471,1032 471,1071z"/>
<glyph unicode="&#xF8;" horiz-adv-x="1237" d="M1122,549C1122,370 1077,231 987,131C897,30 773,-20 614,-20C511,-20 423,3 348,49l-84,-117l-114,78l94,131C158,242 115,378 115,549C115,728 160,867 249,967C338,1066 462,1116 621,1116C724,1116 814,1091 891,1040l84,119l117,-76l-97,-133C1080,849 1122,715 1122,549M287,549C287,435 305,344 340,276l465,646C755,957 692,975 616,975C507,975 425,939 370,868C315,797 287,690 287,549M950,549C950,658 933,746 899,813l-465,-643C481,136 543,119 618,119C727,119 809,156 866,229C922,302 950,408 950,549z"/>
<glyph unicode="&#xF9;" horiz-adv-x="1257" d="M332,1096l0,-711C332,296 352,229 393,185C434,141 497,119 584,119C699,119 783,150 836,213C889,276 915,378 915,520l0,576l166,0l0,-1096l-137,0l-24,147l-9,0C877,93 830,52 770,23C709,-6 640,-20 563,-20C430,-20 330,12 264,75C197,138 164,240 164,379l0,717M726,1241l-110,0C573,1276 521,1325 462,1389C403,1453 360,1506 333,1548l0,21l203,0C557,1523 587,1470 625,1410C663,1349 697,1301 726,1266z"/>
<glyph unicode="&#xFA;" horiz-adv-x="1257" d="M332,1096l0,-711C332,296 352,229 393,185C434,141 497,119 584,119C699,119 783,150 836,213C889,276 915,378 915,520l0,576l166,0l0,-1096l-137,0l-24,147l-9,0C877,93 830,52 770,23C709,-6 640,-20 563,-20C430,-20 330,12 264,75C197,138 164,240 164,379l0,717M506,1266C538,1307 573,1357 610,1416C647,1475 676,1526 697,1569l202,0l0,-21C870,1505 826,1451 768,1388C710,1325 660,1276 617,1241l-111,0z"/>
<glyph unicode="&#xFB;" horiz-adv-x="1257" d="M332,1096l0,-711C332,296 352,229 393,185C434,141 497,119 584,119C699,119 783,150 836,213C889,276 915,378 915,520l0,576l166,0l0,-1096l-137,0l-24,147l-9,0C877,93 830,52 770,23C709,-6 640,-20 563,-20C430,-20 330,12 264,75C197,138 164,240 164,379l0,717M286,1264C371,1355 430,1421 464,1464C498,1507 523,1542 538,1569l166,0C719,1541 744,1505 781,1461C817,1416 877,1351 960,1264l0,-23l-119,0C782,1278 709,1340 620,1427C529,1338 456,1276 401,1241l-115,0z"/>
<glyph unicode="&#xFC;" horiz-adv-x="1257" d="M332,1096l0,-711C332,296 352,229 393,185C434,141 497,119 584,119C699,119 783,150 836,213C889,276 915,378 915,520l0,576l166,0l0,-1096l-137,0l-24,147l-9,0C877,93 830,52 770,23C709,-6 640,-20 563,-20C430,-20 330,12 264,75C197,138 164,240 164,379l0,717M342,1393C342,1428 351,1453 369,1468C386,1483 407,1491 432,1491C457,1491 479,1483 498,1468C516,1453 525,1428 525,1393C525,1360 516,1335 498,1319C479,1302 457,1294 432,1294C407,1294 386,1302 369,1319C351,1335 342,1360 342,1393M723,1393C723,1428 732,1453 750,1468C767,1483 788,1491 813,1491C838,1491 859,1483 878,1468C896,1453 905,1428 905,1393C905,1360 896,1335 878,1319C859,1302 838,1294 813,1294C788,1294 767,1302 750,1319C732,1335 723,1360 723,1393z"/>
<glyph unicode="&#xFD;" horiz-adv-x="1032" d="M2,1096l178,0l240,-625C473,328 505,225 518,162l8,0C535,196 553,254 581,337C608,419 699,672 852,1096l178,0l-471,-1248C512,-275 458,-363 396,-414C333,-466 257,-492 166,-492C115,-492 65,-486 16,-475l0,133C53,-350 94,-354 139,-354C253,-354 334,-290 383,-162l61,156M411,1266C443,1307 478,1357 515,1416C552,1475 581,1526 602,1569l202,0l0,-21C775,1505 731,1451 673,1388C615,1325 565,1276 522,1241l-111,0z"/>
<glyph unicode="&#xFE;" horiz-adv-x="1255" d="M344,948C388,1007 438,1050 495,1077C552,1103 615,1116 686,1116C829,1116 941,1066 1021,966C1101,866 1141,727 1141,549C1141,370 1101,231 1021,131C940,30 829,-20 686,-20C538,-20 423,34 342,141l-12,0l4,-34C339,56 342,9 342,-33l0,-459l-166,0l0,2048l166,0l0,-466C342,1055 340,1008 336,948M664,975C552,975 471,944 420,883C369,822 343,724 342,590l0,-41C342,395 368,285 419,219C470,152 553,119 666,119C868,119 969,263 969,551C969,694 944,801 895,871C846,940 769,975 664,975z"/>
<glyph unicode="&#xFF;" horiz-adv-x="1032" d="M2,1096l178,0l240,-625C473,328 505,225 518,162l8,0C535,196 553,254 581,337C608,419 699,672 852,1096l178,0l-471,-1248C512,-275 458,-363 396,-414C333,-466 257,-492 166,-492C115,-492 65,-486 16,-475l0,133C53,-350 94,-354 139,-354C253,-354 334,-290 383,-162l61,156M234,1393C234,1428 243,1453 261,1468C278,1483 299,1491 324,1491C349,1491 371,1483 390,1468C408,1453 417,1428 417,1393C417,1360 408,1335 390,1319C371,1302 349,1294 324,1294C299,1294 278,1302 261,1319C243,1335 234,1360 234,1393M615,1393C615,1428 624,1453 642,1468C659,1483 680,1491 705,1491C730,1491 751,1483 770,1468C788,1453 797,1428 797,1393C797,1360 788,1335 770,1319C751,1302 730,1294 705,1294C680,1294 659,1302 642,1319C624,1335 615,1360 615,1393z"/>
<glyph unicode="&#x100;" horiz-adv-x="1296" d="M1120,0l-182,465l-586,0l-180,-465l-172,0l578,1468l143,0l575,-1468M885,618l-170,453C693,1128 670,1199 647,1282C632,1218 611,1148 584,1071l-172,-453M364,1716l600,0l0,-137l-600,0z"/>
<glyph unicode="&#x101;" horiz-adv-x="1139" d="M850,0l-33,156l-8,0C754,87 700,41 646,17C591,-8 523,-20 442,-20C333,-20 248,8 187,64C125,120 94,200 94,303C94,524 271,640 625,651l186,6l0,68C811,811 793,875 756,916C719,957 659,977 578,977C487,977 383,949 268,893l-51,127C271,1049 330,1072 395,1089C459,1106 523,1114 588,1114C719,1114 816,1085 879,1027C942,969 973,876 973,748l0,-748M475,117C578,117 660,145 719,202C778,259 807,338 807,440l0,99l-166,-7C509,527 414,507 356,471C297,434 268,378 268,301C268,241 286,195 323,164C359,133 410,117 475,117M290,1378l600,0l0,-137l-600,0z"/>
<glyph unicode="&#x102;" horiz-adv-x="1296" d="M1120,0l-182,465l-586,0l-180,-465l-172,0l578,1468l143,0l575,-1468M885,618l-170,453C693,1128 670,1199 647,1282C632,1218 611,1148 584,1071l-172,-453M641,1579C548,1579 475,1602 423,1648C371,1693 342,1760 336,1847l104,0C444,1814 453,1789 467,1770C480,1751 499,1738 524,1729C548,1720 588,1716 645,1716C712,1716 762,1727 794,1748C826,1769 845,1802 852,1847l104,0C949,1763 918,1697 863,1650C807,1603 733,1579 641,1579z"/>
<glyph unicode="&#x103;" horiz-adv-x="1139" d="M850,0l-33,156l-8,0C754,87 700,41 646,17C591,-8 523,-20 442,-20C333,-20 248,8 187,64C125,120 94,200 94,303C94,524 271,640 625,651l186,6l0,68C811,811 793,875 756,916C719,957 659,977 578,977C487,977 383,949 268,893l-51,127C271,1049 330,1072 395,1089C459,1106 523,1114 588,1114C719,1114 816,1085 879,1027C942,969 973,876 973,748l0,-748M475,117C578,117 660,145 719,202C778,259 807,338 807,440l0,99l-166,-7C509,527 414,507 356,471C297,434 268,378 268,301C268,241 286,195 323,164C359,133 410,117 475,117M570,1241C477,1241 404,1264 352,1310C300,1355 271,1422 265,1509l104,0C373,1476 382,1451 396,1432C409,1413 428,1400 453,1391C477,1382 517,1378 574,1378C641,1378 691,1389 723,1410C755,1431 774,1464 781,1509l104,0C878,1425 847,1359 792,1312C736,1265 662,1241 570,1241z"/>
<glyph unicode="&#x104;" horiz-adv-x="1296" d="M1120,0l-182,465l-586,0l-180,-465l-172,0l578,1468l143,0l575,-1468M885,618l-170,453C693,1128 670,1199 647,1282C632,1218 611,1148 584,1071l-172,-453M1106,-238C1106,-301 1137,-332 1200,-332C1228,-332 1260,-328 1297,-319l0,-109C1254,-440 1212,-446 1172,-446C1034,-446 965,-383 965,-258C965,-211 979,-165 1008,-120C1037,-75 1075,-35 1123,0l120,0C1198,-44 1164,-84 1141,-120C1118,-157 1106,-196 1106,-238z"/>
<glyph unicode="&#x105;" horiz-adv-x="1139" d="M850,0l-33,156l-8,0C754,87 700,41 646,17C591,-8 523,-20 442,-20C333,-20 248,8 187,64C125,120 94,200 94,303C94,524 271,640 625,651l186,6l0,68C811,811 793,875 756,916C719,957 659,977 578,977C487,977 383,949 268,893l-51,127C271,1049 330,1072 395,1089C459,1106 523,1114 588,1114C719,1114 816,1085 879,1027C942,969 973,876 973,748l0,-748M475,117C578,117 660,145 719,202C778,259 807,338 807,440l0,99l-166,-7C509,527 414,507 356,471C297,434 268,378 268,301C268,241 286,195 323,164C359,133 410,117 475,117M833,-238C833,-301 864,-332 927,-332C955,-332 987,-328 1024,-319l0,-109C981,-440 939,-446 899,-446C761,-446 692,-383 692,-258C692,-211 706,-165 735,-120C764,-75 802,-35 850,0l120,0C925,-44 891,-84 868,-120C845,-157 833,-196 833,-238z"/>
<glyph unicode="&#x106;" horiz-adv-x="1292" d="M827,1331C666,1331 540,1278 447,1171C354,1064 307,917 307,731C307,540 352,392 442,288C531,183 659,131 825,131C927,131 1043,149 1174,186l0,-149C1073,-1 948,-20 799,-20C584,-20 418,45 301,176C184,307 125,492 125,733C125,884 153,1016 210,1129C266,1242 347,1330 454,1391C560,1452 685,1483 829,1483C982,1483 1116,1455 1231,1399l-72,-146C1048,1305 938,1331 827,1331M657,1604C689,1645 724,1695 761,1754C798,1813 827,1864 848,1907l202,0l0,-21C1021,1843 977,1789 919,1726C861,1663 811,1614 768,1579l-111,0z"/>
<glyph unicode="&#x107;" horiz-adv-x="975" d="M614,-20C455,-20 333,29 246,127C159,224 115,362 115,541C115,724 159,866 248,966C336,1066 462,1116 625,1116C678,1116 730,1110 783,1099C836,1088 877,1074 907,1059l-51,-141C819,933 779,945 736,955C693,964 654,969 621,969C398,969 287,827 287,543C287,408 314,305 369,233C423,161 503,125 610,125C701,125 795,145 891,184l0,-147C818,-1 725,-20 614,-20M461,1266C493,1307 528,1357 565,1416C602,1475 631,1526 652,1569l202,0l0,-21C825,1505 781,1451 723,1388C665,1325 615,1276 572,1241l-111,0z"/>
<glyph unicode="&#x108;" horiz-adv-x="1292" d="M827,1331C666,1331 540,1278 447,1171C354,1064 307,917 307,731C307,540 352,392 442,288C531,183 659,131 825,131C927,131 1043,149 1174,186l0,-149C1073,-1 948,-20 799,-20C584,-20 418,45 301,176C184,307 125,492 125,733C125,884 153,1016 210,1129C266,1242 347,1330 454,1391C560,1452 685,1483 829,1483C982,1483 1116,1455 1231,1399l-72,-146C1048,1305 938,1331 827,1331M440,1602C525,1693 584,1759 618,1802C652,1845 677,1880 692,1907l166,0C873,1879 898,1843 935,1799C971,1754 1031,1689 1114,1602l0,-23l-119,0C936,1616 863,1678 774,1765C683,1676 610,1614 555,1579l-115,0z"/>
<glyph unicode="&#x109;" horiz-adv-x="975" d="M614,-20C455,-20 333,29 246,127C159,224 115,362 115,541C115,724 159,866 248,966C336,1066 462,1116 625,1116C678,1116 730,1110 783,1099C836,1088 877,1074 907,1059l-51,-141C819,933 779,945 736,955C693,964 654,969 621,969C398,969 287,827 287,543C287,408 314,305 369,233C423,161 503,125 610,125C701,125 795,145 891,184l0,-147C818,-1 725,-20 614,-20M224,1264C309,1355 368,1421 402,1464C436,1507 461,1542 476,1569l166,0C657,1541 682,1505 719,1461C755,1416 815,1351 898,1264l0,-23l-119,0C720,1278 647,1340 558,1427C467,1338 394,1276 339,1241l-115,0z"/>
<glyph unicode="&#x10A;" horiz-adv-x="1292" d="M827,1331C666,1331 540,1278 447,1171C354,1064 307,917 307,731C307,540 352,392 442,288C531,183 659,131 825,131C927,131 1043,149 1174,186l0,-149C1073,-1 948,-20 799,-20C584,-20 418,45 301,176C184,307 125,492 125,733C125,884 153,1016 210,1129C266,1242 347,1330 454,1391C560,1452 685,1483 829,1483C982,1483 1116,1455 1231,1399l-72,-146C1048,1305 938,1331 827,1331M701,1731C701,1769 710,1797 729,1815C748,1832 771,1841 799,1841C826,1841 849,1832 868,1814C887,1796 897,1768 897,1731C897,1694 887,1666 868,1648C849,1629 826,1620 799,1620C771,1620 748,1629 729,1648C710,1666 701,1694 701,1731z"/>
<glyph unicode="&#x10B;" horiz-adv-x="975" d="M614,-20C455,-20 333,29 246,127C159,224 115,362 115,541C115,724 159,866 248,966C336,1066 462,1116 625,1116C678,1116 730,1110 783,1099C836,1088 877,1074 907,1059l-51,-141C819,933 779,945 736,955C693,964 654,969 621,969C398,969 287,827 287,543C287,408 314,305 369,233C423,161 503,125 610,125C701,125 795,145 891,184l0,-147C818,-1 725,-20 614,-20M498,1393C498,1431 507,1459 526,1477C545,1494 568,1503 596,1503C623,1503 646,1494 665,1476C684,1458 694,1430 694,1393C694,1356 684,1328 665,1310C646,1291 623,1282 596,1282C568,1282 545,1291 526,1310C507,1328 498,1356 498,1393z"/>
<glyph unicode="&#x10C;" horiz-adv-x="1292" d="M827,1331C666,1331 540,1278 447,1171C354,1064 307,917 307,731C307,540 352,392 442,288C531,183 659,131 825,131C927,131 1043,149 1174,186l0,-149C1073,-1 948,-20 799,-20C584,-20 418,45 301,176C184,307 125,492 125,733C125,884 153,1016 210,1129C266,1242 347,1330 454,1391C560,1452 685,1483 829,1483C982,1483 1116,1455 1231,1399l-72,-146C1048,1305 938,1331 827,1331M461,1907l115,0C652,1858 725,1795 795,1718C882,1805 955,1868 1016,1907l119,0l0,-25l-66,-68C973,1715 910,1637 879,1579l-166,0C698,1606 673,1641 639,1683C605,1725 546,1791 461,1882z"/>
<glyph unicode="&#x10D;" horiz-adv-x="975" d="M614,-20C455,-20 333,29 246,127C159,224 115,362 115,541C115,724 159,866 248,966C336,1066 462,1116 625,1116C678,1116 730,1110 783,1099C836,1088 877,1074 907,1059l-51,-141C819,933 779,945 736,955C693,964 654,969 621,969C398,969 287,827 287,543C287,408 314,305 369,233C423,161 503,125 610,125C701,125 795,145 891,184l0,-147C818,-1 725,-20 614,-20M255,1569l115,0C446,1520 519,1457 589,1380C676,1467 749,1530 810,1569l119,0l0,-25l-66,-68C767,1377 704,1299 673,1241l-166,0C492,1268 467,1303 433,1345C399,1387 340,1453 255,1544z"/>
<glyph unicode="&#x10E;" horiz-adv-x="1493" d="M1368,745C1368,504 1303,319 1172,192C1041,64 852,0 606,0l-405,0l0,1462l448,0C876,1462 1053,1399 1179,1273C1305,1147 1368,971 1368,745M1188,739C1188,930 1140,1073 1045,1170C949,1267 807,1315 618,1315l-247,0l0,-1168l207,0C781,147 933,197 1035,297C1137,396 1188,544 1188,739M356,1907l115,0C547,1858 620,1795 690,1718C777,1805 850,1868 911,1907l119,0l0,-25l-66,-68C868,1715 805,1637 774,1579l-166,0C593,1606 568,1641 534,1683C500,1725 441,1791 356,1882z"/>
<glyph unicode="&#x10F;" horiz-adv-x="1255" d="M922,147l-9,0C836,36 722,-20 569,-20C426,-20 314,29 235,127C155,225 115,364 115,545C115,726 155,866 235,966C315,1066 426,1116 569,1116C718,1116 832,1062 911,954l13,0l-7,79l-4,77l0,446l166,0l0,-1556l-135,0M590,119C703,119 786,150 837,212C888,273 913,373 913,510l0,35C913,700 887,811 836,878C784,944 701,977 588,977C491,977 416,939 365,864C313,788 287,681 287,543C287,403 313,297 364,226C415,155 491,119 590,119M1173,1253C1186,1290 1199,1336 1212,1392C1225,1447 1234,1502 1241,1556l168,0l0,-18C1402,1504 1383,1456 1354,1393C1325,1330 1294,1276 1263,1229l-90,0z"/>
<glyph unicode="&#x110;" horiz-adv-x="1479" d="M1352,745C1352,504 1287,319 1156,192C1025,64 836,0 590,0l-389,0l0,649l-154,0l0,150l154,0l0,663l434,0C860,1462 1035,1400 1162,1275C1289,1150 1352,973 1352,745M1171,739C1171,1123 981,1315 602,1315l-231,0l0,-516l379,0l0,-150l-379,0l0,-502l190,0C968,147 1171,344 1171,739z"/>
<glyph unicode="&#x111;" horiz-adv-x="1255" d="M922,147l-9,0C836,36 722,-20 569,-20C426,-20 314,29 235,127C155,225 115,364 115,545C115,726 155,866 235,966C315,1066 426,1116 569,1116C718,1116 832,1062 911,954l13,0C917,1009 913,1061 913,1110l0,133l-448,0l0,129l448,0l0,184l166,0l0,-184l156,0l0,-129l-156,0l0,-1243l-135,0M590,119C703,119 786,150 837,212C888,273 913,373 913,510l0,35C913,700 887,811 836,878C784,944 701,977 588,977C491,977 416,939 365,864C313,788 287,681 287,543C287,403 313,297 364,226C415,155 491,119 590,119z"/>
<glyph unicode="&#x112;" horiz-adv-x="1139" d="M1016,0l-815,0l0,1462l815,0l0,-151l-645,0l0,-471l606,0l0,-150l-606,0l0,-538l645,0M319,1716l600,0l0,-137l-600,0z"/>
<glyph unicode="&#x113;" horiz-adv-x="1149" d="M639,-20C477,-20 349,29 256,128C162,227 115,364 115,539C115,716 159,856 246,960C333,1064 449,1116 596,1116C733,1116 842,1071 922,981C1002,890 1042,771 1042,623l0,-105l-755,0C290,389 323,292 385,225C446,158 533,125 645,125C763,125 880,150 995,199l0,-148C936,26 881,8 829,-3C776,-14 713,-20 639,-20M594,977C506,977 436,948 384,891C331,834 300,754 291,653l573,0C864,758 841,838 794,894C747,949 681,977 594,977M311,1378l600,0l0,-137l-600,0z"/>
<glyph unicode="&#x114;" horiz-adv-x="1139" d="M1016,0l-815,0l0,1462l815,0l0,-151l-645,0l0,-471l606,0l0,-150l-606,0l0,-538l645,0M614,1579C521,1579 448,1602 396,1648C344,1693 315,1760 309,1847l104,0C417,1814 426,1789 440,1770C453,1751 472,1738 497,1729C521,1720 561,1716 618,1716C685,1716 735,1727 767,1748C799,1769 818,1802 825,1847l104,0C922,1763 891,1697 836,1650C780,1603 706,1579 614,1579z"/>
<glyph unicode="&#x115;" horiz-adv-x="1149" d="M639,-20C477,-20 349,29 256,128C162,227 115,364 115,539C115,716 159,856 246,960C333,1064 449,1116 596,1116C733,1116 842,1071 922,981C1002,890 1042,771 1042,623l0,-105l-755,0C290,389 323,292 385,225C446,158 533,125 645,125C763,125 880,150 995,199l0,-148C936,26 881,8 829,-3C776,-14 713,-20 639,-20M594,977C506,977 436,948 384,891C331,834 300,754 291,653l573,0C864,758 841,838 794,894C747,949 681,977 594,977M593,1241C500,1241 427,1264 375,1310C323,1355 294,1422 288,1509l104,0C396,1476 405,1451 419,1432C432,1413 451,1400 476,1391C500,1382 540,1378 597,1378C664,1378 714,1389 746,1410C778,1431 797,1464 804,1509l104,0C901,1425 870,1359 815,1312C759,1265 685,1241 593,1241z"/>
<glyph unicode="&#x116;" horiz-adv-x="1139" d="M1016,0l-815,0l0,1462l815,0l0,-151l-645,0l0,-471l606,0l0,-150l-606,0l0,-538l645,0M529,1702C529,1740 538,1768 557,1786C576,1803 599,1812 627,1812C654,1812 677,1803 696,1785C715,1767 725,1739 725,1702C725,1665 715,1637 696,1619C677,1600 654,1591 627,1591C599,1591 576,1600 557,1619C538,1637 529,1665 529,1702z"/>
<glyph unicode="&#x117;" horiz-adv-x="1149" d="M639,-20C477,-20 349,29 256,128C162,227 115,364 115,539C115,716 159,856 246,960C333,1064 449,1116 596,1116C733,1116 842,1071 922,981C1002,890 1042,771 1042,623l0,-105l-755,0C290,389 323,292 385,225C446,158 533,125 645,125C763,125 880,150 995,199l0,-148C936,26 881,8 829,-3C776,-14 713,-20 639,-20M594,977C506,977 436,948 384,891C331,834 300,754 291,653l573,0C864,758 841,838 794,894C747,949 681,977 594,977M502,1393C502,1431 511,1459 530,1477C549,1494 572,1503 600,1503C627,1503 650,1494 669,1476C688,1458 698,1430 698,1393C698,1356 688,1328 669,1310C650,1291 627,1282 600,1282C572,1282 549,1291 530,1310C511,1328 502,1356 502,1393z"/>
<glyph unicode="&#x118;" horiz-adv-x="1139" d="M1016,0l-815,0l0,1462l815,0l0,-151l-645,0l0,-471l606,0l0,-150l-606,0l0,-538l645,0M805,-238C805,-301 836,-332 899,-332C927,-332 959,-328 996,-319l0,-109C953,-440 911,-446 871,-446C733,-446 664,-383 664,-258C664,-211 678,-165 707,-120C736,-75 774,-35 822,0l120,0C897,-44 863,-84 840,-120C817,-157 805,-196 805,-238z"/>
<glyph unicode="&#x119;" horiz-adv-x="1149" d="M639,-20C477,-20 349,29 256,128C162,227 115,364 115,539C115,716 159,856 246,960C333,1064 449,1116 596,1116C733,1116 842,1071 922,981C1002,890 1042,771 1042,623l0,-105l-755,0C290,389 323,292 385,225C446,158 533,125 645,125C763,125 880,150 995,199l0,-148C936,26 881,8 829,-3C776,-14 713,-20 639,-20M594,977C506,977 436,948 384,891C331,834 300,754 291,653l573,0C864,758 841,838 794,894C747,949 681,977 594,977M792,-207C792,-270 823,-301 886,-301C914,-301 946,-297 983,-288l0,-109C940,-409 898,-415 858,-415C720,-415 651,-352 651,-227C651,-180 665,-134 694,-89C723,-44 761,-4 809,31l120,0C884,-13 850,-53 827,-89C804,-126 792,-165 792,-207z"/>
<glyph unicode="&#x11A;" horiz-adv-x="1139" d="M1016,0l-815,0l0,1462l815,0l0,-151l-645,0l0,-471l606,0l0,-150l-606,0l0,-538l645,0M284,1907l115,0C475,1858 548,1795 618,1718C705,1805 778,1868 839,1907l119,0l0,-25l-66,-68C796,1715 733,1637 702,1579l-166,0C521,1606 496,1641 462,1683C428,1725 369,1791 284,1882z"/>
<glyph unicode="&#x11B;" horiz-adv-x="1149" d="M639,-20C477,-20 349,29 256,128C162,227 115,364 115,539C115,716 159,856 246,960C333,1064 449,1116 596,1116C733,1116 842,1071 922,981C1002,890 1042,771 1042,623l0,-105l-755,0C290,389 323,292 385,225C446,158 533,125 645,125C763,125 880,150 995,199l0,-148C936,26 881,8 829,-3C776,-14 713,-20 639,-20M594,977C506,977 436,948 384,891C331,834 300,754 291,653l573,0C864,758 841,838 794,894C747,949 681,977 594,977M263,1569l115,0C454,1520 527,1457 597,1380C684,1467 757,1530 818,1569l119,0l0,-25l-66,-68C775,1377 712,1299 681,1241l-166,0C500,1268 475,1303 441,1345C407,1387 348,1453 263,1544z"/>
<glyph unicode="&#x11C;" horiz-adv-x="1491" d="M844,766l497,0l0,-711C1264,30 1185,12 1105,-1C1025,-14 932,-20 827,-20C606,-20 433,46 310,178C187,309 125,494 125,731C125,883 156,1016 217,1131C278,1245 365,1332 480,1393C595,1453 729,1483 883,1483C1039,1483 1184,1454 1319,1397l-66,-150C1121,1303 994,1331 872,1331C694,1331 555,1278 455,1172C355,1066 305,919 305,731C305,534 353,384 450,282C546,180 687,129 874,129C975,129 1074,141 1171,164l0,450l-327,0M501,1602C586,1693 645,1759 679,1802C713,1845 738,1880 753,1907l166,0C934,1879 959,1843 996,1799C1032,1754 1092,1689 1175,1602l0,-23l-119,0C997,1616 924,1678 835,1765C744,1676 671,1614 616,1579l-115,0z"/>
<glyph unicode="&#x11D;" horiz-adv-x="1122" d="M1073,1096l0,-105l-203,-24C889,944 905,913 920,876C935,838 942,795 942,748C942,641 905,555 832,491C759,427 658,395 530,395C497,395 467,398 438,403C367,366 332,319 332,262C332,232 344,210 369,196C394,181 436,174 496,174l194,0C809,174 900,149 964,99C1027,49 1059,-24 1059,-119C1059,-240 1010,-333 913,-396C816,-460 674,-492 487,-492C344,-492 233,-465 156,-412C78,-359 39,-283 39,-186C39,-119 60,-62 103,-13C146,36 206,69 283,86C255,99 232,118 213,145C194,172 184,203 184,238C184,278 195,313 216,343C237,373 271,402 317,430C260,453 214,493 179,549C143,605 125,669 125,741C125,861 161,954 233,1019C305,1084 407,1116 539,1116C596,1116 648,1109 694,1096M199,-184C199,-243 224,-288 274,-319C324,-350 396,-365 489,-365C628,-365 732,-344 799,-302C866,-261 899,-204 899,-133C899,-74 881,-32 844,-9C807,14 738,25 637,25l-199,0C363,25 304,7 262,-29C220,-65 199,-117 199,-184M289,745C289,668 311,610 354,571C397,532 458,512 535,512C697,512 778,591 778,748C778,913 696,995 532,995C454,995 394,974 352,932C310,890 289,828 289,745M214,1264C299,1355 358,1421 392,1464C426,1507 451,1542 466,1569l166,0C647,1541 672,1505 709,1461C745,1416 805,1351 888,1264l0,-23l-119,0C710,1278 637,1340 548,1427C457,1338 384,1276 329,1241l-115,0z"/>
<glyph unicode="&#x11E;" horiz-adv-x="1491" d="M844,766l497,0l0,-711C1264,30 1185,12 1105,-1C1025,-14 932,-20 827,-20C606,-20 433,46 310,178C187,309 125,494 125,731C125,883 156,1016 217,1131C278,1245 365,1332 480,1393C595,1453 729,1483 883,1483C1039,1483 1184,1454 1319,1397l-66,-150C1121,1303 994,1331 872,1331C694,1331 555,1278 455,1172C355,1066 305,919 305,731C305,534 353,384 450,282C546,180 687,129 874,129C975,129 1074,141 1171,164l0,450l-327,0M854,1579C761,1579 688,1602 636,1648C584,1693 555,1760 549,1847l104,0C657,1814 666,1789 680,1770C693,1751 712,1738 737,1729C761,1720 801,1716 858,1716C925,1716 975,1727 1007,1748C1039,1769 1058,1802 1065,1847l104,0C1162,1763 1131,1697 1076,1650C1020,1603 946,1579 854,1579z"/>
<glyph unicode="&#x11F;" horiz-adv-x="1122" d="M1073,1096l0,-105l-203,-24C889,944 905,913 920,876C935,838 942,795 942,748C942,641 905,555 832,491C759,427 658,395 530,395C497,395 467,398 438,403C367,366 332,319 332,262C332,232 344,210 369,196C394,181 436,174 496,174l194,0C809,174 900,149 964,99C1027,49 1059,-24 1059,-119C1059,-240 1010,-333 913,-396C816,-460 674,-492 487,-492C344,-492 233,-465 156,-412C78,-359 39,-283 39,-186C39,-119 60,-62 103,-13C146,36 206,69 283,86C255,99 232,118 213,145C194,172 184,203 184,238C184,278 195,313 216,343C237,373 271,402 317,430C260,453 214,493 179,549C143,605 125,669 125,741C125,861 161,954 233,1019C305,1084 407,1116 539,1116C596,1116 648,1109 694,1096M199,-184C199,-243 224,-288 274,-319C324,-350 396,-365 489,-365C628,-365 732,-344 799,-302C866,-261 899,-204 899,-133C899,-74 881,-32 844,-9C807,14 738,25 637,25l-199,0C363,25 304,7 262,-29C220,-65 199,-117 199,-184M289,745C289,668 311,610 354,571C397,532 458,512 535,512C697,512 778,591 778,748C778,913 696,995 532,995C454,995 394,974 352,932C310,890 289,828 289,745M548,1241C455,1241 382,1264 330,1310C278,1355 249,1422 243,1509l104,0C351,1476 360,1451 374,1432C387,1413 406,1400 431,1391C455,1382 495,1378 552,1378C619,1378 669,1389 701,1410C733,1431 752,1464 759,1509l104,0C856,1425 825,1359 770,1312C714,1265 640,1241 548,1241z"/>
<glyph unicode="&#x120;" horiz-adv-x="1491" d="M844,766l497,0l0,-711C1264,30 1185,12 1105,-1C1025,-14 932,-20 827,-20C606,-20 433,46 310,178C187,309 125,494 125,731C125,883 156,1016 217,1131C278,1245 365,1332 480,1393C595,1453 729,1483 883,1483C1039,1483 1184,1454 1319,1397l-66,-150C1121,1303 994,1331 872,1331C694,1331 555,1278 455,1172C355,1066 305,919 305,731C305,534 353,384 450,282C546,180 687,129 874,129C975,129 1074,141 1171,164l0,450l-327,0M774,1731C774,1769 783,1797 802,1815C821,1832 844,1841 872,1841C899,1841 922,1832 941,1814C960,1796 970,1768 970,1731C970,1694 960,1666 941,1648C922,1629 899,1620 872,1620C844,1620 821,1629 802,1648C783,1666 774,1694 774,1731z"/>
<glyph unicode="&#x121;" horiz-adv-x="1122" d="M1073,1096l0,-105l-203,-24C889,944 905,913 920,876C935,838 942,795 942,748C942,641 905,555 832,491C759,427 658,395 530,395C497,395 467,398 438,403C367,366 332,319 332,262C332,232 344,210 369,196C394,181 436,174 496,174l194,0C809,174 900,149 964,99C1027,49 1059,-24 1059,-119C1059,-240 1010,-333 913,-396C816,-460 674,-492 487,-492C344,-492 233,-465 156,-412C78,-359 39,-283 39,-186C39,-119 60,-62 103,-13C146,36 206,69 283,86C255,99 232,118 213,145C194,172 184,203 184,238C184,278 195,313 216,343C237,373 271,402 317,430C260,453 214,493 179,549C143,605 125,669 125,741C125,861 161,954 233,1019C305,1084 407,1116 539,1116C596,1116 648,1109 694,1096M199,-184C199,-243 224,-288 274,-319C324,-350 396,-365 489,-365C628,-365 732,-344 799,-302C866,-261 899,-204 899,-133C899,-74 881,-32 844,-9C807,14 738,25 637,25l-199,0C363,25 304,7 262,-29C220,-65 199,-117 199,-184M289,745C289,668 311,610 354,571C397,532 458,512 535,512C697,512 778,591 778,748C778,913 696,995 532,995C454,995 394,974 352,932C310,890 289,828 289,745M449,1393C449,1431 458,1459 477,1477C496,1494 519,1503 547,1503C574,1503 597,1494 616,1476C635,1458 645,1430 645,1393C645,1356 635,1328 616,1310C597,1291 574,1282 547,1282C519,1282 496,1291 477,1310C458,1328 449,1356 449,1393z"/>
<glyph unicode="&#x122;" horiz-adv-x="1491" d="M844,766l497,0l0,-711C1264,30 1185,12 1105,-1C1025,-14 932,-20 827,-20C606,-20 433,46 310,178C187,309 125,494 125,731C125,883 156,1016 217,1131C278,1245 365,1332 480,1393C595,1453 729,1483 883,1483C1039,1483 1184,1454 1319,1397l-66,-150C1121,1303 994,1331 872,1331C694,1331 555,1278 455,1172C355,1066 305,919 305,731C305,534 353,384 450,282C546,180 687,129 874,129C975,129 1074,141 1171,164l0,450l-327,0M664,-428C683,-385 701,-333 718,-271C735,-209 745,-160 750,-125l168,0l0,-18C911,-177 891,-226 858,-290C825,-355 791,-409 754,-453l-90,0z"/>
<glyph unicode="&#x123;" horiz-adv-x="1122" d="M1073,1096l0,-105l-203,-24C889,944 905,913 920,876C935,838 942,795 942,748C942,641 905,555 832,491C759,427 658,395 530,395C497,395 467,398 438,403C367,366 332,319 332,262C332,232 344,210 369,196C394,181 436,174 496,174l194,0C809,174 900,149 964,99C1027,49 1059,-24 1059,-119C1059,-240 1010,-333 913,-396C816,-460 674,-492 487,-492C344,-492 233,-465 156,-412C78,-359 39,-283 39,-186C39,-119 60,-62 103,-13C146,36 206,69 283,86C255,99 232,118 213,145C194,172 184,203 184,238C184,278 195,313 216,343C237,373 271,402 317,430C260,453 214,493 179,549C143,605 125,669 125,741C125,861 161,954 233,1019C305,1084 407,1116 539,1116C596,1116 648,1109 694,1096M199,-184C199,-243 224,-288 274,-319C324,-350 396,-365 489,-365C628,-365 732,-344 799,-302C866,-261 899,-204 899,-133C899,-74 881,-32 844,-9C807,14 738,25 637,25l-199,0C363,25 304,7 262,-29C220,-65 199,-117 199,-184M289,745C289,668 311,610 354,571C397,532 458,512 535,512C697,512 778,591 778,748C778,913 696,995 532,995C454,995 394,974 352,932C310,890 289,828 289,745M707,1544C688,1503 669,1451 652,1387C634,1322 623,1274 619,1241l-166,0l0,19C462,1301 484,1353 517,1417C550,1480 582,1531 615,1569l92,0z"/>
<glyph unicode="&#x124;" horiz-adv-x="1511" d="M1311,0l-170,0l0,688l-770,0l0,-688l-170,0l0,1462l170,0l0,-622l770,0l0,622l170,0M418,1602C503,1693 562,1759 596,1802C630,1845 655,1880 670,1907l166,0C851,1879 876,1843 913,1799C949,1754 1009,1689 1092,1602l0,-23l-119,0C914,1616 841,1678 752,1765C661,1676 588,1614 533,1579l-115,0z"/>
<glyph unicode="&#x125;" horiz-adv-x="1257" d="M926,0l0,709C926,798 906,865 865,909C824,953 761,975 674,975C559,975 475,944 422,881C369,818 342,716 342,573l0,-573l-166,0l0,1556l166,0l0,-471C342,1028 339,981 334,944l10,0C377,997 423,1038 484,1069C544,1099 613,1114 690,1114C824,1114 925,1082 992,1019C1059,955 1092,854 1092,715l0,-715M299,1657C384,1748 443,1814 477,1857C511,1900 536,1935 551,1962l166,0C732,1934 757,1898 794,1854C830,1809 890,1744 973,1657l0,-23l-119,0C795,1671 722,1733 633,1820C542,1731 469,1669 414,1634l-115,0z"/>
<glyph unicode="&#x126;" horiz-adv-x="1511" d="M201,1214l0,248l170,0l0,-248l770,0l0,248l170,0l0,-248l200,0l0,-141l-200,0l0,-1073l-170,0l0,688l-770,0l0,-688l-170,0l0,1073l-201,0l0,141M1141,840l0,233l-770,0l0,-233z"/>
<glyph unicode="&#x127;" horiz-adv-x="1257" d="M926,0l0,670C926,759 906,826 865,870C824,914 761,936 674,936C558,936 474,905 421,843C368,781 342,679 342,537l0,-537l-166,0l0,1243l-156,0l0,127l156,0l0,186l166,0l0,-186l449,0l0,-127l-449,0l0,-196C342,991 339,944 334,907l10,0C377,960 423,1001 484,1032C544,1062 613,1077 690,1077C824,1077 925,1045 992,982C1059,918 1092,816 1092,676l0,-676z"/>
<glyph unicode="&#x129;" horiz-adv-x="518" d="M342,0l-166,0l0,1096l166,0M412,1243C383,1243 355,1249 328,1262C301,1274 274,1288 248,1303C221,1318 196,1331 172,1344C147,1356 124,1362 101,1362C68,1362 43,1352 26,1332C9,1312 -5,1282 -14,1241l-98,0C-103,1322 -80,1385 -41,1431C-3,1476 46,1499 107,1499C138,1499 167,1493 196,1481C225,1468 252,1455 278,1440C304,1425 329,1411 353,1399C377,1386 400,1380 421,1380C454,1380 478,1390 494,1410C510,1429 523,1460 533,1501l99,0C623,1420 600,1357 563,1312C525,1266 475,1243 412,1243z"/>
<glyph unicode="&#x12B;" horiz-adv-x="518" d="M342,0l-166,0l0,1096l166,0M-38,1378l600,0l0,-137l-600,0z"/>
<glyph unicode="&#x12D;" horiz-adv-x="518" d="M342,0l-166,0l0,1096l166,0M253,1241C160,1241 87,1264 35,1310C-17,1355 -46,1422 -52,1509l104,0C56,1476 65,1451 79,1432C92,1413 111,1400 136,1391C160,1382 200,1378 257,1378C324,1378 374,1389 406,1410C438,1431 457,1464 464,1509l104,0C561,1425 530,1359 475,1312C419,1265 345,1241 253,1241z"/>
<glyph unicode="&#x12F;" horiz-adv-x="518" d="M342,0l-166,0l0,1096l166,0M162,1393C162,1431 171,1459 190,1477C209,1494 232,1503 260,1503C287,1503 310,1494 329,1476C348,1458 358,1430 358,1393C358,1356 348,1328 329,1310C310,1291 287,1282 260,1282C232,1282 209,1291 190,1310C171,1328 162,1356 162,1393M194,-238C194,-301 225,-332 288,-332C316,-332 348,-328 385,-319l0,-109C342,-440 300,-446 260,-446C122,-446 53,-383 53,-258C53,-211 67,-165 96,-120C125,-75 163,-35 211,0l120,0C286,-44 252,-84 229,-120C206,-157 194,-196 194,-238z"/>
<glyph unicode="&#x131;" horiz-adv-x="518" d="M342,0l-166,0l0,1096l166,0z"/>
<glyph unicode="&#x133;" horiz-adv-x="1036" d="M342,0l-166,0l0,1096l166,0M162,1393C162,1431 171,1459 190,1477C209,1494 232,1503 260,1503C287,1503 310,1494 329,1476C348,1458 358,1430 358,1393C358,1356 348,1328 329,1310C310,1291 287,1282 260,1282C232,1282 209,1291 190,1310C171,1328 162,1356 162,1393M561,-492C498,-492 446,-484 407,-467l0,135C453,-345 498,-352 543,-352C595,-352 633,-338 658,-309C682,-281 694,-238 694,-180l0,1276l166,0l0,-1264C860,-384 760,-492 561,-492M680,1393C680,1431 689,1459 708,1477C727,1494 750,1503 778,1503C805,1503 828,1494 847,1476C866,1458 876,1430 876,1393C876,1356 866,1328 847,1310C828,1291 805,1282 778,1282C750,1282 727,1291 708,1310C689,1328 680,1356 680,1393z"/>
<glyph unicode="&#x134;" horiz-adv-x="547" d="M-12,-385C-75,-385 -124,-376 -160,-358l0,145C-113,-226 -63,-233 -12,-233C54,-233 104,-213 139,-173C173,-133 190,-75 190,0l0,1462l170,0l0,-1448C360,-113 328,-211 264,-280C200,-350 108,-385 -12,-385M-61,1602C24,1693 83,1759 117,1802C151,1845 176,1880 191,1907l166,0C372,1879 397,1843 434,1799C470,1754 530,1689 613,1602l0,-23l-119,0C435,1616 362,1678 273,1765C182,1676 109,1614 54,1579l-115,0z"/>
<glyph unicode="&#x135;" horiz-adv-x="518" d="M43,-492C-20,-492 -72,-484 -111,-467l0,135C-65,-345 -20,-352 25,-352C77,-352 115,-338 140,-309C164,-281 176,-238 176,-180l0,1276l166,0l0,-1264C342,-384 242,-492 43,-492M-83,1264C2,1355 61,1421 95,1464C129,1507 154,1542 169,1569l166,0C350,1541 375,1505 412,1461C448,1416 508,1351 591,1264l0,-23l-119,0C413,1278 340,1340 251,1427C160,1338 87,1276 32,1241l-115,0z"/>
<glyph unicode="&#x136;" horiz-adv-x="1257" d="M1257,0l-200,0l-533,709l-153,-136l0,-573l-170,0l0,1462l170,0l0,-725l663,725l201,0l-588,-635M506,-428C525,-385 543,-333 560,-271C577,-209 587,-160 592,-125l168,0l0,-18C753,-177 733,-226 700,-290C667,-355 633,-409 596,-453l-90,0z"/>
<glyph unicode="&#x137;" horiz-adv-x="1075" d="M340,561C369,602 412,655 471,721l354,375l197,0l-444,-467l475,-629l-201,0l-387,518l-125,-108l0,-410l-164,0l0,1556l164,0l0,-825C340,694 337,638 332,561M412,-428C431,-385 449,-333 466,-271C483,-209 493,-160 498,-125l168,0l0,-18C659,-177 639,-226 606,-290C573,-355 539,-409 502,-453l-90,0z"/>
<glyph unicode="&#x138;" horiz-adv-x="1061" d="M815,1094l207,0l-414,-482l443,-612l-201,0l-361,504l-135,-113l0,-391l-178,0l0,1094l178,0l0,-283C354,700 350,607 342,532z"/>
<glyph unicode="&#x139;" horiz-adv-x="1063" d="M201,0l0,1462l170,0l0,-1308l645,0l0,-154M236,1604C268,1645 303,1695 340,1754C377,1813 406,1864 427,1907l202,0l0,-21C600,1843 556,1789 498,1726C440,1663 390,1614 347,1579l-111,0z"/>
<glyph unicode="&#x13A;" horiz-adv-x="518" d="M342,0l-166,0l0,1556l166,0M163,1661C195,1702 230,1752 267,1811C304,1870 333,1921 354,1964l202,0l0,-21C527,1900 483,1846 425,1783C367,1720 317,1671 274,1636l-111,0z"/>
<glyph unicode="&#x13B;" horiz-adv-x="1063" d="M201,0l0,1462l170,0l0,-1308l645,0l0,-154M418,-428C437,-385 455,-333 472,-271C489,-209 499,-160 504,-125l168,0l0,-18C665,-177 645,-226 612,-290C579,-355 545,-409 508,-453l-90,0z"/>
<glyph unicode="&#x13C;" horiz-adv-x="518" d="M342,0l-166,0l0,1556l166,0M89,-428C108,-385 126,-333 143,-271C160,-209 170,-160 175,-125l168,0l0,-18C336,-177 316,-226 283,-290C250,-355 216,-409 179,-453l-90,0z"/>
<glyph unicode="&#x13D;" horiz-adv-x="1063" d="M201,0l0,1462l170,0l0,-1308l645,0l0,-154M678,1160C691,1197 704,1243 717,1299C730,1354 739,1409 746,1463l168,0l0,-18C907,1411 888,1363 859,1300C830,1237 799,1183 768,1136l-90,0z"/>
<glyph unicode="&#x13E;" horiz-adv-x="518" d="M342,0l-166,0l0,1556l166,0M436,1253C449,1290 462,1336 475,1392C488,1447 497,1502 504,1556l168,0l0,-18C665,1504 646,1456 617,1393C588,1330 557,1276 526,1229l-90,0z"/>
<glyph unicode="&#x13F;" horiz-adv-x="1063" d="M201,0l0,1462l170,0l0,-1308l645,0l0,-154M678,728C678,766 687,794 706,812C725,829 748,838 776,838C803,838 826,829 845,811C864,793 874,765 874,728C874,691 864,663 845,645C826,626 803,617 776,617C748,617 725,626 706,645C687,663 678,691 678,728z"/>
<glyph unicode="&#x140;" horiz-adv-x="643" d="M342,0l-166,0l0,1556l166,0M484,681C484,719 493,747 512,765C531,782 554,791 582,791C609,791 632,782 651,764C670,746 680,718 680,681C680,644 670,616 651,598C632,579 609,570 582,570C554,570 531,579 512,598C493,616 484,644 484,681z"/>
<glyph unicode="&#x141;" horiz-adv-x="1071" d="M201,0l0,508l-105,-59l-67,114l172,101l0,798l170,0l0,-698l297,174l67,-121l-364,-211l0,-452l645,0l0,-154z"/>
<glyph unicode="&#x142;" horiz-adv-x="535" d="M342,864l137,94l72,-112l-209,-141l0,-705l-166,0l0,596l-110,-72l-70,113l180,119l0,800l166,0z"/>
<glyph unicode="&#x143;" horiz-adv-x="1544" d="M1343,0l-194,0l-799,1227l-8,0C353,1083 358,951 358,831l0,-831l-157,0l0,1462l192,0l797,-1222l8,0C1197,258 1194,316 1189,414C1184,511 1183,581 1184,623l0,839l159,0M651,1604C683,1645 718,1695 755,1754C792,1813 821,1864 842,1907l202,0l0,-21C1015,1843 971,1789 913,1726C855,1663 805,1614 762,1579l-111,0z"/>
<glyph unicode="&#x144;" horiz-adv-x="1257" d="M926,0l0,709C926,798 906,865 865,909C824,953 761,975 674,975C559,975 475,944 422,882C369,820 342,718 342,575l0,-575l-166,0l0,1096l135,0l27,-150l8,0C380,1000 428,1042 489,1072C550,1101 619,1116 694,1116C826,1116 925,1084 992,1021C1059,957 1092,855 1092,715l0,-715M514,1266C546,1307 581,1357 618,1416C655,1475 684,1526 705,1569l202,0l0,-21C878,1505 834,1451 776,1388C718,1325 668,1276 625,1241l-111,0z"/>
<glyph unicode="&#x145;" horiz-adv-x="1544" d="M1343,0l-194,0l-799,1227l-8,0C353,1083 358,951 358,831l0,-831l-157,0l0,1462l192,0l797,-1222l8,0C1197,258 1194,316 1189,414C1184,511 1183,581 1184,623l0,839l159,0M574,-428C593,-385 611,-333 628,-271C645,-209 655,-160 660,-125l168,0l0,-18C821,-177 801,-226 768,-290C735,-355 701,-409 664,-453l-90,0z"/>
<glyph unicode="&#x146;" horiz-adv-x="1257" d="M926,0l0,709C926,798 906,865 865,909C824,953 761,975 674,975C559,975 475,944 422,882C369,820 342,718 342,575l0,-575l-166,0l0,1096l135,0l27,-150l8,0C380,1000 428,1042 489,1072C550,1101 619,1116 694,1116C826,1116 925,1084 992,1021C1059,957 1092,855 1092,715l0,-715M455,-428C474,-385 492,-333 509,-271C526,-209 536,-160 541,-125l168,0l0,-18C702,-177 682,-226 649,-290C616,-355 582,-409 545,-453l-90,0z"/>
<glyph unicode="&#x147;" horiz-adv-x="1544" d="M1343,0l-194,0l-799,1227l-8,0C353,1083 358,951 358,831l0,-831l-157,0l0,1462l192,0l797,-1222l8,0C1197,258 1194,316 1189,414C1184,511 1183,581 1184,623l0,839l159,0M434,1907l115,0C625,1858 698,1795 768,1718C855,1805 928,1868 989,1907l119,0l0,-25l-66,-68C946,1715 883,1637 852,1579l-166,0C671,1606 646,1641 612,1683C578,1725 519,1791 434,1882z"/>
<glyph unicode="&#x148;" horiz-adv-x="1257" d="M926,0l0,709C926,798 906,865 865,909C824,953 761,975 674,975C559,975 475,944 422,882C369,820 342,718 342,575l0,-575l-166,0l0,1096l135,0l27,-150l8,0C380,1000 428,1042 489,1072C550,1101 619,1116 694,1116C826,1116 925,1084 992,1021C1059,957 1092,855 1092,715l0,-715M299,1569l115,0C490,1520 563,1457 633,1380C720,1467 793,1530 854,1569l119,0l0,-25l-66,-68C811,1377 748,1299 717,1241l-166,0C536,1268 511,1303 477,1345C443,1387 384,1453 299,1544z"/>
<glyph unicode="&#x149;" horiz-adv-x="1395" d="M1061,0l0,709C1061,798 1041,865 1000,909C959,953 896,975 809,975C694,975 610,944 557,882C504,820 477,718 477,575l0,-575l-166,0l0,1096l135,0l27,-150l8,0C515,1000 563,1042 624,1072C685,1101 754,1116 829,1116C961,1116 1060,1084 1127,1021C1194,957 1227,855 1227,715l0,-715M285,1462l15,-22C283,1373 258,1296 225,1208C192,1119 158,1037 123,961l-122,0C48,1151 82,1318 103,1462z"/>
<glyph unicode="&#x14A;" horiz-adv-x="1544" d="M969,-385C904,-385 853,-376 817,-358l0,145C864,-226 916,-233 971,-233C1041,-233 1094,-213 1129,-172C1164,-131 1182,-74 1182,0l-832,1227l-8,0C353,1051 358,910 358,805l0,-805l-157,0l0,1462l192,0l797,-1202l8,0C1189,359 1184,484 1184,633l0,829l159,0l0,-1448C1343,-116 1311,-215 1247,-283C1182,-351 1090,-385 969,-385z"/>
<glyph unicode="&#x14B;" horiz-adv-x="1257" d="M805,-492C748,-492 701,-484 664,-467l0,135C704,-345 745,-352 786,-352C879,-352 926,-295 926,-180l0,889C926,798 906,865 865,909C824,953 761,975 674,975C559,975 475,944 422,882C369,820 342,718 342,575l0,-575l-166,0l0,1096l135,0l27,-150l10,0C383,1001 430,1043 490,1072C550,1101 617,1116 690,1116C825,1116 926,1084 993,1021C1059,957 1092,855 1092,715l0,-883C1092,-271 1069,-350 1022,-407C975,-464 903,-492 805,-492z"/>
<glyph unicode="&#x14C;" horiz-adv-x="1595" d="M1470,733C1470,499 1411,315 1293,181C1174,47 1010,-20 799,-20C584,-20 418,46 301,178C184,309 125,495 125,735C125,973 184,1158 301,1289C418,1420 585,1485 801,1485C1011,1485 1175,1418 1293,1285C1411,1152 1470,968 1470,733M305,733C305,535 347,385 432,283C516,180 638,129 799,129C961,129 1083,180 1166,282C1249,384 1290,534 1290,733C1290,930 1249,1079 1167,1181C1084,1282 962,1333 801,1333C639,1333 516,1282 432,1180C347,1077 305,928 305,733M500,1716l600,0l0,-137l-600,0z"/>
<glyph unicode="&#x14D;" horiz-adv-x="1237" d="M1122,549C1122,370 1077,231 987,131C897,30 773,-20 614,-20C516,-20 429,3 353,49C277,95 218,161 177,247C136,333 115,434 115,549C115,728 160,867 249,967C338,1066 462,1116 621,1116C774,1116 896,1065 987,963C1077,861 1122,723 1122,549M287,549C287,409 315,302 371,229C427,156 509,119 618,119C727,119 809,156 866,229C922,302 950,408 950,549C950,688 922,794 866,867C809,939 726,975 616,975C507,975 425,939 370,868C315,797 287,690 287,549M319,1378l600,0l0,-137l-600,0z"/>
<glyph unicode="&#x14E;" horiz-adv-x="1595" d="M1470,733C1470,499 1411,315 1293,181C1174,47 1010,-20 799,-20C584,-20 418,46 301,178C184,309 125,495 125,735C125,973 184,1158 301,1289C418,1420 585,1485 801,1485C1011,1485 1175,1418 1293,1285C1411,1152 1470,968 1470,733M305,733C305,535 347,385 432,283C516,180 638,129 799,129C961,129 1083,180 1166,282C1249,384 1290,534 1290,733C1290,930 1249,1079 1167,1181C1084,1282 962,1333 801,1333C639,1333 516,1282 432,1180C347,1077 305,928 305,733M791,1579C698,1579 625,1602 573,1648C521,1693 492,1760 486,1847l104,0C594,1814 603,1789 617,1770C630,1751 649,1738 674,1729C698,1720 738,1716 795,1716C862,1716 912,1727 944,1748C976,1769 995,1802 1002,1847l104,0C1099,1763 1068,1697 1013,1650C957,1603 883,1579 791,1579z"/>
<glyph unicode="&#x14F;" horiz-adv-x="1237" d="M1122,549C1122,370 1077,231 987,131C897,30 773,-20 614,-20C516,-20 429,3 353,49C277,95 218,161 177,247C136,333 115,434 115,549C115,728 160,867 249,967C338,1066 462,1116 621,1116C774,1116 896,1065 987,963C1077,861 1122,723 1122,549M287,549C287,409 315,302 371,229C427,156 509,119 618,119C727,119 809,156 866,229C922,302 950,408 950,549C950,688 922,794 866,867C809,939 726,975 616,975C507,975 425,939 370,868C315,797 287,690 287,549M612,1241C519,1241 446,1264 394,1310C342,1355 313,1422 307,1509l104,0C415,1476 424,1451 438,1432C451,1413 470,1400 495,1391C519,1382 559,1378 616,1378C683,1378 733,1389 765,1410C797,1431 816,1464 823,1509l104,0C920,1425 889,1359 834,1312C778,1265 704,1241 612,1241z"/>
<glyph unicode="&#x150;" horiz-adv-x="1595" d="M1470,733C1470,499 1411,315 1293,181C1174,47 1010,-20 799,-20C584,-20 418,46 301,178C184,309 125,495 125,735C125,973 184,1158 301,1289C418,1420 585,1485 801,1485C1011,1485 1175,1418 1293,1285C1411,1152 1470,968 1470,733M305,733C305,535 347,385 432,283C516,180 638,129 799,129C961,129 1083,180 1166,282C1249,384 1290,534 1290,733C1290,930 1249,1079 1167,1181C1084,1282 962,1333 801,1333C639,1333 516,1282 432,1180C347,1077 305,928 305,733M507,1604C531,1636 561,1683 598,1745C635,1807 663,1861 684,1907l186,0l0,-21C845,1844 805,1790 748,1725C691,1660 643,1611 604,1579l-97,0M864,1604C897,1649 930,1702 964,1761C997,1820 1023,1868 1040,1907l186,0l0,-21C1201,1844 1161,1790 1104,1725C1047,1660 999,1611 960,1579l-96,0z"/>
<glyph unicode="&#x151;" horiz-adv-x="1237" d="M1122,549C1122,370 1077,231 987,131C897,30 773,-20 614,-20C516,-20 429,3 353,49C277,95 218,161 177,247C136,333 115,434 115,549C115,728 160,867 249,967C338,1066 462,1116 621,1116C774,1116 896,1065 987,963C1077,861 1122,723 1122,549M287,549C287,409 315,302 371,229C427,156 509,119 618,119C727,119 809,156 866,229C922,302 950,408 950,549C950,688 922,794 866,867C809,939 726,975 616,975C507,975 425,939 370,868C315,797 287,690 287,549M321,1266C345,1298 375,1345 412,1407C449,1469 477,1523 498,1569l186,0l0,-21C659,1506 619,1452 562,1387C505,1322 457,1273 418,1241l-97,0M678,1266C711,1311 744,1364 778,1423C811,1482 837,1530 854,1569l186,0l0,-21C1015,1506 975,1452 918,1387C861,1322 813,1273 774,1241l-96,0z"/>
<glyph unicode="&#x152;" horiz-adv-x="1890" d="M1767,0l-768,0C931,-13 866,-20 805,-20C587,-20 419,46 302,177C184,308 125,494 125,735C125,975 183,1160 299,1290C415,1420 580,1485 793,1485C861,1485 925,1477 985,1462l782,0l0,-151l-589,0l0,-471l551,0l0,-150l-551,0l0,-538l589,0M811,1333C645,1333 519,1282 434,1181C348,1079 305,930 305,733C305,535 348,385 434,283C519,180 644,129 809,129C884,129 950,140 1008,162l0,1141C950,1323 884,1333 811,1333z"/>
<glyph unicode="&#x153;" horiz-adv-x="1929" d="M1430,-20C1235,-20 1095,58 1012,215C971,138 915,79 846,40C776,0 695,-20 604,-20C455,-20 336,31 247,133C158,234 113,373 113,549C113,726 157,864 244,964C331,1064 453,1114 610,1114C697,1114 775,1094 844,1055C912,1015 967,957 1008,881C1047,956 1098,1013 1162,1054C1226,1094 1300,1114 1384,1114C1518,1114 1625,1070 1704,982C1783,893 1823,774 1823,623l0,-105l-729,0C1099,256 1212,125 1432,125C1495,125 1553,131 1607,143C1660,154 1716,173 1774,199l0,-148C1715,25 1661,7 1610,-4C1559,-15 1499,-20 1430,-20M287,549C287,408 312,302 363,229C414,156 495,119 606,119C715,119 795,155 846,226C897,297 922,402 922,541C922,688 896,798 845,869C793,940 712,975 602,975C491,975 411,939 362,867C312,795 287,689 287,549M1382,975C1297,975 1231,948 1183,893C1134,838 1106,758 1098,653l544,0C1642,758 1620,838 1576,893C1532,948 1467,975 1382,975z"/>
<glyph unicode="&#x154;" horiz-adv-x="1266" d="M371,608l0,-608l-170,0l0,1462l401,0C781,1462 914,1428 1000,1359C1085,1290 1128,1187 1128,1049C1128,856 1030,725 834,657l397,-657l-201,0l-354,608M371,754l233,0C724,754 812,778 868,826C924,873 952,945 952,1040C952,1137 924,1206 867,1249C810,1292 718,1313 592,1313l-221,0M514,1604C546,1645 581,1695 618,1754C655,1813 684,1864 705,1907l202,0l0,-21C878,1843 834,1789 776,1726C718,1663 668,1614 625,1579l-111,0z"/>
<glyph unicode="&#x155;" horiz-adv-x="836" d="M676,1116C725,1116 768,1112 807,1104l-23,-154C739,960 699,965 664,965C575,965 500,929 437,857C374,785 342,695 342,588l0,-588l-166,0l0,1096l137,0l19,-203l8,0C381,964 430,1019 487,1058C544,1097 607,1116 676,1116M357,1266C389,1307 424,1357 461,1416C498,1475 527,1526 548,1569l202,0l0,-21C721,1505 677,1451 619,1388C561,1325 511,1276 468,1241l-111,0z"/>
<glyph unicode="&#x156;" horiz-adv-x="1266" d="M371,608l0,-608l-170,0l0,1462l401,0C781,1462 914,1428 1000,1359C1085,1290 1128,1187 1128,1049C1128,856 1030,725 834,657l397,-657l-201,0l-354,608M371,754l233,0C724,754 812,778 868,826C924,873 952,945 952,1040C952,1137 924,1206 867,1249C810,1292 718,1313 592,1313l-221,0M494,-428C513,-385 531,-333 548,-271C565,-209 575,-160 580,-125l168,0l0,-18C741,-177 721,-226 688,-290C655,-355 621,-409 584,-453l-90,0z"/>
<glyph unicode="&#x157;" horiz-adv-x="836" d="M676,1116C725,1116 768,1112 807,1104l-23,-154C739,960 699,965 664,965C575,965 500,929 437,857C374,785 342,695 342,588l0,-588l-166,0l0,1096l137,0l19,-203l8,0C381,964 430,1019 487,1058C544,1097 607,1116 676,1116M96,-428C115,-385 133,-333 150,-271C167,-209 177,-160 182,-125l168,0l0,-18C343,-177 323,-226 290,-290C257,-355 223,-409 186,-453l-90,0z"/>
<glyph unicode="&#x158;" horiz-adv-x="1266" d="M371,608l0,-608l-170,0l0,1462l401,0C781,1462 914,1428 1000,1359C1085,1290 1128,1187 1128,1049C1128,856 1030,725 834,657l397,-657l-201,0l-354,608M371,754l233,0C724,754 812,778 868,826C924,873 952,945 952,1040C952,1137 924,1206 867,1249C810,1292 718,1313 592,1313l-221,0M295,1907l115,0C486,1858 559,1795 629,1718C716,1805 789,1868 850,1907l119,0l0,-25l-66,-68C807,1715 744,1637 713,1579l-166,0C532,1606 507,1641 473,1683C439,1725 380,1791 295,1882z"/>
<glyph unicode="&#x159;" horiz-adv-x="836" d="M676,1116C725,1116 768,1112 807,1104l-23,-154C739,960 699,965 664,965C575,965 500,929 437,857C374,785 342,695 342,588l0,-588l-166,0l0,1096l137,0l19,-203l8,0C381,964 430,1019 487,1058C544,1097 607,1116 676,1116M130,1569l115,0C321,1520 394,1457 464,1380C551,1467 624,1530 685,1569l119,0l0,-25l-66,-68C642,1377 579,1299 548,1241l-166,0C367,1268 342,1303 308,1345C274,1387 215,1453 130,1544z"/>
<glyph unicode="&#x15A;" horiz-adv-x="1124" d="M1026,389C1026,260 979,160 886,88C793,16 666,-20 506,-20C333,-20 199,2 106,47l0,164C166,186 231,166 302,151C373,136 443,129 512,129C625,129 711,151 768,194C825,237 854,296 854,373C854,424 844,465 824,498C803,530 769,560 722,587C674,614 601,645 504,680C368,729 271,786 213,853C154,920 125,1007 125,1114C125,1227 167,1316 252,1383C337,1450 449,1483 588,1483C733,1483 867,1456 989,1403l-53,-148C815,1306 698,1331 584,1331C494,1331 424,1312 373,1273C322,1234 297,1181 297,1112C297,1061 306,1020 325,988C344,955 375,926 420,899C464,872 532,842 623,809C776,754 882,696 940,633C997,570 1026,489 1026,389M473,1604C505,1645 540,1695 577,1754C614,1813 643,1864 664,1907l202,0l0,-21C837,1843 793,1789 735,1726C677,1663 627,1614 584,1579l-111,0z"/>
<glyph unicode="&#x15B;" horiz-adv-x="977" d="M883,299C883,197 845,118 769,63C693,8 586,-20 449,-20C304,-20 190,3 109,49l0,154C162,176 218,155 279,140C339,125 397,117 453,117C540,117 606,131 653,159C700,186 723,228 723,285C723,328 705,364 668,395C631,425 558,461 451,502C349,540 277,573 234,602C191,630 159,662 138,698C117,734 106,777 106,827C106,916 142,987 215,1039C288,1090 387,1116 514,1116C632,1116 747,1092 860,1044l-59,-135C691,954 591,977 502,977C423,977 364,965 324,940C284,915 264,881 264,838C264,809 272,784 287,763C302,742 326,723 359,704C392,685 456,658 551,623C681,576 769,528 815,480C860,432 883,372 883,299M371,1266C403,1307 438,1357 475,1416C512,1475 541,1526 562,1569l202,0l0,-21C735,1505 691,1451 633,1388C575,1325 525,1276 482,1241l-111,0z"/>
<glyph unicode="&#x15C;" horiz-adv-x="1124" d="M1026,389C1026,260 979,160 886,88C793,16 666,-20 506,-20C333,-20 199,2 106,47l0,164C166,186 231,166 302,151C373,136 443,129 512,129C625,129 711,151 768,194C825,237 854,296 854,373C854,424 844,465 824,498C803,530 769,560 722,587C674,614 601,645 504,680C368,729 271,786 213,853C154,920 125,1007 125,1114C125,1227 167,1316 252,1383C337,1450 449,1483 588,1483C733,1483 867,1456 989,1403l-53,-148C815,1306 698,1331 584,1331C494,1331 424,1312 373,1273C322,1234 297,1181 297,1112C297,1061 306,1020 325,988C344,955 375,926 420,899C464,872 532,842 623,809C776,754 882,696 940,633C997,570 1026,489 1026,389M246,1602C331,1693 390,1759 424,1802C458,1845 483,1880 498,1907l166,0C679,1879 704,1843 741,1799C777,1754 837,1689 920,1602l0,-23l-119,0C742,1616 669,1678 580,1765C489,1676 416,1614 361,1579l-115,0z"/>
<glyph unicode="&#x15D;" horiz-adv-x="977" d="M883,299C883,197 845,118 769,63C693,8 586,-20 449,-20C304,-20 190,3 109,49l0,154C162,176 218,155 279,140C339,125 397,117 453,117C540,117 606,131 653,159C700,186 723,228 723,285C723,328 705,364 668,395C631,425 558,461 451,502C349,540 277,573 234,602C191,630 159,662 138,698C117,734 106,777 106,827C106,916 142,987 215,1039C288,1090 387,1116 514,1116C632,1116 747,1092 860,1044l-59,-135C691,954 591,977 502,977C423,977 364,965 324,940C284,915 264,881 264,838C264,809 272,784 287,763C302,742 326,723 359,704C392,685 456,658 551,623C681,576 769,528 815,480C860,432 883,372 883,299M163,1264C248,1355 307,1421 341,1464C375,1507 400,1542 415,1569l166,0C596,1541 621,1505 658,1461C694,1416 754,1351 837,1264l0,-23l-119,0C659,1278 586,1340 497,1427C406,1338 333,1276 278,1241l-115,0z"/>
<glyph unicode="&#x15E;" horiz-adv-x="1124" d="M1026,389C1026,260 979,160 886,88C793,16 666,-20 506,-20C333,-20 199,2 106,47l0,164C166,186 231,166 302,151C373,136 443,129 512,129C625,129 711,151 768,194C825,237 854,296 854,373C854,424 844,465 824,498C803,530 769,560 722,587C674,614 601,645 504,680C368,729 271,786 213,853C154,920 125,1007 125,1114C125,1227 167,1316 252,1383C337,1450 449,1483 588,1483C733,1483 867,1456 989,1403l-53,-148C815,1306 698,1331 584,1331C494,1331 424,1312 373,1273C322,1234 297,1181 297,1112C297,1061 306,1020 325,988C344,955 375,926 420,899C464,872 532,842 623,809C776,754 882,696 940,633C997,570 1026,489 1026,389M731,-289C731,-354 706,-404 655,-439C604,-474 528,-492 428,-492C394,-492 362,-489 332,-483l0,106C362,-382 397,-385 436,-385C489,-385 529,-378 556,-365C583,-352 596,-327 596,-291C596,-262 583,-239 557,-221C530,-204 481,-189 408,-178l88,178l110,0l-55,-115C671,-141 731,-199 731,-289z"/>
<glyph unicode="&#x15F;" horiz-adv-x="977" d="M883,299C883,197 845,118 769,63C693,8 586,-20 449,-20C304,-20 190,3 109,49l0,154C162,176 218,155 279,140C339,125 397,117 453,117C540,117 606,131 653,159C700,186 723,228 723,285C723,328 705,364 668,395C631,425 558,461 451,502C349,540 277,573 234,602C191,630 159,662 138,698C117,734 106,777 106,827C106,916 142,987 215,1039C288,1090 387,1116 514,1116C632,1116 747,1092 860,1044l-59,-135C691,954 591,977 502,977C423,977 364,965 324,940C284,915 264,881 264,838C264,809 272,784 287,763C302,742 326,723 359,704C392,685 456,658 551,623C681,576 769,528 815,480C860,432 883,372 883,299M649,-289C649,-354 624,-404 573,-439C522,-474 446,-492 346,-492C312,-492 280,-489 250,-483l0,106C280,-382 315,-385 354,-385C407,-385 447,-378 474,-365C501,-352 514,-327 514,-291C514,-262 501,-239 475,-221C448,-204 399,-189 326,-178l88,178l110,0l-55,-115C589,-141 649,-199 649,-289z"/>
<glyph unicode="&#x160;" horiz-adv-x="1124" d="M1026,389C1026,260 979,160 886,88C793,16 666,-20 506,-20C333,-20 199,2 106,47l0,164C166,186 231,166 302,151C373,136 443,129 512,129C625,129 711,151 768,194C825,237 854,296 854,373C854,424 844,465 824,498C803,530 769,560 722,587C674,614 601,645 504,680C368,729 271,786 213,853C154,920 125,1007 125,1114C125,1227 167,1316 252,1383C337,1450 449,1483 588,1483C733,1483 867,1456 989,1403l-53,-148C815,1306 698,1331 584,1331C494,1331 424,1312 373,1273C322,1234 297,1181 297,1112C297,1061 306,1020 325,988C344,955 375,926 420,899C464,872 532,842 623,809C776,754 882,696 940,633C997,570 1026,489 1026,389M240,1907l115,0C431,1858 504,1795 574,1718C661,1805 734,1868 795,1907l119,0l0,-25l-66,-68C752,1715 689,1637 658,1579l-166,0C477,1606 452,1641 418,1683C384,1725 325,1791 240,1882z"/>
<glyph unicode="&#x161;" horiz-adv-x="977" d="M883,299C883,197 845,118 769,63C693,8 586,-20 449,-20C304,-20 190,3 109,49l0,154C162,176 218,155 279,140C339,125 397,117 453,117C540,117 606,131 653,159C700,186 723,228 723,285C723,328 705,364 668,395C631,425 558,461 451,502C349,540 277,573 234,602C191,630 159,662 138,698C117,734 106,777 106,827C106,916 142,987 215,1039C288,1090 387,1116 514,1116C632,1116 747,1092 860,1044l-59,-135C691,954 591,977 502,977C423,977 364,965 324,940C284,915 264,881 264,838C264,809 272,784 287,763C302,742 326,723 359,704C392,685 456,658 551,623C681,576 769,528 815,480C860,432 883,372 883,299M165,1569l115,0C356,1520 429,1457 499,1380C586,1467 659,1530 720,1569l119,0l0,-25l-66,-68C677,1377 614,1299 583,1241l-166,0C402,1268 377,1303 343,1345C309,1387 250,1453 165,1544z"/>
<glyph unicode="&#x21A;" horiz-adv-x="1133" d="M651,0l-170,0l0,1311l-463,0l0,151l1096,0l0,-151l-463,0M394,-428C413,-385 431,-333 448,-271C465,-209 475,-160 480,-125l168,0l0,-18C641,-177 621,-226 588,-290C555,-355 521,-409 484,-453l-90,0z"/>
<glyph unicode="&#x21B;" horiz-adv-x="723" d="M530,117C559,117 588,119 615,124C642,128 664,132 680,137l0,-127C662,1 636,-6 601,-11C566,-17 534,-20 506,-20C294,-20 188,92 188,315l0,652l-157,0l0,80l157,69l70,234l96,0l0,-254l318,0l0,-129l-318,0l0,-645C354,256 370,205 401,170C432,135 475,117 530,117M243,-428C262,-385 280,-333 297,-271C314,-209 324,-160 329,-125l168,0l0,-18C490,-177 470,-226 437,-290C404,-355 370,-409 333,-453l-90,0z"/>
<glyph unicode="&#x164;" horiz-adv-x="1133" d="M651,0l-170,0l0,1311l-463,0l0,151l1096,0l0,-151l-463,0M232,1907l115,0C423,1858 496,1795 566,1718C653,1805 726,1868 787,1907l119,0l0,-25l-66,-68C744,1715 681,1637 650,1579l-166,0C469,1606 444,1641 410,1683C376,1725 317,1791 232,1882z"/>
<glyph unicode="&#x165;" horiz-adv-x="723" d="M530,117C559,117 588,119 615,124C642,128 664,132 680,137l0,-127C662,1 636,-6 601,-11C566,-17 534,-20 506,-20C294,-20 188,92 188,315l0,652l-157,0l0,80l157,69l70,234l96,0l0,-254l318,0l0,-129l-318,0l0,-645C354,256 370,205 401,170C432,135 475,117 530,117M491,1253C504,1290 517,1336 530,1392C543,1447 552,1502 559,1556l168,0l0,-18C720,1504 701,1456 672,1393C643,1330 612,1276 581,1229l-90,0z"/>
<glyph unicode="&#x166;" horiz-adv-x="1133" d="M481,815l0,496l-463,0l0,151l1096,0l0,-151l-463,0l0,-496l310,0l0,-141l-310,0l0,-674l-170,0l0,674l-313,0l0,141z"/>
<glyph unicode="&#x167;" horiz-adv-x="723" d="M535,117C592,117 640,124 680,137l0,-127C659,1 630,-7 595,-12C560,-17 528,-20 500,-20C292,-20 188,96 188,328l0,254l-141,0l0,129l141,0l0,256l-157,0l0,80l157,69l70,234l96,0l0,-254l318,0l0,-129l-318,0l0,-256l301,0l0,-129l-301,0l0,-244C354,191 414,117 535,117z"/>
<glyph unicode="&#x168;" horiz-adv-x="1491" d="M1305,1462l0,-946C1305,349 1255,218 1154,123C1053,28 915,-20 739,-20C563,-20 427,28 331,124C234,220 186,352 186,520l0,942l170,0l0,-954C356,386 389,292 456,227C523,162 621,129 750,129C873,129 968,162 1035,228C1102,293 1135,387 1135,510l0,952M899,1581C870,1581 842,1587 815,1600C788,1612 761,1626 735,1641C708,1656 683,1669 659,1682C634,1694 611,1700 588,1700C555,1700 530,1690 513,1670C496,1650 482,1620 473,1579l-98,0C384,1660 407,1723 446,1769C484,1814 533,1837 594,1837C625,1837 654,1831 683,1819C712,1806 739,1793 765,1778C791,1763 816,1749 840,1737C864,1724 887,1718 908,1718C941,1718 965,1728 981,1748C997,1767 1010,1798 1020,1839l99,0C1110,1758 1087,1695 1050,1650C1012,1604 962,1581 899,1581z"/>
<glyph unicode="&#x169;" horiz-adv-x="1257" d="M332,1096l0,-711C332,296 352,229 393,185C434,141 497,119 584,119C699,119 783,150 836,213C889,276 915,378 915,520l0,576l166,0l0,-1096l-137,0l-24,147l-9,0C877,93 830,52 770,23C709,-6 640,-20 563,-20C430,-20 330,12 264,75C197,138 164,240 164,379l0,717M779,1243C750,1243 722,1249 695,1262C668,1274 641,1288 615,1303C588,1318 563,1331 539,1344C514,1356 491,1362 468,1362C435,1362 410,1352 393,1332C376,1312 362,1282 353,1241l-98,0C264,1322 287,1385 326,1431C364,1476 413,1499 474,1499C505,1499 534,1493 563,1481C592,1468 619,1455 645,1440C671,1425 696,1411 720,1399C744,1386 767,1380 788,1380C821,1380 845,1390 861,1410C877,1429 890,1460 900,1501l99,0C990,1420 967,1357 930,1312C892,1266 842,1243 779,1243z"/>
<glyph unicode="&#x16A;" horiz-adv-x="1491" d="M1305,1462l0,-946C1305,349 1255,218 1154,123C1053,28 915,-20 739,-20C563,-20 427,28 331,124C234,220 186,352 186,520l0,942l170,0l0,-954C356,386 389,292 456,227C523,162 621,129 750,129C873,129 968,162 1035,228C1102,293 1135,387 1135,510l0,952M446,1716l600,0l0,-137l-600,0z"/>
<glyph unicode="&#x16B;" horiz-adv-x="1257" d="M332,1096l0,-711C332,296 352,229 393,185C434,141 497,119 584,119C699,119 783,150 836,213C889,276 915,378 915,520l0,576l166,0l0,-1096l-137,0l-24,147l-9,0C877,93 830,52 770,23C709,-6 640,-20 563,-20C430,-20 330,12 264,75C197,138 164,240 164,379l0,717M326,1378l600,0l0,-137l-600,0z"/>
<glyph unicode="&#x16C;" horiz-adv-x="1491" d="M1305,1462l0,-946C1305,349 1255,218 1154,123C1053,28 915,-20 739,-20C563,-20 427,28 331,124C234,220 186,352 186,520l0,942l170,0l0,-954C356,386 389,292 456,227C523,162 621,129 750,129C873,129 968,162 1035,228C1102,293 1135,387 1135,510l0,952M737,1579C644,1579 571,1602 519,1648C467,1693 438,1760 432,1847l104,0C540,1814 549,1789 563,1770C576,1751 595,1738 620,1729C644,1720 684,1716 741,1716C808,1716 858,1727 890,1748C922,1769 941,1802 948,1847l104,0C1045,1763 1014,1697 959,1650C903,1603 829,1579 737,1579z"/>
<glyph unicode="&#x16D;" horiz-adv-x="1257" d="M332,1096l0,-711C332,296 352,229 393,185C434,141 497,119 584,119C699,119 783,150 836,213C889,276 915,378 915,520l0,576l166,0l0,-1096l-137,0l-24,147l-9,0C877,93 830,52 770,23C709,-6 640,-20 563,-20C430,-20 330,12 264,75C197,138 164,240 164,379l0,717M616,1241C523,1241 450,1264 398,1310C346,1355 317,1422 311,1509l104,0C419,1476 428,1451 442,1432C455,1413 474,1400 499,1391C523,1382 563,1378 620,1378C687,1378 737,1389 769,1410C801,1431 820,1464 827,1509l104,0C924,1425 893,1359 838,1312C782,1265 708,1241 616,1241z"/>
<glyph unicode="&#x16E;" horiz-adv-x="1491" d="M1305,1462l0,-946C1305,349 1255,218 1154,123C1053,28 915,-20 739,-20C563,-20 427,28 331,124C234,220 186,352 186,520l0,942l170,0l0,-954C356,386 389,292 456,227C523,162 621,129 750,129C873,129 968,162 1035,228C1102,293 1135,387 1135,510l0,952M969,1796C969,1731 949,1678 908,1639C867,1599 812,1579 744,1579C677,1579 623,1599 583,1638C543,1677 523,1729 523,1794C523,1859 543,1911 584,1950C624,1988 677,2007 744,2007C811,2007 866,1987 907,1948C948,1908 969,1857 969,1796M861,1794C861,1831 850,1860 828,1881C806,1901 778,1911 744,1911C710,1911 682,1901 660,1881C638,1860 627,1831 627,1794C627,1757 637,1728 657,1708C677,1687 706,1677 744,1677C779,1677 807,1687 829,1708C850,1728 861,1757 861,1794z"/>
<glyph unicode="&#x16F;" horiz-adv-x="1257" d="M332,1096l0,-711C332,296 352,229 393,185C434,141 497,119 584,119C699,119 783,150 836,213C889,276 915,378 915,520l0,576l166,0l0,-1096l-137,0l-24,147l-9,0C877,93 830,52 770,23C709,-6 640,-20 563,-20C430,-20 330,12 264,75C197,138 164,240 164,379l0,717M848,1458C848,1393 828,1340 787,1301C746,1261 691,1241 623,1241C556,1241 502,1261 462,1300C422,1339 402,1391 402,1456C402,1521 422,1573 463,1612C503,1650 556,1669 623,1669C690,1669 745,1649 786,1610C827,1570 848,1519 848,1458M740,1456C740,1493 729,1522 707,1543C685,1563 657,1573 623,1573C589,1573 561,1563 539,1543C517,1522 506,1493 506,1456C506,1419 516,1390 536,1370C556,1349 585,1339 623,1339C658,1339 686,1349 708,1370C729,1390 740,1419 740,1456z"/>
<glyph unicode="&#x170;" horiz-adv-x="1491" d="M1305,1462l0,-946C1305,349 1255,218 1154,123C1053,28 915,-20 739,-20C563,-20 427,28 331,124C234,220 186,352 186,520l0,942l170,0l0,-954C356,386 389,292 456,227C523,162 621,129 750,129C873,129 968,162 1035,228C1102,293 1135,387 1135,510l0,952M456,1604C480,1636 510,1683 547,1745C584,1807 612,1861 633,1907l186,0l0,-21C794,1844 754,1790 697,1725C640,1660 592,1611 553,1579l-97,0M813,1604C846,1649 879,1702 913,1761C946,1820 972,1868 989,1907l186,0l0,-21C1150,1844 1110,1790 1053,1725C996,1660 948,1611 909,1579l-96,0z"/>
<glyph unicode="&#x171;" horiz-adv-x="1257" d="M332,1096l0,-711C332,296 352,229 393,185C434,141 497,119 584,119C699,119 783,150 836,213C889,276 915,378 915,520l0,576l166,0l0,-1096l-137,0l-24,147l-9,0C877,93 830,52 770,23C709,-6 640,-20 563,-20C430,-20 330,12 264,75C197,138 164,240 164,379l0,717M335,1266C359,1298 389,1345 426,1407C463,1469 491,1523 512,1569l186,0l0,-21C673,1506 633,1452 576,1387C519,1322 471,1273 432,1241l-97,0M692,1266C725,1311 758,1364 792,1423C825,1482 851,1530 868,1569l186,0l0,-21C1029,1506 989,1452 932,1387C875,1322 827,1273 788,1241l-96,0z"/>
<glyph unicode="&#x172;" horiz-adv-x="1491" d="M1305,1462l0,-946C1305,349 1255,218 1154,123C1053,28 915,-20 739,-20C563,-20 427,28 331,124C234,220 186,352 186,520l0,942l170,0l0,-954C356,386 389,292 456,227C523,162 621,129 750,129C873,129 968,162 1035,228C1102,293 1135,387 1135,510l0,952M723,-238C723,-301 754,-332 817,-332C845,-332 877,-328 914,-319l0,-109C871,-440 829,-446 789,-446C651,-446 582,-383 582,-258C582,-211 596,-165 625,-120C654,-75 692,-35 740,0l120,0C815,-44 781,-84 758,-120C735,-157 723,-196 723,-238z"/>
<glyph unicode="&#x173;" horiz-adv-x="1257" d="M332,1096l0,-711C332,296 352,229 393,185C434,141 497,119 584,119C699,119 783,150 836,213C889,276 915,378 915,520l0,576l166,0l0,-1096l-137,0l-24,147l-9,0C877,93 830,52 770,23C709,-6 640,-20 563,-20C430,-20 330,12 264,75C197,138 164,240 164,379l0,717M934,-238C934,-301 965,-332 1028,-332C1056,-332 1088,-328 1125,-319l0,-109C1082,-440 1040,-446 1000,-446C862,-446 793,-383 793,-258C793,-211 807,-165 836,-120C865,-75 903,-35 951,0l120,0C1026,-44 992,-84 969,-120C946,-157 934,-196 934,-238z"/>
<glyph unicode="&#x174;" horiz-adv-x="1896" d="M1477,0l-168,0l-295,979C1000,1022 984,1077 967,1143C950,1209 941,1249 940,1262C925,1174 902,1078 870,973l-286,-973l-168,0l-389,1462l180,0l231,-903C470,432 493,318 508,215C526,337 553,456 588,573l262,889l180,0l275,-897C1337,462 1364,345 1386,215C1399,310 1423,425 1458,561l230,901l180,0M608,1602C693,1693 752,1759 786,1802C820,1845 845,1880 860,1907l166,0C1041,1879 1066,1843 1103,1799C1139,1754 1199,1689 1282,1602l0,-23l-119,0C1104,1616 1031,1678 942,1765C851,1676 778,1614 723,1579l-115,0z"/>
<glyph unicode="&#x175;" horiz-adv-x="1593" d="M1071,0l-201,643C857,682 834,772 799,911l-8,0C764,794 741,704 721,641l-207,-641l-192,0l-299,1096l174,0C268,821 322,611 359,467C396,323 417,226 422,176l8,0C437,214 449,263 466,324C482,384 496,432 508,467l201,629l180,0l196,-629C1122,352 1148,256 1161,178l8,0C1172,202 1179,239 1191,289C1202,339 1272,608 1399,1096l172,0l-303,-1096M461,1264C546,1355 605,1421 639,1464C673,1507 698,1542 713,1569l166,0C894,1541 919,1505 956,1461C992,1416 1052,1351 1135,1264l0,-23l-119,0C957,1278 884,1340 795,1427C704,1338 631,1276 576,1241l-115,0z"/>
<glyph unicode="&#x176;" horiz-adv-x="1147" d="M573,731l390,731l184,0l-488,-895l0,-567l-172,0l0,559l-487,903l186,0M236,1602C321,1693 380,1759 414,1802C448,1845 473,1880 488,1907l166,0C669,1879 694,1843 731,1799C767,1754 827,1689 910,1602l0,-23l-119,0C732,1616 659,1678 570,1765C479,1676 406,1614 351,1579l-115,0z"/>
<glyph unicode="&#x177;" horiz-adv-x="1032" d="M2,1096l178,0l240,-625C473,328 505,225 518,162l8,0C535,196 553,254 581,337C608,419 699,672 852,1096l178,0l-471,-1248C512,-275 458,-363 396,-414C333,-466 257,-492 166,-492C115,-492 65,-486 16,-475l0,133C53,-350 94,-354 139,-354C253,-354 334,-290 383,-162l61,156M185,1264C270,1355 329,1421 363,1464C397,1507 422,1542 437,1569l166,0C618,1541 643,1505 680,1461C716,1416 776,1351 859,1264l0,-23l-119,0C681,1278 608,1340 519,1427C428,1338 355,1276 300,1241l-115,0z"/>
<glyph unicode="&#x178;" horiz-adv-x="1147" d="M573,731l390,731l184,0l-488,-895l0,-567l-172,0l0,559l-487,903l186,0M294,1731C294,1766 303,1791 321,1806C338,1821 359,1829 384,1829C409,1829 431,1821 450,1806C468,1791 477,1766 477,1731C477,1698 468,1673 450,1657C431,1640 409,1632 384,1632C359,1632 338,1640 321,1657C303,1673 294,1698 294,1731M675,1731C675,1766 684,1791 702,1806C719,1821 740,1829 765,1829C790,1829 811,1821 830,1806C848,1791 857,1766 857,1731C857,1698 848,1673 830,1657C811,1640 790,1632 765,1632C740,1632 719,1640 702,1657C684,1673 675,1698 675,1731z"/>
<glyph unicode="&#x179;" horiz-adv-x="1169" d="M1087,0l-1005,0l0,133l776,1176l-752,0l0,153l959,0l0,-133l-776,-1175l798,0M459,1604C491,1645 526,1695 563,1754C600,1813 629,1864 650,1907l202,0l0,-21C823,1843 779,1789 721,1726C663,1663 613,1614 570,1579l-111,0z"/>
<glyph unicode="&#x17A;" horiz-adv-x="958" d="M877,0l-795,0l0,113l598,854l-561,0l0,129l743,0l0,-129l-590,-838l605,0M369,1266C401,1307 436,1357 473,1416C510,1475 539,1526 560,1569l202,0l0,-21C733,1505 689,1451 631,1388C573,1325 523,1276 480,1241l-111,0z"/>
<glyph unicode="&#x17B;" horiz-adv-x="1169" d="M1087,0l-1005,0l0,133l776,1176l-752,0l0,153l959,0l0,-133l-776,-1175l798,0M486,1731C486,1769 495,1797 514,1815C533,1832 556,1841 584,1841C611,1841 634,1832 653,1814C672,1796 682,1768 682,1731C682,1694 672,1666 653,1648C634,1629 611,1620 584,1620C556,1620 533,1629 514,1648C495,1666 486,1694 486,1731z"/>
<glyph unicode="&#x17C;" horiz-adv-x="958" d="M877,0l-795,0l0,113l598,854l-561,0l0,129l743,0l0,-129l-590,-838l605,0M385,1393C385,1431 394,1459 413,1477C432,1494 455,1503 483,1503C510,1503 533,1494 552,1476C571,1458 581,1430 581,1393C581,1356 571,1328 552,1310C533,1291 510,1282 483,1282C455,1282 432,1291 413,1310C394,1328 385,1356 385,1393z"/>
<glyph unicode="&#x17D;" horiz-adv-x="1169" d="M1087,0l-1005,0l0,133l776,1176l-752,0l0,153l959,0l0,-133l-776,-1175l798,0M249,1907l115,0C440,1858 513,1795 583,1718C670,1805 743,1868 804,1907l119,0l0,-25l-66,-68C761,1715 698,1637 667,1579l-166,0C486,1606 461,1641 427,1683C393,1725 334,1791 249,1882z"/>
<glyph unicode="&#x17E;" horiz-adv-x="958" d="M877,0l-795,0l0,113l598,854l-561,0l0,129l743,0l0,-129l-590,-838l605,0M146,1569l115,0C337,1520 410,1457 480,1380C567,1467 640,1530 701,1569l119,0l0,-25l-66,-68C658,1377 595,1299 564,1241l-166,0C383,1268 358,1303 324,1345C290,1387 231,1453 146,1544z"/>
<glyph unicode="&#x17F;" horiz-adv-x="655" d="M342,0l-166,0l0,1180C176,1438 296,1567 535,1567C599,1567 664,1555 731,1530l-43,-133C630,1417 577,1427 528,1427C463,1427 416,1407 387,1366C357,1325 342,1263 342,1182z"/>
<glyph unicode="&#x192;" horiz-adv-x="1182" d="M328,-492C282,-492 238,-486 195,-473l0,139C242,-346 285,-352 326,-352C389,-352 434,-335 460,-301C485,-267 498,-212 498,-137l0,973l-222,0l0,75l222,60l0,139C498,1240 525,1335 579,1394C633,1453 721,1483 842,1483C899,1483 967,1469 1047,1440l-22,-64l-21,-65C936,1332 882,1343 842,1343C777,1343 731,1326 704,1291C677,1256 664,1197 664,1114l0,-149l282,0l0,-129l-278,0l0,-969C668,-256 642,-346 589,-404C536,-463 449,-492 328,-492z"/>
<glyph unicode="&#x1FA;" horiz-adv-x="1300" d="M872,1430C872,1341 837,1278 768,1241l532,-1241l-174,0l-176,401l-610,0l-166,-401l-174,0l532,1239C461,1274 426,1336 426,1427C426,1494 446,1547 487,1585C528,1623 581,1642 647,1642C714,1642 768,1623 810,1584C851,1545 872,1493 872,1430M899,555l-178,432C704,1026 680,1093 649,1190C640,1158 627,1120 611,1075C595,1030 584,999 578,983l-177,-428M553,1712C586,1751 619,1796 653,1846C687,1895 712,1934 727,1962l203,0l0,-16C909,1915 870,1873 814,1820C758,1766 708,1724 664,1694l-111,0M764,1427C764,1465 753,1494 731,1514C709,1534 681,1544 647,1544C613,1544 585,1534 563,1514C541,1494 530,1465 530,1427C530,1390 540,1362 560,1342C580,1321 609,1311 647,1311C682,1311 711,1321 732,1342C753,1362 764,1390 764,1427z"/>
<glyph unicode="&#x1FB;" horiz-adv-x="1139" d="M471,1753l0,16C502,1797 535,1831 570,1871C605,1911 630,1941 645,1962l260,0l0,-12C891,1934 857,1909 802,1874C747,1839 677,1798 592,1753M850,0l-33,156l-8,0C754,87 700,41 646,17C591,-8 523,-20 442,-20C333,-20 248,8 187,64C125,120 94,200 94,303C94,524 273,640 631,651l180,6l0,68C811,812 791,875 752,916C712,957 648,977 559,977C495,977 435,968 380,951C324,934 272,914 225,893l-55,127C226,1049 289,1072 358,1089C427,1106 496,1114 563,1114C702,1114 806,1085 873,1027C940,969 973,876 973,748l0,-748M475,117C578,117 660,145 719,202C778,259 807,338 807,440l0,99l-166,-7C509,527 414,507 356,471C297,434 268,378 268,301C268,241 286,195 323,164C359,133 410,117 475,117M803,1458C803,1393 783,1340 742,1301C701,1261 646,1241 578,1241C511,1241 457,1260 417,1299C376,1338 356,1390 356,1456C356,1521 376,1573 417,1612C457,1650 511,1669 578,1669C645,1669 700,1649 741,1610C782,1570 803,1519 803,1458M694,1456C694,1493 683,1522 662,1543C640,1563 612,1573 578,1573C544,1573 516,1563 494,1543C472,1522 461,1493 461,1456C461,1419 471,1390 491,1370C511,1349 540,1339 578,1339C613,1339 641,1349 662,1370C683,1390 694,1419 694,1456z"/>
<glyph unicode="&#x1FC;" horiz-adv-x="1788" d="M1665,0l-750,0l0,465l-514,0l-227,-465l-176,0l698,1462l969,0l0,-151l-580,0l0,-471l541,0l0,-150l-541,0l0,-538l580,0M469,618l446,0l0,693l-118,0M981,1604C1013,1645 1048,1695 1085,1754C1122,1813 1151,1864 1172,1907l202,0l0,-21C1345,1843 1301,1789 1243,1726C1185,1663 1135,1614 1092,1579l-111,0z"/>
<glyph unicode="&#x1FD;" horiz-adv-x="1757" d="M94,303C94,410 135,494 218,554C301,613 427,646 596,651l184,6l0,68C780,811 761,875 722,916C683,957 624,977 545,977C449,977 347,949 238,893l-52,127C235,1047 293,1070 360,1088C426,1105 492,1114 557,1114C644,1114 715,1100 770,1071C825,1042 866,995 893,932C928,991 975,1036 1032,1068C1089,1100 1154,1116 1227,1116C1355,1116 1458,1072 1535,983C1612,894 1651,775 1651,627l0,-107l-701,0C955,257 1063,125 1272,125C1333,125 1389,131 1442,143C1494,154 1548,173 1604,199l0,-148C1547,26 1493,8 1444,-3C1394,-14 1335,-20 1268,-20C1075,-20 937,58 854,213C800,128 740,68 675,33C609,-2 531,-20 442,-20C333,-20 248,8 187,65C125,122 94,201 94,303M268,301C268,238 286,191 322,162C357,132 404,117 463,117C560,117 636,145 692,202C748,258 776,337 776,440l0,99l-158,-7C494,527 405,506 350,470C295,433 268,377 268,301M1225,977C1144,977 1081,949 1035,894C988,839 961,758 954,653l519,0C1473,757 1452,837 1409,893C1366,949 1305,977 1225,977M782,1266C814,1307 849,1357 886,1416C923,1475 952,1526 973,1569l202,0l0,-21C1146,1505 1102,1451 1044,1388C986,1325 936,1276 893,1241l-111,0z"/>
<glyph unicode="&#x1FE;" horiz-adv-x="1595" d="M1470,733C1470,499 1411,315 1293,181C1174,47 1010,-20 799,-20C642,-20 515,13 416,80l-101,-141l-120,79l108,154C184,304 125,492 125,735C125,973 184,1158 301,1289C418,1420 585,1485 801,1485C940,1485 1062,1454 1167,1391l97,135l120,-80l-106,-148C1406,1163 1470,975 1470,733M1290,733C1290,914 1253,1056 1180,1159l-672,-948C585,156 682,129 799,129C961,129 1083,180 1166,282C1249,384 1290,534 1290,733M305,733C305,558 339,420 406,317l669,943C1004,1309 913,1333 801,1333C639,1333 516,1282 432,1180C347,1077 305,928 305,733M674,1604C706,1645 741,1695 778,1754C815,1813 844,1864 865,1907l202,0l0,-21C1038,1843 994,1789 936,1726C878,1663 828,1614 785,1579l-111,0z"/>
<glyph unicode="&#x1FF;" horiz-adv-x="1237" d="M1122,549C1122,370 1077,231 987,131C897,30 773,-20 614,-20C511,-20 423,3 348,49l-84,-117l-114,78l94,131C158,242 115,378 115,549C115,728 160,867 249,967C338,1066 462,1116 621,1116C724,1116 814,1091 891,1040l84,119l117,-76l-97,-133C1080,849 1122,715 1122,549M287,549C287,435 305,344 340,276l465,646C755,957 692,975 616,975C507,975 425,939 370,868C315,797 287,690 287,549M950,549C950,658 933,746 899,813l-465,-643C481,136 543,119 618,119C727,119 809,156 866,229C922,302 950,408 950,549M479,1266C511,1307 546,1357 583,1416C620,1475 649,1526 670,1569l202,0l0,-21C843,1505 799,1451 741,1388C683,1325 633,1276 590,1241l-111,0z"/>
<glyph unicode="&#x218;" horiz-adv-x="1124" d="M1026,389C1026,260 979,160 886,88C793,16 666,-20 506,-20C333,-20 199,2 106,47l0,164C166,186 231,166 302,151C373,136 443,129 512,129C625,129 711,151 768,194C825,237 854,296 854,373C854,424 844,465 824,498C803,530 769,560 722,587C674,614 601,645 504,680C368,729 271,786 213,853C154,920 125,1007 125,1114C125,1227 167,1316 252,1383C337,1450 449,1483 588,1483C733,1483 867,1456 989,1403l-53,-148C815,1306 698,1331 584,1331C494,1331 424,1312 373,1273C322,1234 297,1181 297,1112C297,1061 306,1020 325,988C344,955 375,926 420,899C464,872 532,842 623,809C776,754 882,696 940,633C997,570 1026,489 1026,389M375,-428C394,-385 412,-333 429,-271C446,-209 456,-160 461,-125l168,0l0,-18C622,-177 602,-226 569,-290C536,-355 502,-409 465,-453l-90,0z"/>
<glyph unicode="&#x219;" horiz-adv-x="977" d="M883,299C883,197 845,118 769,63C693,8 586,-20 449,-20C304,-20 190,3 109,49l0,154C162,176 218,155 279,140C339,125 397,117 453,117C540,117 606,131 653,159C700,186 723,228 723,285C723,328 705,364 668,395C631,425 558,461 451,502C349,540 277,573 234,602C191,630 159,662 138,698C117,734 106,777 106,827C106,916 142,987 215,1039C288,1090 387,1116 514,1116C632,1116 747,1092 860,1044l-59,-135C691,954 591,977 502,977C423,977 364,965 324,940C284,915 264,881 264,838C264,809 272,784 287,763C302,742 326,723 359,704C392,685 456,658 551,623C681,576 769,528 815,480C860,432 883,372 883,299M298,-428C317,-385 335,-333 352,-271C369,-209 379,-160 384,-125l168,0l0,-18C545,-177 525,-226 492,-290C459,-355 425,-409 388,-453l-90,0z"/>
<glyph unicode="&#x2C6;" horiz-adv-x="1212" d="M268,1264C353,1355 412,1421 446,1464C480,1507 505,1542 520,1569l166,0C701,1541 726,1505 763,1461C799,1416 859,1351 942,1264l0,-23l-119,0C764,1278 691,1340 602,1427C511,1338 438,1276 383,1241l-115,0z"/>
<glyph unicode="&#x2C7;" horiz-adv-x="1212" d="M268,1569l115,0C459,1520 532,1457 602,1380C689,1467 762,1530 823,1569l119,0l0,-25l-66,-68C780,1377 717,1299 686,1241l-166,0C505,1268 480,1303 446,1345C412,1387 353,1453 268,1544z"/>
<glyph unicode="&#x2C9;" horiz-adv-x="1202" d="M301,1378l600,0l0,-137l-600,0z"/>
<glyph unicode="&#x2D8;" horiz-adv-x="1212" d="M598,1241C505,1241 432,1264 380,1310C328,1355 299,1422 293,1509l104,0C401,1476 410,1451 424,1432C437,1413 456,1400 481,1391C505,1382 545,1378 602,1378C669,1378 719,1389 751,1410C783,1431 802,1464 809,1509l104,0C906,1425 875,1359 820,1312C764,1265 690,1241 598,1241z"/>
<glyph unicode="&#x2D9;" horiz-adv-x="518" d="M162,1393C162,1431 171,1459 190,1477C209,1494 232,1503 260,1503C287,1503 310,1494 329,1476C348,1458 358,1430 358,1393C358,1356 348,1328 329,1310C310,1291 287,1282 260,1282C232,1282 209,1291 190,1310C171,1328 162,1356 162,1393z"/>
<glyph unicode="&#x2DA;" horiz-adv-x="1182" d="M813,1458C813,1393 793,1340 752,1301C711,1261 656,1241 588,1241C521,1241 467,1261 427,1300C387,1339 367,1391 367,1456C367,1521 387,1573 428,1612C468,1650 521,1669 588,1669C655,1669 710,1649 751,1610C792,1570 813,1519 813,1458M705,1456C705,1493 694,1522 672,1543C650,1563 622,1573 588,1573C554,1573 526,1563 504,1543C482,1522 471,1493 471,1456C471,1419 481,1390 501,1370C521,1349 550,1339 588,1339C623,1339 651,1349 673,1370C694,1390 705,1419 705,1456z"/>
<glyph unicode="&#x2DB;" horiz-adv-x="403" d="M178,-238C178,-301 209,-332 272,-332C300,-332 332,-328 369,-319l0,-109C326,-440 284,-446 244,-446C106,-446 37,-383 37,-258C37,-211 51,-165 80,-120C109,-75 147,-35 195,0l120,0C270,-44 236,-84 213,-120C190,-157 178,-196 178,-238z"/>
<glyph unicode="&#x2DC;" horiz-adv-x="1212" d="M788,1243C759,1243 731,1249 704,1262C677,1274 650,1288 624,1303C597,1318 572,1331 548,1344C523,1356 500,1362 477,1362C444,1362 419,1352 402,1332C385,1312 371,1282 362,1241l-98,0C273,1322 296,1385 335,1431C373,1476 422,1499 483,1499C514,1499 543,1493 572,1481C601,1468 628,1455 654,1440C680,1425 705,1411 729,1399C753,1386 776,1380 797,1380C830,1380 854,1390 870,1410C886,1429 899,1460 909,1501l99,0C999,1420 976,1357 939,1312C901,1266 851,1243 788,1243z"/>
<glyph unicode="&#x2DD;" horiz-adv-x="1182" d="M231,1266C255,1298 285,1345 322,1407C359,1469 387,1523 408,1569l186,0l0,-21C569,1506 529,1452 472,1387C415,1322 367,1273 328,1241l-97,0M588,1266C621,1311 654,1364 688,1423C721,1482 747,1530 764,1569l186,0l0,-21C925,1506 885,1452 828,1387C771,1322 723,1273 684,1241l-96,0z"/>
<glyph unicode="&#x384;" horiz-adv-x="1182" d="M508,1270C526,1318 544,1380 562,1456C579,1531 592,1596 600,1651l184,0l0,-23C772,1579 748,1515 712,1436C675,1357 641,1292 608,1241l-100,0z"/>
<glyph unicode="&#x385;" horiz-adv-x="1182" d="M512,1413C555,1526 587,1627 608,1716l189,0l0,-20C775,1651 744,1599 704,1540C663,1480 626,1430 592,1389l-80,0M283,1393C283,1428 292,1453 309,1468C326,1483 348,1491 373,1491C400,1491 422,1482 439,1465C455,1448 463,1424 463,1393C463,1360 454,1335 436,1319C417,1302 396,1294 373,1294C348,1294 326,1302 309,1319C292,1335 283,1360 283,1393M719,1393C719,1428 728,1453 745,1468C762,1483 784,1491 809,1491C836,1491 858,1482 875,1465C891,1448 899,1424 899,1393C899,1360 890,1335 872,1319C853,1302 832,1294 809,1294C784,1294 762,1302 745,1319C728,1335 719,1360 719,1393z"/>
<glyph unicode="&#x386;" horiz-adv-x="1296" d="M1120,0l-182,465l-586,0l-180,-465l-172,0l578,1468l143,0l575,-1468M885,618l-170,453C693,1128 670,1199 647,1282C632,1218 611,1148 584,1071l-172,-453M28,1165C46,1213 64,1275 82,1351C99,1426 112,1491 120,1546l184,0l0,-23C292,1474 268,1410 232,1331C195,1252 161,1187 128,1136l-100,0z"/>
<glyph unicode="&#x387;" horiz-adv-x="545" d="M152,723C152,767 162,801 183,824C204,847 233,858 270,858C309,858 339,847 361,824C382,801 393,767 393,723C393,680 382,646 360,623C338,600 308,588 270,588C236,588 208,599 186,620C163,641 152,675 152,723z"/>
<glyph unicode="&#x388;" horiz-adv-x="1266" d="M1141,0l-815,0l0,1462l815,0l0,-151l-645,0l0,-471l606,0l0,-150l-606,0l0,-538l645,0M-44,1165C-26,1213 -8,1275 10,1351C27,1426 40,1491 48,1546l184,0l0,-23C220,1474 196,1410 160,1331C123,1252 89,1187 56,1136l-100,0z"/>
<glyph unicode="&#x389;" horiz-adv-x="1661" d="M1461,0l-170,0l0,688l-770,0l0,-688l-170,0l0,1462l170,0l0,-622l770,0l0,622l170,0M-44,1165C-26,1213 -8,1275 10,1351C27,1426 40,1491 48,1546l184,0l0,-23C220,1474 196,1410 160,1331C123,1252 89,1187 56,1136l-100,0z"/>
<glyph unicode="&#x38C;" horiz-adv-x="1665" d="M1538,733C1538,499 1479,315 1361,181C1242,47 1078,-20 867,-20C652,-20 486,46 369,178C252,309 193,495 193,735C193,973 252,1158 369,1289C486,1420 653,1485 869,1485C1079,1485 1243,1418 1361,1285C1479,1152 1538,968 1538,733M373,733C373,535 415,385 500,283C584,180 706,129 867,129C1029,129 1151,180 1234,282C1317,384 1358,534 1358,733C1358,930 1317,1079 1235,1181C1152,1282 1030,1333 869,1333C707,1333 584,1282 500,1180C415,1077 373,928 373,733M-28,1165C-10,1213 8,1275 26,1351C43,1426 56,1491 64,1546l184,0l0,-23C236,1474 212,1410 176,1331C139,1252 105,1187 72,1136l-100,0z"/>
<glyph unicode="&#x38E;" horiz-adv-x="1413" d="M839,731l390,731l184,0l-488,-895l0,-567l-172,0l0,559l-487,903l186,0M-44,1165C-26,1213 -8,1275 10,1351C27,1426 40,1491 48,1546l184,0l0,-23C220,1474 196,1410 160,1331C123,1252 89,1187 56,1136l-100,0z"/>
<glyph unicode="&#x38F;" horiz-adv-x="1665" d="M864,1333C705,1333 584,1290 501,1205C418,1119 376,992 376,823C376,673 405,543 463,432C520,321 609,221 729,133l0,-133l-586,0l0,152l364,0C406,231 329,328 276,445C223,562 196,688 196,823C196,1030 255,1192 373,1309C491,1426 655,1485 864,1485C1074,1485 1238,1427 1356,1312C1474,1196 1533,1034 1533,825C1533,687 1507,560 1454,445C1401,330 1325,232 1224,152l363,0l0,-152l-586,0l0,133C1123,222 1212,323 1269,434C1325,545 1353,675 1353,823C1353,991 1312,1118 1229,1204C1146,1290 1024,1333 864,1333M-28,1165C-10,1213 8,1275 26,1351C43,1426 56,1491 64,1546l184,0l0,-23C236,1474 212,1410 176,1331C139,1252 105,1187 72,1136l-100,0z"/>
<glyph unicode="&#x390;" horiz-adv-x="694" d="M334,1096l0,-774C334,253 346,201 371,168C395,134 436,117 494,117C519,117 548,119 582,124C615,128 641,132 659,137l0,-127C638,1 611,-6 576,-11C541,-17 506,-20 473,-20C366,-20 289,8 241,64C192,120 168,204 168,317l0,779M206,1413C249,1526 281,1627 302,1716l189,0l0,-20C469,1651 438,1599 398,1540C357,1480 320,1430 286,1389l-80,0M-23,1393C-23,1428 -14,1453 3,1468C20,1483 42,1491 67,1491C94,1491 116,1482 133,1465C149,1448 157,1424 157,1393C157,1360 148,1335 130,1319C111,1302 90,1294 67,1294C42,1294 20,1302 3,1319C-14,1335 -23,1360 -23,1393M413,1393C413,1428 422,1453 439,1468C456,1483 478,1491 503,1491C530,1491 552,1482 569,1465C585,1448 593,1424 593,1393C593,1360 584,1335 566,1319C547,1302 526,1294 503,1294C478,1294 456,1302 439,1319C422,1335 413,1360 413,1393z"/>
<glyph unicode="&#x391;" horiz-adv-x="1296" d="M1120,0l-182,465l-586,0l-180,-465l-172,0l578,1468l143,0l575,-1468M885,618l-170,453C693,1128 670,1199 647,1282C632,1218 611,1148 584,1071l-172,-453z"/>
<glyph unicode="&#x392;" horiz-adv-x="1327" d="M201,1462l413,0C808,1462 948,1433 1035,1375C1122,1317 1165,1225 1165,1100C1165,1013 1141,942 1093,886C1044,829 974,793 881,776l0,-10C1103,728 1214,611 1214,416C1214,285 1170,183 1082,110C993,37 870,0 711,0l-510,0M371,836l280,0C771,836 857,855 910,893C963,930 989,994 989,1083C989,1165 960,1224 901,1261C842,1297 749,1315 621,1315l-250,0M371,692l0,-547l305,0C794,145 883,168 943,214C1002,259 1032,331 1032,428C1032,519 1002,585 941,628C880,671 787,692 662,692z"/>
<glyph unicode="&#x393;" horiz-adv-x="1065" d="M1016,1462l0,-153l-645,0l0,-1309l-170,0l0,1462z"/>
<glyph unicode="&#x394;" horiz-adv-x="1171" d="M39,104l463,1358l166,0l465,-1360l0,-102l-1094,0M584,1268C543,1118 510,1003 483,922l-260,-770l721,0l-258,761C641,1048 607,1166 584,1268z"/>
<glyph unicode="&#x395;" horiz-adv-x="1139" d="M1016,0l-815,0l0,1462l815,0l0,-151l-645,0l0,-471l606,0l0,-150l-606,0l0,-538l645,0z"/>
<glyph unicode="&#x396;" horiz-adv-x="1169" d="M1087,0l-1005,0l0,133l776,1176l-752,0l0,153l959,0l0,-133l-776,-1175l798,0z"/>
<glyph unicode="&#x397;" horiz-adv-x="1511" d="M1311,0l-170,0l0,688l-770,0l0,-688l-170,0l0,1462l170,0l0,-622l770,0l0,622l170,0z"/>
<glyph unicode="&#x398;" horiz-adv-x="1595" d="M483,819l629,0l0,-149l-629,0M1470,733C1470,499 1411,315 1293,181C1174,47 1010,-20 799,-20C584,-20 418,46 301,178C184,309 125,495 125,735C125,973 184,1158 301,1289C418,1420 585,1485 801,1485C1011,1485 1175,1418 1293,1285C1411,1152 1470,968 1470,733M305,733C305,536 347,386 430,283C513,180 636,129 799,129C961,129 1083,180 1166,281C1249,382 1290,533 1290,733C1290,932 1249,1081 1167,1182C1084,1283 962,1333 801,1333C638,1333 514,1282 431,1180C347,1078 305,929 305,733z"/>
<glyph unicode="&#x39A;" horiz-adv-x="1257" d="M1257,0l-200,0l-533,709l-153,-136l0,-573l-170,0l0,1462l170,0l0,-725l663,725l201,0l-588,-635z"/>
<glyph unicode="&#x39B;" horiz-adv-x="1235" d="M1235,0l-182,0l-330,928C665,1096 629,1210 614,1270C592,1177 557,1064 510,930l-328,-930l-182,0l528,1462l177,0z"/>
<glyph unicode="&#x39C;" horiz-adv-x="1849" d="M848,0l-496,1296l-8,0C353,1193 358,1071 358,930l0,-930l-157,0l0,1462l256,0l463,-1206l8,0l467,1206l254,0l0,-1462l-170,0l0,942C1479,1050 1484,1167 1493,1294l-8,0l-500,-1294z"/>
<glyph unicode="&#x39D;" horiz-adv-x="1544" d="M1343,0l-194,0l-799,1227l-8,0C353,1083 358,951 358,831l0,-831l-157,0l0,1462l192,0l797,-1222l8,0C1197,258 1194,316 1189,414C1184,511 1183,581 1184,623l0,839l159,0z"/>
<glyph unicode="&#x39E;" horiz-adv-x="1133" d="M195,840l743,0l0,-150l-743,0M113,1462l907,0l0,-151l-907,0M1061,152l0,-152l-989,0l0,152z"/>
<glyph unicode="&#x39F;" horiz-adv-x="1595" d="M1470,733C1470,499 1411,315 1293,181C1174,47 1010,-20 799,-20C584,-20 418,46 301,178C184,309 125,495 125,735C125,973 184,1158 301,1289C418,1420 585,1485 801,1485C1011,1485 1175,1418 1293,1285C1411,1152 1470,968 1470,733M305,733C305,535 347,385 432,283C516,180 638,129 799,129C961,129 1083,180 1166,282C1249,384 1290,534 1290,733C1290,930 1249,1079 1167,1181C1084,1282 962,1333 801,1333C639,1333 516,1282 432,1180C347,1077 305,928 305,733z"/>
<glyph unicode="&#x3A0;" horiz-adv-x="1493" d="M1292,0l-170,0l0,1311l-751,0l0,-1311l-170,0l0,1462l1091,0z"/>
<glyph unicode="&#x3A1;" horiz-adv-x="1233" d="M1128,1036C1128,888 1078,774 977,695C876,615 731,575 543,575l-172,0l0,-575l-170,0l0,1462l379,0C945,1462 1128,1320 1128,1036M371,721l153,0C675,721 784,745 851,794C918,843 952,921 952,1028C952,1125 920,1197 857,1244C794,1291 695,1315 561,1315l-190,0z"/>
<glyph unicode="&#x3A3;" horiz-adv-x="1161" d="M74,0l0,141l481,623l-469,555l0,143l971,0l0,-153l-676,0l-96,2l460,-545l-481,-614l852,0l0,-152z"/>
<glyph unicode="&#x3A4;" horiz-adv-x="1133" d="M651,0l-170,0l0,1311l-463,0l0,151l1096,0l0,-151l-463,0z"/>
<glyph unicode="&#x3A5;" horiz-adv-x="1147" d="M573,731l390,731l184,0l-488,-895l0,-567l-172,0l0,559l-487,903l186,0z"/>
<glyph unicode="&#x3A6;" horiz-adv-x="1634" d="M731,1483l172,0l0,-180l70,0C1087,1303 1186,1280 1270,1235C1353,1190 1417,1126 1462,1043C1506,960 1528,866 1528,760C1528,649 1503,551 1454,465C1404,378 1336,313 1250,270C1163,227 1061,205 944,205l-41,0l0,-225l-172,0l0,225l-45,0C569,205 467,227 381,271C295,315 228,380 179,467C130,554 106,651 106,758C106,863 129,957 174,1040C219,1123 283,1187 367,1234C451,1280 550,1303 664,1303l67,0M903,348l25,0C1062,348 1166,385 1241,458C1315,531 1352,632 1352,762C1352,885 1318,982 1249,1052C1180,1122 1084,1157 961,1157l-58,0M731,1157l-57,0C553,1157 457,1122 388,1051C318,980 283,884 283,762C283,631 320,529 394,457C468,384 572,348 707,348l24,0z"/>
<glyph unicode="&#x3A7;" horiz-adv-x="1182" d="M1174,0l-193,0l-393,643l-400,-643l-180,0l486,764l-453,698l188,0l363,-579l366,579l181,0l-453,-692z"/>
<glyph unicode="&#x3A8;" horiz-adv-x="1630" d="M899,0l-170,0l0,446l-45,0C567,446 466,466 381,507C296,548 229,609 181,692C133,774 109,870 109,979l0,483l174,0l0,-479C283,858 318,762 387,695C456,628 561,594 702,594l27,0l0,868l170,0l0,-868l29,0C1069,594 1174,627 1243,693C1312,759 1346,854 1346,979l0,483l176,0l0,-481C1522,871 1498,775 1450,693C1402,610 1335,549 1249,508C1162,467 1061,446 944,446l-45,0z"/>
<glyph unicode="&#x3A9;" horiz-adv-x="1602" d="M801,1333C642,1333 521,1290 438,1205C355,1119 313,992 313,823C313,673 342,543 400,432C457,321 546,221 666,133l0,-133l-586,0l0,152l364,0C343,231 266,328 213,445C160,562 133,688 133,823C133,1030 192,1192 310,1309C428,1426 592,1485 801,1485C1011,1485 1175,1427 1293,1312C1411,1196 1470,1034 1470,825C1470,687 1444,560 1391,445C1338,330 1262,232 1161,152l363,0l0,-152l-586,0l0,133C1060,222 1149,323 1206,434C1262,545 1290,675 1290,823C1290,991 1249,1118 1166,1204C1083,1290 961,1333 801,1333z"/>
<glyph unicode="&#x3AB;" horiz-adv-x="1147" d="M573,731l390,731l184,0l-488,-895l0,-567l-172,0l0,559l-487,903l186,0M292,1731C292,1766 301,1791 319,1806C336,1821 357,1829 382,1829C407,1829 429,1821 448,1806C466,1791 475,1766 475,1731C475,1698 466,1673 448,1657C429,1640 407,1632 382,1632C357,1632 336,1640 319,1657C301,1673 292,1698 292,1731M673,1731C673,1766 682,1791 700,1806C717,1821 738,1829 763,1829C788,1829 809,1821 828,1806C846,1791 855,1766 855,1731C855,1698 846,1673 828,1657C809,1640 788,1632 763,1632C738,1632 717,1640 700,1657C682,1673 673,1698 673,1731z"/>
<glyph unicode="&#x3AC;" horiz-adv-x="1251" d="M592,119C705,119 786,152 836,217C886,282 911,387 911,532l0,15C911,700 886,809 835,876C784,942 703,975 590,975C388,975 287,831 287,543C287,402 312,296 361,225C410,154 487,119 592,119M567,-20C424,-20 313,30 234,129C155,228 115,366 115,545C115,728 156,869 237,968C318,1067 434,1116 584,1116C665,1116 732,1102 786,1074C839,1046 884,1004 920,948l12,0C948,1009 970,1059 997,1096l129,0C1112,1052 1100,989 1091,907C1082,825 1077,745 1077,668l0,-439C1077,153 1105,115 1161,115C1180,115 1201,118 1223,125l0,-119C1192,-11 1155,-20 1112,-20C1058,-20 1016,-6 987,21C957,48 936,90 924,147l-13,0C872,90 824,48 769,21C713,-6 646,-20 567,-20M537,1270C555,1318 573,1380 591,1456C608,1531 621,1596 629,1651l184,0l0,-23C801,1579 777,1515 741,1436C704,1357 670,1292 637,1241l-100,0z"/>
<glyph unicode="&#x3AD;" horiz-adv-x="973" d="M715,641l0,-141l-148,0C360,500 256,435 256,305C256,245 281,199 330,166C379,133 452,117 549,117C605,117 661,124 716,137C771,150 832,172 899,203l0,-148C808,5 688,-20 541,-20C401,-20 291,8 211,65C130,121 90,198 90,297C90,362 108,417 145,461C182,504 243,540 330,567l0,11C265,597 214,627 179,670C143,712 125,764 125,825C125,914 162,984 237,1037C312,1090 413,1116 541,1116C606,1116 666,1111 721,1100C776,1089 836,1068 903,1038l-63,-133C777,933 724,952 681,961C638,970 590,975 537,975C370,975 287,921 287,813C287,698 393,641 604,641M452,1270C470,1318 488,1380 506,1456C523,1531 536,1596 544,1651l184,0l0,-23C716,1579 692,1515 656,1436C619,1357 585,1292 552,1241l-100,0z"/>
<glyph unicode="&#x3AE;" horiz-adv-x="1257" d="M926,-492l0,1201C926,798 906,865 865,909C824,953 761,975 674,975C559,975 475,944 422,882C369,820 342,718 342,575l0,-575l-166,0l0,1096l135,0l27,-150l8,0C380,1000 428,1042 489,1072C550,1101 619,1116 694,1116C826,1116 925,1084 992,1021C1059,957 1092,855 1092,715l0,-1207M567,1270C585,1318 603,1380 621,1456C638,1531 651,1596 659,1651l184,0l0,-23C831,1579 807,1515 771,1436C734,1357 700,1292 667,1241l-100,0z"/>
<glyph unicode="&#x3AF;" horiz-adv-x="694" d="M334,1096l0,-774C334,253 346,201 371,168C395,134 436,117 494,117C519,117 548,119 582,124C615,128 641,132 659,137l0,-127C638,1 611,-6 576,-11C541,-17 506,-20 473,-20C366,-20 289,8 241,64C192,120 168,204 168,317l0,779M192,1270C210,1318 228,1380 246,1456C263,1531 276,1596 284,1651l184,0l0,-23C456,1579 432,1515 396,1436C359,1357 325,1292 292,1241l-100,0z"/>
<glyph unicode="&#x3B0;" horiz-adv-x="1247" d="M627,-20C473,-20 357,22 280,105C203,188 164,319 164,496l0,600l166,0l0,-592C330,376 356,280 409,215C462,150 539,117 641,117C752,117 835,157 889,236C942,315 969,439 969,606C969,693 964,773 955,848C946,923 930,1005 907,1096l166,0C1097,1000 1114,916 1123,845C1132,774 1137,691 1137,598C1137,386 1094,230 1008,130C922,30 795,-20 627,-20M571,1413C614,1526 646,1627 667,1716l189,0l0,-20C834,1651 803,1599 763,1540C722,1480 685,1430 651,1389l-80,0M342,1393C342,1428 351,1453 368,1468C385,1483 407,1491 432,1491C459,1491 481,1482 498,1465C514,1448 522,1424 522,1393C522,1360 513,1335 495,1319C476,1302 455,1294 432,1294C407,1294 385,1302 368,1319C351,1335 342,1360 342,1393M778,1393C778,1428 787,1453 804,1468C821,1483 843,1491 868,1491C895,1491 917,1482 934,1465C950,1448 958,1424 958,1393C958,1360 949,1335 931,1319C912,1302 891,1294 868,1294C843,1294 821,1302 804,1319C787,1335 778,1360 778,1393z"/>
<glyph unicode="&#x3B1;" horiz-adv-x="1251" d="M592,119C705,119 786,152 836,217C886,282 911,387 911,532l0,15C911,700 886,809 835,876C784,942 703,975 590,975C388,975 287,831 287,543C287,402 312,296 361,225C410,154 487,119 592,119M567,-20C424,-20 313,30 234,129C155,228 115,366 115,545C115,728 156,869 237,968C318,1067 434,1116 584,1116C665,1116 732,1102 786,1074C839,1046 884,1004 920,948l12,0C948,1009 970,1059 997,1096l129,0C1112,1052 1100,989 1091,907C1082,825 1077,745 1077,668l0,-439C1077,153 1105,115 1161,115C1180,115 1201,118 1223,125l0,-119C1192,-11 1155,-20 1112,-20C1058,-20 1016,-6 987,21C957,48 936,90 924,147l-13,0C872,90 824,48 769,21C713,-6 646,-20 567,-20z"/>
<glyph unicode="&#x3B2;" horiz-adv-x="1286" d="M659,1567C806,1567 921,1532 1004,1463C1087,1394 1128,1298 1128,1176C1128,980 1024,865 815,831l0,-8C1066,795 1192,659 1192,414C1192,275 1148,168 1060,93C972,18 849,-20 690,-20C617,-20 554,-15 501,-4C448,6 395,24 342,49l0,-541l-166,0l0,1588C176,1246 218,1362 303,1444C387,1526 506,1567 659,1567M657,1427C552,1427 473,1398 421,1341C368,1284 342,1200 342,1090l0,-887C404,170 462,148 516,136C569,123 625,117 682,117C796,117 882,142 940,192C997,242 1026,319 1026,424C1026,529 994,608 931,663C868,718 777,745 659,745l-112,0l0,142l92,0C742,887 821,912 875,961C929,1010 956,1080 956,1171C956,1253 930,1316 878,1361C826,1405 752,1427 657,1427z"/>
<glyph unicode="&#x3B3;" horiz-adv-x="1049" d="M532,-492l-180,0C352,-428 363,-347 384,-249C405,-151 430,-64 459,12l-449,1084l172,0l240,-584C485,355 522,243 535,174l8,0C546,194 555,228 569,275C582,322 596,368 611,411C625,454 710,682 866,1096l172,0l-405,-1069C601,-56 576,-146 559,-243C541,-340 532,-423 532,-492z"/>
<glyph unicode="&#x3B4;" horiz-adv-x="1188" d="M545,936C452,988 386,1041 347,1094C308,1147 289,1206 289,1272C289,1359 321,1427 386,1478C451,1529 538,1554 647,1554C716,1554 782,1547 845,1532C908,1517 981,1488 1065,1446l-72,-135C918,1352 855,1380 802,1395C749,1410 695,1417 641,1417C584,1417 540,1404 508,1378C475,1351 459,1316 459,1272C459,1225 477,1183 513,1146C548,1109 622,1060 733,999C873,922 973,844 1032,764C1091,683 1120,588 1120,479C1120,322 1075,200 984,112C893,24 769,-20 612,-20C461,-20 340,21 249,104C158,187 113,298 113,438C113,556 151,659 226,746C301,833 408,896 545,936M948,479C948,564 928,638 887,699C846,760 778,815 684,864C547,829 446,775 383,703C319,630 287,541 287,434C287,338 317,262 376,205C435,148 514,119 612,119C720,119 803,150 861,212C919,274 948,363 948,479z"/>
<glyph unicode="&#x3B5;" horiz-adv-x="973" d="M715,641l0,-141l-148,0C360,500 256,435 256,305C256,245 281,199 330,166C379,133 452,117 549,117C605,117 661,124 716,137C771,150 832,172 899,203l0,-148C808,5 688,-20 541,-20C401,-20 291,8 211,65C130,121 90,198 90,297C90,362 108,417 145,461C182,504 243,540 330,567l0,11C265,597 214,627 179,670C143,712 125,764 125,825C125,914 162,984 237,1037C312,1090 413,1116 541,1116C606,1116 666,1111 721,1100C776,1089 836,1068 903,1038l-63,-133C777,933 724,952 681,961C638,970 590,975 537,975C370,975 287,921 287,813C287,698 393,641 604,641z"/>
<glyph unicode="&#x3B6;" horiz-adv-x="989" d="M176,1415l0,141l752,0l0,-129C785,1307 665,1193 569,1086C473,978 402,876 356,780C310,683 287,580 287,469C287,404 297,351 317,312C336,273 367,241 409,217C450,192 528,168 643,143C742,122 815,94 860,58C905,21 928,-27 928,-88C928,-187 886,-292 801,-401l-166,0C718,-294 760,-204 760,-133C760,-96 742,-67 705,-46C668,-26 601,-7 506,10C371,34 272,83 209,156C146,229 115,330 115,459C115,535 125,608 145,677C164,746 193,814 230,879C267,944 320,1014 387,1091C454,1167 568,1278 729,1423C702,1418 599,1415 418,1415z"/>
<glyph unicode="&#x3B7;" horiz-adv-x="1257" d="M926,-492l0,1201C926,798 906,865 865,909C824,953 761,975 674,975C559,975 475,944 422,882C369,820 342,718 342,575l0,-575l-166,0l0,1096l135,0l27,-150l8,0C380,1000 428,1042 489,1072C550,1101 619,1116 694,1116C826,1116 925,1084 992,1021C1059,957 1092,855 1092,715l0,-1207z"/>
<glyph unicode="&#x3B8;" horiz-adv-x="1212" d="M1098,780C1098,509 1057,308 976,177C895,46 771,-20 604,-20C444,-20 323,47 240,182C157,316 115,515 115,780C115,1051 156,1252 238,1383C319,1514 441,1579 604,1579C767,1579 890,1512 973,1377C1056,1242 1098,1043 1098,780M604,119C713,119 794,170 846,272C898,373 926,526 930,731l-647,0C286,528 312,376 362,273C412,170 493,119 604,119M604,1440C497,1440 418,1392 368,1297C318,1201 290,1059 283,872l645,0C921,1059 892,1201 841,1297C790,1392 711,1440 604,1440z"/>
<glyph unicode="&#x3B9;" horiz-adv-x="694" d="M334,1096l0,-774C334,253 346,201 371,168C395,134 436,117 494,117C519,117 548,119 582,124C615,128 641,132 659,137l0,-127C638,1 611,-6 576,-11C541,-17 506,-20 473,-20C366,-20 289,8 241,64C192,120 168,204 168,317l0,779z"/>
<glyph unicode="&#x3BA;" horiz-adv-x="1061" d="M815,1094l207,0l-414,-482l443,-612l-201,0l-361,504l-135,-113l0,-391l-178,0l0,1094l178,0l0,-283C354,700 350,607 342,532z"/>
<glyph unicode="&#x3BB;" horiz-adv-x="1094" d="M-14,0l473,1079l-58,162C381,1298 363,1338 346,1361C329,1384 310,1402 288,1414C265,1426 238,1432 205,1432C166,1432 128,1428 90,1419l0,133C135,1563 179,1569 221,1569C282,1569 332,1559 373,1539C413,1519 448,1487 477,1444C506,1401 539,1328 575,1227l363,-1012C951,182 964,158 978,141C992,124 1011,115 1034,115C1052,115 1072,118 1094,125l0,-121C1062,-12 1026,-20 985,-20C936,-20 897,-7 870,18C842,43 818,84 799,139l-156,436C587,735 552,847 537,911l-9,0C509,834 471,725 412,586l-254,-586z"/>
<glyph unicode="&#x3BC;" horiz-adv-x="1268" d="M342,381C342,206 427,119 596,119C710,119 794,151 847,214C900,277 926,379 926,520l0,576l166,0l0,-1096l-136,0l-26,147l-10,0C846,36 733,-20 580,-20C480,-20 401,11 342,72l-10,0C339,16 342,-65 342,-172l0,-320l-166,0l0,1588l166,0z"/>
<glyph unicode="&#x3BD;" horiz-adv-x="1110" d="M0,1096l172,0l219,-590C408,461 431,399 459,320C486,241 505,180 516,139l8,0C642,256 728,388 781,537C834,685 860,871 860,1096l166,0C1026,854 992,648 923,479C854,310 744,150 594,0l-186,0z"/>
<glyph unicode="&#x3BE;" horiz-adv-x="973" d="M854,754l-178,0C559,754 465,724 394,665C323,606 287,529 287,434C287,381 295,338 312,305C329,272 353,246 385,226C416,205 455,189 500,177C545,165 595,153 651,141C746,122 816,94 861,57C906,20 928,-28 928,-88C928,-131 919,-178 901,-227C883,-277 852,-335 807,-401l-156,0C686,-354 715,-305 737,-256C759,-207 770,-166 770,-131C770,-94 751,-66 713,-45C674,-25 607,-7 512,10C379,33 279,77 213,144C146,211 113,303 113,420C113,513 139,595 192,665C245,735 314,783 399,809l0,12C254,864 182,957 182,1102C182,1180 205,1245 252,1298C298,1351 376,1394 487,1427C402,1419 321,1415 244,1415l-68,0l0,141l698,0l0,-131l-51,0C736,1425 656,1412 581,1385C506,1358 448,1321 406,1273C363,1225 342,1169 342,1106C342,1029 370,973 426,937C481,901 567,883 684,883l170,0z"/>
<glyph unicode="&#x3BF;" horiz-adv-x="1237" d="M1122,549C1122,370 1077,231 987,131C897,30 773,-20 614,-20C516,-20 429,3 353,49C277,95 218,161 177,247C136,333 115,434 115,549C115,728 160,867 249,967C338,1066 462,1116 621,1116C774,1116 896,1065 987,963C1077,861 1122,723 1122,549M287,549C287,409 315,302 371,229C427,156 509,119 618,119C727,119 809,156 866,229C922,302 950,408 950,549C950,688 922,794 866,867C809,939 726,975 616,975C507,975 425,939 370,868C315,797 287,690 287,549z"/>
<glyph unicode="&#x3C0;" horiz-adv-x="1331" d="M1149,117C1174,117 1203,123 1235,135l0,-131C1206,-12 1164,-20 1108,-20C962,-20 889,64 889,233l0,721l-477,0l0,-954l-166,0l0,954l-221,0l0,74l143,68l1100,0l0,-142l-213,0l0,-708C1055,197 1064,163 1081,145C1098,126 1120,117 1149,117z"/>
<glyph unicode="&#x3C1;" horiz-adv-x="1237" d="M1122,549C1122,368 1079,228 994,129C909,30 788,-20 633,-20C514,-20 414,11 334,74l-8,0C331,33 334,-58 334,-199l0,-293l-168,0l0,1055C166,740 208,877 292,973C375,1068 495,1116 651,1116C797,1116 912,1066 996,965C1080,864 1122,725 1122,549M643,975C538,975 460,941 410,872C359,803 334,698 334,559l0,-338C415,153 517,119 639,119C745,119 823,154 874,223C925,292 950,401 950,549C950,692 926,798 878,869C830,940 752,975 643,975z"/>
<glyph unicode="&#x3C2;" horiz-adv-x="987" d="M287,522C287,432 297,365 317,321C336,277 370,242 418,215C465,188 542,164 649,141C748,120 819,91 863,56C906,20 928,-28 928,-88C928,-132 919,-179 901,-230C883,-281 852,-338 807,-401l-156,0C687,-354 716,-306 739,-257C761,-208 772,-166 772,-133C772,-106 764,-85 747,-69C730,-54 703,-40 666,-27C629,-14 579,-2 514,10C378,35 278,89 213,174C148,259 115,374 115,520C115,711 161,858 253,961C345,1064 474,1116 639,1116C692,1116 744,1111 797,1100C850,1089 894,1075 930,1059l-53,-141C790,952 709,969 633,969C516,969 429,933 372,860C315,787 287,675 287,522z"/>
<glyph unicode="&#x3C3;" horiz-adv-x="1255" d="M1120,508C1120,403 1100,311 1059,231C1018,150 959,88 883,45C806,2 717,-20 614,-20C457,-20 335,28 247,124C159,220 115,353 115,522C115,905 312,1096 707,1096l499,0l0,-142l-264,0C1061,843 1120,694 1120,508M287,522C287,393 315,293 372,224C429,154 511,119 618,119C724,119 806,152 863,218C920,283 948,377 948,498C948,678 890,830 774,954l-65,0C561,954 454,919 387,850C320,781 287,671 287,522z"/>
<glyph unicode="&#x3C4;" horiz-adv-x="969" d="M915,1096l0,-142l-432,0l0,-618C483,187 551,113 688,113C719,113 751,115 784,120C817,124 842,128 860,133l0,-125C837,-2 807,-10 770,-16C733,-22 698,-25 666,-25C545,-25 457,3 400,60C343,117 315,202 315,315l0,639l-297,0l0,74l148,68z"/>
<glyph unicode="&#x3C5;" horiz-adv-x="1247" d="M627,-20C473,-20 357,22 280,105C203,188 164,319 164,496l0,600l166,0l0,-592C330,376 356,280 409,215C462,150 539,117 641,117C752,117 835,157 889,236C942,315 969,439 969,606C969,693 964,773 955,848C946,923 930,1005 907,1096l166,0C1097,1000 1114,916 1123,845C1132,774 1137,691 1137,598C1137,386 1094,230 1008,130C922,30 795,-20 627,-20z"/>
<glyph unicode="&#x3C6;" horiz-adv-x="1470" d="M643,-492l0,474C470,-11 338,42 249,139C160,236 115,374 115,555C115,752 184,935 322,1104l131,-90C394,936 351,860 324,785C297,710 283,632 283,549C283,286 403,142 643,119l0,620C643,864 671,958 726,1021C781,1084 859,1116 958,1116C1078,1116 1174,1067 1247,970C1320,872 1356,740 1356,573C1356,454 1333,352 1288,265C1243,178 1179,110 1096,62C1013,14 917,-13 807,-18l0,-474M1184,571C1184,694 1163,793 1122,866C1081,939 1026,975 958,975C909,975 872,955 846,915C820,875 807,817 807,741l0,-622C926,130 1019,174 1085,253C1151,332 1184,438 1184,571z"/>
<glyph unicode="&#x3C7;" horiz-adv-x="1118" d="M178,1102C214,1102 245,1095 271,1081C297,1066 320,1044 341,1014C362,983 387,931 416,856l145,-369l318,609l180,0l-428,-772l190,-484C853,-241 883,-294 910,-319C937,-344 972,-356 1014,-356C1044,-356 1074,-353 1104,-348l0,-129C1064,-487 1024,-492 985,-492C908,-492 847,-472 800,-433C753,-394 709,-321 670,-215l-150,387l-362,-664l-178,0l464,836l-172,444C247,854 222,900 199,927C176,954 150,967 121,967C96,967 75,963 57,956l0,129C90,1096 130,1102 178,1102z"/>
<glyph unicode="&#x3C8;" horiz-adv-x="1542" d="M858,1554l0,-1431C983,133 1080,177 1148,254C1215,331 1249,437 1249,573C1249,653 1245,732 1236,811C1227,889 1211,984 1186,1096l166,0C1394,915 1415,743 1415,580C1415,396 1368,253 1273,151C1178,49 1039,-7 858,-18l0,-474l-164,0l0,474C518,-12 386,39 297,136C208,233 164,372 164,553l0,543l166,0l0,-549C330,417 360,316 420,243C480,170 571,130 694,121l0,1433z"/>
<glyph unicode="&#x3C9;" horiz-adv-x="1583" d="M500,-20C379,-20 284,29 217,128C149,227 115,361 115,530C115,634 124,729 143,815C161,900 193,994 238,1096l172,0C365,992 333,898 314,813C295,728 285,633 285,528C285,399 305,299 345,227C385,155 441,119 512,119C575,119 624,143 659,191C694,238 711,304 711,387l0,311l161,0l0,-311C872,302 890,236 925,189C960,142 1009,119 1071,119C1142,119 1198,155 1238,227C1278,299 1298,399 1298,528C1298,629 1289,722 1271,809C1252,896 1220,991 1174,1096l172,0C1389,999 1421,906 1440,819C1459,731 1468,635 1468,530C1468,362 1434,228 1367,129C1299,30 1204,-20 1083,-20C936,-20 840,41 795,162l-9,0C743,41 647,-20 500,-20z"/>
<glyph unicode="&#x3CA;" horiz-adv-x="694" d="M334,1096l0,-774C334,253 346,201 371,168C395,134 436,117 494,117C519,117 548,119 582,124C615,128 641,132 659,137l0,-127C638,1 611,-6 576,-11C541,-17 506,-20 473,-20C366,-20 289,8 241,64C192,120 168,204 168,317l0,779M9,1393C9,1428 18,1453 36,1468C53,1483 74,1491 99,1491C124,1491 146,1483 165,1468C183,1453 192,1428 192,1393C192,1360 183,1335 165,1319C146,1302 124,1294 99,1294C74,1294 53,1302 36,1319C18,1335 9,1360 9,1393M390,1393C390,1428 399,1453 417,1468C434,1483 455,1491 480,1491C505,1491 526,1483 545,1468C563,1453 572,1428 572,1393C572,1360 563,1335 545,1319C526,1302 505,1294 480,1294C455,1294 434,1302 417,1319C399,1335 390,1360 390,1393z"/>
<glyph unicode="&#x3CB;" horiz-adv-x="1247" d="M627,-20C473,-20 357,22 280,105C203,188 164,319 164,496l0,600l166,0l0,-592C330,376 356,280 409,215C462,150 539,117 641,117C752,117 835,157 889,236C942,315 969,439 969,606C969,693 964,773 955,848C946,923 930,1005 907,1096l166,0C1097,1000 1114,916 1123,845C1132,774 1137,691 1137,598C1137,386 1094,230 1008,130C922,30 795,-20 627,-20M366,1393C366,1428 375,1453 393,1468C410,1483 431,1491 456,1491C481,1491 503,1483 522,1468C540,1453 549,1428 549,1393C549,1360 540,1335 522,1319C503,1302 481,1294 456,1294C431,1294 410,1302 393,1319C375,1335 366,1360 366,1393M747,1393C747,1428 756,1453 774,1468C791,1483 812,1491 837,1491C862,1491 883,1483 902,1468C920,1453 929,1428 929,1393C929,1360 920,1335 902,1319C883,1302 862,1294 837,1294C812,1294 791,1302 774,1319C756,1335 747,1360 747,1393z"/>
<glyph unicode="&#x3CC;" horiz-adv-x="1237" d="M1122,549C1122,370 1077,231 987,131C897,30 773,-20 614,-20C516,-20 429,3 353,49C277,95 218,161 177,247C136,333 115,434 115,549C115,728 160,867 249,967C338,1066 462,1116 621,1116C774,1116 896,1065 987,963C1077,861 1122,723 1122,549M287,549C287,409 315,302 371,229C427,156 509,119 618,119C727,119 809,156 866,229C922,302 950,408 950,549C950,688 922,794 866,867C809,939 726,975 616,975C507,975 425,939 370,868C315,797 287,690 287,549M541,1270C559,1318 577,1380 595,1456C612,1531 625,1596 633,1651l184,0l0,-23C805,1579 781,1515 745,1436C708,1357 674,1292 641,1241l-100,0z"/>
<glyph unicode="&#x3CD;" horiz-adv-x="1247" d="M627,-20C473,-20 357,22 280,105C203,188 164,319 164,496l0,600l166,0l0,-592C330,376 356,280 409,215C462,150 539,117 641,117C752,117 835,157 889,236C942,315 969,439 969,606C969,693 964,773 955,848C946,923 930,1005 907,1096l166,0C1097,1000 1114,916 1123,845C1132,774 1137,691 1137,598C1137,386 1094,230 1008,130C922,30 795,-20 627,-20M547,1270C565,1318 583,1380 601,1456C618,1531 631,1596 639,1651l184,0l0,-23C811,1579 787,1515 751,1436C714,1357 680,1292 647,1241l-100,0z"/>
<glyph unicode="&#x3CE;" horiz-adv-x="1583" d="M500,-20C379,-20 284,29 217,128C149,227 115,361 115,530C115,634 124,729 143,815C161,900 193,994 238,1096l172,0C365,992 333,898 314,813C295,728 285,633 285,528C285,399 305,299 345,227C385,155 441,119 512,119C575,119 624,143 659,191C694,238 711,304 711,387l0,311l161,0l0,-311C872,302 890,236 925,189C960,142 1009,119 1071,119C1142,119 1198,155 1238,227C1278,299 1298,399 1298,528C1298,629 1289,722 1271,809C1252,896 1220,991 1174,1096l172,0C1389,999 1421,906 1440,819C1459,731 1468,635 1468,530C1468,362 1434,228 1367,129C1299,30 1204,-20 1083,-20C936,-20 840,41 795,162l-9,0C743,41 647,-20 500,-20M709,1270C727,1318 745,1380 763,1456C780,1531 793,1596 801,1651l184,0l0,-23C973,1579 949,1515 913,1436C876,1357 842,1292 809,1241l-100,0z"/>
<glyph unicode="&#x401;" horiz-adv-x="1139" d="M1016,0l-815,0l0,1462l815,0l0,-151l-645,0l0,-471l606,0l0,-150l-606,0l0,-538l645,0M348,1731C348,1766 357,1791 375,1806C392,1821 413,1829 438,1829C463,1829 485,1821 504,1806C522,1791 531,1766 531,1731C531,1698 522,1673 504,1657C485,1640 463,1632 438,1632C413,1632 392,1640 375,1657C357,1673 348,1698 348,1731M729,1731C729,1766 738,1791 756,1806C773,1821 794,1829 819,1829C844,1829 865,1821 884,1806C902,1791 911,1766 911,1731C911,1698 902,1673 884,1657C865,1640 844,1632 819,1632C794,1632 773,1640 756,1657C738,1673 729,1698 729,1731z"/>
<glyph unicode="&#x402;" horiz-adv-x="1503" d="M975,-20C911,-20 861,-13 825,2l0,150C862,139 910,133 971,133C1038,133 1089,154 1124,195C1159,236 1176,294 1176,369l0,131C1176,585 1154,647 1111,685C1067,722 998,741 905,741l-381,0l0,-741l-170,0l0,1311l-336,0l0,151l951,0l0,-151l-445,0l0,-418l396,0C1057,893 1162,861 1236,798C1309,734 1346,643 1346,524l0,-143C1346,254 1313,156 1248,86C1183,15 1092,-20 975,-20z"/>
<glyph unicode="&#x403;" horiz-adv-x="1065" d="M1016,1462l0,-153l-645,0l0,-1309l-170,0l0,1462M483,1604C515,1645 550,1695 587,1754C624,1813 653,1864 674,1907l202,0l0,-21C847,1843 803,1789 745,1726C687,1663 637,1614 594,1579l-111,0z"/>
<glyph unicode="&#x404;" horiz-adv-x="1309" d="M834,1331C683,1331 563,1289 474,1206C384,1123 329,1001 309,840l723,0l0,-150l-727,0C312,507 360,369 449,274C538,179 665,131 831,131C939,131 1060,149 1194,186l0,-149C1087,-1 958,-20 807,-20C586,-20 417,45 300,174C183,303 125,490 125,733C125,967 188,1151 314,1285C439,1418 613,1485 836,1485C994,1485 1132,1456 1251,1397l-71,-148C1067,1304 952,1331 834,1331z"/>
<glyph unicode="&#x405;" horiz-adv-x="1124" d="M1026,389C1026,260 979,160 886,88C793,16 666,-20 506,-20C333,-20 199,2 106,47l0,164C166,186 231,166 302,151C373,136 443,129 512,129C625,129 711,151 768,194C825,237 854,296 854,373C854,424 844,465 824,498C803,530 769,560 722,587C674,614 601,645 504,680C368,729 271,786 213,853C154,920 125,1007 125,1114C125,1227 167,1316 252,1383C337,1450 449,1483 588,1483C733,1483 867,1456 989,1403l-53,-148C815,1306 698,1331 584,1331C494,1331 424,1312 373,1273C322,1234 297,1181 297,1112C297,1061 306,1020 325,988C344,955 375,926 420,899C464,872 532,842 623,809C776,754 882,696 940,633C997,570 1026,489 1026,389z"/>
<glyph unicode="&#x408;" horiz-adv-x="547" d="M-12,-385C-75,-385 -124,-376 -160,-358l0,145C-113,-226 -63,-233 -12,-233C54,-233 104,-213 139,-173C173,-133 190,-75 190,0l0,1462l170,0l0,-1448C360,-113 328,-211 264,-280C200,-350 108,-385 -12,-385z"/>
<glyph unicode="&#x409;" horiz-adv-x="1903" d="M1827,426C1827,289 1781,183 1690,110C1598,37 1465,0 1292,0l-327,0l0,1311l-365,0C562,1018 529,784 501,610C473,436 446,307 419,224C392,140 356,78 310,38C263,-3 204,-23 133,-23C87,-23 43,-15 0,2l0,143C33,128 71,119 113,119C145,119 172,129 194,150C215,171 233,198 248,233C262,267 278,326 297,409C315,492 335,608 358,757C381,906 414,1141 457,1462l678,0l0,-624l122,0C1637,838 1827,701 1827,426M1135,147l133,0C1400,147 1497,170 1558,217C1619,263 1649,333 1649,426C1649,518 1617,585 1553,626C1489,667 1384,688 1237,688l-102,0z"/>
<glyph unicode="&#x40A;" horiz-adv-x="1952" d="M1876,426C1876,289 1831,183 1740,110C1649,37 1517,0 1343,0l-329,0l0,688l-643,0l0,-688l-170,0l0,1462l170,0l0,-622l643,0l0,622l172,0l0,-624l121,0C1686,838 1876,701 1876,426M1186,147l133,0C1450,147 1546,170 1608,217C1669,263 1700,333 1700,426C1700,517 1668,584 1604,626C1539,667 1434,688 1288,688l-102,0z"/>
<glyph unicode="&#x40B;" horiz-adv-x="1503" d="M524,893l400,0C1061,893 1165,862 1238,799C1310,736 1346,645 1346,524l0,-524l-170,0l0,502C1176,586 1155,647 1114,685C1072,722 1004,741 911,741l-387,0l0,-741l-170,0l0,1311l-336,0l0,151l1014,0l0,-151l-508,0z"/>
<glyph unicode="&#x40C;" horiz-adv-x="1253" d="M1253,0l-206,0l-676,741l0,-741l-170,0l0,1462l170,0l0,-708l659,708l195,0l-647,-710M555,1604C587,1645 622,1695 659,1754C696,1813 725,1864 746,1907l202,0l0,-21C919,1843 875,1789 817,1726C759,1663 709,1614 666,1579l-111,0z"/>
<glyph unicode="&#x40E;" horiz-adv-x="1272" d="M293,-20C219,-20 154,-10 98,10l0,166C160,147 223,133 287,133C360,133 419,150 464,184C508,217 552,280 596,373l-569,1089l188,0l432,-831C664,598 677,566 686,535l8,0C713,591 726,626 733,641l359,821l180,0l-467,-1046C749,291 699,201 654,144C609,87 558,46 502,20C445,-7 376,-20 293,-20M652,1579C529,1579 439,1603 382,1651C325,1698 294,1777 287,1886l156,0C449,1817 467,1768 498,1741C528,1714 581,1700 656,1700C725,1700 776,1715 809,1744C842,1773 862,1821 869,1886l157,0C1018,1781 984,1703 925,1654C866,1604 775,1579 652,1579z"/>
<glyph unicode="&#x40F;" horiz-adv-x="1493" d="M1292,0l-465,0l0,-381l-176,0l0,381l-450,0l0,1462l170,0l0,-1308l751,0l0,1308l170,0z"/>
<glyph unicode="&#x410;" horiz-adv-x="1296" d="M1120,0l-182,465l-586,0l-180,-465l-172,0l578,1468l143,0l575,-1468M885,618l-170,453C693,1128 670,1199 647,1282C632,1218 611,1148 584,1071l-172,-453z"/>
<glyph unicode="&#x411;" horiz-adv-x="1255" d="M1149,426C1149,281 1106,173 1020,104C933,35 803,0 629,0l-428,0l0,1462l862,0l0,-151l-692,0l0,-473l227,0C727,838 831,823 912,794C993,764 1052,720 1091,662C1130,604 1149,525 1149,426M371,147l239,0C737,147 829,169 887,212C944,255 973,327 973,426C973,521 944,588 885,628C826,668 724,688 578,688l-207,0z"/>
<glyph unicode="&#x412;" horiz-adv-x="1327" d="M201,1462l413,0C808,1462 948,1433 1035,1375C1122,1317 1165,1225 1165,1100C1165,1013 1141,942 1093,886C1044,829 974,793 881,776l0,-10C1103,728 1214,611 1214,416C1214,285 1170,183 1082,110C993,37 870,0 711,0l-510,0M371,836l280,0C771,836 857,855 910,893C963,930 989,994 989,1083C989,1165 960,1224 901,1261C842,1297 749,1315 621,1315l-250,0M371,692l0,-547l305,0C794,145 883,168 943,214C1002,259 1032,331 1032,428C1032,519 1002,585 941,628C880,671 787,692 662,692z"/>
<glyph unicode="&#x413;" horiz-adv-x="1065" d="M1016,1462l0,-153l-645,0l0,-1309l-170,0l0,1462z"/>
<glyph unicode="&#x414;" horiz-adv-x="1399" d="M1354,-381l-162,0l0,381l-1016,0l0,-381l-162,0l0,535l113,0C230,327 318,537 391,784C464,1031 504,1257 512,1462l657,0l0,-1308l185,0M999,154l0,1155l-333,0C654,1148 614,954 545,728C476,501 396,310 305,154z"/>
<glyph unicode="&#x415;" horiz-adv-x="1139" d="M1016,0l-815,0l0,1462l815,0l0,-151l-645,0l0,-471l606,0l0,-150l-606,0l0,-538l645,0z"/>
<glyph unicode="&#x416;" horiz-adv-x="1729" d="M598,752l-575,710l190,0l569,-708l0,708l164,0l0,-708l570,708l190,0l-576,-708l594,-754l-196,0l-582,741l0,-741l-164,0l0,741l-581,-741l-199,0z"/>
<glyph unicode="&#x417;" horiz-adv-x="1190" d="M1049,1120C1049,1024 1019,946 958,886C897,826 812,788 705,772l0,-8C827,747 920,709 983,649C1046,589 1077,511 1077,414C1077,277 1026,171 924,95C822,18 678,-20 492,-20C322,-20 183,6 74,59l0,158C138,186 207,163 282,146C356,129 427,121 496,121C628,121 728,146 796,196C863,246 897,318 897,412C897,501 860,569 785,615C710,661 598,684 449,684l-218,0l0,143l209,0C577,827 683,852 758,901C833,950 870,1018 870,1106C870,1177 843,1234 789,1277C735,1320 662,1341 571,1341C498,1341 431,1333 372,1316C313,1299 244,1266 166,1217l-84,114C149,1381 225,1419 309,1445C392,1470 479,1483 569,1483C719,1483 837,1450 922,1385C1007,1319 1049,1231 1049,1120z"/>
<glyph unicode="&#x418;" horiz-adv-x="1561" d="M203,1462l159,0l0,-813C362,499 357,363 348,242l8,0l820,1220l186,0l0,-1462l-160,0l0,805C1202,939 1208,1080 1219,1227l-9,0l-821,-1227l-186,0z"/>
<glyph unicode="&#x419;" horiz-adv-x="1561" d="M203,1462l159,0l0,-813C362,499 357,363 348,242l8,0l820,1220l186,0l0,-1462l-160,0l0,805C1202,939 1208,1080 1219,1227l-9,0l-821,-1227l-186,0M809,1579C686,1579 596,1603 539,1651C482,1698 451,1777 444,1886l156,0C606,1817 624,1768 655,1741C685,1714 738,1700 813,1700C882,1700 933,1715 966,1744C999,1773 1019,1821 1026,1886l157,0C1175,1781 1141,1703 1082,1654C1023,1604 932,1579 809,1579z"/>
<glyph unicode="&#x41A;" horiz-adv-x="1253" d="M1253,0l-206,0l-676,741l0,-741l-170,0l0,1462l170,0l0,-708l659,708l195,0l-647,-710z"/>
<glyph unicode="&#x41B;" horiz-adv-x="1442" d="M1241,0l-170,0l0,1311l-475,0l-31,-240C524,752 489,518 458,371C427,223 386,120 335,62C284,4 217,-24 133,-23C84,-23 39,-15 0,2l0,143C36,128 74,119 113,119C148,119 179,134 206,163C232,192 255,242 276,314C296,385 322,521 353,722C384,922 418,1169 455,1462l786,0z"/>
<glyph unicode="&#x41C;" horiz-adv-x="1849" d="M848,0l-496,1296l-8,0C353,1193 358,1071 358,930l0,-930l-157,0l0,1462l256,0l463,-1206l8,0l467,1206l254,0l0,-1462l-170,0l0,942C1479,1050 1484,1167 1493,1294l-8,0l-500,-1294z"/>
<glyph unicode="&#x41D;" horiz-adv-x="1511" d="M1311,0l-170,0l0,688l-770,0l0,-688l-170,0l0,1462l170,0l0,-622l770,0l0,622l170,0z"/>
<glyph unicode="&#x41E;" horiz-adv-x="1595" d="M1470,733C1470,499 1411,315 1293,181C1174,47 1010,-20 799,-20C584,-20 418,46 301,178C184,309 125,495 125,735C125,973 184,1158 301,1289C418,1420 585,1485 801,1485C1011,1485 1175,1418 1293,1285C1411,1152 1470,968 1470,733M305,733C305,535 347,385 432,283C516,180 638,129 799,129C961,129 1083,180 1166,282C1249,384 1290,534 1290,733C1290,930 1249,1079 1167,1181C1084,1282 962,1333 801,1333C639,1333 516,1282 432,1180C347,1077 305,928 305,733z"/>
<glyph unicode="&#x41F;" horiz-adv-x="1493" d="M1292,0l-170,0l0,1311l-751,0l0,-1311l-170,0l0,1462l1091,0z"/>
<glyph unicode="&#x420;" horiz-adv-x="1233" d="M1128,1036C1128,888 1078,774 977,695C876,615 731,575 543,575l-172,0l0,-575l-170,0l0,1462l379,0C945,1462 1128,1320 1128,1036M371,721l153,0C675,721 784,745 851,794C918,843 952,921 952,1028C952,1125 920,1197 857,1244C794,1291 695,1315 561,1315l-190,0z"/>
<glyph unicode="&#x421;" horiz-adv-x="1292" d="M827,1331C666,1331 540,1278 447,1171C354,1064 307,917 307,731C307,540 352,392 442,288C531,183 659,131 825,131C927,131 1043,149 1174,186l0,-149C1073,-1 948,-20 799,-20C584,-20 418,45 301,176C184,307 125,492 125,733C125,884 153,1016 210,1129C266,1242 347,1330 454,1391C560,1452 685,1483 829,1483C982,1483 1116,1455 1231,1399l-72,-146C1048,1305 938,1331 827,1331z"/>
<glyph unicode="&#x422;" horiz-adv-x="1133" d="M651,0l-170,0l0,1311l-463,0l0,151l1096,0l0,-151l-463,0z"/>
<glyph unicode="&#x423;" horiz-adv-x="1272" d="M293,-20C219,-20 154,-10 98,10l0,166C160,147 223,133 287,133C360,133 419,150 464,184C508,217 552,280 596,373l-569,1089l188,0l432,-831C664,598 677,566 686,535l8,0C713,591 726,626 733,641l359,821l180,0l-467,-1046C749,291 699,201 654,144C609,87 558,46 502,20C445,-7 376,-20 293,-20z"/>
<glyph unicode="&#x424;" horiz-adv-x="1634" d="M731,1483l172,0l0,-180l70,0C1087,1303 1186,1280 1270,1235C1353,1190 1417,1126 1462,1043C1506,960 1528,866 1528,760C1528,649 1503,551 1454,465C1404,378 1336,313 1250,270C1163,227 1061,205 944,205l-41,0l0,-225l-172,0l0,225l-45,0C569,205 467,227 381,271C295,315 228,380 179,467C130,554 106,651 106,758C106,863 129,957 174,1040C219,1123 283,1187 367,1234C451,1280 550,1303 664,1303l67,0M903,348l25,0C1062,348 1166,385 1241,458C1315,531 1352,632 1352,762C1352,885 1318,982 1249,1052C1180,1122 1084,1157 961,1157l-58,0M731,1157l-57,0C553,1157 457,1122 388,1051C318,980 283,884 283,762C283,631 320,529 394,457C468,384 572,348 707,348l24,0z"/>
<glyph unicode="&#x425;" horiz-adv-x="1182" d="M1174,0l-193,0l-393,643l-400,-643l-180,0l486,764l-453,698l188,0l363,-579l366,579l181,0l-453,-692z"/>
<glyph unicode="&#x426;" horiz-adv-x="1509" d="M1292,154l172,0l0,-535l-161,0l0,381l-1102,0l0,1462l170,0l0,-1308l751,0l0,1308l170,0z"/>
<glyph unicode="&#x427;" horiz-adv-x="1423" d="M1223,0l-170,0l0,604C954,569 871,545 805,532C739,519 671,512 600,512C462,512 356,544 282,607C207,670 170,762 170,881l0,581l170,0l0,-561C340,820 361,761 404,722C446,683 515,664 610,664C675,664 737,669 796,679C855,688 940,711 1053,748l0,714l170,0z"/>
<glyph unicode="&#x428;" horiz-adv-x="2114" d="M1913,0l-1712,0l0,1462l170,0l0,-1308l600,0l0,1308l170,0l0,-1308l600,0l0,1308l172,0z"/>
<glyph unicode="&#x429;" horiz-adv-x="2116" d="M201,0l0,1462l170,0l0,-1308l583,0l0,1308l172,0l0,-1308l584,0l0,1308l170,0l0,-1308l172,0l0,-535l-162,0l0,381z"/>
<glyph unicode="&#x42A;" horiz-adv-x="1409" d="M1303,426C1303,289 1260,183 1174,110C1087,37 961,0 795,0l-441,0l0,1311l-336,0l0,151l506,0l0,-624l244,0C942,838 1075,804 1166,736C1257,667 1303,564 1303,426M524,147l252,0C897,147 985,170 1042,217C1098,263 1126,333 1126,426C1126,517 1097,583 1039,625C980,667 883,688 748,688l-224,0z"/>
<glyph unicode="&#x42B;" horiz-adv-x="1747" d="M201,0l0,1462l170,0l0,-624l239,0C784,838 917,804 1008,736C1099,667 1145,564 1145,426C1145,289 1102,183 1016,110C929,37 803,0 637,0M371,145l247,0C739,145 827,169 884,216C941,263 969,333 969,426C969,517 939,584 880,625C820,666 723,686 590,686l-219,0M1546,0l-170,0l0,1462l170,0z"/>
<glyph unicode="&#x42C;" horiz-adv-x="1317" d="M1210,426C1210,291 1165,186 1075,112C984,37 855,0 688,0l-487,0l0,1462l170,0l0,-624l291,0C840,838 976,803 1070,733C1163,662 1210,560 1210,426M371,147l299,0C913,147 1034,240 1034,426C1034,516 1003,582 941,625C878,667 778,688 641,688l-270,0z"/>
<glyph unicode="&#x42D;" horiz-adv-x="1290" d="M467,1331C352,1331 241,1306 133,1255l-72,144C176,1455 312,1483 469,1483C614,1483 738,1454 843,1395C947,1336 1026,1253 1080,1144C1134,1035 1161,907 1161,760C1161,509 1100,317 979,182C858,47 683,-20 455,-20C304,-20 176,-1 72,37l0,149C127,172 184,159 241,148C298,137 360,131 426,131C607,131 743,179 835,276C927,372 976,511 981,692l-719,0l0,152l717,0C964,997 912,1116 822,1202C731,1288 613,1331 467,1331z"/>
<glyph unicode="&#x42E;" horiz-adv-x="2150" d="M2023,733C2023,497 1966,313 1853,180C1739,47 1581,-20 1378,-20C1177,-20 1020,41 907,164C793,286 732,461 725,688l-354,0l0,-688l-170,0l0,1462l170,0l0,-622l356,0C742,1047 806,1207 919,1318C1031,1429 1183,1485 1374,1485C1579,1485 1738,1418 1852,1285C1966,1151 2023,967 2023,733M903,733C903,536 943,386 1022,283C1101,180 1218,129 1372,129C1528,129 1646,180 1725,282C1804,384 1843,534 1843,733C1843,932 1804,1081 1726,1182C1647,1283 1531,1333 1376,1333C1221,1333 1103,1282 1023,1181C943,1079 903,930 903,733z"/>
<glyph unicode="&#x42F;" horiz-adv-x="1303" d="M635,610l-383,-610l-201,0l410,639C354,673 276,725 227,794C178,863 154,950 154,1055C154,1186 199,1286 290,1357C380,1427 517,1462 700,1462l402,0l0,-1462l-170,0l0,610M932,1315l-227,0C583,1315 490,1294 427,1252C364,1210 332,1142 332,1047C332,853 458,756 711,756l221,0z"/>
<glyph unicode="&#x430;" horiz-adv-x="1139" d="M850,0l-33,156l-8,0C754,87 700,41 646,17C591,-8 523,-20 442,-20C333,-20 248,8 187,64C125,120 94,200 94,303C94,524 271,640 625,651l186,6l0,68C811,811 793,875 756,916C719,957 659,977 578,977C487,977 383,949 268,893l-51,127C271,1049 330,1072 395,1089C459,1106 523,1114 588,1114C719,1114 816,1085 879,1027C942,969 973,876 973,748l0,-748M475,117C578,117 660,145 719,202C778,259 807,338 807,440l0,99l-166,-7C509,527 414,507 356,471C297,434 268,378 268,301C268,241 286,195 323,164C359,133 410,117 475,117z"/>
<glyph unicode="&#x431;" horiz-adv-x="1221" d="M119,657C119,897 154,1084 225,1219C296,1353 408,1437 561,1470C752,1511 920,1544 1065,1569l31,-146C865,1384 699,1354 600,1331C503,1309 431,1257 383,1175C334,1093 308,981 303,840l12,0C356,896 410,940 475,972C540,1004 609,1020 680,1020C815,1020 920,976 995,889C1070,802 1108,681 1108,526C1108,355 1064,221 977,125C890,28 768,-20 612,-20C458,-20 337,39 250,157C163,275 119,442 119,657M627,119C830,119 932,249 932,508C932,755 840,879 655,879C604,879 556,869 509,848C462,827 419,799 380,764C341,729 310,694 289,657C289,482 317,348 372,257C427,165 512,119 627,119z"/>
<glyph unicode="&#x432;" horiz-adv-x="1165" d="M1065,821C1065,750 1045,696 1004,659C963,622 905,597 831,584l0,-9C924,562 993,535 1036,493C1079,451 1100,393 1100,319C1100,217 1063,138 988,83C913,28 803,0 659,0l-483,0l0,1096l481,0C929,1096 1065,1004 1065,821M934,330C934,389 912,433 867,460C822,487 747,500 643,500l-301,0l0,-361l305,0C838,139 934,203 934,330M903,805C903,858 883,896 842,919C801,941 738,952 655,952l-313,0l0,-309l281,0C726,643 798,656 840,681C882,706 903,748 903,805z"/>
<glyph unicode="&#x433;" horiz-adv-x="877" d="M836,954l-494,0l0,-954l-166,0l0,1096l660,0z"/>
<glyph unicode="&#x434;" horiz-adv-x="1171" d="M1128,-379l-161,0l0,379l-766,0l0,-379l-160,0l0,522l86,0C216,264 286,407 337,570C388,733 414,909 416,1096l555,0l0,-953l157,0M811,143l0,822l-246,0C556,817 528,667 480,516C431,364 371,240 299,143z"/>
<glyph unicode="&#x435;" horiz-adv-x="1149" d="M639,-20C477,-20 349,29 256,128C162,227 115,364 115,539C115,716 159,856 246,960C333,1064 449,1116 596,1116C733,1116 842,1071 922,981C1002,890 1042,771 1042,623l0,-105l-755,0C290,389 323,292 385,225C446,158 533,125 645,125C763,125 880,150 995,199l0,-148C936,26 881,8 829,-3C776,-14 713,-20 639,-20M594,977C506,977 436,948 384,891C331,834 300,754 291,653l573,0C864,758 841,838 794,894C747,949 681,977 594,977z"/>
<glyph unicode="&#x436;" horiz-adv-x="1507" d="M676,1094l153,0l0,-531l453,531l182,0l-458,-531l497,-563l-192,0l-482,555l0,-555l-153,0l0,555l-481,-555l-191,0l496,563l-457,531l182,0l451,-531z"/>
<glyph unicode="&#x437;" horiz-adv-x="989" d="M385,641C592,641 696,698 696,813C696,921 612,975 444,975C393,975 346,970 304,961C262,952 207,933 139,905l-59,135C193,1091 317,1116 451,1116C577,1116 676,1090 749,1039C822,987 858,916 858,827C858,704 790,624 653,586l0,-8C737,553 798,518 837,473C876,427 895,370 895,301C895,200 854,121 773,65C691,8 578,-20 434,-20C276,-20 154,4 68,51l0,152C190,146 313,117 438,117C534,117 607,134 656,167C705,200 729,247 729,309C729,436 625,500 418,500l-152,0l0,141z"/>
<glyph unicode="&#x438;" horiz-adv-x="1298" d="M332,1096l0,-695l-7,-182l-3,-57l593,934l207,0l0,-1096l-155,0l0,670l3,132l5,130l-592,-932l-207,0l0,1096z"/>
<glyph unicode="&#x439;" horiz-adv-x="1298" d="M332,1096l0,-695l-7,-182l-3,-57l593,934l207,0l0,-1096l-155,0l0,670l3,132l5,130l-592,-932l-207,0l0,1096M645,1241C522,1241 432,1265 375,1313C318,1360 287,1439 280,1548l156,0C442,1479 460,1430 491,1403C521,1376 574,1362 649,1362C718,1362 769,1377 802,1406C835,1435 855,1483 862,1548l157,0C1011,1443 977,1365 918,1316C859,1266 768,1241 645,1241z"/>
<glyph unicode="&#x43A;" horiz-adv-x="1063" d="M815,1096l182,0l-473,-529l512,-567l-194,0l-500,555l0,-555l-166,0l0,1096l166,0l0,-533z"/>
<glyph unicode="&#x43B;" horiz-adv-x="1169" d="M993,0l-168,0l0,954l-329,0C478,717 453,528 421,389C389,250 348,148 297,83C246,18 181,-14 102,-14C66,-14 37,-10 16,-2l0,123C31,117 47,115 66,115C143,115 204,196 249,358C294,520 329,766 352,1096l641,0z"/>
<glyph unicode="&#x43C;" horiz-adv-x="1505" d="M745,160l31,93l43,118l297,723l211,0l0,-1094l-147,0l0,905l-20,-58l-58,-153l-283,-694l-139,0l-283,696C362,785 337,855 324,905l0,-905l-148,0l0,1094l203,0l287,-695C695,326 721,246 745,160z"/>
<glyph unicode="&#x43D;" horiz-adv-x="1298" d="M342,1096l0,-459l614,0l0,459l166,0l0,-1096l-166,0l0,494l-614,0l0,-494l-166,0l0,1096z"/>
<glyph unicode="&#x43E;" horiz-adv-x="1237" d="M1122,549C1122,370 1077,231 987,131C897,30 773,-20 614,-20C516,-20 429,3 353,49C277,95 218,161 177,247C136,333 115,434 115,549C115,728 160,867 249,967C338,1066 462,1116 621,1116C774,1116 896,1065 987,963C1077,861 1122,723 1122,549M287,549C287,409 315,302 371,229C427,156 509,119 618,119C727,119 809,156 866,229C922,302 950,408 950,549C950,688 922,794 866,867C809,939 726,975 616,975C507,975 425,939 370,868C315,797 287,690 287,549z"/>
<glyph unicode="&#x43F;" horiz-adv-x="1272" d="M342,0l-166,0l0,1096l920,0l0,-1096l-168,0l0,952l-586,0z"/>
<glyph unicode="&#x440;" horiz-adv-x="1255" d="M686,-20C615,-20 550,-7 491,20C432,46 382,86 342,141l-12,0C338,77 342,16 342,-41l0,-451l-166,0l0,1588l135,0l23,-150l8,0C385,1006 434,1049 491,1076C548,1103 613,1116 686,1116C831,1116 944,1066 1023,967C1102,868 1141,728 1141,549C1141,369 1101,229 1021,130C940,30 829,-20 686,-20M662,975C550,975 469,944 419,882C369,820 343,721 342,586l0,-37C342,395 368,285 419,219C470,152 553,119 666,119C761,119 835,157 889,234C942,311 969,416 969,551C969,688 942,793 889,866C835,939 759,975 662,975z"/>
<glyph unicode="&#x441;" horiz-adv-x="975" d="M614,-20C455,-20 333,29 246,127C159,224 115,362 115,541C115,724 159,866 248,966C336,1066 462,1116 625,1116C678,1116 730,1110 783,1099C836,1088 877,1074 907,1059l-51,-141C819,933 779,945 736,955C693,964 654,969 621,969C398,969 287,827 287,543C287,408 314,305 369,233C423,161 503,125 610,125C701,125 795,145 891,184l0,-147C818,-1 725,-20 614,-20z"/>
<glyph unicode="&#x442;" horiz-adv-x="956" d="M915,954l-356,0l0,-954l-166,0l0,954l-352,0l0,142l874,0z"/>
<glyph unicode="&#x443;" horiz-adv-x="1032" d="M2,1096l178,0l240,-625C473,328 505,225 518,162l8,0C535,196 553,254 581,337C608,419 699,672 852,1096l178,0l-471,-1248C512,-275 458,-363 396,-414C333,-466 257,-492 166,-492C115,-492 65,-486 16,-475l0,133C53,-350 94,-354 139,-354C253,-354 334,-290 383,-162l61,156z"/>
</font>
</svg>
